<?xml version="1.0" encoding="UTF-8" standalone="no"?>
<svg
   width="493"
   height="58"
   id="svg2"
   version="1.1"
   inkscape:version="1.2.2 (b0a8486541, 2022-12-01)"
   sodipodi:docname="banner.svg"
   inkscape:output_extension="org.inkscape.output.svg.inkscape"
   inkscape:export-filename="banner.png"
   inkscape:export-xdpi="96"
   inkscape:export-ydpi="96"
   xmlns:inkscape="http://www.inkscape.org/namespaces/inkscape"
   xmlns:sodipodi="http://sodipodi.sourceforge.net/DTD/sodipodi-0.dtd"
   xmlns="http://www.w3.org/2000/svg"
   xmlns:svg="http://www.w3.org/2000/svg"
   xmlns:rdf="http://www.w3.org/1999/02/22-rdf-syntax-ns#"
   xmlns:cc="http://creativecommons.org/ns#"
   xmlns:dc="http://purl.org/dc/elements/1.1/">
  <defs
     id="defs4" />
  <sodipodi:namedview
     id="base"
     pagecolor="#ffffff"
     bordercolor="#666666"
     borderopacity="1.0"
     inkscape:pageopacity="0.0"
     inkscape:pageshadow="2"
     inkscape:zoom="2"
     inkscape:cx="295.5"
     inkscape:cy="11.75"
     inkscape:document-units="px"
     inkscape:current-layer="layer1"
     showgrid="false"
     inkscape:window-width="1920"
     inkscape:window-height="1012"
     inkscape:window-x="0"
     inkscape:window-y="0"
     inkscape:window-maximized="1"
     fit-margin-top="0"
     fit-margin-left="0"
     fit-margin-right="0"
     fit-margin-bottom="0"
     inkscape:document-rotation="0"
     inkscape:snap-center="true"
     inkscape:snap-bbox="true"
     inkscape:snap-bbox-midpoints="true"
     inkscape:snap-nodes="true"
     inkscape:bbox-paths="true"
     inkscape:showpageshadow="2"
     inkscape:pagecheckerboard="0"
     inkscape:deskcolor="#d1d1d1" />
  <metadata
     id="metadata7">
    <rdf:RDF>
      <cc:Work
         rdf:about="">
        <dc:format>image/svg+xml</dc:format>
        <dc:type
           rdf:resource="http://purl.org/dc/dcmitype/StillImage" />
        <dc:title />
      </cc:Work>
    </rdf:RDF>
  </metadata>
  <g
     inkscape:label="Layer 1"
     inkscape:groupmode="layer"
     id="layer1"
     transform="translate(0,-994.36218)">
    <rect
       style="fill:#ffffff;fill-opacity:1;stroke:none"
       id="rect2830"
       width="493"
       height="58"
       x="-0.36694327"
       y="994.3913" />
    <path
       style="fill:#000000;stroke-width:0.0200902"
       d="m 337.56562,1041.7367 -0.20051,-0.029 -0.18374,-0.051 -0.18373,-0.051 -0.17015,-0.082 -0.17015,-0.082 -0.15537,-0.152 -0.15538,-0.1521 -0.0635,-0.1297 -0.0635,-0.1298 -0.0606,-0.2651 -0.0606,-0.2651 -0.0535,-0.154 -0.0535,-0.154 -0.0686,-0.1436 -0.0686,-0.1436 -0.10458,-0.1544 -0.10457,-0.1542 -0.14475,-0.1415 -0.14474,-0.1414 -0.13959,-0.092 -0.13959,-0.092 -0.14156,-0.07 -0.14157,-0.07 -0.17965,-0.063 -0.17965,-0.063 -0.23493,-0.058 -0.23495,-0.058 -0.45503,-0.083 -0.45504,-0.082 -0.21235,-0.049 -0.21235,-0.049 -0.16179,-0.053 -0.16179,-0.053 -0.13111,-0.058 -0.13109,-0.058 -0.16502,-0.1084 -0.16502,-0.1083 -0.1065,-0.115 -0.10651,-0.1148 -0.0558,-0.1164 -0.0558,-0.1163 -0.0135,-0.097 -0.0135,-0.097 0.0236,-0.1161 0.0236,-0.1161 0.0691,-0.1397 0.0691,-0.1397 0.1308,-0.1719 0.13081,-0.172 0.35967,-0.3733 0.35967,-0.3733 0.17424,-0.2004 0.17423,-0.2003 0.0803,-0.1325 0.0803,-0.1326 0.0427,-0.113 0.0428,-0.1131 0.0132,-0.098 0.0132,-0.098 -0.0331,-0.1276 -0.0332,-0.1278 -0.0617,-0.095 -0.0618,-0.095 -0.12465,-0.1139 -0.12464,-0.1139 -0.16898,-0.1088 -0.16897,-0.1087 -0.26584,-0.1334 -0.26584,-0.1335 -0.30046,-0.1247 -0.30047,-0.1248 -0.37703,-0.1406 -0.37703,-0.1407 -1.84037,-0.6038 -1.84037,-0.6037 -0.44493,-0.1649 -0.44492,-0.1649 -0.32359,-0.1382 -0.32358,-0.1382 -0.23257,-0.1203 -0.23258,-0.1203 -0.1718,-0.1127 -0.1718,-0.1126 -0.12388,-0.1222 -0.12388,-0.1223 -0.035,-0.1039 -0.035,-0.1039 0.0138,-0.074 0.0138,-0.074 0.0529,-0.096 0.0529,-0.096 0.12232,-0.1118 0.1223,-0.1118 0.16179,-0.104 0.1618,-0.1038 0.2242,-0.1216 0.22419,-0.1216 0.74999,-0.348 0.75,-0.348 0.22913,-0.1245 0.22913,-0.1245 0.16907,-0.1105 0.16907,-0.1106 0.12071,-0.1173 0.12072,-0.1172 0.0487,-0.1034 0.0487,-0.1034 2e-4,-0.076 2e-4,-0.076 -0.0309,-0.073 -0.0309,-0.073 -0.049,-0.064 -0.049,-0.064 -0.21833,-0.094 -0.21835,-0.094 -0.23949,-0.088 -0.23948,-0.088 -0.36723,-0.1098 -0.36723,-0.11 -0.64716,-0.1575 -0.64716,-0.1577 -0.75217,-0.1719 -0.75216,-0.1719 -0.37244,-0.098 -0.37244,-0.098 -0.30118,-0.092 -0.30117,-0.092 -0.29325,-0.1107 -0.29325,-0.1106 -0.24593,-0.1188 -0.24594,-0.1188 -0.21323,-0.1369 -0.21323,-0.137 -0.17532,-0.166 -0.17533,-0.166 -0.088,-0.1215 -0.088,-0.1216 -0.0707,-0.1479 -0.0707,-0.1479 -0.0329,-0.1197 -0.0329,-0.1198 -0.0104,-0.2494 -0.0104,-0.2495 0.0334,-0.1895 0.0334,-0.1895 0.0839,-0.2496 0.0839,-0.2495 0.1678,-0.3315 0.1678,-0.3315 0.26175,-0.387 0.26174,-0.387 0.17368,-0.2196 0.17368,-0.2194 7.05151,-7.1214 7.05151,-7.1212 0.18357,-0.1457 0.18358,-0.1457 0.17236,-0.1109 0.17236,-0.1109 0.19781,-0.1003 0.1978,-0.1002 0.20586,-0.079 0.20586,-0.079 0.18197,-0.052 0.18197,-0.052 0.27303,-0.052 0.27302,-0.052 0.44674,-0.01 0.44674,-0.01 0.2712,0.034 0.27121,0.034 0.30714,0.077 0.30715,0.077 0.23515,0.091 0.23514,0.09 0.21895,0.1106 0.21894,0.1105 0.20951,0.1375 0.20951,0.1377 0.16029,0.1262 0.16029,0.1262 7.25832,7.3204 7.25831,7.3204 0.23375,0.2435 0.23373,0.2436 0.17111,0.2096 0.1711,0.2095 0.15227,0.2265 0.15228,0.2265 0.11748,0.2294 0.11748,0.2294 0.0724,0.2227 0.0724,0.2227 0.03,0.1996 0.03,0.1995 2.1e-4,0.1133 2e-4,0.1133 -0.0217,0.154 -0.0217,0.1538 -0.0498,0.1696 -0.0498,0.1696 -0.092,0.181 -0.092,0.1811 -0.10064,0.1436 -0.10064,0.1437 -0.15553,0.1678 -0.15554,0.1678 -0.15167,0.1354 -0.15169,0.1354 -0.22246,0.1647 -0.22246,0.1647 -0.22246,0.1389 -0.22246,0.1388 -0.18714,0.1039 -0.18715,0.1038 -0.34546,0.1706 -0.34548,0.1707 -0.29657,0.1301 -0.29656,0.1301 -0.47526,0.1865 -0.47526,0.1864 -0.48537,0.1736 -0.48538,0.1735 -1.84037,0.6034 -1.84036,0.6036 -0.44197,0.1635 -0.44196,0.1635 -0.2861,0.1206 -0.28609,0.1208 -0.29239,0.1427 -0.29239,0.1428 -0.0785,0.077 -0.0785,0.077 -0.0382,0.083 -0.0382,0.083 -3.4e-4,0.1109 -3.4e-4,0.1108 0.052,0.1029 0.0519,0.1028 0.11491,0.1164 0.11492,0.1163 0.14157,0.1037 0.14157,0.1036 0.30336,0.1773 0.30336,0.1772 0.5157,0.2787 0.51571,0.2787 0.19132,0.117 0.19132,0.1171 0.19576,0.1455 0.19576,0.1455 0.13393,0.1428 0.13392,0.1427 0.0727,0.1452 0.0728,0.1453 0.0103,0.1269 0.0103,0.1269 -0.0725,0.2136 -0.0725,0.2137 -0.10176,0.2009 -0.10177,0.2009 -0.0735,0.1139 -0.0735,0.1139 -0.13603,0.16 -0.13604,0.16 -0.13946,0.112 -0.13947,0.112 -0.12027,0.076 -0.12027,0.076 -0.18309,0.085 -0.18308,0.085 -0.24392,0.08 -0.24393,0.08 -0.42346,0.1012 -0.42347,0.1013 -0.38425,0.092 -0.38425,0.092 -0.34381,0.1095 -0.3438,0.1096 -0.29965,0.1266 -0.29965,0.1267 -0.22617,0.1222 -0.22617,0.1221 -0.28313,0.1864 -0.28314,0.1863 -0.14148,0.1124 -0.14146,0.1125 -0.19413,0.168 -0.19414,0.1681 -0.15228,0.1572 -0.15229,0.1574 -0.0554,0.093 -0.0554,0.093 -0.0191,0.084 -0.0192,0.084 0.0242,0.085 0.0241,0.085 0.0789,0.089 0.0789,0.089 0.12563,0.082 0.12564,0.082 0.37929,0.188 0.37929,0.1879 0.11903,0.079 0.11902,0.079 0.0706,0.081 0.0706,0.081 0.0247,0.087 0.0247,0.087 -0.0147,0.066 -0.0147,0.067 -0.0462,0.089 -0.0463,0.09 -0.0724,0.083 -0.0724,0.083 -0.20753,0.1387 -0.20754,0.1388 -0.22535,0.1313 -0.22535,0.1314 -0.27013,0.1398 -0.27014,0.1399 -0.28313,0.1236 -0.28314,0.1236 -0.28075,0.1081 -0.28077,0.1082 -0.27305,0.091 -0.27306,0.089 -0.32592,0.09 -0.32593,0.089 -0.3438,0.068 -0.3438,0.067 -0.2528,0.033 -0.2528,0.033 -0.4247,0.01 -0.4247,0.01 -0.20052,-0.029 z m 1.1207,-11.4241 0.091,-0.047 0.12134,-0.08 0.12135,-0.08 0.12851,-0.1209 0.12851,-0.121 0.0501,-0.098 0.0502,-0.098 -0.0122,-0.065 -0.0123,-0.065 -0.035,-0.031 -0.035,-0.031 -0.0525,-0.019 -0.0524,-0.019 -0.41265,-0.073 -0.41266,-0.073 -1.07186,-0.2095 -1.07187,-0.2095 -0.81906,-0.1691 -0.81906,-0.1693 -0.77862,-0.1701 -0.77862,-0.1703 -0.4677,-0.1171 -0.4677,-0.1169 -0.15924,-0.053 -0.15924,-0.053 -0.11901,0.01 -0.119,0.01 -0.0255,0.034 -0.0255,0.034 0.0105,0.04 0.0105,0.04 0.10072,0.087 0.10073,0.087 0.209,0.1228 0.209,0.1229 0.3703,0.1769 0.37031,0.1768 0.46007,0.1911 0.46008,0.191 0.43988,0.1629 0.43989,0.1628 0.4117,0.1374 0.41171,0.1374 0.28602,0.088 0.28601,0.088 0.37414,0.1004 0.37414,0.1003 0.32359,0.07 0.32357,0.07 0.26291,0.04 0.26291,0.04 h 0.31347 0.31347 z m 0.35867,-14.7275 1.7642,-1.1008 h 0.0113 0.0113 l 1.13333,0.5905 1.13334,0.5905 0.006,-0.01 0.006,-0.01 0.26488,-1.5778 0.26486,-1.5779 v -0.014 -0.014 l 1.36867,1.0808 1.36866,1.0808 0.0468,-0.058 0.0468,-0.058 0.0428,-0.1197 0.0427,-0.1198 0.0103,-0.2594 0.0103,-0.2595 -0.0342,-0.1792 -0.0342,-0.1791 -0.059,-0.1502 -0.059,-0.1501 -0.0795,-0.1176 -0.0795,-0.1177 -2.7058,-2.7129 -2.70582,-2.7128 -0.21335,-0.2031 -0.21334,-0.203 -0.18171,-0.1222 -0.18173,-0.1223 -0.18921,-0.093 -0.1892,-0.094 -0.20893,-0.069 -0.20892,-0.069 -0.19847,-0.044 -0.19848,-0.044 h -0.46514 -0.46515 l -0.20522,0.044 -0.20524,0.044 -0.20765,0.071 -0.20765,0.071 -0.1635,0.081 -0.1635,0.081 -0.14157,0.09 -0.14157,0.091 -0.14156,0.115 -0.14157,0.115 -1.9725,1.9528 -1.97251,1.9527 -0.45602,0.4691 -0.45602,0.469 -0.35266,0.3707 -0.35267,0.3706 -0.0931,0.1083 -0.0931,0.1084 -0.0949,0.1397 -0.0949,0.1396 -0.0773,0.1597 -0.0774,0.1597 -0.0508,0.1596 -0.0508,0.1598 -0.0229,0.1895 -0.0229,0.1896 0.0213,0.1497 0.0213,0.1497 0.0226,0.07 0.0226,0.07 0.0575,0.1134 0.0575,0.1135 0.10138,0.1 0.10137,0.1001 0.12654,0.059 0.12653,0.059 0.10718,0.022 0.10716,0.022 h 1.58152 1.58152 l 0.96871,-1.6566 0.96871,-1.6566 0.0141,-0.01 0.0141,-0.01 0.56134,2.2295 0.56133,2.2296 0.041,0.1651 0.041,0.1651 0.0632,-0.037 0.0632,-0.037 1.76422,-1.1007 z m -10.76602,21.8525 -0.14375,-0.035 -0.14949,-0.07 -0.14949,-0.07 -0.12569,-0.094 -0.12569,-0.094 -0.12371,-0.1332 -0.12371,-0.1332 -0.0681,-0.1202 -0.0681,-0.1202 -0.0314,-0.1188 -0.0314,-0.1188 2.4e-4,-0.091 2.4e-4,-0.09 0.0271,-0.1 0.0271,-0.1 0.0531,-0.1031 0.0531,-0.1032 0.10058,-0.1193 0.10058,-0.1192 0.17502,-0.1296 0.17502,-0.1297 0.19509,-0.1 0.1951,-0.1 0.19704,-0.072 0.19704,-0.072 0.20743,-0.05 0.20744,-0.05 0.22856,-0.03 0.22855,-0.029 h 0.21637 0.21637 l 0.18201,0.022 0.18203,0.022 0.17189,0.048 0.1719,0.048 0.18811,0.093 0.1881,0.092 0.15244,0.1405 0.15244,0.1405 -0.0114,0.057 -0.0115,0.056 -0.0929,0.183 -0.0929,0.1829 -0.0921,0.1409 -0.092,0.1408 -0.12671,0.1597 -0.12671,0.1596 -0.19934,0.1907 -0.19935,0.1906 -0.091,0.071 -0.091,0.071 -0.15167,0.1 -0.15168,0.1 -0.15168,0.076 -0.15168,0.075 -0.13146,0.049 -0.13145,0.049 -0.17191,0.038 -0.1719,0.038 h -0.23257 -0.23257 l -0.14375,-0.035 z m 22.56188,-0.4285 -0.11123,-0.026 -0.0809,-0.026 -0.0809,-0.026 -0.14146,-0.072 -0.14144,-0.072 -0.13359,-0.1243 -0.13359,-0.1244 -0.0618,-0.1151 -0.0618,-0.1152 -0.0323,-0.1084 -0.0323,-0.1084 v -0.1319 -0.1319 l 0.0311,-0.1189 0.0311,-0.1189 0.0604,-0.1281 0.0604,-0.128 0.0735,-0.1015 0.0735,-0.1015 0.10703,-0.1208 0.10704,-0.1209 0.05,-0.027 0.0499,-0.027 0.14822,0.035 0.1482,0.035 0.1719,0.059 0.17191,0.059 0.16179,0.08 0.16179,0.08 0.091,0.061 0.091,0.06 0.12875,0.1015 0.12875,0.1015 0.11005,0.1298 0.11005,0.1297 0.0898,0.1795 0.0898,0.1796 0.0244,0.1449 0.0244,0.1448 -0.0243,0.1146 -0.0243,0.1147 -0.0359,0.05 -0.0359,0.05 -0.19164,0.094 -0.19163,0.094 -0.1618,0.043 -0.16179,0.043 -0.27302,0.01 -0.27302,0.01 z m 2.33585,-2.967 -0.20223,-0.017 -0.2528,-0.032 -0.2528,-0.032 -0.25734,-0.049 -0.25736,-0.049 -0.2078,-0.061 -0.2078,-0.061 -0.14156,-0.067 -0.14157,-0.067 -0.0648,-0.063 -0.0648,-0.063 -0.0125,-0.039 -0.0125,-0.039 0.0346,-0.1043 0.0346,-0.1044 0.0707,-0.1397 0.0707,-0.1397 0.079,-0.1151 0.079,-0.1149 0.12398,-0.1307 0.12397,-0.1309 0.17341,-0.1286 0.17342,-0.1286 0.21408,-0.1076 0.21409,-0.1075 0.22724,-0.072 0.22725,-0.073 0.23617,-0.042 0.23616,-0.042 h 0.34381 0.3438 l 0.1618,0.025 0.16178,0.025 0.22832,0.059 0.22831,0.059 0.18179,0.077 0.18179,0.078 0.17477,0.1068 0.17478,0.1068 0.19662,0.1896 0.19664,0.1896 0.0975,0.1497 0.0974,0.1496 0.0662,0.1497 0.0662,0.1497 -0.0126,0.07 -0.0126,0.07 -0.0358,0.07 -0.0358,0.07 -0.1041,0.096 -0.10411,0.096 -0.16578,0.077 -0.16577,0.077 -0.19545,0.053 -0.19545,0.053 -0.2697,0.042 -0.26969,0.042 -0.68762,0.01 -0.6876,0.01 -0.20224,-0.017 z"
       id="path24070" />
    <text
       xml:space="preserve"
       style="font-style:normal;font-variant:normal;font-weight:normal;font-stretch:normal;font-size:16px;font-family:'Liberation Serif';-inkscape-font-specification:'Liberation Serif';letter-spacing:0px;word-spacing:0px;fill:#000000;stroke-linecap:round;paint-order:markers fill stroke"
       x="370.04919"
       y="1028.5789"
       id="text1"><tspan
         sodipodi:role="line"
         id="tspan1"
         x="370.04919"
         y="1028.5789"
         style="font-style:normal;font-variant:normal;font-weight:normal;font-stretch:normal;font-family:'Linux Libertine G';-inkscape-font-specification:'Linux Libertine G'">INKSCAPE 1.3</tspan></text>
  </g>
</svg>
