999
dxfrw 0.6.3
  0
SECTION
  2
HEADER
  9
$ACADVER
  1
AC1021
  9
$DWGCODEPAGE
  3
ANSI_1250
  9
$INSBASE
 10
1470.184244857629
 20
288.299390501204
 30
0
  9
$EXTMIN
 10
-2.398081733190338e-13
 20
-247.0000000000017
 30
0
  9
$EXTMAX
 10
299.996168582378
 20
16.08812260536429
 30
0
  9
$LIMMIN
 10
0
 20
0
  9
$LIMMAX
 10
2000
 20
2000
  9
$ORTHOMODE
 70
    0
  9
$REGENMODE
 70
    1
  9
$FILLMODE
 70
    1
  9
$QTEXTMODE
 70
    0
  9
$MIRRTEXT
 70
    1
  9
$LTSCALE
 40
0.4
  9
$ATTMODE
 70
    1
  9
$TEXTSIZE
 40
4
  9
$TRACEWID
 40
0.05
  9
$TEXTSTYLE
  7
STANDARD
  9
$CLAYER
  8
0
  9
$CELTYPE
  6
BYLAYER
  9
$CECOLOR
 62
  256
  9
$CELTSCALE
 40
1
  9
$DISPSILH
 70
    0
  9
$DIMSCALE
 40
1
  9
$DIMASZ
 40
4
  9
$DIMEXO
 40
0
  9
$DIMDLI
 40
10
  9
$DIMRND
 40
0.05
  9
$DIMDLE
 40
0
  9
$DIMEXE
 40
0
  9
$DIMTP
 40
0
  9
$DIMTM
 40
0
  9
$DIMTXT
 40
4
  9
$DIMCEN
 40
-3
  9
$DIMTSZ
 40
0
  9
$DIMTOL
 70
    0
  9
$DIMLIM
 70
    0
  9
$DIMTIH
 70
    0
  9
$DIMTOH
 70
    0
  9
$DIMSE1
 70
    0
  9
$DIMSE2
 70
    0
  9
$DIMTAD
 70
    1
  9
$DIMZIN
 70
    8
  9
$DIMBLK
  1

  9
$DIMASO
 70
    1
  9
$DIMSHO
 70
    1
  9
$DIMPOST
  1

  9
$DIMAPOST
  1

  9
$DIMALT
 70
    0
  9
$DIMALTD
 70
    2
  9
$DIMALTF
 40
25.4
  9
$DIMLFAC
 40
1
  9
$DIMTOFL
 70
    1
  9
$DIMTVP
 40
0
  9
$DIMTIX
 70
    0
  9
$DIMSOXD
 70
    0
  9
$DIMSAH
 70
    0
  9
$DIMBLK1
  1

  9
$DIMBLK2
  1

  9
$DIMSTYLE
  2
STANDARD
  9
$DIMCLRD
 70
    2
  9
$DIMCLRE
 70
    2
  9
$DIMCLRT
 70
    2
  9
$DIMTFAC
 40
0.5
  9
$DIMGAP
 40
1.5
  9
$DIMJUST
 70
    0
  9
$DIMSD1
 70
    0
  9
$DIMSD2
 70
    0
  9
$DIMTOLJ
 70
    1
  9
$DIMTZIN
 70
    8
  9
$DIMALTZ
 70
    0
  9
$DIMALTTZ
 70
    0
  9
$DIMUPT
 70
    0
  9
$DIMDEC
 70
    1
  9
$DIMTDEC
 70
    1
  9
$DIMALTU
 70
    2
  9
$DIMALTTD
 70
    2
  9
$DIMTXSTY
  7
standard
  9
$DIMAUNIT
 70
    0
  9
$DIMADEC
 70
    0
  9
$DIMALTRND
 40
0
  9
$DIMAZIN
 70
    0
  9
$DIMDSEP
 70
    0
  9
$DIMATFIT
 70
    3
  9
$DIMFRAC
 70
    0
  9
$DIMLDRBLK
  1

  9
$DIMLUNIT
 70
    2
  9
$DIMLWD
 70
   -2
  9
$DIMLWE
 70
   -2
  9
$DIMTMOVE
 70
    2
  9
$DIMFXL
 40
1
  9
$DIMFXLON
 70
    0
  9
$DIMJOGANG
 40
0.7853981633974483
  9
$DIMTFILL
 70
    0
  9
$DIMTFILLCLR
 70
    0
  9
$DIMARCSYM
 70
    1
  9
$DIMLTYPE
  6
BYBLOCK
  9
$DIMLTEX1
  6
BYBLOCK
  9
$DIMLTEX2
  6
BYBLOCK
  9
$LUNITS
 70
    2
  9
$LUPREC
 70
    3
  9
$SKETCHINC
 40
0.1
  9
$FILLETRAD
 40
2
  9
$AUNITS
 70
    0
  9
$AUPREC
 70
    1
  9
$MENU
  1
acad
  9
$ELEVATION
 40
0
  9
$PELEVATION
 40
0
  9
$THICKNESS
 40
0
  9
$LIMCHECK
 70
    0
  9
$CHAMFERA
 40
0
  9
$CHAMFERB
 40
0
  9
$CHAMFERC
 40
0
  9
$CHAMFERD
 40
0.7853981633974483
  9
$SKPOLY
 70
    0
  9
$USRTIMER
 70
    1
  9
$ANGBASE
 50
0
  9
$ANGDIR
 70
    0
  9
$PDMODE
 70
    0
  9
$PDSIZE
 40
0
  9
$PLINEWID
 40
0
  9
$SPLFRAME
 70
    0
  9
$SPLINETYPE
 70
    6
  9
$SPLINESEGS
 70
    8
  9
$HANDSEED
  5
20000
  9
$SURFTAB1
 70
    6
  9
$SURFTAB2
 70
    6
  9
$SURFTYPE
 70
    6
  9
$SURFU
 70
    6
  9
$SURFV
 70
    6
  9
$UCSBASE
  2

  9
$UCSNAME
  2

  9
$UCSORG
 10
0
 20
0
 30
0
  9
$UCSXDIR
 10
1
 20
0
 30
0
  9
$UCSYDIR
 10
0
 20
1
 30
0
  9
$UCSORTHOREF
  2

  9
$UCSORTHOVIEW
 70
    0
  9
$UCSORGTOP
 10
0
 20
0
 30
0
  9
$UCSORGBOTTOM
 10
0
 20
0
 30
0
  9
$UCSORGLEFT
 10
0
 20
0
 30
0
  9
$UCSORGRIGHT
 10
0
 20
0
 30
0
  9
$UCSORGFRONT
 10
0
 20
0
 30
0
  9
$UCSORGBACK
 10
0
 20
0
 30
0
  9
$PUCSBASE
  2

  9
$PUCSNAME
  2

  9
$PUCSORG
 10
0
 20
0
 30
0
  9
$PUCSXDIR
 10
1
 20
0
 30
0
  9
$PUCSYDIR
 10
0
 20
1
 30
0
  9
$PUCSORTHOREF
  2

  9
$PUCSORTHOVIEW
 70
    0
  9
$PUCSORGTOP
 10
0
 20
0
 30
0
  9
$PUCSORGBOTTOM
 10
0
 20
0
 30
0
  9
$PUCSORGLEFT
 10
0
 20
0
 30
0
  9
$PUCSORGRIGHT
 10
0
 20
0
 30
0
  9
$PUCSORGFRONT
 10
0
 20
0
 30
0
  9
$PUCSORGBACK
 10
0
 20
0
 30
0
  9
$USERI1
 70
    0
  9
$USERI2
 70
    0
  9
$USERI3
 70
    0
  9
$USERI4
 70
    0
  9
$USERI5
 70
    0
  9
$USERR1
 40
0
  9
$USERR2
 40
0
  9
$USERR3
 40
0
  9
$USERR4
 40
0
  9
$USERR5
 40
0
  9
$WORLDVIEW
 70
    1
  9
$SHADEDGE
 70
    3
  9
$SHADEDIF
 70
   70
  9
$TILEMODE
 70
    1
  9
$MAXACTVP
 70
   16
  9
$PINSBASE
 10
0
 20
0
 30
0
  9
$PLIMCHECK
 70
    0
  9
$PEXTMIN
 10
1e+20
 20
1e+20
 30
1e+20
  9
$PEXTMAX
 10
-1e+20
 20
-1e+20
 30
-1e+20
  9
$GRIDMODE
 70
    1
  9
$SNAPSTYLE
 70
    0
  9
$GRIDUNIT
 10
0
 20
0
  9
$PLIMMIN
 10
0
 20
0
  9
$PLIMMAX
 10
12
 20
9
  9
$UNITMODE
 70
    0
  9
$VISRETAIN
 70
    0
  9
$PLINEGEN
 70
    0
  9
$PSLTSCALE
 70
    1
  9
$TREEDEPTH
 70
 3020
  9
$CMLSTYLE
  2
STANDARD
  9
$CMLJUST
 70
    0
  9
$CMLSCALE
 40
1
  9
$PROXYGRAPHICS
 70
    1
  9
$MEASUREMENT
 70
    0
  9
$CELWEIGHT
370
   -1
  9
$ENDCAPS
280
    0
  9
$JOINSTYLE
280
    0
  9
$LWDISPLAY
290
    0
  9
$INSUNITS
 70
    4
  9
$HYPERLINKBASE
  1

  9
$STYLESHEET
  1
mochrme_wien_tisk.ctb
  9
$XEDIT
290
    1
  9
$CEPSNTYPE
380
    0
  9
$PSTYLEMODE
290
    1
  9
$EXTNAMES
290
    1
  9
$PSVPSCALE
 40
0
  9
$OLESTARTUP
290
    0
  9
$SORTENTS
280
  127
  9
$INDEXCTL
280
    0
  9
$HIDETEXT
280
    1
  9
$XCLIPFRAME
290
    0
  9
$HALOGAP
280
    0
  9
$OBSCOLOR
 70
  257
  9
$OBSLTYPE
280
    0
  9
$INTERSECTIONDISPLAY
280
    0
  9
$INTERSECTIONCOLOR
 70
  257
  9
$DIMASSOC
280
    1
  9
$PROJECTNAME
  1

  9
$CAMERADISPLAY
290
    0
  9
$LENSLENGTH
 40
50
  9
$CAMERAHEIGHT
 40
0
  9
$STEPSPERSEC
 40
2
  9
$STEPSIZE
 40
6
  9
$3DDWFPREC
 40
2
  9
$PSOLWIDTH
 40
0.25
  9
$PSOLHEIGHT
 40
4
  9
$LOFTANG1
 40
1.570796326794896
  9
$LOFTANG2
 40
1.570796326794896
  9
$LOFTMAG1
 40
0
  9
$LOFTMAG2
 40
0
  9
$LOFTPARAM
 70
    7
  9
$LOFTNORMALS
280
    1
  9
$LATITUDE
 40
37.795
  9
$LONGITUDE
 40
-122.394
  9
$NORTHDIRECTION
 40
0
  9
$TIMEZONE
 70
-8000
  9
$LIGHTGLYPHDISPLAY
280
    1
  9
$TILEMODELIGHTSYNCH
280
    1
  9
$SOLIDHIST
280
    0
  9
$SHOWHIST
280
    1
  9
$DWFFRAME
280
    2
  9
$DGNFRAME
280
    0
  9
$REALWORLDSCALE
290
    1
  9
$INTERFERECOLOR
 62
    1
  9
$CSHADOW
280
    0
  9
$SHADOWPLANELOCATION
 40
0
  0
ENDSEC
  0
SECTION
  2
CLASSES
  0
ENDSEC
  0
SECTION
  2
TABLES
  0
TABLE
  2
VPORT
  5
8
330
0
100
AcDbSymbolTable
 70
    1
  0
VPORT
  5
31
330
2
100
AcDbSymbolTableRecord
100
AcDbViewportTableRecord
  2
*ACTIVE
 70
    0
 10
0
 20
0
 11
1
 21
1
 12
227.1516351014727
 22
37.9833459024703
 13
0
 23
0
 14
10
 24
10
 15
10
 25
10
 16
0
 26
0
 36
1
 17
0
 27
0
 37
0
 40
365.2388729143943
 41
1.618852459016394
 42
50
 43
0
 44
0
 50
0
 51
0
 71
    0
 72
  100
 73
    1
 74
    3
 75
    0
 76
    1
 77
    0
 78
    2
281
    0
 65
    1
110
0
120
0
130
0
111
1
121
0
131
0
112
0
122
1
132
0
 79
    0
146
0
348
10020
 60
    7
 61
    5
292
1
282
    1
141
0
142
0
 63
  250
421
3358443
  0
ENDTAB
  0
TABLE
  2
LTYPE
  5
5
330
0
100
AcDbSymbolTable
 70
    4
  0
LTYPE
  5
14
330
5
100
AcDbSymbolTableRecord
100
AcDbLinetypeTableRecord
  2
ByBlock
 70
    0
  3

 72
   65
 73
    0
 40
0
  0
LTYPE
  5
15
330
5
100
AcDbSymbolTableRecord
100
AcDbLinetypeTableRecord
  2
ByLayer
 70
    0
  3

 72
   65
 73
    0
 40
0
  0
LTYPE
  5
16
330
5
100
AcDbSymbolTableRecord
100
AcDbLinetypeTableRecord
  2
Continuous
 70
    0
  3
Solid line
 72
   65
 73
    0
 40
0
  0
LTYPE
  5
32
330
5
100
AcDbSymbolTableRecord
100
AcDbLinetypeTableRecord
  2
DOT
 70
    0
  3
Dot . . . . . . . . . . . . . . . . . . . . . .
 72
   65
 73
    2
 40
6.35
 49
0
 74
    0
 49
-6.35
 74
    0
  0
LTYPE
  5
33
330
5
100
AcDbSymbolTableRecord
100
AcDbLinetypeTableRecord
  2
DOTTINY
 70
    0
  3
Dot (.15x) .....................................
 72
   65
 73
    2
 40
0.9525
 49
0
 74
    0
 49
-0.9525
 74
    0
  0
LTYPE
  5
34
330
5
100
AcDbSymbolTableRecord
100
AcDbLinetypeTableRecord
  2
DOT2
 70
    0
  3
Dot (.5x) .....................................
 72
   65
 73
    2
 40
3.175
 49
0
 74
    0
 49
-3.175
 74
    0
  0
LTYPE
  5
35
330
5
100
AcDbSymbolTableRecord
100
AcDbLinetypeTableRecord
  2
DOTX2
 70
    0
  3
Dot (2x) .  .  .  .  .  .  .  .  .  .  .  .  .
 72
   65
 73
    2
 40
12.7
 49
0
 74
    0
 49
-12.7
 74
    0
  0
LTYPE
  5
36
330
5
100
AcDbSymbolTableRecord
100
AcDbLinetypeTableRecord
  2
DASHED
 70
    0
  3
Dashed _ _ _ _ _ _ _ _ _ _ _ _ _ _ _ _ _
 72
   65
 73
    2
 40
19.05
 49
12.7
 74
    0
 49
-6.35
 74
    0
  0
LTYPE
  5
37
330
5
100
AcDbSymbolTableRecord
100
AcDbLinetypeTableRecord
  2
DASHEDTINY
 70
    0
  3
Dashed (.15x) _ _ _ _ _ _ _ _ _ _ _ _ _ _ _ _ _
 72
   65
 73
    2
 40
2.8575
 49
1.905
 74
    0
 49
-0.9525
 74
    0
  0
LTYPE
  5
38
330
5
100
AcDbSymbolTableRecord
100
AcDbLinetypeTableRecord
  2
DASHED2
 70
    0
  3
Dashed (.5x) _ _ _ _ _ _ _ _ _ _ _ _ _ _ _ _ _
 72
   65
 73
    2
 40
9.524999999999999
 49
6.35
 74
    0
 49
-3.175
 74
    0
  0
LTYPE
  5
39
330
5
100
AcDbSymbolTableRecord
100
AcDbLinetypeTableRecord
  2
DASHEDX2
 70
    0
  3
Dashed (2x) ____  ____  ____  ____  ____  ___
 72
   65
 73
    2
 40
38.09999999999999
 49
25.4
 74
    0
 49
-12.7
 74
    0
  0
LTYPE
  5
3A
330
5
100
AcDbSymbolTableRecord
100
AcDbLinetypeTableRecord
  2
DASHDOT
 70
    0
  3
Dash dot __ . __ . __ . __ . __ . __ . __ . __
 72
   65
 73
    4
 40
25.4
 49
12.7
 74
    0
 49
-6.35
 74
    0
 49
0
 74
    0
 49
-6.35
 74
    0
  0
LTYPE
  5
3B
330
5
100
AcDbSymbolTableRecord
100
AcDbLinetypeTableRecord
  2
DASHDOTTINY
 70
    0
  3
Dash dot (.15x) _._._._._._._._._._._._._._._.
 72
   65
 73
    4
 40
3.81
 49
1.905
 74
    0
 49
-0.9525
 74
    0
 49
0
 74
    0
 49
-0.9525
 74
    0
  0
LTYPE
  5
3C
330
5
100
AcDbSymbolTableRecord
100
AcDbLinetypeTableRecord
  2
DASHDOT2
 70
    0
  3
Dash dot (.5x) _._._._._._._._._._._._._._._.
 72
   65
 73
    4
 40
12.7
 49
6.35
 74
    0
 49
-3.175
 74
    0
 49
0
 74
    0
 49
-3.175
 74
    0
  0
LTYPE
  5
3D
330
5
100
AcDbSymbolTableRecord
100
AcDbLinetypeTableRecord
  2
DASHDOTX2
 70
    0
  3
Dash dot (2x) ____  .  ____  .  ____  .  ___
 72
   65
 73
    4
 40
50.8
 49
25.4
 74
    0
 49
-12.7
 74
    0
 49
0
 74
    0
 49
-12.7
 74
    0
  0
LTYPE
  5
3E
330
5
100
AcDbSymbolTableRecord
100
AcDbLinetypeTableRecord
  2
DIVIDE
 70
    0
  3
Divide ____ . . ____ . . ____ . . ____ . . ____
 72
   65
 73
    6
 40
31.75
 49
12.7
 74
    0
 49
-6.35
 74
    0
 49
0
 74
    0
 49
-6.35
 74
    0
 49
0
 74
    0
 49
-6.35
 74
    0
  0
LTYPE
  5
3F
330
5
100
AcDbSymbolTableRecord
100
AcDbLinetypeTableRecord
  2
DIVIDETINY
 70
    0
  3
Divide (.15x) __..__..__..__..__..__..__..__.._
 72
   65
 73
    6
 40
4.7625
 49
1.905
 74
    0
 49
-0.9525
 74
    0
 49
0
 74
    0
 49
-0.9525
 74
    0
 49
0
 74
    0
 49
-0.9525
 74
    0
  0
LTYPE
  5
40
330
5
100
AcDbSymbolTableRecord
100
AcDbLinetypeTableRecord
  2
DIVIDE2
 70
    0
  3
Divide (.5x) __..__..__..__..__..__..__..__.._
 72
   65
 73
    6
 40
15.875
 49
6.35
 74
    0
 49
-3.175
 74
    0
 49
0
 74
    0
 49
-3.175
 74
    0
 49
0
 74
    0
 49
-3.175
 74
    0
  0
LTYPE
  5
41
330
5
100
AcDbSymbolTableRecord
100
AcDbLinetypeTableRecord
  2
DIVIDEX2
 70
    0
  3
Divide (2x) ________  .  .  ________  .  .  _
 72
   65
 73
    6
 40
63.5
 49
25.4
 74
    0
 49
-12.7
 74
    0
 49
0
 74
    0
 49
-12.7
 74
    0
 49
0
 74
    0
 49
-12.7
 74
    0
  0
LTYPE
  5
42
330
5
100
AcDbSymbolTableRecord
100
AcDbLinetypeTableRecord
  2
BORDER
 70
    0
  3
Border __ __ . __ __ . __ __ . __ __ . __ __ .
 72
   65
 73
    6
 40
44.45
 49
12.7
 74
    0
 49
-6.35
 74
    0
 49
12.7
 74
    0
 49
-6.35
 74
    0
 49
0
 74
    0
 49
-6.35
 74
    0
  0
LTYPE
  5
43
330
5
100
AcDbSymbolTableRecord
100
AcDbLinetypeTableRecord
  2
BORDERTINY
 70
    0
  3
Border (.15x) __.__.__.__.__.__.__.__.__.__.__.
 72
   65
 73
    6
 40
6.6675
 49
1.905
 74
    0
 49
-0.9525
 74
    0
 49
1.905
 74
    0
 49
-0.9525
 74
    0
 49
0
 74
    0
 49
-0.9525
 74
    0
  0
LTYPE
  5
44
330
5
100
AcDbSymbolTableRecord
100
AcDbLinetypeTableRecord
  2
BORDER2
 70
    0
  3
Border (.5x) __.__.__.__.__.__.__.__.__.__.__.
 72
   65
 73
    6
 40
22.225
 49
6.35
 74
    0
 49
-3.175
 74
    0
 49
6.35
 74
    0
 49
-3.175
 74
    0
 49
0
 74
    0
 49
-3.175
 74
    0
  0
LTYPE
  5
45
330
5
100
AcDbSymbolTableRecord
100
AcDbLinetypeTableRecord
  2
BORDERX2
 70
    0
  3
Border (2x) ____  ____  .  ____  ____  .  ___
 72
   65
 73
    6
 40
88.89999999999999
 49
25.4
 74
    0
 49
-12.7
 74
    0
 49
25.4
 74
    0
 49
-12.7
 74
    0
 49
0
 74
    0
 49
-12.7
 74
    0
  0
LTYPE
  5
46
330
5
100
AcDbSymbolTableRecord
100
AcDbLinetypeTableRecord
  2
CENTER
 70
    0
  3
Center ____ _ ____ _ ____ _ ____ _ ____ _ ____
 72
   65
 73
    4
 40
50.8
 49
31.75
 74
    0
 49
-6.35
 74
    0
 49
6.35
 74
    0
 49
-6.35
 74
    0
  0
LTYPE
  5
47
330
5
100
AcDbSymbolTableRecord
100
AcDbLinetypeTableRecord
  2
CENTERTINY
 70
    0
  3
Center (.15x) ___ _ ___ _ ___ _ ___ _ ___ _ ___
 72
   65
 73
    4
 40
7.619999999999999
 49
4.7625
 74
    0
 49
-0.9525
 74
    0
 49
0.9525
 74
    0
 49
-0.9525
 74
    0
  0
LTYPE
  5
48
330
5
100
AcDbSymbolTableRecord
100
AcDbLinetypeTableRecord
  2
CENTER2
 70
    0
  3
Center (.5x) ___ _ ___ _ ___ _ ___ _ ___ _ ___
 72
   65
 73
    4
 40
28.575
 49
19.05
 74
    0
 49
-3.175
 74
    0
 49
3.175
 74
    0
 49
-3.175
 74
    0
  0
LTYPE
  5
49
330
5
100
AcDbSymbolTableRecord
100
AcDbLinetypeTableRecord
  2
CENTERX2
 70
    0
  3
Center (2x) ________  __  ________  __  _____
 72
   65
 73
    4
 40
101.6
 49
63.5
 74
    0
 49
-12.7
 74
    0
 49
12.7
 74
    0
 49
-12.7
 74
    0
  0
ENDTAB
  0
TABLE
  2
LAYER
  5
2
330
0
100
AcDbSymbolTable
 70
    1
  0
LAYER
  5
10
330
2
100
AcDbSymbolTableRecord
100
AcDbLayerTableRecord
  2
0
 70
    0
 62
    7
  6
CONTINUOUS
370
   -3
390
F
  0
ENDTAB
  0
TABLE
  2
STYLE
  5
3
330
0
100
AcDbSymbolTable
 70
    3
  0
STYLE
  5
4A
330
2
100
AcDbSymbolTableRecord
100
AcDbTextStyleTableRecord
  2
Standard
 70
    0
 40
0
 41
1
 50
0
 71
    0
 42
1
  3
txt
  4

  0
ENDTAB
  0
TABLE
  2
VIEW
  5
6
330
0
100
AcDbSymbolTable
 70
    0
  0
ENDTAB
  0
TABLE
  2
UCS
  5
7
330
0
100
AcDbSymbolTable
 70
    0
  0
ENDTAB
  0
TABLE
  2
APPID
  5
9
330
0
100
AcDbSymbolTable
 70
    1
  0
APPID
  5
12
330
9
100
AcDbSymbolTableRecord
100
AcDbRegAppTableRecord
  2
ACAD
 70
    0
  0
APPID
  5
4B
330
9
100
AcDbSymbolTableRecord
100
AcDbRegAppTableRecord
  2
LibreCad
 70
    0
  0
ENDTAB
  0
TABLE
  2
DIMSTYLE
  5
A
330
0
100
AcDbSymbolTable
 70
    1
100
AcDbDimStyleTable
 71
    1
  0
DIMSTYLE
105
4C
330
A
100
AcDbSymbolTableRecord
100
AcDbDimStyleTableRecord
  2
Standard
 70
    0
 40
1
 41
4
 42
0
 43
0.38
 44
0
 45
0
 46
0
 47
0
 48
0
 49
1
140
4
141
0.09
142
0
143
25.4
144
1
145
0
146
1
147
1.5
148
0
 71
    0
 72
    0
 73
    0
 74
    1
 75
    0
 76
    0
 77
    0
 78
    8
 79
    0
170
    0
171
    2
172
    0
173
    0
174
    0
175
    0
176
    2
177
    2
178
    2
179
    0
271
    1
272
    4
273
    2
274
    2
275
    0
276
    0
277
    2
278
    0
279
    0
280
    0
281
    0
282
    0
283
    1
284
    0
285
    0
286
    0
288
    0
289
    3
340
standard
341

371
   -2
372
   -2
  0
ENDTAB
  0
TABLE
  2
BLOCK_RECORD
  5
1
330
0
100
AcDbSymbolTable
 70
    2
  0
BLOCK_RECORD
  5
1F
330
1
100
AcDbSymbolTableRecord
100
AcDbBlockTableRecord
  2
*Model_Space
 70
    0
280
    1
281
    0
  0
BLOCK_RECORD
  5
1E
330
1
100
AcDbSymbolTableRecord
100
AcDbBlockTableRecord
  2
*Paper_Space
 70
    0
280
    1
281
    0
  0
BLOCK_RECORD
  5
4D
330
1
100
AcDbSymbolTableRecord
100
AcDbBlockTableRecord
  2
_DOTSMALL
 70
    0
280
    1
281
    0
  0
BLOCK_RECORD
  5
50
330
1
100
AcDbSymbolTableRecord
100
AcDbBlockTableRecord
  2
_NONE
 70
    0
280
    1
281
    0
  0
BLOCK_RECORD
  5
53
330
1
100
AcDbSymbolTableRecord
100
AcDbBlockTableRecord
  2
A$C01EA46E0
 70
    0
280
    1
281
    0
  0
BLOCK_RECORD
  5
56
330
1
100
AcDbSymbolTableRecord
100
AcDbBlockTableRecord
  2
A$C18903741
 70
    0
280
    1
281
    0
  0
BLOCK_RECORD
  5
59
330
1
100
AcDbSymbolTableRecord
100
AcDbBlockTableRecord
  2
A$C3A410068
 70
    0
280
    1
281
    0
  0
BLOCK_RECORD
  5
5C
330
1
100
AcDbSymbolTableRecord
100
AcDbBlockTableRecord
  2
A$C75D90C8F
 70
    0
280
    1
281
    0
  0
BLOCK_RECORD
  5
5F
330
1
100
AcDbSymbolTableRecord
100
AcDbBlockTableRecord
  2
A$C1A413407
 70
    0
280
    1
281
    0
  0
BLOCK_RECORD
  5
62
330
1
100
AcDbSymbolTableRecord
100
AcDbBlockTableRecord
  2
A$C5FC81BCA
 70
    0
280
    1
281
    0
  0
BLOCK_RECORD
  5
65
330
1
100
AcDbSymbolTableRecord
100
AcDbBlockTableRecord
  2
A$C2B0148A3
 70
    0
280
    1
281
    0
  0
BLOCK_RECORD
  5
68
330
1
100
AcDbSymbolTableRecord
100
AcDbBlockTableRecord
  2
A$C6BDD0B26
 70
    0
280
    1
281
    0
  0
BLOCK_RECORD
  5
6B
330
1
100
AcDbSymbolTableRecord
100
AcDbBlockTableRecord
  2
A$C034740AE
 70
    0
280
    1
281
    0
  0
BLOCK_RECORD
  5
6E
330
1
100
AcDbSymbolTableRecord
100
AcDbBlockTableRecord
  2
A$C59F22E77
 70
    0
280
    1
281
    0
  0
BLOCK_RECORD
  5
71
330
1
100
AcDbSymbolTableRecord
100
AcDbBlockTableRecord
  2
GENAXEH
 70
    0
280
    1
281
    0
  0
BLOCK_RECORD
  5
74
330
1
100
AcDbSymbolTableRecord
100
AcDbBlockTableRecord
  2
A$C2456717E
 70
    0
280
    1
281
    0
  0
BLOCK_RECORD
  5
77
330
1
100
AcDbSymbolTableRecord
100
AcDbBlockTableRecord
  2
(22-14-16X) pálená
 70
    0
280
    1
281
    0
  0
BLOCK_RECORD
  5
7A
330
1
100
AcDbSymbolTableRecord
100
AcDbBlockTableRecord
  2
_POZOR !PÁLENÉ ROZMĚRY
 70
    0
280
    1
281
    0
  0
BLOCK_RECORD
  5
7D
330
1
100
AcDbSymbolTableRecord
100
AcDbBlockTableRecord
  2
A$C2EFF5608
 70
    0
280
    1
281
    0
  0
BLOCK_RECORD
  5
80
330
1
100
AcDbSymbolTableRecord
100
AcDbBlockTableRecord
  2
A$C054C61AF
 70
    0
280
    1
281
    0
  0
ENDTAB
  0
ENDSEC
  0
SECTION
  2
BLOCKS
  0
BLOCK
  5
20
330
1F
100
AcDbEntity
  8
0
100
AcDbBlockBegin
  2
*Model_Space
 70
    0
 10
0
 20
0
 30
0
  3
*Model_Space
  1

  0
ENDBLK
  5
21
330
1F
100
AcDbEntity
  8
0
100
AcDbBlockEnd
  0
BLOCK
  5
1C
330
1B
100
AcDbEntity
  8
0
100
AcDbBlockBegin
  2
*Paper_Space
 70
    0
 10
0
 20
0
 30
0
  3
*Paper_Space
  1

  0
ENDBLK
  5
1D
330
1F
100
AcDbEntity
  8
0
100
AcDbBlockEnd
  0
BLOCK
  5
4E
330
4D
100
AcDbEntity
  8
0
100
AcDbBlockBegin
  2
_DOTSMALL
 70
    0
 10
0
 20
0
  3
_DOTSMALL
  1

  0
LWPOLYLINE
  5
83
100
AcDbEntity
  8
0
  6
ByBlock
 62
    0
370
   -1
100
AcDbPolyline
 90
    2
 70
    1
 43
0
 10
-0.0625
 20
2.080942803238667e-17
 42
0.9999999999999999
 10
0.0625
 20
1.471011291944575e-17
 42
0.9999999999999999
  0
ENDBLK
  5
4F
330
4D
100
AcDbEntity
  8
0
100
AcDbBlockEnd
  0
BLOCK
  5
51
330
50
100
AcDbEntity
  8
0
100
AcDbBlockBegin
  2
_NONE
 70
    0
 10
0
 20
0
  3
_NONE
  1

  0
CIRCLE
  5
84
100
AcDbEntity
  8
0
  6
ByBlock
 62
    0
370
   -1
100
AcDbCircle
 10
0
 20
0
 40
0.25
  0
ENDBLK
  5
52
330
50
100
AcDbEntity
  8
0
100
AcDbBlockEnd
  0
BLOCK
  5
54
330
53
100
AcDbEntity
  8
0
100
AcDbBlockBegin
  2
A$C01EA46E0
 70
    0
 10
0
 20
0
  3
A$C01EA46E0
  1

  0
ENDBLK
  5
55
330
53
100
AcDbEntity
  8
0
100
AcDbBlockEnd
  0
BLOCK
  5
57
330
56
100
AcDbEntity
  8
0
100
AcDbBlockBegin
  2
A$C18903741
 70
    0
 10
0
 20
0
  3
A$C18903741
  1

  0
ENDBLK
  5
58
330
56
100
AcDbEntity
  8
0
100
AcDbBlockEnd
  0
BLOCK
  5
5A
330
59
100
AcDbEntity
  8
0
100
AcDbBlockBegin
  2
A$C3A410068
 70
    0
 10
0
 20
0
  3
A$C3A410068
  1

  0
ENDBLK
  5
5B
330
59
100
AcDbEntity
  8
0
100
AcDbBlockEnd
  0
BLOCK
  5
5D
330
5C
100
AcDbEntity
  8
0
100
AcDbBlockBegin
  2
A$C75D90C8F
 70
    0
 10
0
 20
0
  3
A$C75D90C8F
  1

  0
ENDBLK
  5
5E
330
5C
100
AcDbEntity
  8
0
100
AcDbBlockEnd
  0
BLOCK
  5
60
330
5F
100
AcDbEntity
  8
0
100
AcDbBlockBegin
  2
A$C1A413407
 70
    0
 10
0
 20
0
  3
A$C1A413407
  1

  0
ENDBLK
  5
61
330
5F
100
AcDbEntity
  8
0
100
AcDbBlockEnd
  0
BLOCK
  5
63
330
62
100
AcDbEntity
  8
0
100
AcDbBlockBegin
  2
A$C5FC81BCA
 70
    0
 10
0
 20
0
  3
A$C5FC81BCA
  1

  0
ENDBLK
  5
64
330
62
100
AcDbEntity
  8
0
100
AcDbBlockEnd
  0
BLOCK
  5
66
330
65
100
AcDbEntity
  8
0
100
AcDbBlockBegin
  2
A$C2B0148A3
 70
    0
 10
0
 20
0
  3
A$C2B0148A3
  1

  0
ENDBLK
  5
67
330
65
100
AcDbEntity
  8
0
100
AcDbBlockEnd
  0
BLOCK
  5
69
330
68
100
AcDbEntity
  8
0
100
AcDbBlockBegin
  2
A$C6BDD0B26
 70
    0
 10
0
 20
0
  3
A$C6BDD0B26
  1

  0
ENDBLK
  5
6A
330
68
100
AcDbEntity
  8
0
100
AcDbBlockEnd
  0
BLOCK
  5
6C
330
6B
100
AcDbEntity
  8
0
100
AcDbBlockBegin
  2
A$C034740AE
 70
    0
 10
0
 20
0
  3
A$C034740AE
  1

  0
ENDBLK
  5
6D
330
6B
100
AcDbEntity
  8
0
100
AcDbBlockEnd
  0
BLOCK
  5
6F
330
6E
100
AcDbEntity
  8
0
100
AcDbBlockBegin
  2
A$C59F22E77
 70
    0
 10
0
 20
0
  3
A$C59F22E77
  1

  0
LINE
  5
85
100
AcDbEntity
  8
0
  6
ByLayer
 62
  256
370
   -1
100
AcDbLine
 10
7
 20
-5.457e-12
 11
7.5
 21
-5.457e-12
  0
LINE
  5
86
100
AcDbEntity
  8
0
  6
ByLayer
 62
  256
370
   -1
100
AcDbLine
 10
2.700000000000727
 20
-3.638e-12
 11
7
 21
-5.457e-12
  0
LINE
  5
87
100
AcDbEntity
  8
0
  6
ByLayer
 62
  256
370
   -1
100
AcDbLine
 10
-7.5
 20
-9.094900000000001e-12
 11
-2.700000000000727
 21
-7.275999999999999e-12
  0
LINE
  5
88
100
AcDbEntity
  8
0
  6
ByLayer
 62
  256
370
   -1
100
AcDbLine
 10
-2.700000000000727
 20
0
 11
-3
 21
0.2999999999992724
  0
SPLINE
  5
89
100
AcDbEntity
  8
0
  6
ByLayer
 62
  256
370
   -1
100
AcDbSpline
210
0
220
0
230
0
 70
    8
 71
    2
 72
    6
 73
    3
 74
    0
 42
1e-07
 43
1e-07
 40
0
 40
0
 40
0
 40
1
 40
1
 40
1
 10
-7.5
 20
0.2999999999919964
 30
0
 10
-7.5
 20
0.1538900988016394
 30
0
 10
-7.5
 20
-9.094900000000001e-12
 30
0
  0
LINE
  5
8A
100
AcDbEntity
  8
0
  6
ByLayer
 62
  256
370
   -1
100
AcDbLine
 10
-3
 20
0.2999999999938154
 11
-7.5
 21
0.2999999999919964
  0
LINE
  5
8B
100
AcDbEntity
  8
0
  6
ByLayer
 62
  256
370
   -1
100
AcDbLine
 10
3
 20
0.2999999999992724
 11
2.700000000000727
 21
0
  0
LINE
  5
8C
100
AcDbEntity
  8
0
  6
ByLayer
 62
  256
370
   -1
100
AcDbLine
 10
7.5
 20
-5.457e-12
 11
7.5
 21
0.2999999999956344
  0
LINE
  5
8D
100
AcDbEntity
  8
0
  6
ByLayer
 62
  256
370
   -1
100
AcDbLine
 10
7.5
 20
0.2999999999956344
 11
7
 21
0.2999999999956344
  0
LINE
  5
8E
100
AcDbEntity
  8
0
  6
ByLayer
 62
  256
370
   -1
100
AcDbLine
 10
7
 20
0.2999999999956344
 11
3
 21
0.2999999999956344
  0
LINE
  5
8F
100
AcDbEntity
  8
0
  6
ByLayer
 62
  256
370
   -1
100
AcDbLine
 10
2.700000000000727
 20
0
 11
-2.700000000000727
 21
0
  0
LINE
  5
90
100
AcDbEntity
  8
0
  6
ByLayer
 62
  256
370
   -1
100
AcDbLine
 10
-3
 20
5
 11
-3
 21
0.2999999999992724
  0
LINE
  5
91
100
AcDbEntity
  8
0
  6
ByLayer
 62
  256
370
   -1
100
AcDbLine
 10
-3
 20
4.999999999996362
 11
-3
 21
23.54529946161711
  0
LINE
  5
92
100
AcDbEntity
  8
0
  6
ByLayer
 62
  256
370
   -1
100
AcDbLine
 10
3
 20
5
 11
-3
 21
5
  0
LINE
  5
93
100
AcDbEntity
  8
0
  6
ByLayer
 62
  256
370
   -1
100
AcDbLine
 10
3
 20
23.54529946161711
 11
3
 21
20.23760430703078
  0
LINE
  5
94
100
AcDbEntity
  8
0
  6
ByLayer
 62
  256
370
   -1
100
AcDbLine
 10
1
 20
24.99999999999636
 11
2.740192378863866
 21
23.99529946161783
  0
LINE
  5
95
100
AcDbEntity
  8
0
  6
ByLayer
 62
  256
370
   -1
100
AcDbLine
 10
-2.740192378863866
 20
23.99529946161783
 11
-1
 21
24.99999999999636
  0
LINE
  5
96
100
AcDbEntity
  8
0
  6
ByLayer
 62
  256
370
   -1
100
AcDbLine
 10
-1
 20
24.99999999999636
 11
1
 21
24.99999999999636
  0
LINE
  5
97
100
AcDbEntity
  8
0
  6
ByLayer
 62
  256
370
   -1
100
AcDbLine
 10
3
 20
0.2999999999992724
 11
3
 21
5
  0
LINE
  5
98
100
AcDbEntity
  8
0
  6
ByLayer
 62
  256
370
   -1
100
AcDbLine
 10
7.5
 20
0.2999999999956344
 11
7.5
 21
5.999999999994543
  0
SPLINE
  5
99
100
AcDbEntity
  8
0
  6
ByLayer
 62
  256
370
   -1
100
AcDbSpline
210
0
220
0
230
0
 70
    8
 71
    3
 72
   14
 73
   10
 74
    0
 42
1e-07
 43
1e-07
 40
0
 40
0
 40
0
 40
0
 40
0.1847470343155097
 40
0.1847470343155097
 40
0.3694940686310193
 40
0.3694940686310193
 40
0.5566106137322026
 40
0.5566106137322026
 40
0.7437271588333858
 40
0.7437271588333858
 40
0.7437271588333858
 40
0.7437271588333858
 10
3
 20
20.23760430703078
 30
0
 10
3
 20
19.87173020045338
 30
0
 10
3.09828101261155
 20
19.47729911545866
 30
0
 10
3.504714861621323
 20
18.69305136600997
 30
0
 10
3.812556686472817
 20
18.30138646565865
 30
0
 10
4.518688201755139
 20
17.57104105542021
 30
0
 10
4.974748167081997
 20
17.17606056594013
 30
0
 10
5.971767955164978
 20
16.37971921015742
 30
0
 10
6.510712351391703
 20
15.97530951650333
 30
0
 10
7
 20
15.58849366635513
 30
0
  0
ELLIPSE
  5
9A
100
AcDbEntity
  8
0
  6
ByLayer
 62
  256
370
   -1
100
AcDbEllipse
 10
9
 20
28.23760430702896
 30
0
 11
-6e-16
 21
-13.41640786499874
 31
0
 40
0.4472135954999579
 41
5.943348397725577
 42
6.030505052037507
  0
LINE
  5
9B
100
AcDbEntity
  8
0
  6
ByLayer
 62
  256
370
   -1
100
AcDbLine
 10
3
 20
20.23760430703078
 11
3
 21
4.999999999996362
  0
LINE
  5
9C
100
AcDbEntity
  8
0
  6
ByLayer
 62
  256
370
   -1
100
AcDbLine
 10
11.5
 20
5.999999999994543
 11
7.5
 21
5.999999999994543
  0
LINE
  5
9D
100
AcDbEntity
  8
0
  6
ByLayer
 62
  256
370
   -1
100
AcDbLine
 10
-15.5
 20
5.999999999990905
 11
-11.5
 21
5.999999999990905
  0
LINE
  5
9E
100
AcDbEntity
  8
0
  6
ByLayer
 62
  256
370
   -1
100
AcDbLine
 10
-11.5
 20
4.999999999990905
 11
-14.5
 21
4.999999999990905
  0
LINE
  5
9F
100
AcDbEntity
  8
0
  6
ByLayer
 62
  256
370
   -1
100
AcDbLine
 10
-9
 20
5.999999999990905
 11
-11.5
 21
5.999999999990905
  0
LINE
  5
A0
100
AcDbEntity
  8
0
  6
ByLayer
 62
  256
370
   -1
100
AcDbLine
 10
-11.5
 20
4.999999999990905
 11
-9
 21
4.999999999990905
  0
LINE
  5
A1
100
AcDbEntity
  8
0
  6
ByLayer
 62
  256
370
   -1
100
AcDbLine
 10
-7.5
 20
5.999999999992724
 11
-9
 21
5.999999999990905
  0
LINE
  5
A2
100
AcDbEntity
  8
0
  6
ByLayer
 62
  256
370
   -1
100
AcDbLine
 10
-9
 20
4.999999999990905
 11
-7.5
 21
4.999999999990905
  0
LINE
  5
A3
100
AcDbEntity
  8
0
  6
ByLayer
 62
  256
370
   -1
100
AcDbLine
 10
7.5
 20
4.999999999994543
 11
11.5
 21
4.999999999994543
  0
LINE
  5
A4
100
AcDbEntity
  8
0
  6
ByLayer
 62
  256
370
   -1
100
AcDbLine
 10
11.5
 20
5.999999999994543
 11
15.5
 21
5.999999999994543
  0
LINE
  5
A5
100
AcDbEntity
  8
0
  6
ByLayer
 62
  256
370
   -1
100
AcDbLine
 10
14.5
 20
4.999999999994543
 11
11.5
 21
4.999999999994543
  0
LINE
  5
A6
100
AcDbEntity
  8
0
  6
ByLayer
 62
  256
370
   -1
100
AcDbLine
 10
-14.5
 20
4.999999999990905
 11
-15.5
 21
5.999999999990905
  0
LINE
  5
A7
100
AcDbEntity
  8
0
  6
ByLayer
 62
  256
370
   -1
100
AcDbLine
 10
14.5
 20
4.999999999994543
 11
15.5
 21
5.999999999994543
  0
LINE
  5
A8
100
AcDbEntity
  8
0
  6
ByLayer
 62
  256
370
   -1
100
AcDbLine
 10
15.5
 20
5.999999999994543
 11
15.5
 21
14.89637028917605
  0
LINE
  5
A9
100
AcDbEntity
  8
0
  6
ByLayer
 62
  256
370
   -1
100
AcDbLine
 10
-15.5
 20
14.89637028917241
 11
-15.5
 21
5.999999999990905
  0
LINE
  5
AA
100
AcDbEntity
  8
0
  6
ByLayer
 62
  256
370
   -1
100
AcDbLine
 10
7.5
 20
15.24722325026232
 11
11.5
 21
12.93782217350417
  0
ELLIPSE
  5
AB
100
AcDbEntity
  8
0
  6
ByLayer
 62
  256
370
   -1
100
AcDbEllipse
 10
11.5
 20
20.93782217350236
 30
0
 11
-1.397343347875937
 21
8.302737232552735
 31
0
 40
0.4514162296451872
 41
2.784730464117339
 42
3.83783392486262
  0
LINE
  5
AC
100
AcDbEntity
  8
0
  6
ByLayer
 62
  256
370
   -1
100
AcDbLine
 10
13.71414284285492
 20
17.65948620715608
 11
14
 21
17.49444650052828
  0
SPLINE
  5
AD
100
AcDbEntity
  8
0
  6
ByLayer
 62
  256
370
   -1
100
AcDbSpline
210
0
220
0
230
0
 70
    8
 71
    3
 72
   12
 73
    8
 74
    0
 42
1e-07
 43
1e-07
 40
1.063792763713057
 40
1.063792763713057
 40
1.063792763713057
 40
1.063792763713057
 40
1.150403181630477
 40
1.150403181630477
 40
1.312639480122136
 40
1.312639480122136
 40
1.487078870423753
 40
1.487078870423753
 40
1.487078870423753
 40
1.487078870423753
 10
14.63166159904358
 20
16.82975648467436
 30
0
 10
14.75057278376334
 20
16.66895366867902
 30
0
 10
14.82986156604965
 20
16.52246570427996
 30
0
 10
14.98751997457657
 20
16.1758819404331
 30
0
 10
15.04901312309448
 20
15.94070571681186
 30
0
 10
15.08629861224108
 20
15.45192801530902
 30
0
 10
15.05486009893502
 20
15.20386988233804
 30
0
 10
14.97585295221506
 20
14.97202439895955
 30
0
  0
ARC
  5
AE
100
AcDbEntity
  8
0
  6
ByLayer
 62
  256
370
   -1
100
AcDbCircle
 10
12.5
 20
14.89637028917605
 40
3
100
AcDbArc
 50
0
 51
59.99999999998969
  0
SPLINE
  5
AF
100
AcDbEntity
  8
0
  6
ByLayer
 62
  256
370
   -1
100
AcDbSpline
210
0
220
0
230
0
 70
    8
 71
    3
 72
   14
 73
   10
 74
    0
 42
1e-07
 43
1e-07
 40
-0.1169532015498188
 40
-0.1169532015498188
 40
-0.1169532015498188
 40
-0.1169532015498188
 40
-0.1133705391174536
 40
-0.1133705391174536
 40
-0.0737269023574818
 40
-0.0737269023574818
 40
-0.0303974490876721
 40
-0.0303974490876721
 40
0
 40
0
 40
0
 40
0
 10
14.63166160372202
 20
16.82975649277796
 30
0
 10
14.62645817427619
 20
16.839873464025
 30
0
 10
14.62102107926694
 20
16.85003470812808
 30
0
 10
14.55258475849405
 20
16.97313086061513
 30
0
 10
14.46296005909244
 20
17.08761304304971
 30
0
 10
14.22512897424894
 20
17.32086454397358
 30
0
 10
14.0905317329998
 20
17.42123051567978
 30
0
 10
13.88764599723072
 20
17.55671552796048
 30
0
 10
13.80189271991912
 20
17.6088237920103
 30
0
 10
13.71414284285492
 20
17.65948620715608
 30
0
  0
LINE
  5
B0
100
AcDbEntity
  8
0
  6
ByLayer
 62
  256
370
   -1
100
AcDbLine
 10
13.71414284285492
 20
17.65948620715608
 11
7.629903810568066
 21
21.1722232502616
  0
LINE
  5
B1
100
AcDbEntity
  8
0
  6
ByLayer
 62
  256
370
   -1
100
AcDbLine
 10
7.5
 20
20.94722325026123
 11
14.63166160372202
 21
16.82975649277796
  0
LINE
  5
B2
100
AcDbEntity
  8
0
  6
ByLayer
 62
  256
370
   -1
100
AcDbLine
 10
2.740192378863866
 20
23.99529946161783
 11
3
 21
23.54529946161711
  0
SPLINE
  5
B3
100
AcDbEntity
  8
0
  6
ByLayer
 62
  256
370
   -1
100
AcDbSpline
210
0
220
0
230
0
 70
    8
 71
    3
 72
   14
 73
   10
 74
    0
 42
1e-07
 43
1e-07
 40
-0.8804149087032905
 40
-0.8804149087032905
 40
-0.8804149087032905
 40
-0.8804149087032905
 40
-0.7416745081346062
 40
-0.7416745081346062
 40
-0.4616775534525233
 40
-0.4616775534525233
 40
-0.196217096330425
 40
-0.196217096330425
 40
0.0149701145503651
 40
0.0149701145503651
 40
0.0149701145503651
 40
0.0149701145503651
 10
3
 20
23.54529946162802
 30
0
 10
3
 20
23.56008093915625
 30
0
 10
3.03633363695917
 20
23.55237666535686
 30
0
 10
3.270643453059165
 20
23.45127567401505
 30
0
 10
3.602637004776624
 20
23.27405147965692
 30
0
 10
4.567697708054765
 20
22.72157601993967
 30
0
 10
5.179099107928777
 20
22.35995808480038
 30
0
 10
6.37523476755814
 20
21.6381975443237
 30
0
 10
6.9375
 20
21.29448277668053
 30
0
 10
7.5
 20
20.94722325026123
 30
0
  0
SPLINE
  5
B4
100
AcDbEntity
  8
0
  6
ByLayer
 62
  256
370
   -1
100
AcDbSpline
210
0
220
0
230
0
 70
    8
 71
    3
 72
   14
 73
   10
 74
    0
 42
1e-07
 43
1e-07
 40
-0.0149701145503651
 40
-0.0149701145503651
 40
-0.0149701145503651
 40
-0.0149701145503651
 40
0.196217096330425
 40
0.196217096330425
 40
0.4616775534525233
 40
0.4616775534525233
 40
0.7416745081346062
 40
0.7416745081346062
 40
0.8804149087032905
 40
0.8804149087032905
 40
0.8804149087032905
 40
0.8804149087032905
 10
7.629903810568066
 20
21.1722232502616
 30
0
 10
7.018689881602767
 20
21.52510777668067
 30
0
 10
6.407731051665905
 20
21.87784502160866
 30
0
 10
5.108007005277613
 20
22.62824104966421
 30
0
 10
4.443656690971693
 20
23.01180388246394
 30
0
 10
3.39501927917081
 20
23.61723497445018
 30
0
 10
3.034274242498213
 20
23.82551121848337
 30
0
 10
2.779672601085621
 20
23.97250554468883
 30
0
 10
2.740192378845677
 20
23.99529946162693
 30
0
 10
2.740192378845677
 20
23.99529946162693
 30
0
  0
LINE
  5
B5
100
AcDbEntity
  8
0
  6
ByLayer
 62
  256
370
   -1
100
AcDbLine
 10
-3
 20
23.54529946161711
 11
-2.740192378863866
 21
23.99529946161783
  0
SPLINE
  5
B6
100
AcDbEntity
  8
0
  6
ByLayer
 62
  256
370
   -1
100
AcDbSpline
210
0
220
0
230
0
 70
    8
 71
    3
 72
   16
 73
   12
 74
    0
 42
1e-07
 43
1e-07
 40
-0.6038559167777109
 40
-0.6038559167777109
 40
-0.6038559167777109
 40
-0.6038559167777109
 40
-0.582517922730505
 40
-0.582517922730505
 40
-0.5587533240396756
 40
-0.5587533240396756
 40
-0.4985161489849369
 40
-0.4985161489849369
 40
-0.4481554820137946
 40
-0.4481554820137946
 40
-0.4453791002559526
 40
-0.4453791002559526
 40
-0.4453791002559526
 40
-0.4453791002559526
 10
-13.71414284285492
 20
17.65948620715426
 30
0
 10
-13.75856478896094
 20
17.63383918461113
 30
0
 10
-13.80264095200255
 20
17.60772585361519
 30
0
 10
-13.8948877665207
 20
17.55096781434986
 30
0
 10
-13.94265334912052
 20
17.5203307349293
 30
0
 10
-14.10855721811822
 20
17.40801437286427
 30
0
 10
-14.24740558818666
 20
17.30312508613678
 30
0
 10
-14.48045869458292
 20
17.06620659339387
 30
0
 10
-14.56387479677869
 20
16.95597401495979
 30
0
 10
-14.62546783103607
 20
16.84165746852523
 30
0
 10
-14.62860507966252
 20
16.83569926724703
 30
0
 10
-14.63166161137633
 20
16.82975648581851
 30
0
  0
LINE
  5
B7
100
AcDbEntity
  8
0
  6
ByLayer
 62
  256
370
   -1
100
AcDbLine
 10
-14.63166161137633
 20
16.82975648581851
 11
-7.5
 21
20.9472232502576
  0
LINE
  5
B8
100
AcDbEntity
  8
0
  6
ByLayer
 62
  256
370
   -1
100
AcDbLine
 10
-7.629903810568066
 20
21.17222325025796
 11
-13.71414284285492
 21
17.65948620715426
  0
SPLINE
  5
B9
100
AcDbEntity
  8
0
  6
ByLayer
 62
  256
370
   -1
100
AcDbSpline
210
0
220
0
230
0
 70
    8
 71
    3
 72
   14
 73
   10
 74
    0
 42
1e-07
 43
1e-07
 40
-0.8804149087003743
 40
-0.8804149087003743
 40
-0.8804149087003743
 40
-0.8804149087003743
 40
-0.7416745038784879
 40
-0.7416745038784879
 40
-0.4616775439775058
 40
-0.4616775439775058
 40
-0.1962170964610889
 40
-0.1962170964610889
 40
0.0149701145603456
 40
0.0149701145603456
 40
0.0149701145603456
 40
0.0149701145603456
 10
-7.500000000003637
 20
20.94722325026669
 30
0
 10
-7.130463050365506
 20
21.17535698560278
 30
0
 10
-6.762305369946261
 20
21.40118588313453
 30
0
 10
-5.673549429156992
 20
22.06395726310075
 30
0
 10
-4.980246565803099
 20
22.47868822974306
 30
0
 10
-3.897620961633947
 20
23.10844500927487
 30
0
 10
-3.501848890653491
 20
23.32831894863375
 30
0
 10
-3.08499562410725
 20
23.53781799951321
 30
0
 10
-3
 20
23.56779946161259
 30
0
 10
-3
 20
23.54529946161347
 30
0
  0
SPLINE
  5
BA
100
AcDbEntity
  8
0
  6
ByLayer
 62
  256
370
   -1
100
AcDbSpline
210
0
220
0
230
0
 70
    8
 71
    3
 72
   14
 73
   10
 74
    0
 42
1e-07
 43
1e-07
 40
-0.0149701145603456
 40
-0.0149701145603456
 40
-0.0149701145603456
 40
-0.0149701145603456
 40
0.1962170964610889
 40
0.1962170964610889
 40
0.4616775439775058
 40
0.4616775439775058
 40
0.7416745038784879
 40
0.7416745038784879
 40
0.8804149087003743
 40
0.8804149087003743
 40
0.8804149087003743
 40
0.8804149087003743
 10
-2.740192378863866
 20
23.99529946161238
 30
0
 10
-2.740192378863866
 20
23.99529946161238
 30
0
 10
-2.832548839942319
 20
23.94197743394943
 30
0
 10
-3.285502658334735
 20
23.68046442496961
 30
0
 10
-3.715549596065102
 20
23.43217670970625
 30
0
 10
-4.891933327835431
 20
22.75299124549747
 30
0
 10
-5.645277980413084
 20
22.31804750754054
 30
0
 10
-6.828322951529116
 20
21.63501617500151
 30
0
 10
-7.228364022324967
 20
21.40405235509025
 30
0
 10
-7.629903810568066
 20
21.17222325025796
 30
0
  0
ELLIPSE
  5
BB
100
AcDbEntity
  8
0
  6
ByLayer
 62
  256
370
   -1
100
AcDbEllipse
 10
-9
 20
16.23760430702714
 30
0
 11
6
 21
0
 31
0
 40
0.2360679775000923
 41
4.965069235526769
 42
6.283185307179584
  0
ELLIPSE
  5
BC
100
AcDbEntity
  8
0
  6
ByLayer
 62
  256
370
   -1
100
AcDbEllipse
 10
-9
 20
2.381197846476425
 30
0
 11
2.096015021813906
 21
12.45410584882909
 31
0
 40
0.4514162296451875
 41
0.1041819343303771
 42
0.3568621894724564
  0
LINE
  5
BD
100
AcDbEntity
  8
0
  6
ByLayer
 62
  256
370
   -1
100
AcDbLine
 10
-7.5
 20
0.2999999999919964
 11
-7.5
 21
5.999999999992724
  0
SPLINE
  5
BE
100
AcDbEntity
  8
0
  6
ByLayer
 62
  256
370
   -1
100
AcDbSpline
210
0
220
0
230
0
 70
    8
 71
    3
 72
   12
 73
    8
 74
    0
 42
1e-07
 43
1e-07
 40
0
 40
0
 40
0
 40
0
 40
0.0863389482915113
 40
0.0863389482915113
 40
0.1728907842033072
 40
0.1728907842033072
 40
0.2086223870646714
 40
0.2086223870646714
 40
0.2086223870646714
 40
0.2086223870646714
 10
-14.97585295221506
 20
14.97202439895591
 30
0
 10
-15.05662819059216
 20
15.20905832517201
 30
0
 10
-15.08766266904058
 20
15.46298220956669
 30
0
 10
-15.04352887602363
 20
15.9816472004095
 30
0
 10
-14.96867725382617
 20
16.24004617991522
 30
0
 10
-14.79320860889856
 20
16.58708940850556
 30
0
 10
-14.72497321695846
 20
16.70357179399616
 30
0
 10
-14.63166160559558
 20
16.82975647581043
 30
0
  0
LINE
  5
BF
100
AcDbEntity
  8
0
  6
ByLayer
 62
  256
370
   -1
100
AcDbLine
 10
-14
 20
17.49444650052464
 11
-13.71414284285492
 21
17.65948620715426
  0
ARC
  5
C0
100
AcDbEntity
  8
0
  6
ByLayer
 62
  256
370
   -1
100
AcDbCircle
 10
-12.5
 20
14.89637028917241
 40
3
100
AcDbArc
 50
120.0000000000103
 51
180
  0
ELLIPSE
  5
C1
100
AcDbEntity
  8
0
  6
ByLayer
 62
  256
370
   -1
100
AcDbEllipse
 10
-11.5
 20
20.93782217349872
 30
0
 11
1.397343347875938
 21
8.302737232552728
 31
0
 40
0.4514162296451875
 41
2.445351382316967
 42
3.498454843062249
  0
LINE
  5
C2
100
AcDbEntity
  8
0
  6
ByLayer
 62
  256
370
   -1
100
AcDbLine
 10
-11.5
 20
12.93782217350053
 11
-9
 21
14.3811978464746
  0
ENDBLK
  5
70
330
6E
100
AcDbEntity
  8
0
100
AcDbBlockEnd
  0
BLOCK
  5
72
330
71
100
AcDbEntity
  8
0
100
AcDbBlockBegin
  2
GENAXEH
 70
    0
 10
0
 20
0
  3
GENAXEH
  1

  0
LINE
  5
C3
100
AcDbEntity
  8
0
  6
ByLayer
 62
  256
370
   -1
100
AcDbLine
 10
-1
 20
0
 11
1
 21
0
  0
ENDBLK
  5
73
330
71
100
AcDbEntity
  8
0
100
AcDbBlockEnd
  0
BLOCK
  5
75
330
74
100
AcDbEntity
  8
0
100
AcDbBlockBegin
  2
A$C2456717E
 70
    0
 10
0
 20
0
  3
A$C2456717E
  1

  0
LINE
  5
C4
100
AcDbEntity
  8
0
  6
ByLayer
 62
  256
370
   -1
100
AcDbLine
 10
-159
 20
136.9999999999982
 11
0
 21
136.9999999999982
  0
LINE
  5
C5
100
AcDbEntity
  8
0
  6
ByLayer
 62
  256
370
   -1
100
AcDbLine
 10
-159
 20
-137
 11
0
 21
-137
  0
LINE
  5
C6
100
AcDbEntity
  8
0
  6
ByLayer
 62
  256
370
   -1
100
AcDbLine
 10
-156
 20
136.9999999999982
 11
-156
 21
-137
  0
LINE
  5
C7
100
AcDbEntity
  8
0
  6
ByLayer
 62
  256
370
   -1
100
AcDbLine
 10
-159
 20
139.9999999999982
 11
-159
 21
-140
  0
CIRCLE
  5
C8
100
AcDbEntity
  8
0
  6
ByLayer
 62
  256
370
   -1
100
AcDbCircle
 10
-115.0499999999992
 20
-123.5000017100228
 40
4
  0
LINE
  5
C9
100
AcDbEntity
  8
0
  6
ByLayer
 62
  256
370
   -1
100
AcDbLine
 10
-199
 20
-54.99550574930982
 11
-199
 21
-64.99550574930981
  0
LINE
  5
CA
100
AcDbEntity
  8
0
  6
ByLayer
 62
  256
370
   -1
100
AcDbLine
 10
-204
 20
-59.99550574930982
 11
-194
 21
-59.99550574930982
  0
LINE
  5
CB
100
AcDbEntity
  8
0
  6
ByLayer
 62
  256
370
   -1
100
AcDbLine
 10
-204
 20
59.99550574930982
 11
-194
 21
59.99550574930982
  0
LINE
  5
CC
100
AcDbEntity
  8
0
  6
ByLayer
 62
  256
370
   -1
100
AcDbLine
 10
-199
 20
54.99550574930982
 11
-199
 21
64.99550574930981
  0
CIRCLE
  5
CD
100
AcDbEntity
  8
0
  6
ByLayer
 62
  256
370
   -1
100
AcDbCircle
 10
-143.4165589395707
 20
124.5000015088426
 40
4
  0
CIRCLE
  5
CE
100
AcDbEntity
  8
0
  6
ByLayer
 62
  256
370
   -1
100
AcDbCircle
 10
-82.29999999999927
 20
124.5000015088426
 40
4
  0
DIMENSION
  5
CF
100
AcDbEntity
  8
0
  6
ByLayer
 62
  256
370
   -1
100
AcDbDimension
 10
199
 20
147.1785187405912
 30
0
 11
97.5
 21
150.6785187405912
 31
0
 70
   32
 71
    5
  3
BOK
 53
0
210
0
220
0
230
1
100
AcDbAlignedDimension
 13
0
 23
139.9999999999982
 33
0
 14
199
 24
59.99950574930881
 34
0
100
AcDbRotatedDimension
  0
LINE
  5
D0
100
AcDbEntity
  8
0
  6
ByLayer
 62
  256
370
   -1
100
AcDbLine
 10
184
 20
120
 11
184
 21
-120
  0
LINE
  5
D1
100
AcDbEntity
  8
0
  6
ByLayer
 62
  256
370
   -1
100
AcDbLine
 10
214
 20
-120
 11
214
 21
120
  0
DIMENSION
  5
D2
100
AcDbEntity
  8
0
  6
ByLayer
 62
  256
370
   -1
100
AcDbDimension
 10
226.3829540258957
 20
120
 30
0
 11
222.8829540258921
 21
1.819e-12
 31
0
 70
   32
 71
    5
  3
STANDARD
 53
0
210
0
220
0
230
1
100
AcDbAlignedDimension
 13
214
 23
-120
 33
0
 14
214
 24
120
 34
0
 50
90
100
AcDbRotatedDimension
  0
DIMENSION
  5
D3
100
AcDbEntity
  8
0
  6
ByLayer
 62
  256
370
   -1
100
AcDbDimension
 10
209.5134058222611
 20
59.99950574930881
 30
0
 11
206.0134058222575
 21
1.819e-12
 31
0
 70
   32
 71
    5
  3
STANDARD
 53
0
210
0
220
0
230
1
100
AcDbAlignedDimension
 13
199
 23
-59.99950574931062
 33
0
 14
199
 24
59.99950574930881
 34
0
 50
90
100
AcDbRotatedDimension
  0
LWPOLYLINE
  5
D4
100
AcDbEntity
  8
0
  6
ByLayer
 62
  256
370
   -1
100
AcDbPolyline
 90
    4
 70
    1
 43
0
 10
129.4099999999998
 20
112
 10
123.4099999999998
 20
112
 10
123.4099999999998
 20
-112
 10
129.4099999999998
 20
-112
  0
LWPOLYLINE
  5
D5
100
AcDbEntity
  8
0
  6
ByLayer
 62
  256
370
   -1
100
AcDbPolyline
 90
    2
 70
    0
 43
0
 10
3
 20
-65.35424567125301
 10
3
 20
-24.64574829338017
  0
DIMENSION
  5
D6
100
AcDbEntity
  8
0
  6
ByLayer
 62
  256
370
   -1
100
AcDbDimension
 10
169.3235960792226
 20
-100
 30
0
 11
165.823596079219
 21
1.819e-12
 31
0
 70
   32
 71
    5
  3
STANDARD
 53
0
210
0
220
0
230
1
100
AcDbAlignedDimension
 13
173.5166852264519
 23
100
 33
0
 14
173.5166852264519
 24
-100
 34
0
 50
90
100
AcDbRotatedDimension
  0
LINE
  5
D7
100
AcDbEntity
  8
0
  6
ByLayer
 62
  256
370
   -1
100
AcDbLine
 10
135.6562978838046
 20
-112
 11
175.3431457505066
 21
-112
  0
LWPOLYLINE
  5
D8
100
AcDbEntity
  8
0
  6
ByLayer
 62
  256
370
   -1
100
AcDbPolyline
 90
    4
 70
    0
 43
0
 10
65.96000000000276
 20
-92.64575473110744
 10
65.96000000000276
 20
-112
 10
71.96000000000276
 20
-112
 10
71.96000000000276
 20
-92.64575473110744
  0
LWPOLYLINE
  5
D9
100
AcDbEntity
  8
0
  6
ByLayer
 62
  256
370
   -1
100
AcDbPolyline
 90
    4
 70
    0
 43
0
 10
3
 20
-112
 10
0
 20
-112
 10
3
 20
-112
 10
3
 20
-104.6457547311074
  0
LINE
  5
DA
100
AcDbEntity
  8
0
  6
ByLayer
 62
  256
370
   -1
100
AcDbLine
 10
-156
 20
-111.9999999999963
 11
-123.4099999999926
 21
-111.9999999999963
  0
LINE
  5
DB
100
AcDbEntity
  8
0
  6
ByLayer
 62
  256
370
   -1
100
AcDbLine
 10
-118.4647548051325
 20
-111.9999999999963
 11
-65.95999999999913
 21
-111.9999999999982
  0
LINE
  5
DC
100
AcDbEntity
  8
0
  6
ByLayer
 62
  256
370
   -1
100
AcDbLine
 10
-58.99011700600749
 20
-111.9999999999982
 11
3.000000000003637
 21
-111.9999999999982
  0
LINE
  5
DD
100
AcDbEntity
  8
0
  6
ByLayer
 62
  256
370
   -1
100
AcDbLine
 10
9.024047086841165
 20
-111.9999999999982
 11
71.10000000000218
 21
-111.9999999999982
  0
CIRCLE
  5
DE
100
AcDbEntity
  8
0
  6
ByLayer
 62
  256
370
   -1
100
AcDbCircle
 10
-49.54999999999927
 20
-123.500001710021
 40
4
  0
CIRCLE
  5
DF
100
AcDbEntity
  8
0
  6
ByLayer
 62
  256
370
   -1
100
AcDbCircle
 10
15.95000000000073
 20
-123.500001710021
 40
4
  0
LINE
  5
E0
100
AcDbEntity
  8
0
  6
ByLayer
 62
  256
370
   -1
100
AcDbLine
 10
77.19589894258388
 20
-112
 11
127.8500000000022
 21
-112
  0
CIRCLE
  5
E1
100
AcDbEntity
  8
0
  6
ByLayer
 62
  256
370
   -1
100
AcDbCircle
 10
81.45000000000071
 20
-123.500001710021
 40
4
  0
CIRCLE
  5
E2
100
AcDbEntity
  8
0
  6
ByLayer
 62
  256
370
   -1
100
AcDbCircle
 10
143.2028837674916
 20
-123.500001710021
 40
4
  0
LWPOLYLINE
  5
E3
100
AcDbEntity
  8
0
  6
ByLayer
 62
  256
370
   -1
100
AcDbPolyline
 90
    4
 70
    0
 43
0
 10
65.96000000000276
 20
-98.00000342004388
 10
49.9800000000032
 20
-98.00000342004388
 10
49.9800000000032
 20
-106.0000034200438
 10
65.96000000000276
 20
-106.0000034200438
  0
LWPOLYLINE
  5
E4
100
AcDbEntity
  8
0
  6
ByLayer
 62
  256
370
   -1
100
AcDbPolyline
 90
    4
 70
    0
 43
0
 10
65.68000000000393
 20
-63.99999698231477
 10
49.9800000000032
 20
-63.99999698231477
 10
49.9800000000032
 20
-71.99999698231477
 10
65.68000000000393
 20
-71.99999698231477
  0
CIRCLE
  5
E5
100
AcDbEntity
  8
0
  6
ByLayer
 62
  256
370
   -1
100
AcDbCircle
 10
45.9800000000032
 20
-67.99999698231477
 40
4
  0
LWPOLYLINE
  5
E6
100
AcDbEntity
  8
0
  6
ByLayer
 62
  256
370
   -1
100
AcDbPolyline
 90
    2
 70
    0
 43
0
 10
3
 20
-99.3542521089803
 10
3
 20
-70.64574829338017
  0
CIRCLE
  5
E7
100
AcDbEntity
  8
0
  6
ByLayer
 62
  256
370
   -1
100
AcDbCircle
 10
45.9800000000032
 20
-102.0000034200438
 40
4
  0
LINE
  5
E8
100
AcDbEntity
  8
0
  6
ByLayer
 62
  256
370
   -1
100
AcDbLine
 10
-156
 20
-100.0000000000018
 11
-141.6562075504262
 21
-100.0000000000018
  0
LINE
  5
E9
100
AcDbEntity
  8
0
  6
ByLayer
 62
  256
370
   -1
100
AcDbLine
 10
-134.1437924495767
 20
-100.0000000000018
 11
-133.9000000000014
 21
-100.0000000000018
  0
LINE
  5
EA
100
AcDbEntity
  8
0
  6
ByLayer
 62
  256
370
   -1
100
AcDbLine
 10
-88.4759003594263
 20
-100.0000000000018
 11
-87.94000000000233
 21
-100.0000000000018
  0
LINE
  5
EB
100
AcDbEntity
  8
0
  6
ByLayer
 62
  256
370
   -1
100
AcDbLine
 10
-49.97999999999956
 20
-100
 11
-49.44409964057195
 21
-100
  0
LINE
  5
EC
100
AcDbEntity
  8
0
  6
ByLayer
 62
  256
370
   -1
100
AcDbLine
 10
-42.51590035942718
 20
-100
 11
-3.464099640572385
 21
-100
  0
LINE
  5
ED
100
AcDbEntity
  8
0
  6
ByLayer
 62
  256
370
   -1
100
AcDbLine
 10
3.464099640572385
 20
-100
 11
42.51590035943081
 21
-100
  0
CIRCLE
  5
EE
100
AcDbEntity
  8
0
  6
ByLayer
 62
  256
370
   -1
100
AcDbCircle
 10
91.94000000000233
 20
-67.99999698231477
 40
4
  0
LWPOLYLINE
  5
EF
100
AcDbEntity
  8
0
  6
ByLayer
 62
  256
370
   -1
100
AcDbPolyline
 90
    2
 70
    0
 43
0
 10
65.96000000000276
 20
112
 10
65.96000000000276
 20
94.64575432874879
  0
LWPOLYLINE
  5
F0
100
AcDbEntity
  8
0
  6
ByLayer
 62
  256
370
   -1
100
AcDbPolyline
 90
    2
 70
    0
 43
0
 10
71.96000000000276
 20
-87.35425210897847
 10
71.96000000000276
 20
-47.14594496440986
  0
LWPOLYLINE
  5
F1
100
AcDbEntity
  8
0
  6
ByLayer
 62
  256
370
   -1
100
AcDbPolyline
 90
    4
 70
    0
 43
0
 10
72.2400000000016
 20
-63.99999698231477
 10
87.94000000000233
 20
-63.99999698231477
 10
87.94000000000233
 20
-71.99999698231477
 10
72.2400000000016
 20
-71.99999698231477
  0
CIRCLE
  5
F2
100
AcDbEntity
  8
0
  6
ByLayer
 62
  256
370
   -1
100
AcDbCircle
 10
114.9200000000019
 20
-90.00000342004387
 40
4
  0
LINE
  5
F3
100
AcDbEntity
  8
0
  6
ByLayer
 62
  256
370
   -1
100
AcDbLine
 10
87.94000000000233
 20
-100.9998097666976
 11
88.06706666003809
 21
-100.9998097666976
  0
CIRCLE
  5
F4
100
AcDbEntity
  8
0
  6
ByLayer
 62
  256
370
   -1
100
AcDbCircle
 10
91.94000000000233
 20
-102.0000034200438
 40
4
  0
LINE
  5
F5
100
AcDbEntity
  8
0
  6
ByLayer
 62
  256
370
   -1
100
AcDbLine
 10
87.94000000000233
 20
-100.9998097666976
 11
87.99313393794363
 21
-100.9998097666976
  0
CIRCLE
  5
F6
100
AcDbEntity
  8
0
  6
ByLayer
 62
  256
370
   -1
100
AcDbCircle
 10
68.96000000000276
 20
-90.00000342004387
 40
4
  0
LWPOLYLINE
  5
F7
100
AcDbEntity
  8
0
  6
ByLayer
 62
  256
370
   -1
100
AcDbPolyline
 90
    4
 70
    0
 43
0
 10
71.96000000000276
 20
-98.00000342004388
 10
87.94000000000233
 20
-98.00000342004388
 10
87.94000000000233
 20
-106.0000034200438
 10
71.96000000000276
 20
-106.0000034200438
  0
LWPOLYLINE
  5
F8
100
AcDbEntity
  8
0
  6
ByLayer
 62
  256
370
   -1
100
AcDbPolyline
 90
    4
 70
    0
 43
0
 10
123.4099999999998
 20
-86.00000342004387
 10
118.9200000000019
 20
-86.00000342004387
 10
118.9200000000019
 20
-94.00000342004387
 10
123.4099999999998
 20
-94.00000342004387
  0
CIRCLE
  5
F9
100
AcDbEntity
  8
0
  6
ByLayer
 62
  256
370
   -1
100
AcDbCircle
 10
114.9200000000019
 20
-44.50019365334447
 40
4
  0
CIRCLE
  5
FA
100
AcDbEntity
  8
0
  6
ByLayer
 62
  256
370
   -1
100
AcDbCircle
 10
68.96000000000276
 20
-44.50019365334447
 40
4
  0
LWPOLYLINE
  5
FB
100
AcDbEntity
  8
0
  6
ByLayer
 62
  256
370
   -1
100
AcDbPolyline
 90
    4
 70
    0
 43
0
 10
123.4099999999998
 20
-40.50019365334446
 10
118.9200000000019
 20
-40.50019365334446
 10
118.9200000000019
 20
-48.50019365334446
 10
123.4099999999998
 20
-48.50019365334446
  0
ARC
  5
FC
100
AcDbEntity
  8
0
  6
ByLayer
 62
  256
370
   -1
100
AcDbCircle
 10
181
 20
-105
 40
9
100
AcDbArc
 50
90
 51
270
  0
LINE
  5
FD
100
AcDbEntity
  8
0
  6
ByLayer
 62
  256
370
   -1
100
AcDbLine
 10
184
 20
-120
 11
184
 21
-114
  0
LINE
  5
FE
100
AcDbEntity
  8
0
  6
ByLayer
 62
  256
370
   -1
100
AcDbLine
 10
184
 20
-114
 11
181
 21
-114
  0
LINE
  5
FF
100
AcDbEntity
  8
0
  6
ByLayer
 62
  256
370
   -1
100
AcDbLine
 10
214
 20
-120
 11
184
 21
-120
  0
DIMENSION
  5
100
100
AcDbEntity
  8
0
  6
ByLayer
 62
  256
370
   -1
100
AcDbDimension
 10
214
 20
-130.8769043016091
 30
0
 11
199
 21
-127.3769043016091
 31
0
 70
   32
 71
    5
  3
STANDARD
 53
0
210
0
220
0
230
1
100
AcDbAlignedDimension
 13
184
 23
-120
 33
0
 14
214
 24
-120
 34
0
100
AcDbRotatedDimension
  0
LINE
  5
101
100
AcDbEntity
  8
0
  6
ByLayer
 62
  256
370
   -1
100
AcDbLine
 10
181
 20
-96
 11
184
 21
-96
  0
CIRCLE
  5
102
100
AcDbEntity
  8
0
  6
ByLayer
 62
  256
370
   -1
100
AcDbCircle
 10
199
 20
-59.99950574931062
 40
5.5
  0
LINE
  5
103
100
AcDbEntity
  8
0
  6
ByLayer
 62
  256
370
   -1
100
AcDbLine
 10
123.4099999999998
 20
112
 11
175.3431457505066
 21
112
  0
LINE
  5
104
100
AcDbEntity
  8
0
  6
ByLayer
 62
  256
370
   -1
100
AcDbLine
 10
133.9000000000014
 20
100
 11
135.7530592391485
 21
100
  0
LINE
  5
105
100
AcDbEntity
  8
0
  6
ByLayer
 62
  256
370
   -1
100
AcDbLine
 10
140.0469407608579
 20
100
 11
173.5166852264519
 21
100
  0
LWPOLYLINE
  5
106
100
AcDbEntity
  8
0
  6
ByLayer
 62
  256
370
   -1
100
AcDbPolyline
 90
    4
 70
    0
 43
0
 10
123.4099999999998
 20
50.49980634665553
 10
118.9200000000019
 20
50.49980634665553
 10
118.9200000000019
 20
42.49980634665553
 10
123.4099999999998
 20
42.49980634665553
  0
CIRCLE
  5
107
100
AcDbEntity
  8
0
  6
ByLayer
 62
  256
370
   -1
100
AcDbCircle
 10
114.9200000000019
 20
46.49980634665553
 40
4
  0
CIRCLE
  5
108
100
AcDbEntity
  8
0
  6
ByLayer
 62
  256
370
   -1
100
AcDbCircle
 10
23.00000000000364
 20
46.49980634665553
 40
4
  0
CIRCLE
  5
109
100
AcDbEntity
  8
0
  6
ByLayer
 62
  256
370
   -1
100
AcDbCircle
 10
68.96000000000276
 20
46.49980634665553
 40
4
  0
LWPOLYLINE
  5
10A
100
AcDbEntity
  8
0
  6
ByLayer
 62
  256
370
   -1
100
AcDbPolyline
 90
    2
 70
    0
 43
0
 10
3
 20
26.64575432874881
 10
3
 20
67.35425170661983
  0
LWPOLYLINE
  5
10B
100
AcDbEntity
  8
0
  6
ByLayer
 62
  256
370
   -1
100
AcDbPolyline
 90
    4
 70
    0
 43
0
 10
3
 20
50.49980634665553
 10
19.00000000000364
 20
50.49980634665553
 10
19.00000000000364
 20
42.49980634665553
 10
3
 20
42.49980634665553
  0
LWPOLYLINE
  5
10C
100
AcDbEntity
  8
0
  6
ByLayer
 62
  256
370
   -1
100
AcDbPolyline
 90
    4
 70
    0
 43
0
 10
65.96000000000276
 20
28.00000301768523
 10
49.9800000000032
 20
28.00000301768523
 10
49.9800000000032
 20
20.00000301768523
 10
65.96000000000276
 20
20.00000301768523
  0
LWPOLYLINE
  5
10D
100
AcDbEntity
  8
0
  6
ByLayer
 62
  256
370
   -1
100
AcDbPolyline
 90
    4
 70
    0
 43
0
 10
65.96000000000276
 20
-17.99999698231477
 10
49.9800000000032
 20
-17.99999698231477
 10
49.9800000000032
 20
-25.99999698231477
 10
65.96000000000276
 20
-25.99999698231477
  0
LWPOLYLINE
  5
10E
100
AcDbEntity
  8
0
  6
ByLayer
 62
  256
370
   -1
100
AcDbPolyline
 90
    2
 70
    0
 43
0
 10
3
 20
-19.35424567125119
 10
3
 20
21.35425170661983
  0
CIRCLE
  5
10F
100
AcDbEntity
  8
0
  6
ByLayer
 62
  256
370
   -1
100
AcDbCircle
 10
23.00000000000364
 20
0.9998063466555323
 40
4
  0
CIRCLE
  5
110
100
AcDbEntity
  8
0
  6
ByLayer
 62
  256
370
   -1
100
AcDbCircle
 10
45.9800000000032
 20
-21.99999698231477
 40
4
  0
LWPOLYLINE
  5
111
100
AcDbEntity
  8
0
  6
ByLayer
 62
  256
370
   -1
100
AcDbPolyline
 90
    4
 70
    0
 43
0
 10
3
 20
4.999806346655532
 10
19.00000000000364
 20
4.999806346655532
 10
19.00000000000364
 20
-3.000193653344467
 10
3
 20
-3.000193653344467
  0
CIRCLE
  5
112
100
AcDbEntity
  8
0
  6
ByLayer
 62
  256
370
   -1
100
AcDbCircle
 10
45.9800000000032
 20
24.00000301768523
 40
4
  0
CIRCLE
  5
113
100
AcDbEntity
  8
0
  6
ByLayer
 62
  256
370
   -1
100
AcDbCircle
 10
114.9200000000019
 20
0.9998063466555323
 40
4
  0
CIRCLE
  5
114
100
AcDbEntity
  8
0
  6
ByLayer
 62
  256
370
   -1
100
AcDbCircle
 10
91.94000000000233
 20
-21.99999698231477
 40
4
  0
CIRCLE
  5
115
100
AcDbEntity
  8
0
  6
ByLayer
 62
  256
370
   -1
100
AcDbCircle
 10
68.96000000000276
 20
0.9998063466555323
 40
4
  0
LWPOLYLINE
  5
116
100
AcDbEntity
  8
0
  6
ByLayer
 62
  256
370
   -1
100
AcDbPolyline
 90
    4
 70
    0
 43
0
 10
71.96000000000276
 20
-17.99999698231477
 10
87.94000000000233
 20
-17.99999698231477
 10
87.94000000000233
 20
-25.99999698231477
 10
71.96000000000276
 20
-25.99999698231477
  0
LWPOLYLINE
  5
117
100
AcDbEntity
  8
0
  6
ByLayer
 62
  256
370
   -1
100
AcDbPolyline
 90
    4
 70
    0
 43
0
 10
123.4099999999998
 20
4.999806346655532
 10
118.9200000000019
 20
4.999806346655532
 10
118.9200000000019
 20
-3.000193653344467
 10
123.4099999999998
 20
-3.000193653344467
  0
CIRCLE
  5
118
100
AcDbEntity
  8
0
  6
ByLayer
 62
  256
370
   -1
100
AcDbCircle
 10
91.94000000000233
 20
24.00000301768523
 40
4
  0
LWPOLYLINE
  5
119
100
AcDbEntity
  8
0
  6
ByLayer
 62
  256
370
   -1
100
AcDbPolyline
 90
    4
 70
    0
 43
0
 10
71.96000000000276
 20
28.00000301768523
 10
87.94000000000233
 20
28.00000301768523
 10
87.94000000000233
 20
20.00000301768523
 10
71.96000000000276
 20
20.00000301768523
  0
LWPOLYLINE
  5
11A
100
AcDbEntity
  8
0
  6
ByLayer
 62
  256
370
   -1
100
AcDbPolyline
 90
    4
 70
    0
 43
0
 10
65.96000000000276
 20
108.0000030176852
 10
49.9800000000032
 20
108.0000030176852
 10
49.9800000000032
 20
100.0000030176852
 10
65.96000000000276
 20
100.0000030176852
  0
LWPOLYLINE
  5
11B
100
AcDbEntity
  8
0
  6
ByLayer
 62
  256
370
   -1
100
AcDbPolyline
 90
    4
 70
    0
 43
0
 10
65.96000000000276
 20
74.00000301768523
 10
49.9800000000032
 20
74.00000301768523
 10
49.9800000000032
 20
66.00000301768523
 10
65.96000000000276
 20
66.00000301768523
  0
LINE
  5
11C
100
AcDbEntity
  8
0
  6
ByLayer
 62
  256
370
   -1
100
AcDbLine
 10
-156
 20
112
 11
-135.4174291795243
 21
112
  0
LINE
  5
11D
100
AcDbEntity
  8
0
  6
ByLayer
 62
  256
370
   -1
100
AcDbLine
 10
-129.4100000000035
 20
112
 11
-77.15116121854589
 21
112
  0
LINE
  5
11E
100
AcDbEntity
  8
0
  6
ByLayer
 62
  256
370
   -1
100
AcDbLine
 10
-71.9600000000064
 20
112
 11
-8.958275865730684
 21
112
  0
LINE
  5
11F
100
AcDbEntity
  8
0
  6
ByLayer
 62
  256
370
   -1
100
AcDbLine
 10
-2.999999999996362
 20
112
 11
59.17631431428526
 21
112
  0
CIRCLE
  5
120
100
AcDbEntity
  8
0
  6
ByLayer
 62
  256
370
   -1
100
AcDbCircle
 10
23.00000000000364
 20
92.00000301768524
 40
4
  0
LWPOLYLINE
  5
121
100
AcDbEntity
  8
0
  6
ByLayer
 62
  256
370
   -1
100
AcDbPolyline
 90
    2
 70
    0
 43
0
 10
3
 20
72.64575432874881
 10
3
 20
101.3542517066198
  0
LWPOLYLINE
  5
122
100
AcDbEntity
  8
0
  6
ByLayer
 62
  256
370
   -1
100
AcDbPolyline
 90
    4
 70
    0
 43
0
 10
3
 20
96.00000301768524
 10
19.00000000000364
 20
96.00000301768524
 10
19.00000000000364
 20
88.00000301768523
 10
3
 20
88.00000301768523
  0
CIRCLE
  5
123
100
AcDbEntity
  8
0
  6
ByLayer
 62
  256
370
   -1
100
AcDbCircle
 10
45.9800000000032
 20
70.00000301768523
 40
4
  0
CIRCLE
  5
124
100
AcDbEntity
  8
0
  6
ByLayer
 62
  256
370
   -1
100
AcDbCircle
 10
-16.79999999999927
 20
124.5000015088426
 40
4
  0
CIRCLE
  5
125
100
AcDbEntity
  8
0
  6
ByLayer
 62
  256
370
   -1
100
AcDbCircle
 10
45.9800000000032
 20
104.0000030176852
 40
4
  0
CIRCLE
  5
126
100
AcDbEntity
  8
0
  6
ByLayer
 62
  256
370
   -1
100
AcDbCircle
 10
48.70000000000072
 20
124.5000015088426
 40
4
  0
LWPOLYLINE
  5
127
100
AcDbEntity
  8
0
  6
ByLayer
 62
  256
370
   -1
100
AcDbPolyline
 90
    4
 70
    0
 43
0
 10
3
 20
106.6457543287488
 10
3
 20
112
 10
-3
 20
112
 10
-3
 20
106.6457543287488
  0
LWPOLYLINE
  5
128
100
AcDbEntity
  8
0
  6
ByLayer
 62
  256
370
   -1
100
AcDbPolyline
 90
    2
 70
    0
 43
0
 10
-3
 20
101.3542517066198
 10
-3
 20
72.64575432874881
  0
LWPOLYLINE
  5
129
100
AcDbEntity
  8
0
  6
ByLayer
 62
  256
370
   -1
100
AcDbPolyline
 90
    2
 70
    0
 43
0
 10
-3
 20
67.35425170661983
 10
-3
 20
26.64575432874881
  0
LWPOLYLINE
  5
12A
100
AcDbEntity
  8
0
  6
ByLayer
 62
  256
370
   -1
100
AcDbPolyline
 90
    2
 70
    0
 43
0
 10
-3
 20
21.35425170661983
 10
-3
 20
-19.35424567125119
  0
LWPOLYLINE
  5
12B
100
AcDbEntity
  8
0
  6
ByLayer
 62
  256
370
   -1
100
AcDbPolyline
 90
    2
 70
    0
 43
0
 10
-3
 20
-24.64574829338017
 10
-3
 20
-65.35424567125119
  0
LWPOLYLINE
  5
12C
100
AcDbEntity
  8
0
  6
ByLayer
 62
  256
370
   -1
100
AcDbPolyline
 90
    2
 70
    0
 43
0
 10
-3
 20
-70.64574829338017
 10
-3
 20
-99.35425210897847
  0
LWPOLYLINE
  5
12D
100
AcDbEntity
  8
0
  6
ByLayer
 62
  256
370
   -1
100
AcDbPolyline
 90
    4
 70
    0
 43
0
 10
-3
 20
-104.6457547311074
 10
-3
 20
-112
 10
0
 20
-112
 10
-3
 20
-112
  0
LINE
  5
12E
100
AcDbEntity
  8
0
  6
ByLayer
 62
  256
370
   -1
100
AcDbLine
 10
-156
 20
100
 11
-140.0469407608579
 21
100
  0
LINE
  5
12F
100
AcDbEntity
  8
0
  6
ByLayer
 62
  256
370
   -1
100
AcDbLine
 10
-135.7530592391449
 20
100
 11
-133.9000000000014
 21
100
  0
LINE
  5
130
100
AcDbEntity
  8
0
  6
ByLayer
 62
  256
370
   -1
100
AcDbLine
 10
-123.4100000000035
 20
100
 11
-71.95999999999913
 21
100
  0
LINE
  5
131
100
AcDbEntity
  8
0
  6
ByLayer
 62
  256
370
   -1
100
AcDbLine
 10
-65.95999999999913
 20
100
 11
-3
 21
100
  0
LINE
  5
132
100
AcDbEntity
  8
0
  6
ByLayer
 62
  256
370
   -1
100
AcDbLine
 10
3
 20
100
 11
49.9800000000032
 21
100
  0
LWPOLYLINE
  5
133
100
AcDbEntity
  8
0
  6
ByLayer
 62
  256
370
   -1
100
AcDbPolyline
 90
    4
 70
    0
 43
0
 10
123.4099999999998
 20
96.00000301768524
 10
118.9200000000019
 20
96.00000301768524
 10
118.9200000000019
 20
88.00000301768523
 10
123.4099999999998
 20
88.00000301768523
  0
CIRCLE
  5
134
100
AcDbEntity
  8
0
  6
ByLayer
 62
  256
370
   -1
100
AcDbCircle
 10
114.9200000000019
 20
92.00000301768524
 40
4
  0
CIRCLE
  5
135
100
AcDbEntity
  8
0
  6
ByLayer
 62
  256
370
   -1
100
AcDbCircle
 10
68.96000000000276
 20
92.00000301768524
 40
4
  0
CIRCLE
  5
136
100
AcDbEntity
  8
0
  6
ByLayer
 62
  256
370
   -1
100
AcDbCircle
 10
91.94000000000233
 20
70.00000301768523
 40
4
  0
LWPOLYLINE
  5
137
100
AcDbEntity
  8
0
  6
ByLayer
 62
  256
370
   -1
100
AcDbPolyline
 90
    4
 70
    0
 43
0
 10
71.96000000000276
 20
74.00000301768523
 10
87.94000000000233
 20
74.00000301768523
 10
87.94000000000233
 20
66.00000301768523
 10
71.96000000000276
 20
66.00000301768523
  0
CIRCLE
  5
138
100
AcDbEntity
  8
0
  6
ByLayer
 62
  256
370
   -1
100
AcDbCircle
 10
114.2000000000007
 20
124.5000015088426
 40
4
  0
LINE
  5
139
100
AcDbEntity
  8
0
  6
ByLayer
 62
  256
370
   -1
100
AcDbLine
 10
87.94000000000233
 20
100
 11
123.4099999999998
 21
100
  0
LINE
  5
13A
100
AcDbEntity
  8
0
  6
ByLayer
 62
  256
370
   -1
100
AcDbLine
 10
65.96000000000276
 20
112
 11
118.4415006548188
 21
112
  0
CIRCLE
  5
13B
100
AcDbEntity
  8
0
  6
ByLayer
 62
  256
370
   -1
100
AcDbCircle
 10
91.94000000000233
 20
104.0000030176852
 40
4
  0
LWPOLYLINE
  5
13C
100
AcDbEntity
  8
0
  6
ByLayer
 62
  256
370
   -1
100
AcDbPolyline
 90
    4
 70
    0
 43
0
 10
71.96000000000276
 20
108.0000030176852
 10
87.94000000000233
 20
108.0000030176852
 10
87.94000000000233
 20
100.0000030176852
 10
71.96000000000276
 20
100.0000030176852
  0
CIRCLE
  5
13D
100
AcDbEntity
  8
0
  6
ByLayer
 62
  256
370
   -1
100
AcDbCircle
 10
199
 20
59.99950574930881
 40
5.5
  0
LINE
  5
13E
100
AcDbEntity
  8
0
  6
ByLayer
 62
  256
370
   -1
100
AcDbLine
 10
184
 20
96
 11
181
 21
96
  0
LINE
  5
13F
100
AcDbEntity
  8
0
  6
ByLayer
 62
  256
370
   -1
100
AcDbLine
 10
184
 20
114
 11
181
 21
114
  0
ARC
  5
140
100
AcDbEntity
  8
0
  6
ByLayer
 62
  256
370
   -1
100
AcDbCircle
 10
181
 20
105
 40
9
100
AcDbArc
 50
90
 51
270
  0
LINE
  5
141
100
AcDbEntity
  8
0
  6
ByLayer
 62
  256
370
   -1
100
AcDbLine
 10
214
 20
120
 11
184
 21
120
  0
LINE
  5
142
100
AcDbEntity
  8
0
  6
ByLayer
 62
  256
370
   -1
100
AcDbLine
 10
87.94000000000233
 20
-100
 11
88.47590035942994
 21
-100
  0
CIRCLE
  5
143
100
AcDbEntity
  8
0
  6
ByLayer
 62
  256
370
   -1
100
AcDbCircle
 10
23.00000000000364
 20
-44.50019365334447
 40
4
  0
LWPOLYLINE
  5
144
100
AcDbEntity
  8
0
  6
ByLayer
 62
  256
370
   -1
100
AcDbPolyline
 90
    4
 70
    0
 43
0
 10
3
 20
-40.50019365334446
 10
19.00000000000364
 20
-40.50019365334446
 10
19.00000000000364
 20
-48.50019365334446
 10
3
 20
-48.50019365334446
  0
CIRCLE
  5
145
100
AcDbEntity
  8
0
  6
ByLayer
 62
  256
370
   -1
100
AcDbCircle
 10
23.00000000000364
 20
-90.00000342004387
 40
4
  0
LWPOLYLINE
  5
146
100
AcDbEntity
  8
0
  6
ByLayer
 62
  256
370
   -1
100
AcDbPolyline
 90
    4
 70
    0
 43
0
 10
3
 20
-86.00000342004387
 10
19.00000000000364
 20
-86.00000342004387
 10
19.00000000000364
 20
-94.00000342004387
 10
3
 20
-94.00000342004387
  0
LINE
  5
147
100
AcDbEntity
  8
0
  6
ByLayer
 62
  256
370
   -1
100
AcDbLine
 10
5.656021735780086
 20
-109.0090890118426
 11
15.61511074762165
 21
-117.8530689860872
  0
LINE
  5
148
100
AcDbEntity
  8
0
  6
ByLayer
 62
  256
370
   -1
100
AcDbLine
 10
0.3439782642235514
 20
-114.9909109881555
 11
10.30306727606512
 21
-123.8348909624001
  0
LINE
  5
149
100
AcDbEntity
  8
0
  6
ByLayer
 62
  256
370
   -1
100
AcDbLine
 10
5.656021735780086
 20
-109.0090890118426
 11
0.3439782642235514
 21
-114.9909109881555
  0
LINE
  5
14A
100
AcDbEntity
  8
0
  6
ByLayer
 62
  256
370
   -1
100
AcDbLine
 10
15.61511074762165
 20
-117.8530689860872
 11
10.30306727606512
 21
-123.8348909624001
  0
LINE
  5
14B
100
AcDbEntity
  8
0
  6
ByLayer
 62
  256
370
   -1
100
AcDbLine
 10
49.44409964057559
 20
-100
 11
49.9800000000032
 21
-100
  0
LWPOLYLINE
  5
14C
100
AcDbEntity
  8
0
  6
ByLayer
 62
  256
370
   -1
100
AcDbPolyline
 90
    2
 70
    0
 43
0
 10
65.96000000000276
 20
89.35425170661983
 10
65.96000000000276
 20
49.14555765771911
  0
LWPOLYLINE
  5
14D
100
AcDbEntity
  8
0
  6
ByLayer
 62
  256
370
   -1
100
AcDbPolyline
 90
    2
 70
    0
 43
0
 10
71.96000000000276
 20
94.64575432874879
 10
71.96000000000276
 20
112
  0
LWPOLYLINE
  5
14E
100
AcDbEntity
  8
0
  6
ByLayer
 62
  256
370
   -1
100
AcDbPolyline
 90
    2
 70
    0
 43
0
 10
65.96000000000276
 20
43.85405503559195
 10
65.96000000000276
 20
3.645557657719109
  0
LWPOLYLINE
  5
14F
100
AcDbEntity
  8
0
  6
ByLayer
 62
  256
370
   -1
100
AcDbPolyline
 90
    2
 70
    0
 43
0
 10
71.96000000000276
 20
49.14555765772092
 10
71.96000000000276
 20
89.35425170661983
  0
LWPOLYLINE
  5
150
100
AcDbEntity
  8
0
  6
ByLayer
 62
  256
370
   -1
100
AcDbPolyline
 90
    2
 70
    0
 43
0
 10
71.96000000000276
 20
-41.85444234227907
 10
71.96000000000276
 20
-1.645944964409864
  0
LWPOLYLINE
  5
151
100
AcDbEntity
  8
0
  6
ByLayer
 62
  256
370
   -1
100
AcDbPolyline
 90
    2
 70
    0
 43
0
 10
65.96000000000276
 20
-47.14594496440986
 10
65.96000000000276
 20
-87.35425210897847
  0
LINE
  5
152
100
AcDbEntity
  8
0
  6
ByLayer
 62
  256
370
   -1
100
AcDbLine
 10
95.40409964057471
 20
-100
 11
123.4099999999998
 21
-100
  0
LINE
  5
153
100
AcDbEntity
  8
0
  6
ByLayer
 62
  256
370
   -1
100
AcDbLine
 10
141.3640996405738
 20
-100
 11
173.5166852264519
 21
-100
  0
LINE
  5
154
100
AcDbEntity
  8
0
  6
ByLayer
 62
  256
370
   -1
100
AcDbLine
 10
131.9715172855431
 20
-108.9277647883209
 11
142.6921658413557
 21
-117.8662492128023
  0
LINE
  5
155
100
AcDbEntity
  8
0
  6
ByLayer
 62
  256
370
   -1
100
AcDbLine
 10
126.8484827144602
 20
-115.0722352116772
 11
137.5691312702729
 21
-124.0107196361587
  0
LINE
  5
156
100
AcDbEntity
  8
0
  6
ByLayer
 62
  256
370
   -1
100
AcDbLine
 10
131.9715172855431
 20
-108.9277647883209
 11
126.8484827144602
 21
-115.0722352116772
  0
LINE
  5
157
100
AcDbEntity
  8
0
  6
ByLayer
 62
  256
370
   -1
100
AcDbLine
 10
142.6921658413557
 20
-117.8662492128023
 11
137.5691312702729
 21
-124.0107196361587
  0
LINE
  5
158
100
AcDbEntity
  8
0
  6
ByLayer
 62
  256
370
   -1
100
AcDbLine
 10
113.3524198494487
 20
118.9070051841172
 11
120.189711762363
 21
109.6272919129114
  0
LINE
  5
159
100
AcDbEntity
  8
0
  6
ByLayer
 62
  256
370
   -1
100
AcDbLine
 10
119.7929963247261
 20
123.6524213582925
 11
126.6302882376367
 21
114.3727080870885
  0
LINE
  5
15A
100
AcDbEntity
  8
0
  6
ByLayer
 62
  256
370
   -1
100
AcDbLine
 10
119.7929963247261
 20
123.6524213582925
 11
113.3524198494487
 21
118.9070051841172
  0
LINE
  5
15B
100
AcDbEntity
  8
0
  6
ByLayer
 62
  256
370
   -1
100
AcDbLine
 10
126.6302882376403
 20
114.3727080870885
 11
120.189711762363
 21
109.6272919129114
  0
LINE
  5
15C
100
AcDbEntity
  8
0
  6
ByLayer
 62
  256
370
   -1
100
AcDbLine
 10
75.04516404107198
 20
-109.454069356856
 11
81.989233397926
 21
-117.8689070258115
  0
LINE
  5
15D
100
AcDbEntity
  8
0
  6
ByLayer
 62
  256
370
   -1
100
AcDbLine
 10
68.87483595893355
 20
-114.5459306431421
 11
75.81890531578756
 21
-122.9607683120957
  0
LINE
  5
15E
100
AcDbEntity
  8
0
  6
ByLayer
 62
  256
370
   -1
100
AcDbLine
 10
75.04516404107198
 20
-109.454069356856
 11
68.87483595893355
 21
-114.5459306431421
  0
LINE
  5
15F
100
AcDbEntity
  8
0
  6
ByLayer
 62
  256
370
   -1
100
AcDbLine
 10
81.989233397926
 20
-117.8689070258096
 11
75.81890531578756
 21
-122.9607683120957
  0
LINE
  5
160
100
AcDbEntity
  8
0
  6
ByLayer
 62
  256
370
   -1
100
AcDbLine
 10
-65.95999999999913
 20
-112.0000000000018
 11
-71.95999999999913
 21
-112.0000000000018
  0
LINE
  5
161
100
AcDbEntity
  8
0
  6
ByLayer
 62
  256
370
   -1
100
AcDbLine
 10
-120.1745689203417
 20
-109.6479826257491
 11
-114.1665862945992
 21
-117.912553256112
  0
LINE
  5
162
100
AcDbEntity
  8
0
  6
ByLayer
 62
  256
370
   -1
100
AcDbLine
 10
-126.6454310796544
 20
-114.3520173742581
 11
-120.6374484539119
 21
-122.616588004621
  0
LINE
  5
163
100
AcDbEntity
  8
0
  6
ByLayer
 62
  256
370
   -1
100
AcDbLine
 10
-63.66440909642552
 20
-108.7242920759909
 11
-50.53011702043659
 21
-117.9287028824365
  0
LINE
  5
164
100
AcDbEntity
  8
0
  6
ByLayer
 62
  256
370
   -1
100
AcDbLine
 10
-68.25559090357272
 20
-115.2757079240127
 11
-55.12129882758381
 21
-124.4801187304583
  0
LINE
  5
165
100
AcDbEntity
  8
0
  6
ByLayer
 62
  256
370
   -1
100
AcDbLine
 10
-120.1745689203417
 20
-109.6479826257491
 11
-126.6454310796544
 21
-114.3520173742581
  0
LINE
  5
166
100
AcDbEntity
  8
0
  6
ByLayer
 62
  256
370
   -1
100
AcDbLine
 10
-114.1665862945992
 20
-117.912553256112
 11
-120.6374484539119
 21
-122.616588004621
  0
LINE
  5
167
100
AcDbEntity
  8
0
  6
ByLayer
 62
  256
370
   -1
100
AcDbLine
 10
-63.66440909642552
 20
-108.7242920759909
 11
-68.25559090357272
 21
-115.2757079240127
  0
LINE
  5
168
100
AcDbEntity
  8
0
  6
ByLayer
 62
  256
370
   -1
100
AcDbLine
 10
-50.53011702043659
 20
-117.9287028824365
 11
-55.12129882758381
 21
-124.4801187304583
  0
LINE
  5
169
100
AcDbEntity
  8
0
  6
ByLayer
 62
  256
370
   -1
100
AcDbLine
 10
-123.4100000000035
 20
-112.0000000000036
 11
-129.4099999999962
 21
-112.0000000000036
  0
LINE
  5
16A
100
AcDbEntity
  8
0
  6
ByLayer
 62
  256
370
   -1
100
AcDbLine
 10
-129.4099999999962
 20
-112.0000000000036
 11
-129.4100000000035
 21
111.9999999999963
  0
LINE
  5
16B
100
AcDbEntity
  8
0
  6
ByLayer
 62
  256
370
   -1
100
AcDbLine
 10
-129.4100000000035
 20
111.9999999999963
 11
-123.4100000000035
 21
111.9999999999963
  0
LINE
  5
16C
100
AcDbEntity
  8
0
  6
ByLayer
 62
  256
370
   -1
100
AcDbLine
 10
-123.4100000000035
 20
111.9999999999963
 11
-123.4100000000035
 21
-112.0000000000036
  0
LINE
  5
16D
100
AcDbEntity
  8
0
  6
ByLayer
 62
  256
370
   -1
100
AcDbLine
 10
-137.7688197378775
 20
124.8210029257425
 11
-126.7466311076095
 21
114.9843703092938
  0
LINE
  5
16E
100
AcDbEntity
  8
0
  6
ByLayer
 62
  256
370
   -1
100
AcDbLine
 10
-143.0955575226726
 20
118.8522623071494
 11
-132.073368892401
 21
109.0156296907007
  0
LINE
  5
16F
100
AcDbEntity
  8
0
  6
ByLayer
 62
  256
370
   -1
100
AcDbLine
 10
-143.0955575226726
 20
118.8522623071494
 11
-137.7688197378775
 21
124.8210029257425
  0
LINE
  5
170
100
AcDbEntity
  8
0
  6
ByLayer
 62
  256
370
   -1
100
AcDbLine
 10
-132.073368892401
 20
109.0156296907007
 11
-126.7466311076095
 21
114.9843703092938
  0
LINE
  5
171
100
AcDbEntity
  8
0
  6
ByLayer
 62
  256
370
   -1
100
AcDbLine
 10
-11.1500437666109
 20
124.7792765718513
 11
-0.3146594148092845
 21
114.9646156481976
  0
LINE
  5
172
100
AcDbEntity
  8
0
  6
ByLayer
 62
  256
370
   -1
100
AcDbLine
 10
-16.5207249369887
 20
118.850045275456
 11
-5.685340585187077
 21
109.0353843518023
  0
LINE
  5
173
100
AcDbEntity
  8
0
  6
ByLayer
 62
  256
370
   -1
100
AcDbLine
 10
-0.3146594148092845
 20
114.9646156481976
 11
-5.685340585187077
 21
109.0353843518023
  0
LINE
  5
174
100
AcDbEntity
  8
0
  6
ByLayer
 62
  256
370
   -1
100
AcDbLine
 10
-16.5207249369887
 20
118.850045275456
 11
-11.1500437666109
 21
124.7792765718513
  0
LINE
  5
175
100
AcDbEntity
  8
0
  6
ByLayer
 62
  256
370
   -1
100
AcDbLine
 10
-76.66827384633143
 20
123.9674036022879
 11
-68.87783796988879
 21
114.5495641235629
  0
LINE
  5
176
100
AcDbEntity
  8
0
  6
ByLayer
 62
  256
370
   -1
100
AcDbLine
 10
-82.83259790655575
 20
118.8682753551711
 11
-75.0421620301131
 21
109.4504358764461
  0
LINE
  5
177
100
AcDbEntity
  8
0
  6
ByLayer
 62
  256
370
   -1
100
AcDbLine
 10
-68.87783796988879
 20
114.5495641235629
 11
-75.0421620301131
 21
109.4504358764461
  0
LINE
  5
178
100
AcDbEntity
  8
0
  6
ByLayer
 62
  256
370
   -1
100
AcDbLine
 10
-82.83259790655575
 20
118.8682753551711
 11
-76.66827384632779
 21
123.9674036022879
  0
LWPOLYLINE
  5
179
100
AcDbEntity
  8
0
  6
ByLayer
 62
  256
370
   -1
100
AcDbPolyline
 90
    2
 70
    0
 43
0
 10
71.96000000000276
 20
3.645557657720928
 10
71.96000000000276
 20
43.85405503559013
  0
LWPOLYLINE
  5
17A
100
AcDbEntity
  8
0
  6
ByLayer
 62
  256
370
   -1
100
AcDbPolyline
 90
    2
 70
    0
 43
0
 10
65.96000000000276
 20
-1.645944964408045
 10
65.96000000000276
 20
-41.85444234228088
  0
LINE
  5
17B
100
AcDbEntity
  8
0
  6
ByLayer
 62
  256
370
   -1
100
AcDbLine
 10
-159
 20
-140
 11
0
 21
-140
  0
LINE
  5
17C
100
AcDbEntity
  8
0
  6
ByLayer
 62
  256
370
   -1
100
AcDbLine
 10
-159
 20
139.9999999999982
 11
0
 21
139.9999999999982
  0
ARC
  5
17D
100
AcDbEntity
  8
0
  6
ByLayer
 62
  256
370
   -1
100
AcDbCircle
 10
126.4100003772109
 20
106.0000007544204
 40
6
100
AcDbArc
 50
13.2480371091573
 51
60.00000415932957
  0
ARC
  5
17E
100
AcDbEntity
  8
0
  6
ByLayer
 62
  256
370
   -1
100
AcDbCircle
 10
126.4100003772109
 20
106.0000007544204
 40
6
100
AcDbArc
 50
120.0000041592981
 51
239.9999958407019
  0
ARC
  5
17F
100
AcDbEntity
  8
0
  6
ByLayer
 62
  256
370
   -1
100
AcDbCircle
 10
68.96300882907599
 20
106.0000007544204
 40
6
100
AcDbArc
 50
19.47124355805857
 51
60.00000415932957
  0
ARC
  5
180
100
AcDbEntity
  8
0
  6
ByLayer
 62
  256
370
   -1
100
AcDbCircle
 10
68.95699117092954
 20
106.0000007544204
 40
6
100
AcDbArc
 50
119.9999958406704
 51
134.3359430318186
  0
ARC
  5
181
100
AcDbEntity
  8
0
  6
ByLayer
 62
  256
370
   -1
100
AcDbCircle
 10
68.95699117092954
 20
106.0000007544204
 40
6
100
AcDbArc
 50
152.6922864937442
 51
160.5287564419414
  0
ARC
  5
182
100
AcDbEntity
  8
0
  6
ByLayer
 62
  256
370
   -1
100
AcDbCircle
 10
0.0030088290732238
 20
106.0000007544185
 40
6
100
AcDbArc
 50
299.9668284538085
 51
60.00000415932957
  0
ARC
  5
183
100
AcDbEntity
  8
0
  6
ByLayer
 62
  256
370
   -1
100
AcDbCircle
 10
126.4100003772109
 20
-106.0000007544204
 40
6
100
AcDbArc
 50
299.9999958406704
 51
5.978187031658905
  0
ARC
  5
184
100
AcDbEntity
  8
0
  6
ByLayer
 62
  256
370
   -1
100
AcDbCircle
 10
126.4100003772109
 20
-106.0000007544204
 40
6
100
AcDbArc
 50
120.0000041592981
 51
239.9999958407019
  0
ARC
  5
185
100
AcDbEntity
  8
0
  6
ByLayer
 62
  256
370
   -1
100
AcDbCircle
 10
68.96300882907599
 20
-106.0000007544204
 40
6
100
AcDbArc
 50
299.9999958406704
 51
359.9999745452056
  0
ARC
  5
186
100
AcDbEntity
  8
0
  6
ByLayer
 62
  256
370
   -1
100
AcDbCircle
 10
68.95699117092954
 20
-106.0000007544204
 40
6
100
AcDbArc
 50
180.0000254547943
 51
240.0000041593296
  0
ARC
  5
187
100
AcDbEntity
  8
0
  6
ByLayer
 62
  256
370
   -1
100
AcDbCircle
 10
0.0030088290732238
 20
-106.0000007544185
 40
6
100
AcDbArc
 50
299.9999958406704
 51
48.63347898135322
  0
CIRCLE
  5
188
100
AcDbEntity
  8
0
  6
ByLayer
 62
  256
370
   -1
100
AcDbCircle
 10
0
 20
-102.0000034200438
 40
4
  0
CIRCLE
  5
189
100
AcDbEntity
  8
0
  6
ByLayer
 62
  256
370
   -1
100
AcDbCircle
 10
0
 20
-67.99999698231477
 40
4
  0
CIRCLE
  5
18A
100
AcDbEntity
  8
0
  6
ByLayer
 62
  256
370
   -1
100
AcDbCircle
 10
0
 20
-21.99999698231477
 40
4
  0
CIRCLE
  5
18B
100
AcDbEntity
  8
0
  6
ByLayer
 62
  256
370
   -1
100
AcDbCircle
 10
0
 20
24.00000301768523
 40
4
  0
CIRCLE
  5
18C
100
AcDbEntity
  8
0
  6
ByLayer
 62
  256
370
   -1
100
AcDbCircle
 10
0
 20
70.00000301768523
 40
4
  0
CIRCLE
  5
18D
100
AcDbEntity
  8
0
  6
ByLayer
 62
  256
370
   -1
100
AcDbCircle
 10
0
 20
104.0000030176852
 40
4
  0
ARC
  5
18E
100
AcDbEntity
  8
0
  6
ByLayer
 62
  256
370
   -1
100
AcDbCircle
 10
-0.0030088290732238
 20
106.0000007544185
 40
6
100
AcDbArc
 50
119.9999958406704
 51
240.0331715461915
  0
ARC
  5
18F
100
AcDbEntity
  8
0
  6
ByLayer
 62
  256
370
   -1
100
AcDbCircle
 10
-0.0030088290732238
 20
-106.0000007544185
 40
6
100
AcDbArc
 50
131.3665210186468
 51
240.0000041593296
  0
LWPOLYLINE
  5
190
100
AcDbEntity
  8
0
  6
ByLayer
 62
  256
370
   -1
100
AcDbPolyline
 90
    4
 70
    0
 43
0
 10
-65.95999999999913
 20
-92.64575473110744
 10
-65.95999999999913
 20
-112
 10
-71.95999999999913
 20
-112
 10
-71.95999999999913
 20
-92.64575473110744
  0
LWPOLYLINE
  5
191
100
AcDbEntity
  8
0
  6
ByLayer
 62
  256
370
   -1
100
AcDbPolyline
 90
    4
 70
    0
 43
0
 10
-65.95999999999913
 20
-98.00000342004388
 10
-49.97999999999956
 20
-98.00000342004388
 10
-49.97999999999956
 20
-106.0000034200438
 10
-65.95999999999913
 20
-106.0000034200438
  0
LWPOLYLINE
  5
192
100
AcDbEntity
  8
0
  6
ByLayer
 62
  256
370
   -1
100
AcDbPolyline
 90
    4
 70
    0
 43
0
 10
-65.68000000000029
 20
-63.99999698231477
 10
-49.97999999999956
 20
-63.99999698231477
 10
-49.97999999999956
 20
-71.99999698231477
 10
-65.68000000000029
 20
-71.99999698231477
  0
CIRCLE
  5
193
100
AcDbEntity
  8
0
  6
ByLayer
 62
  256
370
   -1
100
AcDbCircle
 10
-45.97999999999956
 20
-67.99999698231477
 40
4
  0
CIRCLE
  5
194
100
AcDbEntity
  8
0
  6
ByLayer
 62
  256
370
   -1
100
AcDbCircle
 10
-45.97999999999956
 20
-102.0000034200438
 40
4
  0
CIRCLE
  5
195
100
AcDbEntity
  8
0
  6
ByLayer
 62
  256
370
   -1
100
AcDbCircle
 10
-91.93999999999869
 20
-67.99999698231477
 40
4
  0
LWPOLYLINE
  5
196
100
AcDbEntity
  8
0
  6
ByLayer
 62
  256
370
   -1
100
AcDbPolyline
 90
    2
 70
    0
 43
0
 10
-65.95999999999913
 20
112
 10
-65.95999999999913
 20
94.64575432874879
  0
LWPOLYLINE
  5
197
100
AcDbEntity
  8
0
  6
ByLayer
 62
  256
370
   -1
100
AcDbPolyline
 90
    2
 70
    0
 43
0
 10
-71.95999999999913
 20
-87.35425210897847
 10
-71.95999999999913
 20
-47.14594496440986
  0
LWPOLYLINE
  5
198
100
AcDbEntity
  8
0
  6
ByLayer
 62
  256
370
   -1
100
AcDbPolyline
 90
    4
 70
    0
 43
0
 10
-72.23999999999796
 20
-63.99999698231477
 10
-87.93999999999869
 20
-63.99999698231477
 10
-87.93999999999869
 20
-71.99999698231477
 10
-72.23999999999796
 20
-71.99999698231477
  0
CIRCLE
  5
199
100
AcDbEntity
  8
0
  6
ByLayer
 62
  256
370
   -1
100
AcDbCircle
 10
-91.93999999999869
 20
-102.0000034200438
 40
4
  0
LWPOLYLINE
  5
19A
100
AcDbEntity
  8
0
  6
ByLayer
 62
  256
370
   -1
100
AcDbPolyline
 90
    4
 70
    0
 43
0
 10
-71.95999999999913
 20
-98.00000342004388
 10
-87.94000000000233
 20
-98.00000342004388
 10
-87.94000000000233
 20
-106.0000034200438
 10
-71.95999999999913
 20
-106.0000034200438
  0
CIRCLE
  5
19B
100
AcDbEntity
  8
0
  6
ByLayer
 62
  256
370
   -1
100
AcDbCircle
 10
-68.95999999999913
 20
-44.50019365334447
 40
4
  0
CIRCLE
  5
19C
100
AcDbEntity
  8
0
  6
ByLayer
 62
  256
370
   -1
100
AcDbCircle
 10
-68.95999999999913
 20
46.49980634665553
 40
4
  0
LWPOLYLINE
  5
19D
100
AcDbEntity
  8
0
  6
ByLayer
 62
  256
370
   -1
100
AcDbPolyline
 90
    4
 70
    0
 43
0
 10
-65.95999999999913
 20
28.00000301768523
 10
-49.97999999999956
 20
28.00000301768523
 10
-49.97999999999956
 20
20.00000301768523
 10
-65.95999999999913
 20
20.00000301768523
  0
LWPOLYLINE
  5
19E
100
AcDbEntity
  8
0
  6
ByLayer
 62
  256
370
   -1
100
AcDbPolyline
 90
    4
 70
    0
 43
0
 10
-65.95999999999913
 20
-17.99999698231477
 10
-49.97999999999956
 20
-17.99999698231477
 10
-49.97999999999956
 20
-25.99999698231477
 10
-65.95999999999913
 20
-25.99999698231477
  0
CIRCLE
  5
19F
100
AcDbEntity
  8
0
  6
ByLayer
 62
  256
370
   -1
100
AcDbCircle
 10
-45.97999999999956
 20
-21.99999698231477
 40
4
  0
CIRCLE
  5
1A0
100
AcDbEntity
  8
0
  6
ByLayer
 62
  256
370
   -1
100
AcDbCircle
 10
-45.97999999999956
 20
24.00000301768523
 40
4
  0
CIRCLE
  5
1A1
100
AcDbEntity
  8
0
  6
ByLayer
 62
  256
370
   -1
100
AcDbCircle
 10
-91.93999999999869
 20
-21.99999698231477
 40
4
  0
CIRCLE
  5
1A2
100
AcDbEntity
  8
0
  6
ByLayer
 62
  256
370
   -1
100
AcDbCircle
 10
-68.95999999999913
 20
0.9998063466555323
 40
4
  0
LWPOLYLINE
  5
1A3
100
AcDbEntity
  8
0
  6
ByLayer
 62
  256
370
   -1
100
AcDbPolyline
 90
    4
 70
    0
 43
0
 10
-71.95999999999913
 20
-17.99999698231477
 10
-87.94000000000233
 20
-17.99999698231477
 10
-87.94000000000233
 20
-25.99999698231477
 10
-71.95999999999913
 20
-25.99999698231477
  0
CIRCLE
  5
1A4
100
AcDbEntity
  8
0
  6
ByLayer
 62
  256
370
   -1
100
AcDbCircle
 10
-91.93999999999869
 20
24.00000301768523
 40
4
  0
LWPOLYLINE
  5
1A5
100
AcDbEntity
  8
0
  6
ByLayer
 62
  256
370
   -1
100
AcDbPolyline
 90
    4
 70
    0
 43
0
 10
-71.95999999999913
 20
28.00000301768523
 10
-87.93999999999869
 20
28.00000301768523
 10
-87.93999999999869
 20
20.00000301768523
 10
-71.95999999999913
 20
20.00000301768523
  0
LWPOLYLINE
  5
1A6
100
AcDbEntity
  8
0
  6
ByLayer
 62
  256
370
   -1
100
AcDbPolyline
 90
    4
 70
    0
 43
0
 10
-65.95999999999913
 20
108.0000030176852
 10
-49.97999999999956
 20
108.0000030176852
 10
-49.97999999999956
 20
100.0000030176852
 10
-65.95999999999913
 20
100.0000030176852
  0
LWPOLYLINE
  5
1A7
100
AcDbEntity
  8
0
  6
ByLayer
 62
  256
370
   -1
100
AcDbPolyline
 90
    4
 70
    0
 43
0
 10
-65.95999999999913
 20
74.00000301768523
 10
-49.97999999999956
 20
74.00000301768523
 10
-49.97999999999956
 20
66.00000301768523
 10
-65.95999999999913
 20
66.00000301768523
  0
CIRCLE
  5
1A8
100
AcDbEntity
  8
0
  6
ByLayer
 62
  256
370
   -1
100
AcDbCircle
 10
-45.97999999999956
 20
70.00000301768523
 40
4
  0
CIRCLE
  5
1A9
100
AcDbEntity
  8
0
  6
ByLayer
 62
  256
370
   -1
100
AcDbCircle
 10
-45.97999999999956
 20
104.0000030176852
 40
4
  0
CIRCLE
  5
1AA
100
AcDbEntity
  8
0
  6
ByLayer
 62
  256
370
   -1
100
AcDbCircle
 10
-68.95999999999913
 20
92.00000301768524
 40
4
  0
CIRCLE
  5
1AB
100
AcDbEntity
  8
0
  6
ByLayer
 62
  256
370
   -1
100
AcDbCircle
 10
-91.93999999999869
 20
70.00000301768523
 40
4
  0
LWPOLYLINE
  5
1AC
100
AcDbEntity
  8
0
  6
ByLayer
 62
  256
370
   -1
100
AcDbPolyline
 90
    4
 70
    0
 43
0
 10
-71.95999999999913
 20
74.00000301768523
 10
-87.94000000000233
 20
74.00000301768523
 10
-87.94000000000233
 20
66.00000301768523
 10
-71.95999999999913
 20
66.00000301768523
  0
CIRCLE
  5
1AD
100
AcDbEntity
  8
0
  6
ByLayer
 62
  256
370
   -1
100
AcDbCircle
 10
-91.93999999999869
 20
104.0000030176852
 40
4
  0
LWPOLYLINE
  5
1AE
100
AcDbEntity
  8
0
  6
ByLayer
 62
  256
370
   -1
100
AcDbPolyline
 90
    4
 70
    0
 43
0
 10
-71.95999999999913
 20
108.0000030176852
 10
-87.94000000000233
 20
108.0000030176852
 10
-87.94000000000233
 20
100.0000030176852
 10
-71.95999999999913
 20
100.0000030176852
  0
LWPOLYLINE
  5
1AF
100
AcDbEntity
  8
0
  6
ByLayer
 62
  256
370
   -1
100
AcDbPolyline
 90
    2
 70
    0
 43
0
 10
-65.95999999999913
 20
89.35425170661983
 10
-65.95999999999913
 20
49.14555765771911
  0
LWPOLYLINE
  5
1B0
100
AcDbEntity
  8
0
  6
ByLayer
 62
  256
370
   -1
100
AcDbPolyline
 90
    2
 70
    0
 43
0
 10
-71.95999999999913
 20
94.64575432874879
 10
-71.95999999999913
 20
112
  0
LWPOLYLINE
  5
1B1
100
AcDbEntity
  8
0
  6
ByLayer
 62
  256
370
   -1
100
AcDbPolyline
 90
    2
 70
    0
 43
0
 10
-65.95999999999913
 20
43.85405503559195
 10
-65.95999999999913
 20
3.645557657719109
  0
LWPOLYLINE
  5
1B2
100
AcDbEntity
  8
0
  6
ByLayer
 62
  256
370
   -1
100
AcDbPolyline
 90
    2
 70
    0
 43
0
 10
-71.95999999999913
 20
49.14555765772092
 10
-71.95999999999913
 20
89.35425170661983
  0
LWPOLYLINE
  5
1B3
100
AcDbEntity
  8
0
  6
ByLayer
 62
  256
370
   -1
100
AcDbPolyline
 90
    2
 70
    0
 43
0
 10
-71.95999999999913
 20
-41.85444234227907
 10
-71.95999999999913
 20
-1.645944964409864
  0
LWPOLYLINE
  5
1B4
100
AcDbEntity
  8
0
  6
ByLayer
 62
  256
370
   -1
100
AcDbPolyline
 90
    2
 70
    0
 43
0
 10
-65.95999999999913
 20
-47.14594496440986
 10
-65.95999999999913
 20
-87.35425210897847
  0
LWPOLYLINE
  5
1B5
100
AcDbEntity
  8
0
  6
ByLayer
 62
  256
370
   -1
100
AcDbPolyline
 90
    2
 70
    0
 43
0
 10
-71.95999999999913
 20
3.645557657720928
 10
-71.95999999999913
 20
43.85405503559013
  0
LWPOLYLINE
  5
1B6
100
AcDbEntity
  8
0
  6
ByLayer
 62
  256
370
   -1
100
AcDbPolyline
 90
    2
 70
    0
 43
0
 10
-65.95999999999913
 20
-1.645944964408045
 10
-65.95999999999913
 20
-41.85444234228088
  0
ARC
  5
1B7
100
AcDbEntity
  8
0
  6
ByLayer
 62
  256
370
   -1
100
AcDbCircle
 10
-68.96300882907235
 20
106.0000007544204
 40
6
100
AcDbArc
 50
119.9999958406704
 51
160.5287564419414
  0
ARC
  5
1B8
100
AcDbEntity
  8
0
  6
ByLayer
 62
  256
370
   -1
100
AcDbCircle
 10
-68.9569911709259
 20
106.0000007544204
 40
6
100
AcDbArc
 50
19.47124355805857
 51
60.00000415932957
  0
ARC
  5
1B9
100
AcDbEntity
  8
0
  6
ByLayer
 62
  256
370
   -1
100
AcDbCircle
 10
-68.96300882907235
 20
-106.0000007544204
 40
6
100
AcDbArc
 50
180.0000254547943
 51
240.0000041593296
  0
CIRCLE
  5
1BA
100
AcDbEntity
  8
0
  6
ByLayer
 62
  256
370
   -1
100
AcDbCircle
 10
-23
 20
46.49980634665553
 40
4
  0
LWPOLYLINE
  5
1BB
100
AcDbEntity
  8
0
  6
ByLayer
 62
  256
370
   -1
100
AcDbPolyline
 90
    4
 70
    0
 43
0
 10
-3
 20
50.49980634665553
 10
-19
 20
50.49980634665553
 10
-19
 20
42.49980634665553
 10
-3
 20
42.49980634665553
  0
CIRCLE
  5
1BC
100
AcDbEntity
  8
0
  6
ByLayer
 62
  256
370
   -1
100
AcDbCircle
 10
-23
 20
0.9998063466555323
 40
4
  0
LWPOLYLINE
  5
1BD
100
AcDbEntity
  8
0
  6
ByLayer
 62
  256
370
   -1
100
AcDbPolyline
 90
    4
 70
    0
 43
0
 10
-3
 20
4.999806346655532
 10
-19
 20
4.999806346655532
 10
-19
 20
-3.000193653344467
 10
-3
 20
-3.000193653344467
  0
CIRCLE
  5
1BE
100
AcDbEntity
  8
0
  6
ByLayer
 62
  256
370
   -1
100
AcDbCircle
 10
-23
 20
92.00000301768524
 40
4
  0
LWPOLYLINE
  5
1BF
100
AcDbEntity
  8
0
  6
ByLayer
 62
  256
370
   -1
100
AcDbPolyline
 90
    4
 70
    0
 43
0
 10
-3
 20
96.00000301768524
 10
-19
 20
96.00000301768524
 10
-19
 20
88.00000301768523
 10
-3
 20
88.00000301768523
  0
CIRCLE
  5
1C0
100
AcDbEntity
  8
0
  6
ByLayer
 62
  256
370
   -1
100
AcDbCircle
 10
-23
 20
-44.50019365334447
 40
4
  0
LWPOLYLINE
  5
1C1
100
AcDbEntity
  8
0
  6
ByLayer
 62
  256
370
   -1
100
AcDbPolyline
 90
    4
 70
    0
 43
0
 10
-3
 20
-40.50019365334446
 10
-19
 20
-40.50019365334446
 10
-19
 20
-48.50019365334446
 10
-3
 20
-48.50019365334446
  0
CIRCLE
  5
1C2
100
AcDbEntity
  8
0
  6
ByLayer
 62
  256
370
   -1
100
AcDbCircle
 10
-23
 20
-90.00000342004387
 40
4
  0
LWPOLYLINE
  5
1C3
100
AcDbEntity
  8
0
  6
ByLayer
 62
  256
370
   -1
100
AcDbPolyline
 90
    4
 70
    0
 43
0
 10
-3
 20
-86.00000342004387
 10
-19
 20
-86.00000342004387
 10
-19
 20
-94.00000342004387
 10
-3
 20
-94.00000342004387
  0
CIRCLE
  5
1C4
100
AcDbEntity
  8
0
  6
ByLayer
 62
  256
370
   -1
100
AcDbCircle
 10
-114.9199999999982
 20
-90.00000342004387
 40
4
  0
LWPOLYLINE
  5
1C5
100
AcDbEntity
  8
0
  6
ByLayer
 62
  256
370
   -1
100
AcDbPolyline
 90
    4
 70
    0
 43
0
 10
-123.4099999999998
 20
-86.00000342004387
 10
-118.9199999999982
 20
-86.00000342004387
 10
-118.9199999999982
 20
-94.00000342004387
 10
-123.4099999999998
 20
-94.00000342004387
  0
CIRCLE
  5
1C6
100
AcDbEntity
  8
0
  6
ByLayer
 62
  256
370
   -1
100
AcDbCircle
 10
-114.9199999999982
 20
-44.50019365334447
 40
4
  0
LWPOLYLINE
  5
1C7
100
AcDbEntity
  8
0
  6
ByLayer
 62
  256
370
   -1
100
AcDbPolyline
 90
    4
 70
    0
 43
0
 10
-123.4099999999998
 20
-40.50019365334446
 10
-118.9199999999982
 20
-40.50019365334446
 10
-118.9199999999982
 20
-48.50019365334446
 10
-123.4099999999998
 20
-48.50019365334446
  0
LWPOLYLINE
  5
1C8
100
AcDbEntity
  8
0
  6
ByLayer
 62
  256
370
   -1
100
AcDbPolyline
 90
    4
 70
    0
 43
0
 10
-123.4099999999998
 20
50.49980634665553
 10
-118.9199999999982
 20
50.49980634665553
 10
-118.9199999999982
 20
42.49980634665553
 10
-123.4099999999998
 20
42.49980634665553
  0
CIRCLE
  5
1C9
100
AcDbEntity
  8
0
  6
ByLayer
 62
  256
370
   -1
100
AcDbCircle
 10
-114.9199999999982
 20
46.49980634665553
 40
4
  0
CIRCLE
  5
1CA
100
AcDbEntity
  8
0
  6
ByLayer
 62
  256
370
   -1
100
AcDbCircle
 10
-114.9199999999982
 20
0.9998063466555323
 40
4
  0
LWPOLYLINE
  5
1CB
100
AcDbEntity
  8
0
  6
ByLayer
 62
  256
370
   -1
100
AcDbPolyline
 90
    4
 70
    0
 43
0
 10
-123.4099999999998
 20
4.999806346655532
 10
-118.9199999999982
 20
4.999806346655532
 10
-118.9199999999982
 20
-3.000193653344467
 10
-123.4099999999998
 20
-3.000193653344467
  0
LWPOLYLINE
  5
1CC
100
AcDbEntity
  8
0
  6
ByLayer
 62
  256
370
   -1
100
AcDbPolyline
 90
    4
 70
    0
 43
0
 10
-123.4099999999998
 20
96.00000301768524
 10
-118.9199999999982
 20
96.00000301768524
 10
-118.9199999999982
 20
88.00000301768523
 10
-123.4099999999998
 20
88.00000301768523
  0
CIRCLE
  5
1CD
100
AcDbEntity
  8
0
  6
ByLayer
 62
  256
370
   -1
100
AcDbCircle
 10
-114.9199999999982
 20
92.00000301768524
 40
4
  0
CIRCLE
  5
1CE
100
AcDbEntity
  8
0
  6
ByLayer
 62
  256
370
   -1
100
AcDbCircle
 10
-68.95999999999913
 20
-90.00000342004387
 40
4
  0
ARC
  5
1CF
100
AcDbEntity
  8
0
  6
ByLayer
 62
  256
370
   -1
100
AcDbCircle
 10
-126.4069911709302
 20
106.0000007544204
 40
6
100
AcDbArc
 50
299.9668284538085
 51
60.00000415932957
  0
ARC
  5
1D0
100
AcDbEntity
  8
0
  6
ByLayer
 62
  256
370
   -1
100
AcDbCircle
 10
-126.4130088290803
 20
106.0000007544204
 40
6
100
AcDbArc
 50
119.9999958406704
 51
166.7519628908427
  0
ARC
  5
1D1
100
AcDbEntity
  8
0
  6
ByLayer
 62
  256
370
   -1
100
AcDbCircle
 10
-68.96300882907235
 20
-106.0000007544204
 40
6
100
AcDbArc
 50
199.4712435580585
 51
240.0000041593296
  0
ARC
  5
1D2
100
AcDbEntity
  8
0
  6
ByLayer
 62
  256
370
   -1
100
AcDbCircle
 10
-68.9569911709259
 20
-106.0000007544204
 40
6
100
AcDbArc
 50
299.9999958406704
 51
314.3822367755017
  0
ARC
  5
1D3
100
AcDbEntity
  8
0
  6
ByLayer
 62
  256
370
   -1
100
AcDbCircle
 10
-68.9569911709259
 20
-106.0000007544204
 40
6
100
AcDbArc
 50
332.7015001009663
 51
359.9999745452056
  0
ARC
  5
1D4
100
AcDbEntity
  8
0
  6
ByLayer
 62
  256
370
   -1
100
AcDbCircle
 10
-126.4069911709302
 20
-106.0000007544204
 40
6
100
AcDbArc
 50
299.9999958406704
 51
60.03317154619149
  0
ARC
  5
1D5
100
AcDbEntity
  8
0
  6
ByLayer
 62
  256
370
   -1
100
AcDbCircle
 10
-126.4130088290803
 20
-106.0000007544204
 40
6
100
AcDbArc
 50
174.0218129683411
 51
240.0000041593296
  0
LWPOLYLINE
  5
1D6
100
AcDbEntity
  8
0
  6
ByLayer
 62
  256
370
   -1
100
AcDbPolyline
 90
    4
 70
    1
 43
0
 10
49.68250322376843
 20
118.9291229950613
 10
63.66581235499324
 20
108.7233091312282
 10
68.25418764500864
 20
115.2766908687736
 10
54.27087851378018
 20
125.4825047326067
  0
INSERT
  5
1D7
100
AcDbEntity
  8
0
  6
ByLayer
 62
  256
370
   -1
100
AcDbBlockReference
  2
A$C3A410068
 10
-137.9000000000014
 20
103.3750030176852
 30
0
 41
1
 42
1
 43
0
 50
0
 70
    1
 71
    1
 44
0
 45
0
  0
INSERT
  5
1D8
100
AcDbEntity
  8
0
  6
ByLayer
 62
  256
370
   -1
100
AcDbBlockReference
  2
A$C3A410068
 10
-137.9000000000014
 20
80.62490468217038
 30
0
 41
1
 42
1
 43
0
 50
0
 70
    1
 71
    1
 44
0
 45
0
  0
INSERT
  5
1D9
100
AcDbEntity
  8
0
  6
ByLayer
 62
  256
370
   -1
100
AcDbBlockReference
  2
A$C3A410068
 10
-137.9000000000014
 20
57.87480634665553
 30
0
 41
1
 42
1
 43
0
 50
0
 70
    1
 71
    1
 44
0
 45
0
  0
INSERT
  5
1DA
100
AcDbEntity
  8
0
  6
ByLayer
 62
  256
370
   -1
100
AcDbBlockReference
  2
A$C3A410068
 10
-137.9000000000014
 20
35.12470801114068
 30
0
 41
1
 42
1
 43
0
 50
0
 70
    1
 71
    1
 44
0
 45
0
  0
INSERT
  5
1DB
100
AcDbEntity
  8
0
  6
ByLayer
 62
  256
370
   -1
100
AcDbBlockReference
  2
A$C3A410068
 10
-137.9000000000014
 20
12.37480634665553
 30
0
 41
1
 42
1
 43
0
 50
0
 70
    1
 71
    1
 44
0
 45
0
  0
INSERT
  5
1DC
100
AcDbEntity
  8
0
  6
ByLayer
 62
  256
370
   -1
100
AcDbBlockReference
  2
A$C3A410068
 10
-137.9000000000014
 20
-10.37529198885931
 30
0
 41
1
 42
1
 43
0
 50
0
 70
    1
 71
    1
 44
0
 45
0
  0
INSERT
  5
1DD
100
AcDbEntity
  8
0
  6
ByLayer
 62
  256
370
   -1
100
AcDbBlockReference
  2
A$C3A410068
 10
-137.9000000000014
 20
-33.12519365334447
 30
0
 41
1
 42
1
 43
0
 50
0
 70
    1
 71
    1
 44
0
 45
0
  0
INSERT
  5
1DE
100
AcDbEntity
  8
0
  6
ByLayer
 62
  256
370
   -1
100
AcDbBlockReference
  2
A$C3A410068
 10
-137.9000000000014
 20
-55.87529198885931
 30
0
 41
1
 42
1
 43
0
 50
0
 70
    1
 71
    1
 44
0
 45
0
  0
INSERT
  5
1DF
100
AcDbEntity
  8
0
  6
ByLayer
 62
  256
370
   -1
100
AcDbBlockReference
  2
A$C3A410068
 10
-137.9000000000014
 20
-78.62500342004387
 30
0
 41
1
 42
1
 43
0
 50
0
 70
    1
 71
    1
 44
0
 45
0
  0
INSERT
  5
1E0
100
AcDbEntity
  8
0
  6
ByLayer
 62
  256
370
   -1
100
AcDbBlockReference
  2
A$C3A410068
 10
-137.9000000000014
 20
-101.3751017555587
 30
0
 41
1
 42
1
 43
0
 50
0
 70
    1
 71
    1
 44
0
 45
0
  0
LWPOLYLINE
  5
1E1
100
AcDbEntity
  8
0
  6
ByLayer
 62
  256
370
   -1
100
AcDbPolyline
 90
    4
 70
    0
 43
0
 10
-129.4100000000035
 20
76.62490468217038
 10
-133.9000000000014
 20
76.62490468217038
 10
-133.9000000000014
 20
84.6249046821704
 10
-129.4100000000035
 20
84.6249046821704
  0
CIRCLE
  5
1E2
100
AcDbEntity
  8
0
  6
ByLayer
 62
  256
370
   -1
100
AcDbCircle
 10
-137.9000000000014
 20
80.62490468217038
 40
4
  0
LWPOLYLINE
  5
1E3
100
AcDbEntity
  8
0
  6
ByLayer
 62
  256
370
   -1
100
AcDbPolyline
 90
    4
 70
    0
 43
0
 10
-129.4100000000035
 20
99.37500301768523
 10
-133.9000000000014
 20
99.37500301768523
 10
-133.9000000000014
 20
107.3750030176852
 10
-129.4100000000035
 20
107.3750030176852
  0
CIRCLE
  5
1E4
100
AcDbEntity
  8
0
  6
ByLayer
 62
  256
370
   -1
100
AcDbCircle
 10
-137.9000000000014
 20
103.3750030176852
 40
4
  0
LWPOLYLINE
  5
1E5
100
AcDbEntity
  8
0
  6
ByLayer
 62
  256
370
   -1
100
AcDbPolyline
 90
    4
 70
    0
 43
0
 10
-129.4100000000035
 20
53.87480634665553
 10
-133.9000000000014
 20
53.87480634665553
 10
-133.9000000000014
 20
61.87480634665553
 10
-129.4100000000035
 20
61.87480634665553
  0
CIRCLE
  5
1E6
100
AcDbEntity
  8
0
  6
ByLayer
 62
  256
370
   -1
100
AcDbCircle
 10
-137.9000000000014
 20
57.87480634665553
 40
4
  0
LWPOLYLINE
  5
1E7
100
AcDbEntity
  8
0
  6
ByLayer
 62
  256
370
   -1
100
AcDbPolyline
 90
    4
 70
    0
 43
0
 10
-129.4100000000035
 20
31.12470801114068
 10
-133.9000000000014
 20
31.12470801114068
 10
-133.9000000000014
 20
39.12470801114068
 10
-129.4100000000035
 20
39.12470801114068
  0
CIRCLE
  5
1E8
100
AcDbEntity
  8
0
  6
ByLayer
 62
  256
370
   -1
100
AcDbCircle
 10
-137.9000000000014
 20
35.12470801114068
 40
4
  0
LWPOLYLINE
  5
1E9
100
AcDbEntity
  8
0
  6
ByLayer
 62
  256
370
   -1
100
AcDbPolyline
 90
    4
 70
    0
 43
0
 10
-129.4100000000035
 20
8.374806346655532
 10
-133.9000000000014
 20
8.374806346655532
 10
-133.9000000000014
 20
16.37480634665553
 10
-129.4100000000035
 20
16.37480634665553
  0
CIRCLE
  5
1EA
100
AcDbEntity
  8
0
  6
ByLayer
 62
  256
370
   -1
100
AcDbCircle
 10
-137.9000000000014
 20
12.37480634665553
 40
4
  0
LWPOLYLINE
  5
1EB
100
AcDbEntity
  8
0
  6
ByLayer
 62
  256
370
   -1
100
AcDbPolyline
 90
    4
 70
    0
 43
0
 10
-129.4100000000035
 20
-14.37529198885932
 10
-133.9000000000014
 20
-14.37529198885932
 10
-133.9000000000014
 20
-6.375291988859316
 10
-129.4100000000035
 20
-6.375291988859316
  0
CIRCLE
  5
1EC
100
AcDbEntity
  8
0
  6
ByLayer
 62
  256
370
   -1
100
AcDbCircle
 10
-137.9000000000014
 20
-10.37529198885931
 40
4
  0
LWPOLYLINE
  5
1ED
100
AcDbEntity
  8
0
  6
ByLayer
 62
  256
370
   -1
100
AcDbPolyline
 90
    4
 70
    0
 43
0
 10
-129.4100000000035
 20
-37.12519365334447
 10
-133.9000000000014
 20
-37.12519365334447
 10
-133.9000000000014
 20
-29.12519365334447
 10
-129.4100000000035
 20
-29.12519365334447
  0
CIRCLE
  5
1EE
100
AcDbEntity
  8
0
  6
ByLayer
 62
  256
370
   -1
100
AcDbCircle
 10
-137.9000000000014
 20
-33.12519365334447
 40
4
  0
LWPOLYLINE
  5
1EF
100
AcDbEntity
  8
0
  6
ByLayer
 62
  256
370
   -1
100
AcDbPolyline
 90
    4
 70
    0
 43
0
 10
-129.4100000000035
 20
-59.87529198885932
 10
-133.9000000000014
 20
-59.87529198885932
 10
-133.9000000000014
 20
-51.87529198885932
 10
-129.4100000000035
 20
-51.87529198885932
  0
CIRCLE
  5
1F0
100
AcDbEntity
  8
0
  6
ByLayer
 62
  256
370
   -1
100
AcDbCircle
 10
-137.9000000000014
 20
-55.87529198885931
 40
4
  0
LWPOLYLINE
  5
1F1
100
AcDbEntity
  8
0
  6
ByLayer
 62
  256
370
   -1
100
AcDbPolyline
 90
    4
 70
    0
 43
0
 10
-129.4100000000035
 20
-105.3751017555587
 10
-133.9000000000014
 20
-105.3751017555587
 10
-133.9000000000014
 20
-97.37510175555872
 10
-129.4100000000035
 20
-97.37510175555872
  0
CIRCLE
  5
1F2
100
AcDbEntity
  8
0
  6
ByLayer
 62
  256
370
   -1
100
AcDbCircle
 10
-137.9000000000014
 20
-101.3751017555587
 40
4
  0
LWPOLYLINE
  5
1F3
100
AcDbEntity
  8
0
  6
ByLayer
 62
  256
370
   -1
100
AcDbPolyline
 90
    4
 70
    0
 43
0
 10
-129.4100000000035
 20
-82.62500342004385
 10
-133.9000000000014
 20
-82.62500342004385
 10
-133.9000000000014
 20
-74.62500342004385
 10
-129.4100000000035
 20
-74.62500342004385
  0
CIRCLE
  5
1F4
100
AcDbEntity
  8
0
  6
ByLayer
 62
  256
370
   -1
100
AcDbCircle
 10
-137.9000000000014
 20
-78.62500342004387
 40
4
  0
INSERT
  5
1F5
100
AcDbEntity
  8
0
  6
ByLayer
 62
  256
370
   -1
100
AcDbBlockReference
  2
A$C3A410068
 10
137.9000000000014
 20
103.3750030176852
 30
0
 41
-1
 42
1
 43
0
 50
0
 70
    1
 71
    1
 44
0
 45
0
  0
INSERT
  5
1F6
100
AcDbEntity
  8
0
  6
ByLayer
 62
  256
370
   -1
100
AcDbBlockReference
  2
A$C3A410068
 10
137.9000000000014
 20
80.62490468217038
 30
0
 41
-1
 42
1
 43
0
 50
0
 70
    1
 71
    1
 44
0
 45
0
  0
INSERT
  5
1F7
100
AcDbEntity
  8
0
  6
ByLayer
 62
  256
370
   -1
100
AcDbBlockReference
  2
A$C3A410068
 10
137.9000000000014
 20
57.87480634665553
 30
0
 41
-1
 42
1
 43
0
 50
0
 70
    1
 71
    1
 44
0
 45
0
  0
INSERT
  5
1F8
100
AcDbEntity
  8
0
  6
ByLayer
 62
  256
370
   -1
100
AcDbBlockReference
  2
A$C3A410068
 10
137.9000000000014
 20
35.12470801114068
 30
0
 41
-1
 42
1
 43
0
 50
0
 70
    1
 71
    1
 44
0
 45
0
  0
INSERT
  5
1F9
100
AcDbEntity
  8
0
  6
ByLayer
 62
  256
370
   -1
100
AcDbBlockReference
  2
A$C3A410068
 10
137.9000000000014
 20
12.37480634665553
 30
0
 41
-1
 42
1
 43
0
 50
0
 70
    1
 71
    1
 44
0
 45
0
  0
INSERT
  5
1FA
100
AcDbEntity
  8
0
  6
ByLayer
 62
  256
370
   -1
100
AcDbBlockReference
  2
A$C3A410068
 10
137.9000000000014
 20
-10.37529198885931
 30
0
 41
-1
 42
1
 43
0
 50
0
 70
    1
 71
    1
 44
0
 45
0
  0
INSERT
  5
1FB
100
AcDbEntity
  8
0
  6
ByLayer
 62
  256
370
   -1
100
AcDbBlockReference
  2
A$C3A410068
 10
137.9000000000014
 20
-33.12519365334447
 30
0
 41
-1
 42
1
 43
0
 50
0
 70
    1
 71
    1
 44
0
 45
0
  0
INSERT
  5
1FC
100
AcDbEntity
  8
0
  6
ByLayer
 62
  256
370
   -1
100
AcDbBlockReference
  2
A$C3A410068
 10
137.9000000000014
 20
-55.87529198885931
 30
0
 41
-1
 42
1
 43
0
 50
0
 70
    1
 71
    1
 44
0
 45
0
  0
INSERT
  5
1FD
100
AcDbEntity
  8
0
  6
ByLayer
 62
  256
370
   -1
100
AcDbBlockReference
  2
A$C3A410068
 10
137.9000000000051
 20
-78.62500342004387
 30
0
 41
-1
 42
1
 43
0
 50
0
 70
    1
 71
    1
 44
0
 45
0
  0
INSERT
  5
1FE
100
AcDbEntity
  8
0
  6
ByLayer
 62
  256
370
   -1
100
AcDbBlockReference
  2
A$C3A410068
 10
137.9000000000051
 20
-101.3751017555587
 30
0
 41
-1
 42
1
 43
0
 50
0
 70
    1
 71
    1
 44
0
 45
0
  0
LWPOLYLINE
  5
1FF
100
AcDbEntity
  8
0
  6
ByLayer
 62
  256
370
   -1
100
AcDbPolyline
 90
    4
 70
    0
 43
0
 10
129.4100000000035
 20
76.62490468217038
 10
133.9000000000051
 20
76.62490468217038
 10
133.9000000000051
 20
84.6249046821704
 10
129.4100000000035
 20
84.6249046821704
  0
CIRCLE
  5
200
100
AcDbEntity
  8
0
  6
ByLayer
 62
  256
370
   -1
100
AcDbCircle
 10
137.9000000000014
 20
80.62490468217038
 40
4
  0
LWPOLYLINE
  5
201
100
AcDbEntity
  8
0
  6
ByLayer
 62
  256
370
   -1
100
AcDbPolyline
 90
    4
 70
    0
 43
0
 10
129.4100000000035
 20
99.37500301768523
 10
133.9000000000051
 20
99.37500301768523
 10
133.9000000000051
 20
107.3750030176852
 10
129.4100000000035
 20
107.3750030176852
  0
CIRCLE
  5
202
100
AcDbEntity
  8
0
  6
ByLayer
 62
  256
370
   -1
100
AcDbCircle
 10
137.9000000000014
 20
103.3750030176852
 40
4
  0
LWPOLYLINE
  5
203
100
AcDbEntity
  8
0
  6
ByLayer
 62
  256
370
   -1
100
AcDbPolyline
 90
    4
 70
    0
 43
0
 10
129.4100000000035
 20
53.87480634665553
 10
133.9000000000051
 20
53.87480634665553
 10
133.9000000000051
 20
61.87480634665553
 10
129.4100000000035
 20
61.87480634665553
  0
CIRCLE
  5
204
100
AcDbEntity
  8
0
  6
ByLayer
 62
  256
370
   -1
100
AcDbCircle
 10
137.9000000000014
 20
57.87480634665553
 40
4
  0
LWPOLYLINE
  5
205
100
AcDbEntity
  8
0
  6
ByLayer
 62
  256
370
   -1
100
AcDbPolyline
 90
    4
 70
    0
 43
0
 10
129.4100000000035
 20
31.12470801114068
 10
133.9000000000051
 20
31.12470801114068
 10
133.9000000000051
 20
39.12470801114068
 10
129.4100000000035
 20
39.12470801114068
  0
CIRCLE
  5
206
100
AcDbEntity
  8
0
  6
ByLayer
 62
  256
370
   -1
100
AcDbCircle
 10
137.9000000000014
 20
35.12470801114068
 40
4
  0
LWPOLYLINE
  5
207
100
AcDbEntity
  8
0
  6
ByLayer
 62
  256
370
   -1
100
AcDbPolyline
 90
    4
 70
    0
 43
0
 10
129.4100000000035
 20
8.374806346655532
 10
133.9000000000051
 20
8.374806346655532
 10
133.9000000000051
 20
16.37480634665553
 10
129.4100000000035
 20
16.37480634665553
  0
CIRCLE
  5
208
100
AcDbEntity
  8
0
  6
ByLayer
 62
  256
370
   -1
100
AcDbCircle
 10
137.9000000000014
 20
12.37480634665553
 40
4
  0
LWPOLYLINE
  5
209
100
AcDbEntity
  8
0
  6
ByLayer
 62
  256
370
   -1
100
AcDbPolyline
 90
    4
 70
    0
 43
0
 10
129.4100000000035
 20
-14.37529198885932
 10
133.9000000000051
 20
-14.37529198885932
 10
133.9000000000051
 20
-6.375291988859316
 10
129.4100000000035
 20
-6.375291988859316
  0
CIRCLE
  5
20A
100
AcDbEntity
  8
0
  6
ByLayer
 62
  256
370
   -1
100
AcDbCircle
 10
137.9000000000014
 20
-10.37529198885931
 40
4
  0
LWPOLYLINE
  5
20B
100
AcDbEntity
  8
0
  6
ByLayer
 62
  256
370
   -1
100
AcDbPolyline
 90
    4
 70
    0
 43
0
 10
129.4100000000035
 20
-37.12519365334447
 10
133.9000000000051
 20
-37.12519365334447
 10
133.9000000000051
 20
-29.12519365334447
 10
129.4100000000035
 20
-29.12519365334447
  0
CIRCLE
  5
20C
100
AcDbEntity
  8
0
  6
ByLayer
 62
  256
370
   -1
100
AcDbCircle
 10
137.9000000000014
 20
-33.12519365334447
 40
4
  0
LWPOLYLINE
  5
20D
100
AcDbEntity
  8
0
  6
ByLayer
 62
  256
370
   -1
100
AcDbPolyline
 90
    4
 70
    0
 43
0
 10
129.4100000000035
 20
-59.87529198885932
 10
133.9000000000051
 20
-59.87529198885932
 10
133.9000000000051
 20
-51.87529198885932
 10
129.4100000000035
 20
-51.87529198885932
  0
CIRCLE
  5
20E
100
AcDbEntity
  8
0
  6
ByLayer
 62
  256
370
   -1
100
AcDbCircle
 10
137.9000000000014
 20
-55.87529198885931
 40
4
  0
LWPOLYLINE
  5
20F
100
AcDbEntity
  8
0
  6
ByLayer
 62
  256
370
   -1
100
AcDbPolyline
 90
    4
 70
    0
 43
0
 10
129.4100000000035
 20
-105.3751017555587
 10
133.9000000000051
 20
-105.3751017555587
 10
133.9000000000051
 20
-97.37510175555872
 10
129.4100000000035
 20
-97.37510175555872
  0
CIRCLE
  5
210
100
AcDbEntity
  8
0
  6
ByLayer
 62
  256
370
   -1
100
AcDbCircle
 10
137.9000000000014
 20
-101.3751017555587
 40
4
  0
LWPOLYLINE
  5
211
100
AcDbEntity
  8
0
  6
ByLayer
 62
  256
370
   -1
100
AcDbPolyline
 90
    4
 70
    0
 43
0
 10
129.4100000000035
 20
-82.62500342004385
 10
133.9000000000051
 20
-82.62500342004385
 10
133.9000000000051
 20
-74.62500342004385
 10
129.4100000000035
 20
-74.62500342004385
  0
CIRCLE
  5
212
100
AcDbEntity
  8
0
  6
ByLayer
 62
  256
370
   -1
100
AcDbCircle
 10
137.9000000000014
 20
-78.62500342004387
 40
4
  0
ENDBLK
  5
76
330
74
100
AcDbEntity
  8
0
100
AcDbBlockEnd
  0
BLOCK
  5
78
330
77
100
AcDbEntity
  8
0
100
AcDbBlockBegin
  2
(22-14-16X) pálená
 70
    0
 10
0
 20
0
  3
(22-14-16X) pálená
  1

  0
INSERT
  5
213
100
AcDbEntity
  8
0
  6
ByLayer
 62
  256
370
   -1
100
AcDbBlockReference
  2
A$C3A410068
 10
-137.9000000000014
 20
103.3750030176834
 30
0
 41
1
 42
1
 43
0
 50
0
 70
    1
 71
    1
 44
0
 45
0
  0
INSERT
  5
214
100
AcDbEntity
  8
0
  6
ByLayer
 62
  256
370
   -1
100
AcDbBlockReference
  2
A$C3A410068
 10
-137.9000000000014
 20
80.62490468216855
 30
0
 41
1
 42
1
 43
0
 50
0
 70
    1
 71
    1
 44
0
 45
0
  0
INSERT
  5
215
100
AcDbEntity
  8
0
  6
ByLayer
 62
  256
370
   -1
100
AcDbBlockReference
  2
A$C3A410068
 10
-137.9000000000014
 20
57.87480634665371
 30
0
 41
1
 42
1
 43
0
 50
0
 70
    1
 71
    1
 44
0
 45
0
  0
INSERT
  5
216
100
AcDbEntity
  8
0
  6
ByLayer
 62
  256
370
   -1
100
AcDbBlockReference
  2
A$C3A410068
 10
-114.9199999999982
 20
92.00000301768341
 30
0
 41
1
 42
1
 43
0
 50
0
 70
    1
 71
    1
 44
0
 45
0
  0
INSERT
  5
217
100
AcDbEntity
  8
0
  6
ByLayer
 62
  256
370
   -1
100
AcDbBlockReference
  2
A$C3A410068
 10
-114.9199999999982
 20
46.49980634665371
 30
0
 41
1
 42
1
 43
0
 50
0
 70
    1
 71
    1
 44
0
 45
0
  0
INSERT
  5
218
100
AcDbEntity
  8
0
  6
ByLayer
 62
  256
370
   -1
100
AcDbBlockReference
  2
A$C3A410068
 10
-137.9000000000014
 20
35.12470801114068
 30
0
 41
1
 42
1
 43
0
 50
0
 70
    1
 71
    1
 44
0
 45
0
  0
INSERT
  5
219
100
AcDbEntity
  8
0
  6
ByLayer
 62
  256
370
   -1
100
AcDbBlockReference
  2
A$C3A410068
 10
-137.9000000000014
 20
12.37480634665371
 30
0
 41
1
 42
1
 43
0
 50
0
 70
    1
 71
    1
 44
0
 45
0
  0
INSERT
  5
21A
100
AcDbEntity
  8
0
  6
ByLayer
 62
  256
370
   -1
100
AcDbBlockReference
  2
A$C3A410068
 10
-137.9000000000014
 20
-10.37529198885931
 30
0
 41
1
 42
1
 43
0
 50
0
 70
    1
 71
    1
 44
0
 45
0
  0
INSERT
  5
21B
100
AcDbEntity
  8
0
  6
ByLayer
 62
  256
370
   -1
100
AcDbBlockReference
  2
A$C3A410068
 10
-137.9000000000014
 20
-33.12519365334629
 30
0
 41
1
 42
1
 43
0
 50
0
 70
    1
 71
    1
 44
0
 45
0
  0
INSERT
  5
21C
100
AcDbEntity
  8
0
  6
ByLayer
 62
  256
370
   -1
100
AcDbBlockReference
  2
A$C3A410068
 10
-137.9000000000014
 20
-55.87529198885931
 30
0
 41
1
 42
1
 43
0
 50
0
 70
    1
 71
    1
 44
0
 45
0
  0
INSERT
  5
21D
100
AcDbEntity
  8
0
  6
ByLayer
 62
  256
370
   -1
100
AcDbBlockReference
  2
A$C3A410068
 10
-137.9000000000014
 20
-78.62500342004387
 30
0
 41
1
 42
1
 43
0
 50
0
 70
    1
 71
    1
 44
0
 45
0
  0
INSERT
  5
21E
100
AcDbEntity
  8
0
  6
ByLayer
 62
  256
370
   -1
100
AcDbBlockReference
  2
A$C3A410068
 10
-91.94000000000233
 20
-67.99999698231657
 30
0
 41
1
 42
1
 43
0
 50
0
 70
    1
 71
    1
 44
0
 45
0
  0
INSERT
  5
21F
100
AcDbEntity
  8
0
  6
ByLayer
 62
  256
370
   -1
100
AcDbBlockReference
  2
A$C3A410068
 10
-114.9199999999982
 20
-44.50019365334628
 30
0
 41
1
 42
1
 43
0
 50
0
 70
    1
 71
    1
 44
0
 45
0
  0
INSERT
  5
220
100
AcDbEntity
  8
0
  6
ByLayer
 62
  256
370
   -1
100
AcDbBlockReference
  2
A$C3A410068
 10
-68.96000000000276
 20
-44.50019365334628
 30
0
 41
1
 42
1
 43
0
 50
0
 70
    1
 71
    1
 44
0
 45
0
  0
INSERT
  5
221
100
AcDbEntity
  8
0
  6
ByLayer
 62
  256
370
   -1
100
AcDbBlockReference
  2
A$C3A410068
 10
-45.9800000000032
 20
-67.99999698231657
 30
0
 41
1
 42
1
 43
0
 50
0
 70
    1
 71
    1
 44
0
 45
0
  0
INSERT
  5
222
100
AcDbEntity
  8
0
  6
ByLayer
 62
  256
370
   -1
100
AcDbBlockReference
  2
A$C3A410068
 10
-91.94000000000233
 20
-21.99999698231659
 30
0
 41
1
 42
1
 43
0
 50
0
 70
    1
 71
    1
 44
0
 45
0
  0
INSERT
  5
223
100
AcDbEntity
  8
0
  6
ByLayer
 62
  256
370
   -1
100
AcDbBlockReference
  2
A$C3A410068
 10
-114.9199999999982
 20
0.9998063466537132
 30
0
 41
1
 42
1
 43
0
 50
0
 70
    1
 71
    1
 44
0
 45
0
  0
INSERT
  5
224
100
AcDbEntity
  8
0
  6
ByLayer
 62
  256
370
   -1
100
AcDbBlockReference
  2
A$C3A410068
 10
-91.94000000000233
 20
24.00000301768341
 30
0
 41
1
 42
1
 43
0
 50
0
 70
    1
 71
    1
 44
0
 45
0
  0
INSERT
  5
225
100
AcDbEntity
  8
0
  6
ByLayer
 62
  256
370
   -1
100
AcDbBlockReference
  2
A$C3A410068
 10
-68.96000000000276
 20
0.9998063466537132
 30
0
 41
1
 42
1
 43
0
 50
0
 70
    1
 71
    1
 44
0
 45
0
  0
INSERT
  5
226
100
AcDbEntity
  8
0
  6
ByLayer
 62
  256
370
   -1
100
AcDbBlockReference
  2
A$C3A410068
 10
-45.9800000000032
 20
-21.99999698231659
 30
0
 41
1
 42
1
 43
0
 50
0
 70
    1
 71
    1
 44
0
 45
0
  0
INSERT
  5
227
100
AcDbEntity
  8
0
  6
ByLayer
 62
  256
370
   -1
100
AcDbBlockReference
  2
A$C3A410068
 10
-23
 20
-44.50019365334628
 30
0
 41
1
 42
1
 43
0
 50
0
 70
    1
 71
    1
 44
0
 45
0
  0
INSERT
  5
228
100
AcDbEntity
  8
0
  6
ByLayer
 62
  256
370
   -1
100
AcDbBlockReference
  2
A$C3A410068
 10
0
 20
-67.99999698231657
 30
0
 41
1
 42
1
 43
0
 50
0
 70
    1
 71
    1
 44
0
 45
0
  0
INSERT
  5
229
100
AcDbEntity
  8
0
  6
ByLayer
 62
  256
370
   -1
100
AcDbBlockReference
  2
A$C3A410068
 10
-137.9000000000014
 20
-101.3751017555587
 30
0
 41
1
 42
1
 43
0
 50
0
 70
    1
 71
    1
 44
0
 45
0
  0
INSERT
  5
22A
100
AcDbEntity
  8
0
  6
ByLayer
 62
  256
370
   -1
100
AcDbBlockReference
  2
A$C3A410068
 10
-114.9199999999982
 20
-90.00000342004387
 30
0
 41
1
 42
1
 43
0
 50
0
 70
    1
 71
    1
 44
0
 45
0
  0
INSERT
  5
22B
100
AcDbEntity
  8
0
  6
ByLayer
 62
  256
370
   -1
100
AcDbBlockReference
  2
A$C3A410068
 10
-91.94000000000233
 20
-102.0000034200438
 30
0
 41
1
 42
1
 43
0
 50
0
 70
    1
 71
    1
 44
0
 45
0
  0
INSERT
  5
22C
100
AcDbEntity
  8
0
  6
ByLayer
 62
  256
370
   -1
100
AcDbBlockReference
  2
A$C3A410068
 10
-68.95999999999913
 20
-90.00000342004387
 30
0
 41
1
 42
1
 43
0
 50
0
 70
    1
 71
    1
 44
0
 45
0
  0
INSERT
  5
22D
100
AcDbEntity
  8
0
  6
ByLayer
 62
  256
370
   -1
100
AcDbBlockReference
  2
A$C3A410068
 10
-45.9800000000032
 20
-102.0000034200438
 30
0
 41
1
 42
1
 43
0
 50
0
 70
    1
 71
    1
 44
0
 45
0
  0
INSERT
  5
22E
100
AcDbEntity
  8
0
  6
ByLayer
 62
  256
370
   -1
100
AcDbBlockReference
  2
A$C3A410068
 10
-23
 20
-90.00000342004387
 30
0
 41
1
 42
1
 43
0
 50
0
 70
    1
 71
    1
 44
0
 45
0
  0
INSERT
  5
22F
100
AcDbEntity
  8
0
  6
ByLayer
 62
  256
370
   -1
100
AcDbBlockReference
  2
A$C3A410068
 10
0
 20
-102.0000034200438
 30
0
 41
1
 42
1
 43
0
 50
0
 70
    1
 71
    1
 44
0
 45
0
  0
INSERT
  5
230
100
AcDbEntity
  8
0
  6
ByLayer
 62
  256
370
   -1
100
AcDbBlockReference
  2
A$C3A410068
 10
137.9000000000014
 20
-101.3751017555587
 30
0
 41
1
 42
1
 43
0
 50
0
 70
    1
 71
    1
 44
0
 45
0
  0
INSERT
  5
231
100
AcDbEntity
  8
0
  6
ByLayer
 62
  256
370
   -1
100
AcDbBlockReference
  2
A$C3A410068
 10
114.9199999999982
 20
-90.00000342004387
 30
0
 41
1
 42
1
 43
0
 50
0
 70
    1
 71
    1
 44
0
 45
0
  0
INSERT
  5
232
100
AcDbEntity
  8
0
  6
ByLayer
 62
  256
370
   -1
100
AcDbBlockReference
  2
A$C3A410068
 10
91.94000000000233
 20
-102.0000034200438
 30
0
 41
1
 42
1
 43
0
 50
0
 70
    1
 71
    1
 44
0
 45
0
  0
INSERT
  5
233
100
AcDbEntity
  8
0
  6
ByLayer
 62
  256
370
   -1
100
AcDbBlockReference
  2
A$C3A410068
 10
68.95999999999913
 20
-90.00000342004387
 30
0
 41
1
 42
1
 43
0
 50
0
 70
    1
 71
    1
 44
0
 45
0
  0
INSERT
  5
234
100
AcDbEntity
  8
0
  6
ByLayer
 62
  256
370
   -1
100
AcDbBlockReference
  2
A$C3A410068
 10
45.9800000000032
 20
-102.0000034200438
 30
0
 41
1
 42
1
 43
0
 50
0
 70
    1
 71
    1
 44
0
 45
0
  0
INSERT
  5
235
100
AcDbEntity
  8
0
  6
ByLayer
 62
  256
370
   -1
100
AcDbBlockReference
  2
A$C3A410068
 10
23
 20
-90.00000342004387
 30
0
 41
1
 42
1
 43
0
 50
0
 70
    1
 71
    1
 44
0
 45
0
  0
INSERT
  5
236
100
AcDbEntity
  8
0
  6
ByLayer
 62
  256
370
   -1
100
AcDbBlockReference
  2
A$C3A410068
 10
45.9800000000032
 20
-67.99999698231657
 30
0
 41
1
 42
1
 43
0
 50
0
 70
    1
 71
    1
 44
0
 45
0
  0
INSERT
  5
237
100
AcDbEntity
  8
0
  6
ByLayer
 62
  256
370
   -1
100
AcDbBlockReference
  2
A$C3A410068
 10
91.94000000000233
 20
-67.99999698231657
 30
0
 41
1
 42
1
 43
0
 50
0
 70
    1
 71
    1
 44
0
 45
0
  0
INSERT
  5
238
100
AcDbEntity
  8
0
  6
ByLayer
 62
  256
370
   -1
100
AcDbBlockReference
  2
A$C3A410068
 10
137.9000000000014
 20
-78.62500342004387
 30
0
 41
1
 42
1
 43
0
 50
0
 70
    1
 71
    1
 44
0
 45
0
  0
INSERT
  5
239
100
AcDbEntity
  8
0
  6
ByLayer
 62
  256
370
   -1
100
AcDbBlockReference
  2
A$C3A410068
 10
137.9000000000014
 20
-55.87529198885931
 30
0
 41
1
 42
1
 43
0
 50
0
 70
    1
 71
    1
 44
0
 45
0
  0
INSERT
  5
23A
100
AcDbEntity
  8
0
  6
ByLayer
 62
  256
370
   -1
100
AcDbBlockReference
  2
A$C3A410068
 10
137.9000000000014
 20
-33.12519365334629
 30
0
 41
1
 42
1
 43
0
 50
0
 70
    1
 71
    1
 44
0
 45
0
  0
INSERT
  5
23B
100
AcDbEntity
  8
0
  6
ByLayer
 62
  256
370
   -1
100
AcDbBlockReference
  2
A$C3A410068
 10
114.9199999999982
 20
-44.50019365334628
 30
0
 41
1
 42
1
 43
0
 50
0
 70
    1
 71
    1
 44
0
 45
0
  0
INSERT
  5
23C
100
AcDbEntity
  8
0
  6
ByLayer
 62
  256
370
   -1
100
AcDbBlockReference
  2
A$C3A410068
 10
68.96000000000276
 20
-44.50019365334628
 30
0
 41
1
 42
1
 43
0
 50
0
 70
    1
 71
    1
 44
0
 45
0
  0
INSERT
  5
23D
100
AcDbEntity
  8
0
  6
ByLayer
 62
  256
370
   -1
100
AcDbBlockReference
  2
A$C3A410068
 10
23
 20
-44.50019365334628
 30
0
 41
1
 42
1
 43
0
 50
0
 70
    1
 71
    1
 44
0
 45
0
  0
INSERT
  5
23E
100
AcDbEntity
  8
0
  6
ByLayer
 62
  256
370
   -1
100
AcDbBlockReference
  2
A$C3A410068
 10
0
 20
-21.99999698231659
 30
0
 41
1
 42
1
 43
0
 50
0
 70
    1
 71
    1
 44
0
 45
0
  0
INSERT
  5
23F
100
AcDbEntity
  8
0
  6
ByLayer
 62
  256
370
   -1
100
AcDbBlockReference
  2
A$C3A410068
 10
45.9800000000032
 20
-21.99999698231659
 30
0
 41
1
 42
1
 43
0
 50
0
 70
    1
 71
    1
 44
0
 45
0
  0
INSERT
  5
240
100
AcDbEntity
  8
0
  6
ByLayer
 62
  256
370
   -1
100
AcDbBlockReference
  2
A$C3A410068
 10
91.94000000000233
 20
-21.99999698231659
 30
0
 41
1
 42
1
 43
0
 50
0
 70
    1
 71
    1
 44
0
 45
0
  0
INSERT
  5
241
100
AcDbEntity
  8
0
  6
ByLayer
 62
  256
370
   -1
100
AcDbBlockReference
  2
A$C3A410068
 10
-23
 20
0.9998063466537132
 30
0
 41
1
 42
1
 43
0
 50
0
 70
    1
 71
    1
 44
0
 45
0
  0
INSERT
  5
242
100
AcDbEntity
  8
0
  6
ByLayer
 62
  256
370
   -1
100
AcDbBlockReference
  2
A$C3A410068
 10
23
 20
0.9998063466537132
 30
0
 41
1
 42
1
 43
0
 50
0
 70
    1
 71
    1
 44
0
 45
0
  0
INSERT
  5
243
100
AcDbEntity
  8
0
  6
ByLayer
 62
  256
370
   -1
100
AcDbBlockReference
  2
A$C3A410068
 10
68.96000000000276
 20
0.9998063466537132
 30
0
 41
1
 42
1
 43
0
 50
0
 70
    1
 71
    1
 44
0
 45
0
  0
INSERT
  5
244
100
AcDbEntity
  8
0
  6
ByLayer
 62
  256
370
   -1
100
AcDbBlockReference
  2
A$C3A410068
 10
-45.9800000000032
 20
24.00000301768341
 30
0
 41
1
 42
1
 43
0
 50
0
 70
    1
 71
    1
 44
0
 45
0
  0
INSERT
  5
245
100
AcDbEntity
  8
0
  6
ByLayer
 62
  256
370
   -1
100
AcDbBlockReference
  2
A$C3A410068
 10
0
 20
24.00000301768341
 30
0
 41
1
 42
1
 43
0
 50
0
 70
    1
 71
    1
 44
0
 45
0
  0
INSERT
  5
246
100
AcDbEntity
  8
0
  6
ByLayer
 62
  256
370
   -1
100
AcDbBlockReference
  2
A$C3A410068
 10
45.9800000000032
 20
24.00000301768341
 30
0
 41
1
 42
1
 43
0
 50
0
 70
    1
 71
    1
 44
0
 45
0
  0
INSERT
  5
247
100
AcDbEntity
  8
0
  6
ByLayer
 62
  256
370
   -1
100
AcDbBlockReference
  2
A$C3A410068
 10
91.94000000000233
 20
24.00000301768341
 30
0
 41
1
 42
1
 43
0
 50
0
 70
    1
 71
    1
 44
0
 45
0
  0
INSERT
  5
248
100
AcDbEntity
  8
0
  6
ByLayer
 62
  256
370
   -1
100
AcDbBlockReference
  2
A$C3A410068
 10
137.9000000000014
 20
12.37480634665371
 30
0
 41
1
 42
1
 43
0
 50
0
 70
    1
 71
    1
 44
0
 45
0
  0
INSERT
  5
249
100
AcDbEntity
  8
0
  6
ByLayer
 62
  256
370
   -1
100
AcDbBlockReference
  2
A$C3A410068
 10
137.9000000000014
 20
-10.37529198885931
 30
0
 41
1
 42
1
 43
0
 50
0
 70
    1
 71
    1
 44
0
 45
0
  0
INSERT
  5
24A
100
AcDbEntity
  8
0
  6
ByLayer
 62
  256
370
   -1
100
AcDbBlockReference
  2
A$C3A410068
 10
114.9199999999982
 20
0.9998063466537132
 30
0
 41
1
 42
1
 43
0
 50
0
 70
    1
 71
    1
 44
0
 45
0
  0
INSERT
  5
24B
100
AcDbEntity
  8
0
  6
ByLayer
 62
  256
370
   -1
100
AcDbBlockReference
  2
A$C3A410068
 10
137.9000000000014
 20
35.12470801114068
 30
0
 41
1
 42
1
 43
0
 50
0
 70
    1
 71
    1
 44
0
 45
0
  0
INSERT
  5
24C
100
AcDbEntity
  8
0
  6
ByLayer
 62
  256
370
   -1
100
AcDbBlockReference
  2
A$C3A410068
 10
114.9199999999982
 20
46.49980634665371
 30
0
 41
1
 42
1
 43
0
 50
0
 70
    1
 71
    1
 44
0
 45
0
  0
INSERT
  5
24D
100
AcDbEntity
  8
0
  6
ByLayer
 62
  256
370
   -1
100
AcDbBlockReference
  2
A$C3A410068
 10
137.9000000000014
 20
57.87480634665371
 30
0
 41
1
 42
1
 43
0
 50
0
 70
    1
 71
    1
 44
0
 45
0
  0
INSERT
  5
24E
100
AcDbEntity
  8
0
  6
ByLayer
 62
  256
370
   -1
100
AcDbBlockReference
  2
A$C3A410068
 10
137.9000000000014
 20
103.3750030176834
 30
0
 41
1
 42
1
 43
0
 50
0
 70
    1
 71
    1
 44
0
 45
0
  0
INSERT
  5
24F
100
AcDbEntity
  8
0
  6
ByLayer
 62
  256
370
   -1
100
AcDbBlockReference
  2
A$C3A410068
 10
137.9000000000014
 20
80.62490468216855
 30
0
 41
1
 42
1
 43
0
 50
0
 70
    1
 71
    1
 44
0
 45
0
  0
INSERT
  5
250
100
AcDbEntity
  8
0
  6
ByLayer
 62
  256
370
   -1
100
AcDbBlockReference
  2
A$C3A410068
 10
114.9199999999982
 20
92.00000301768341
 30
0
 41
1
 42
1
 43
0
 50
0
 70
    1
 71
    1
 44
0
 45
0
  0
INSERT
  5
251
100
AcDbEntity
  8
0
  6
ByLayer
 62
  256
370
   -1
100
AcDbBlockReference
  2
A$C3A410068
 10
91.94000000000233
 20
104.0000030176834
 30
0
 41
1
 42
1
 43
0
 50
0
 70
    1
 71
    1
 44
0
 45
0
  0
INSERT
  5
252
100
AcDbEntity
  8
0
  6
ByLayer
 62
  256
370
   -1
100
AcDbBlockReference
  2
A$C3A410068
 10
91.94000000000233
 20
70.00000301768341
 30
0
 41
1
 42
1
 43
0
 50
0
 70
    1
 71
    1
 44
0
 45
0
  0
INSERT
  5
253
100
AcDbEntity
  8
0
  6
ByLayer
 62
  256
370
   -1
100
AcDbBlockReference
  2
A$C3A410068
 10
68.96000000000276
 20
92.00000301768341
 30
0
 41
1
 42
1
 43
0
 50
0
 70
    1
 71
    1
 44
0
 45
0
  0
INSERT
  5
254
100
AcDbEntity
  8
0
  6
ByLayer
 62
  256
370
   -1
100
AcDbBlockReference
  2
A$C3A410068
 10
68.96000000000276
 20
46.49980634665371
 30
0
 41
1
 42
1
 43
0
 50
0
 70
    1
 71
    1
 44
0
 45
0
  0
INSERT
  5
255
100
AcDbEntity
  8
0
  6
ByLayer
 62
  256
370
   -1
100
AcDbBlockReference
  2
A$C3A410068
 10
45.9800000000032
 20
70.00000301768341
 30
0
 41
1
 42
1
 43
0
 50
0
 70
    1
 71
    1
 44
0
 45
0
  0
INSERT
  5
256
100
AcDbEntity
  8
0
  6
ByLayer
 62
  256
370
   -1
100
AcDbBlockReference
  2
A$C3A410068
 10
45.9800000000032
 20
104.0000030176834
 30
0
 41
1
 42
1
 43
0
 50
0
 70
    1
 71
    1
 44
0
 45
0
  0
INSERT
  5
257
100
AcDbEntity
  8
0
  6
ByLayer
 62
  256
370
   -1
100
AcDbBlockReference
  2
A$C3A410068
 10
23
 20
92.00000301768341
 30
0
 41
1
 42
1
 43
0
 50
0
 70
    1
 71
    1
 44
0
 45
0
  0
INSERT
  5
258
100
AcDbEntity
  8
0
  6
ByLayer
 62
  256
370
   -1
100
AcDbBlockReference
  2
A$C3A410068
 10
23
 20
46.49980634665371
 30
0
 41
1
 42
1
 43
0
 50
0
 70
    1
 71
    1
 44
0
 45
0
  0
INSERT
  5
259
100
AcDbEntity
  8
0
  6
ByLayer
 62
  256
370
   -1
100
AcDbBlockReference
  2
A$C3A410068
 10
-23
 20
46.49980634665371
 30
0
 41
1
 42
1
 43
0
 50
0
 70
    1
 71
    1
 44
0
 45
0
  0
INSERT
  5
25A
100
AcDbEntity
  8
0
  6
ByLayer
 62
  256
370
   -1
100
AcDbBlockReference
  2
A$C3A410068
 10
-23
 20
92.00000301768341
 30
0
 41
1
 42
1
 43
0
 50
0
 70
    1
 71
    1
 44
0
 45
0
  0
INSERT
  5
25B
100
AcDbEntity
  8
0
  6
ByLayer
 62
  256
370
   -1
100
AcDbBlockReference
  2
A$C3A410068
 10
0
 20
104.0000030176834
 30
0
 41
1
 42
1
 43
0
 50
0
 70
    1
 71
    1
 44
0
 45
0
  0
INSERT
  5
25C
100
AcDbEntity
  8
0
  6
ByLayer
 62
  256
370
   -1
100
AcDbBlockReference
  2
A$C3A410068
 10
0
 20
70.00000301768341
 30
0
 41
1
 42
1
 43
0
 50
0
 70
    1
 71
    1
 44
0
 45
0
  0
INSERT
  5
25D
100
AcDbEntity
  8
0
  6
ByLayer
 62
  256
370
   -1
100
AcDbBlockReference
  2
A$C3A410068
 10
-45.9800000000032
 20
104.0000030176834
 30
0
 41
1
 42
1
 43
0
 50
0
 70
    1
 71
    1
 44
0
 45
0
  0
INSERT
  5
25E
100
AcDbEntity
  8
0
  6
ByLayer
 62
  256
370
   -1
100
AcDbBlockReference
  2
A$C3A410068
 10
-45.9800000000032
 20
70.00000301768341
 30
0
 41
1
 42
1
 43
0
 50
0
 70
    1
 71
    1
 44
0
 45
0
  0
INSERT
  5
25F
100
AcDbEntity
  8
0
  6
ByLayer
 62
  256
370
   -1
100
AcDbBlockReference
  2
A$C3A410068
 10
-68.96000000000276
 20
46.49980634665371
 30
0
 41
1
 42
1
 43
0
 50
0
 70
    1
 71
    1
 44
0
 45
0
  0
INSERT
  5
260
100
AcDbEntity
  8
0
  6
ByLayer
 62
  256
370
   -1
100
AcDbBlockReference
  2
A$C3A410068
 10
-68.96000000000276
 20
92.00000301768341
 30
0
 41
1
 42
1
 43
0
 50
0
 70
    1
 71
    1
 44
0
 45
0
  0
INSERT
  5
261
100
AcDbEntity
  8
0
  6
ByLayer
 62
  256
370
   -1
100
AcDbBlockReference
  2
A$C3A410068
 10
-91.94000000000233
 20
104.0000030176834
 30
0
 41
1
 42
1
 43
0
 50
0
 70
    1
 71
    1
 44
0
 45
0
  0
INSERT
  5
262
100
AcDbEntity
  8
0
  6
ByLayer
 62
  256
370
   -1
100
AcDbBlockReference
  2
A$C3A410068
 10
-91.94000000000233
 20
70.00000301768341
 30
0
 41
1
 42
1
 43
0
 50
0
 70
    1
 71
    1
 44
0
 45
0
  0
INSERT
  5
263
100
AcDbEntity
  8
0
  6
ByLayer
 62
  256
370
   -1
100
AcDbBlockReference
  2
A$C75D90C8F
 10
-143.4165589395707
 20
124.5000015088408
 30
0
 41
1
 42
1
 43
0
 50
0
 70
    1
 71
    1
 44
0
 45
0
  0
INSERT
  5
264
100
AcDbEntity
  8
0
  6
ByLayer
 62
  256
370
   -1
100
AcDbBlockReference
  2
A$C75D90C8F
 10
-82.29999999999927
 20
124.5000015088408
 30
0
 41
1
 42
1
 43
0
 50
0
 70
    1
 71
    1
 44
0
 45
0
  0
INSERT
  5
265
100
AcDbEntity
  8
0
  6
ByLayer
 62
  256
370
   -1
100
AcDbBlockReference
  2
A$C75D90C8F
 10
-16.80000000000291
 20
124.5000015088408
 30
0
 41
1
 42
1
 43
0
 50
0
 70
    1
 71
    1
 44
0
 45
0
  0
INSERT
  5
266
100
AcDbEntity
  8
0
  6
ByLayer
 62
  256
370
   -1
100
AcDbBlockReference
  2
A$C75D90C8F
 10
48.69999999999709
 20
124.5000015088408
 30
0
 41
1
 42
1
 43
0
 50
0
 70
    1
 71
    1
 44
0
 45
0
  0
INSERT
  5
267
100
AcDbEntity
  8
0
  6
ByLayer
 62
  256
370
   -1
100
AcDbBlockReference
  2
A$C75D90C8F
 10
114.1999999999971
 20
124.5000015088408
 30
0
 41
1
 42
1
 43
0
 50
0
 70
    1
 71
    1
 44
0
 45
0
  0
INSERT
  5
268
100
AcDbEntity
  8
0
  6
ByLayer
 62
  256
370
   -1
100
AcDbBlockReference
  2
A$C75D90C8F
 10
143.2028837674952
 20
-123.5000017100228
 30
0
 41
1
 42
1
 43
0
 50
0
 70
    1
 71
    1
 44
0
 45
0
  0
INSERT
  5
269
100
AcDbEntity
  8
0
  6
ByLayer
 62
  256
370
   -1
100
AcDbBlockReference
  2
A$C75D90C8F
 10
81.4499999999971
 20
-123.5000017100228
 30
0
 41
1
 42
1
 43
0
 50
0
 70
    1
 71
    1
 44
0
 45
0
  0
INSERT
  5
26A
100
AcDbEntity
  8
0
  6
ByLayer
 62
  256
370
   -1
100
AcDbBlockReference
  2
A$C75D90C8F
 10
15.94999999999709
 20
-123.5000017100228
 30
0
 41
1
 42
1
 43
0
 50
0
 70
    1
 71
    1
 44
0
 45
0
  0
INSERT
  5
26B
100
AcDbEntity
  8
0
  6
ByLayer
 62
  256
370
   -1
100
AcDbBlockReference
  2
A$C75D90C8F
 10
-49.55000000000291
 20
-123.5000017100228
 30
0
 41
1
 42
1
 43
0
 50
0
 70
    1
 71
    1
 44
0
 45
0
  0
INSERT
  5
26C
100
AcDbEntity
  8
0
  6
ByLayer
 62
  256
370
   -1
100
AcDbBlockReference
  2
A$C75D90C8F
 10
-115.0499999999992
 20
-123.5000017100228
 30
0
 41
1
 42
1
 43
0
 50
0
 70
    1
 71
    1
 44
0
 45
0
  0
ENDBLK
  5
79
330
77
100
AcDbEntity
  8
0
100
AcDbBlockEnd
  0
BLOCK
  5
7B
330
7A
100
AcDbEntity
  8
0
100
AcDbBlockBegin
  2
_POZOR !PÁLENÉ ROZMĚRY
 70
    0
 10
0
 20
0
  3
_POZOR !PÁLENÉ ROZMĚRY
  1

  0
ENDBLK
  5
7C
330
7A
100
AcDbEntity
  8
0
100
AcDbBlockEnd
  0
BLOCK
  5
7E
330
7D
100
AcDbEntity
  8
0
100
AcDbBlockBegin
  2
A$C2EFF5608
 70
    0
 10
0
 20
0
  3
A$C2EFF5608
  1

  0
ENDBLK
  5
7F
330
7D
100
AcDbEntity
  8
0
100
AcDbBlockEnd
  0
BLOCK
  5
81
330
80
100
AcDbEntity
  8
0
100
AcDbBlockBegin
  2
A$C054C61AF
 70
    0
 10
0
 20
0
  3
A$C054C61AF
  1

  0
LWPOLYLINE
  5
26D
100
AcDbEntity
  8
0
  6
ByLayer
 62
  256
370
   -1
100
AcDbPolyline
 90
    8
 70
    1
 43
0
 10
-116.6031334089257
 20
49.47057024059358
 10
-116.6031334089257
 20
83.32657024059336
 42
-0.414213562373095
 10
-114.6031334089257
 20
85.32657024059336
 10
-102.5143334089257
 20
85.32657024059336
 42
-0.414213562373095
 10
-100.5143334089257
 20
83.32657024059336
 10
-100.5143334089257
 20
49.47057024059358
 42
-0.414213562373095
 10
-102.5143334089257
 20
47.47057024059358
 10
-114.6031334089257
 20
47.47057024059358
 42
-0.414213562373095
  0
LWPOLYLINE
  5
26E
100
AcDbEntity
  8
0
  6
ByLayer
 62
  256
370
   -1
100
AcDbPolyline
 90
  169
 70
    1
 43
0
 10
-149.8028454088767
 20
-84.38103585207135
 42
-0.4142135623730929
 10
-147.8028454088767
 20
-82.38103585207138
 10
-146.0040845711564
 20
-82.38103585207136
 42
-0.1848444519348464
 10
-144.6686688393965
 20
-82.89218904216614
 10
-143.1382611407875
 20
-84.26488266190427
 42
0.6487279186053531
 10
-139.8028454090549
 20
-82.77603585207908
 10
-139.8028454090549
 20
-65.98603585206365
 42
0.6487279186055391
 10
-143.1382611406684
 20
-64.49718904212934
 10
-144.6686688393947
 20
-65.86988266197659
 42
-0.1848444519348816
 10
-146.0040845711555
 20
-66.38103585206954
 10
-147.8028454089499
 20
-66.38103585207136
 42
-0.4142135623725622
 10
-149.8028454089499
 20
-64.38103585207136
 10
-149.8028454089276
 20
-46.45081484393631
 42
-0.2679491924308204
 10
-148.3028454089276
 20
-43.85273863258773
 42
0.5773502691897093
 10
-148.3028454089276
 20
-38.65658620987958
 42
-0.2679491924309886
 10
-149.8028454089271
 20
-36.05850999852737
 10
-149.8028454089271
 20
-24.92016831157525
 42
-0.2679491924310725
 10
-148.3028454089276
 20
-22.32209210022304
 42
0.5773502691897108
 10
-148.3028454089276
 20
-17.12593967751488
 42
-0.2679491924310724
 10
-149.8028454089271
 20
-14.52786346616267
 10
-149.8028454089276
 20
-3.389568311573385
 42
-0.2679491924309796
 10
-148.3028454089276
 20
-0.7914921002229891
 42
0.5773502691897102
 10
-148.3028454089276
 20
4.404660322485161
 42
-0.267949192430991
 10
-149.8028454089271
 20
7.002736533837377
 10
-149.8028454089271
 20
18.14093862369373
 42
-0.267949192430993
 10
-148.3028454089276
 20
20.73901483504597
 42
0.5773502691897088
 10
-148.3028454089276
 20
25.9351672577541
 42
-0.2679491924309075
 10
-149.8028454089271
 20
28.53324346910449
 10
-149.8028454088767
 20
39.11896414792864
 42
-0.414213562373095
 10
-147.8028454088767
 20
41.11896414792864
 10
-146.0040845711564
 20
41.11896414792864
 42
-0.1848444519348464
 10
-144.6686688393965
 20
40.60781095783386
 10
-143.1382611407875
 20
39.23511733809574
 42
0.6487279186053454
 10
-139.8028454090549
 20
40.72396414792092
 10
-139.8028454090549
 20
57.51396414793635
 42
0.648727918605536
 10
-143.1382611406684
 20
59.00281095787066
 10
-144.6686688393947
 20
57.6301173380234
 42
-0.1848444519348832
 10
-146.0040845711555
 20
57.11896414793046
 10
-147.8028454089499
 20
57.11896414792864
 42
-0.4142135623725612
 10
-149.8028454089499
 20
59.11896414792863
 10
-149.8028454089271
 20
107.8793673846594
 42
-0.4142135623730964
 10
-146.8028454089271
 20
110.8793673846576
 10
-132.1810118373951
 20
110.8793673846576
 42
-0.2679491924311148
 10
-129.5829356260419
 20
109.3793673846576
 10
-123.1189236610698
 20
98.18337024059474
 42
0.2679491924311174
 10
-120.5208474497167
 20
96.68337024059474
 10
-96.84268336814149
 20
96.68337024059475
 42
0.2679491924310948
 10
-94.24460715678833
 20
98.18337024059473
 10
-87.78059519181443
 20
109.3793673846576
 42
-0.2679491924310743
 10
-85.18251898046174
 20
110.8793673846576
 10
-70.19181183739238
 20
110.8793673846576
 42
-0.2679491924311554
 10
-67.59373562603878
 20
109.3793673846576
 10
-61.12972366106987
 20
98.18337024059474
 42
0.2679491924311362
 10
-58.53164744971627
 20
96.68337024059474
 10
-34.8534833681415
 20
96.68337024059474
 42
0.2679491924310957
 10
-32.25540715678834
 20
98.18337024059474
 10
-25.79139519181399
 20
109.3793673846576
 42
-0.2679491924310536
 10
-23.1933189804613
 20
110.8793673846576
 10
-8.202611837395123
 20
110.8793673846576
 42
-0.267949192431114
 10
-5.604535626041987
 20
109.3793673846576
 10
0.859476338930099
 20
98.18337024059474
 42
0.2679491924311164
 10
3.457552550283248
 20
96.68337024059474
 10
27.13571663186304
 20
96.68337024059474
 42
0.2679491924311554
 10
29.73379284321664
 20
98.18337024059474
 10
36.19780480818417
 20
109.3793673846576
 42
-0.2679491924311961
 10
38.79588101953823
 20
110.8793673846576
 10
53.78658816260486
 20
110.8793673846576
 42
-0.2679491924311149
 10
56.384664373958
 20
109.3793673846576
 10
62.84867633893008
 20
98.18337024059474
 42
0.2679491924311164
 10
65.44675255028324
 20
96.68337024059474
 10
89.12491663185983
 20
96.68337024059474
 42
0.267949192431116
 10
91.72299284321298
 20
98.18337024059474
 10
98.18700480818234
 20
109.3793673846539
 42
-0.2679491924310344
 10
100.7850810195346
 20
110.8793673846539
 10
115.7797559261862
 20
110.8793673846576
 42
-0.267417379145724
 10
118.3748494939727
 20
109.3845216539739
 10
124.8745067899353
 20
98.17821597128022
 42
0.2674173791456816
 10
127.4696003577205
 20
96.68337024059474
 10
147.2059545910724
 20
96.68337024059474
 42
-0.414213562373095
 10
150.2059545910724
 20
93.68337024059474
 10
150.2059545910724
 20
71.59462959856864
 42
-0.2679491924309934
 10
148.7059545910724
 20
68.99655338721821
 42
0.5773502691896997
 10
148.7059545910729
 20
63.80040096450833
 42
-0.2679491924308224
 10
150.2059545910724
 20
61.2023247531597
 10
150.2059545910952
 20
44.93337024058928
 42
-0.4142135623725602
 10
148.2059545910952
 20
42.93337024059293
 10
146.4071937533008
 20
42.93337024059474
 42
-0.1848444519349634
 10
145.07177802154
 20
43.44452343068952
 10
143.5413703228137
 20
44.81721705053494
 42
0.648727918605535
 10
140.2059545912007
 20
43.32837024060063
 10
140.2059545912002
 20
26.53837024058521
 42
0.6487279186053531
 10
143.5413703229328
 20
25.04952343076001
 10
145.0717780215418
 20
26.42221705049815
 42
-0.1848444519348308
 10
146.4071937533017
 20
26.93337024059292
 10
148.2059545910219
 20
26.93337024059292
 42
-0.414213562373095
 10
150.2059545910219
 20
24.93337024059292
 10
150.2059545910747
 20
7.002736533850111
 42
-0.267949192432042
 10
148.7059545910738
 20
4.40466032248694
 42
0.5773502691897947
 10
148.7059545910729
 20
-0.7914921002211575
 42
-0.2679491924310725
 10
150.205954591072
 20
-3.389568311573385
 10
150.205954591072
 20
-14.52786346615903
 42
-0.2679491924312185
 10
148.7059545910724
 20
-17.12593967751495
 42
0.5773502691896848
 10
148.7059545910738
 20
-22.32209210021934
 42
-0.2679491924309948
 10
150.2059545910733
 20
-24.92016831157343
 10
150.2059545910724
 20
-36.05846346616272
 42
-0.2679491924314384
 10
148.7059545910697
 20
-38.6565396775168
 42
0.5773502691905198
 10
148.7059545910697
 20
-43.85269210022849
 42
-0.2679491924314403
 10
150.205954591072
 20
-46.45076831158258
 10
150.2059545910729
 20
-57.58915653088843
 42
-0.2679491924313894
 10
148.705954591072
 20
-60.18723274224431
 42
0.5773502691898825
 10
148.705954591072
 20
-65.38338516495241
 42
-0.2679491924307045
 10
150.2059545910729
 20
-67.98146137630101
 10
150.2059545910952
 20
-78.56662975941072
 42
-0.4142135623725622
 10
148.2059545910952
 20
-80.56662975940708
 10
146.4071937533008
 20
-80.56662975940526
 42
-0.1848444519349629
 10
145.07177802154
 20
-80.05547656931046
 10
143.5413703228137
 20
-78.68278294946504
 42
0.6487279186055376
 10
140.2059545912007
 20
-80.17162975939937
 10
140.2059545912002
 20
-96.96162975941479
 42
0.6487279186053531
 10
143.5413703229328
 20
-98.45047656923998
 10
145.0717780215418
 20
-97.07778294950187
 42
-0.1848444519348313
 10
146.4071937533017
 20
-96.56662975940708
 10
148.2059545910219
 20
-96.56662975940709
 42
-0.4142135623730929
 10
150.2059545910219
 20
-98.56662975940706
 10
150.2059545910815
 20
-147.3270326153379
 42
-0.4142135623734113
 10
147.205954591082
 20
-150.3270326153415
 10
132.7269942342764
 20
-150.3270326153433
 42
-0.2494983946465689
 10
130.2388056069399
 20
-149.0030151196661
 10
122.4603833130336
 20
-137.4550533477486
 42
0.2494983946465675
 10
119.9721946856971
 20
-136.1310358520713
 10
96.58867449644596
 20
-136.1310358520713
 42
0.2494983946465435
 10
94.10048586910941
 20
-137.4550533477486
 10
86.32206357520364
 20
-149.0030151196661
 42
-0.2494983946465649
 10
83.83387494786712
 20
-150.3270326153433
 10
70.73779423427595
 20
-150.3270326153433
 42
-0.2494983946465399
 10
68.24960560693944
 20
-149.0030151196661
 10
60.47118331303364
 20
-137.4550533477486
 42
0.2494983946465645
 10
57.98299468569712
 20
-136.1310358520713
 10
34.59947449644551
 20
-136.1310358520713
 42
0.2494983946465397
 10
32.111285869109
 20
-137.4550533477486
 10
24.33286357520367
 20
-149.0030151196661
 42
-0.2494983946465661
 10
21.84467494786713
 20
-150.3270326153433
 10
8.748594234275966
 20
-150.3270326153433
 42
-0.2494983946465399
 10
6.260405606939452
 20
-149.0030151196661
 10
-1.518016686966326
 20
-137.4550533477486
 42
0.2494983946465655
 10
-4.00620531430286
 20
-136.1310358520713
 10
-27.38972550355447
 20
-136.1310358520713
 42
0.2494983946465395
 10
-29.87791413089098
 20
-137.4550533477486
 10
-37.65633642479632
 20
-149.0030151196661
 42
-0.2494983946465663
 10
-40.14452505213284
 20
-150.3270326153433
 10
-53.24060576572401
 20
-150.3270326153433
 42
-0.2494983946465411
 10
-55.72879439306054
 20
-149.0030151196661
 10
-63.50721668696632
 20
-137.4550533477486
 42
0.2494983946465645
 10
-65.99540531430284
 20
-136.1310358520713
 10
-89.37892550355446
 20
-136.1310358520713
 42
0.2494983946465397
 10
-91.86711413089097
 20
-137.4550533477486
 10
-99.64553642479629
 20
-149.0030151196661
 42
-0.2494983946465663
 10
-102.1337250521328
 20
-150.3270326153433
 10
-115.229805765724
 20
-150.3270326153433
 42
-0.2494983946465466
 10
-117.7179943930605
 20
-149.0030151196661
 10
-125.4964166869663
 20
-137.4550533477486
 42
0.2494983946465439
 10
-127.9846053143024
 20
-136.1310358520713
 10
-146.8022140195117
 20
-136.1310358520713
 42
-0.4149097411852242
 10
-149.8022055491851
 20
-133.1239069048879
 10
-149.8026444036718
 20
-111.0424813384798
 42
-0.2679491924308265
 10
-148.302696039103
 20
-108.4443753160831
 42
0.5773499140667988
 10
-148.3027965414349
 20
-103.2482244924031
 42
-0.2679542322950039
 10
-149.8028454089271
 20
-100.6501200680031
 10
-149.8028454089271
 20
-84.31581893519979
  0
CIRCLE
  5
26F
100
AcDbEntity
  8
0
  6
ByLayer
 62
  256
370
   -1
100
AcDbCircle
 10
128.6060985911372
 20
34.93337024059292
 40
4
  0
CIRCLE
  5
270
100
AcDbEntity
  8
0
  6
ByLayer
 62
  256
370
   -1
100
AcDbCircle
 10
128.6060985911344
 20
54.33400024059301
 40
4
  0
CIRCLE
  5
271
100
AcDbEntity
  8
0
  6
ByLayer
 62
  256
370
   -1
100
AcDbCircle
 10
128.6060985911344
 20
15.53274024059283
 40
4
  0
CIRCLE
  5
272
100
AcDbEntity
  8
0
  6
ByLayer
 62
  256
370
   -1
100
AcDbCircle
 10
-128.2029894089919
 20
-74.38103585207136
 40
4
  0
CIRCLE
  5
273
100
AcDbEntity
  8
0
  6
ByLayer
 62
  256
370
   -1
100
AcDbCircle
 10
-128.2029894089892
 20
-54.98040585207127
 40
4
  0
CIRCLE
  5
274
100
AcDbEntity
  8
0
  6
ByLayer
 62
  256
370
   -1
100
AcDbCircle
 10
-128.2029894089892
 20
-93.78166585207146
 40
4
  0
CIRCLE
  5
275
100
AcDbEntity
  8
0
  6
ByLayer
 62
  256
370
   -1
100
AcDbCircle
 10
128.6060985911367
 20
-84.67379585207527
 40
4
  0
CIRCLE
  5
276
100
AcDbEntity
  8
0
  6
ByLayer
 62
  256
370
   -1
100
AcDbCircle
 10
128.6060985911367
 20
-70.123795852076
 40
4
  0
CIRCLE
  5
277
100
AcDbEntity
  8
0
  6
ByLayer
 62
  256
370
   -1
100
AcDbCircle
 10
128.6060985911367
 20
-99.22379585207455
 40
4
  0
CIRCLE
  5
278
100
AcDbEntity
  8
0
  6
ByLayer
 62
  256
370
   -1
100
AcDbCircle
 10
-128.2029894089914
 20
45.22613024059682
 40
4
  0
CIRCLE
  5
279
100
AcDbEntity
  8
0
  6
ByLayer
 62
  256
370
   -1
100
AcDbCircle
 10
-128.2029894089914
 20
30.67613024059756
 40
4
  0
CIRCLE
  5
27A
100
AcDbEntity
  8
0
  6
ByLayer
 62
  256
370
   -1
100
AcDbCircle
 10
-128.2029894089914
 20
59.77613024059611
 40
4
  0
LWPOLYLINE
  5
27B
100
AcDbEntity
  8
0
  6
ByLayer
 62
  256
370
   -1
100
AcDbPolyline
 90
    8
 70
    1
 43
0
 10
-137.7362454089279
 20
72.32613024059172
 42
0.414213562373095
 10
-135.7362454089279
 20
70.32613024059172
 10
-124.8777654089272
 20
70.32613024059172
 42
0.414213562373095
 10
-122.8777654089272
 20
72.32613024059172
 10
-122.8777654089272
 20
83.18461024059251
 42
0.414213562373095
 10
-124.8777654089272
 20
85.18461024059252
 10
-135.7362454089279
 20
85.18461024059252
 42
0.4142135623730971
 10
-137.7362454089279
 20
83.18461024059251
  0
LWPOLYLINE
  5
27C
100
AcDbEntity
  8
0
  6
ByLayer
 62
  256
370
   -1
100
AcDbPolyline
 90
    8
 70
    1
 43
0
 10
-116.6031334089257
 20
6.409184111131253
 10
-116.6031334089257
 20
40.26518411113102
 42
-0.414213562373095
 10
-114.6031334089257
 20
42.26518411113102
 10
-102.5143334089257
 20
42.26518411113102
 42
-0.414213562373095
 10
-100.5143334089257
 20
40.26518411113102
 10
-100.5143334089257
 20
6.409184111131253
 42
-0.414213562373095
 10
-102.5143334089257
 20
4.409184111131253
 10
-114.6031334089257
 20
4.409184111131253
 42
-0.414213562373095
  0
LWPOLYLINE
  5
27D
100
AcDbEntity
  8
0
  6
ByLayer
 62
  256
370
   -1
100
AcDbPolyline
 90
    8
 70
    1
 43
0
 10
-116.5450116976767
 20
-36.65201588886885
 10
-116.5450116976767
 20
-2.796015888869078
 42
-0.414213562373095
 10
-114.5450116976767
 20
-0.796015888869078
 10
-102.4562116976767
 20
-0.796015888869078
 42
-0.414213562373095
 10
-100.4562116976767
 20
-2.796015888869078
 10
-100.4562116976767
 20
-36.65201588886885
 42
-0.414213562373095
 10
-102.4562116976767
 20
-38.65201588886885
 10
-114.5450116976767
 20
-38.65201588886885
 42
-0.414213562373095
  0
LWPOLYLINE
  5
27E
100
AcDbEntity
  8
0
  6
ByLayer
 62
  256
370
   -1
100
AcDbPolyline
 90
    8
 70
    1
 43
0
 10
-116.6031334089257
 20
-79.71321588886894
 10
-116.6031334089257
 20
-45.85721588886918
 42
-0.414213562373095
 10
-114.6031334089257
 20
-43.85721588886918
 10
-102.5143334089257
 20
-43.85721588886918
 42
-0.414213562373095
 10
-100.5143334089257
 20
-45.85721588886918
 10
-100.5143334089257
 20
-79.71321588886894
 42
-0.414213562373095
 10
-102.5143334089257
 20
-81.71321588886894
 10
-114.6031334089257
 20
-81.71321588886894
 42
-0.414213562373095
  0
LWPOLYLINE
  5
27F
100
AcDbEntity
  8
0
  6
ByLayer
 62
  256
370
   -1
100
AcDbPolyline
 90
    8
 70
    1
 43
0
 10
-116.6031334089257
 20
-122.7742358520718
 10
-116.6031334089257
 20
-88.91823585207204
 42
-0.414213562373095
 10
-114.6031334089257
 20
-86.91823585207202
 10
-102.5143334089257
 20
-86.91823585207202
 42
-0.414213562373095
 10
-100.5143334089257
 20
-88.91823585207204
 10
-100.5143334089257
 20
-122.7742358520718
 42
-0.414213562373095
 10
-102.5143334089257
 20
-124.7742358520718
 10
-114.6031334089257
 20
-124.7742358520718
 42
-0.414213562373095
  0
LWPOLYLINE
  5
280
100
AcDbEntity
  8
0
  6
ByLayer
 62
  256
370
   -1
100
AcDbPolyline
 90
    8
 70
    1
 43
0
 10
-94.85486140892588
 20
-101.9534297594073
 10
-94.85486140892588
 20
-68.09742975940753
 42
-0.4142135623730971
 10
-92.8548614089259
 20
-66.09742975940753
 10
-80.76606140892591
 20
-66.09742975940753
 42
-0.414213562373095
 10
-78.76606140892591
 20
-68.09742975940753
 10
-78.76606140892591
 20
-101.9534297594073
 42
-0.414213562373095
 10
-80.76606140892591
 20
-103.9534297594073
 10
-92.8548614089259
 20
-103.9534297594073
 42
-0.4142135623730971
  0
LWPOLYLINE
  5
281
100
AcDbEntity
  8
0
  6
ByLayer
 62
  256
370
   -1
100
AcDbPolyline
 90
    8
 70
    1
 43
0
 10
-94.85486140892588
 20
-58.41902975940683
 10
-94.85486140892588
 20
-24.56302975940707
 42
-0.4142135623730966
 10
-92.8548614089259
 20
-22.56302975940707
 10
-80.76606140892591
 20
-22.56302975940707
 42
-0.414213562373095
 10
-78.76606140892591
 20
-24.56302975940707
 10
-78.76606140892591
 20
-58.41902975940683
 42
-0.4142135623730961
 10
-80.76606140892591
 20
-60.41902975940684
 10
-92.8548614089259
 20
-60.41902975940684
 42
-0.4142135623730981
  0
LWPOLYLINE
  5
282
100
AcDbEntity
  8
0
  6
ByLayer
 62
  256
370
   -1
100
AcDbPolyline
 90
    8
 70
    1
 43
0
 10
-94.85486140892588
 20
-14.88462975940638
 10
-94.85486140892588
 20
18.97137024059339
 42
-0.4142135623730966
 10
-92.8548614089259
 20
20.97137024059339
 10
-80.76606140892591
 20
20.97137024059339
 42
-0.414213562373095
 10
-78.76606140892591
 20
18.97137024059339
 10
-78.76606140892591
 20
-14.88462975940638
 42
-0.414213562373095
 10
-80.76606140892591
 20
-16.88462975940638
 10
-92.8548614089259
 20
-16.88462975940638
 42
-0.4142135623730971
  0
LWPOLYLINE
  5
283
100
AcDbEntity
  8
0
  6
ByLayer
 62
  256
370
   -1
100
AcDbPolyline
 90
    8
 70
    1
 43
0
 10
-94.85486140892588
 20
28.64977024059226
 10
-94.85486140892588
 20
62.50577024059203
 42
-0.4142135623730971
 10
-92.8548614089259
 20
64.50577024059203
 10
-80.76606140892591
 20
64.50577024059203
 42
-0.414213562373095
 10
-78.76606140892591
 20
62.50577024059203
 10
-78.76606140892591
 20
28.64977024059226
 42
-0.414213562373095
 10
-80.76606140892591
 20
26.64977024059226
 10
-92.8548614089259
 20
26.64977024059226
 42
-0.4142135623730966
  0
LWPOLYLINE
  5
284
100
AcDbEntity
  8
0
  6
ByLayer
 62
  256
370
   -1
100
AcDbPolyline
 90
    8
 70
    1
 43
0
 10
-137.7362454089279
 20
7.142551046399603
 42
0.414213562373095
 10
-135.7362454089279
 20
5.142551046399603
 10
-124.8777654089272
 20
5.142551046399603
 42
0.414213562373095
 10
-122.8777654089272
 20
7.142551046399603
 10
-122.8777654089272
 20
18.00103104640038
 42
0.4142135623730955
 10
-124.8777654089272
 20
20.00103104640039
 10
-135.7362454089279
 20
20.00103104640039
 42
0.4142135623730955
 10
-137.7362454089279
 20
18.00103104640038
  0
LWPOLYLINE
  5
285
100
AcDbEntity
  8
0
  6
ByLayer
 62
  256
370
   -1
100
AcDbPolyline
 90
    8
 70
    1
 43
0
 10
-137.7362454089279
 20
-14.38795588886932
 42
0.4142135623730963
 10
-135.7362454089279
 20
-16.38795588886933
 10
-124.8777654089272
 20
-16.38795588886933
 42
0.4142135623730963
 10
-122.8777654089272
 20
-14.38795588886932
 10
-122.8777654089272
 20
-3.529475888868546
 42
0.414213562373095
 10
-124.8777654089272
 20
-1.529475888868546
 10
-135.7362454089279
 20
-1.529475888868546
 42
0.414213562373095
 10
-137.7362454089279
 20
-3.529475888868546
  0
LWPOLYLINE
  5
286
100
AcDbEntity
  8
0
  6
ByLayer
 62
  256
370
   -1
100
AcDbPolyline
 90
    8
 70
    1
 43
0
 10
-137.7362454089307
 20
-35.9186489536005
 42
0.414213562373095
 10
-135.7362454089307
 20
-37.9186489536005
 10
-124.8777654089299
 20
-37.9186489536005
 42
0.414213562373095
 10
-122.8777654089299
 20
-35.9186489536005
 10
-122.8777654089299
 20
-25.06016895359972
 42
0.414213562373095
 10
-124.8777654089299
 20
-23.06016895359972
 10
-135.7362454089307
 20
-23.06016895359972
 42
0.414213562373095
 10
-137.7362454089307
 20
-25.06016895359972
  0
LWPOLYLINE
  5
287
100
AcDbEntity
  8
0
  6
ByLayer
 62
  256
370
   -1
100
AcDbPolyline
 90
    8
 70
    1
 43
0
 10
-137.7362454089279
 20
-122.0408689168034
 42
0.414213562373095
 10
-135.7362454089279
 20
-124.0408689168034
 10
-124.8777654089272
 20
-124.0408689168034
 42
0.414213562373095
 10
-122.8777654089272
 20
-122.0408689168034
 10
-122.8777654089272
 20
-111.1823889168026
 42
0.414213562373095
 10
-124.8777654089272
 20
-109.1823889168026
 10
-135.7362454089279
 20
-109.1823889168026
 42
0.414213562373095
 10
-137.7362454089279
 20
-111.1823889168026
  0
LWPOLYLINE
  5
288
100
AcDbEntity
  8
0
  6
ByLayer
 62
  256
370
   -1
100
AcDbPolyline
 90
    8
 70
    1
 43
0
 10
-94.23970140892834
 20
-122.6322758520746
 42
0.414213562373095
 10
-92.23970140892834
 20
-124.6322758520746
 10
-81.38122140892756
 20
-124.6322758520746
 42
0.414213562373095
 10
-79.38122140892756
 20
-122.6322758520746
 10
-79.38122140892756
 20
-111.7737958520738
 42
0.414213562373095
 10
-81.38122140892756
 20
-109.7737958520738
 10
-92.23970140892834
 20
-109.7737958520738
 42
0.414213562373095
 10
-94.23970140892834
 20
-111.7737958520738
  0
LWPOLYLINE
  5
289
100
AcDbEntity
  8
0
  6
ByLayer
 62
  256
370
   -1
100
AcDbPolyline
 90
    8
 70
    1
 43
0
 10
-94.23970140892834
 20
72.32613024059172
 42
0.414213562373095
 10
-92.23970140892834
 20
70.32613024059172
 10
-81.38122140892756
 20
70.32613024059172
 42
0.414213562373095
 10
-79.38122140892756
 20
72.32613024059172
 10
-79.38122140892756
 20
83.18461024059251
 42
0.4142135623730992
 10
-81.38122140892756
 20
85.18461024059253
 10
-92.23970140892834
 20
85.18461024059252
 42
0.4142135623730971
 10
-94.23970140892834
 20
83.18461024059251
  0
LWPOLYLINE
  5
28A
100
AcDbEntity
  8
0
  6
ByLayer
 62
  256
370
   -1
100
AcDbPolyline
 90
    8
 70
    1
 43
0
 10
-73.10658940892608
 20
49.47057024059358
 10
-73.10658940892608
 20
83.32657024059336
 42
-0.414213562373095
 10
-71.10658940892608
 20
85.32657024059336
 10
-59.01778940892609
 20
85.32657024059336
 42
-0.414213562373095
 10
-57.01778940892609
 20
83.32657024059336
 10
-57.01778940892609
 20
49.47057024059358
 42
-0.414213562373095
 10
-59.01778940892609
 20
47.47057024059358
 10
-71.10658940892608
 20
47.47057024059358
 42
-0.414213562373095
  0
LWPOLYLINE
  5
28B
100
AcDbEntity
  8
0
  6
ByLayer
 62
  256
370
   -1
100
AcDbPolyline
 90
    8
 70
    1
 43
0
 10
-73.10658940892608
 20
6.409184111131253
 10
-73.10658940892608
 20
40.26518411113102
 42
-0.414213562373095
 10
-71.10658940892608
 20
42.26518411113102
 10
-59.01778940892609
 20
42.26518411113102
 42
-0.414213562373095
 10
-57.01778940892609
 20
40.26518411113102
 10
-57.01778940892609
 20
6.409184111131253
 42
-0.414213562373095
 10
-59.01778940892609
 20
4.409184111131253
 10
-71.10658940892608
 20
4.409184111131253
 42
-0.414213562373095
  0
LWPOLYLINE
  5
28C
100
AcDbEntity
  8
0
  6
ByLayer
 62
  256
370
   -1
100
AcDbPolyline
 90
    8
 70
    1
 43
0
 10
-73.0484676976771
 20
-36.65201588886885
 10
-73.0484676976771
 20
-2.796015888869078
 42
-0.414213562373095
 10
-71.0484676976771
 20
-0.796015888869078
 10
-58.9596676976771
 20
-0.7960158888690778
 42
-0.414213562373095
 10
-56.95966769767711
 20
-2.796015888869078
 10
-56.95966769767711
 20
-36.65201588886885
 42
-0.414213562373095
 10
-58.9596676976771
 20
-38.65201588886885
 10
-71.0484676976771
 20
-38.65201588886885
 42
-0.414213562373095
  0
LWPOLYLINE
  5
28D
100
AcDbEntity
  8
0
  6
ByLayer
 62
  256
370
   -1
100
AcDbPolyline
 90
    8
 70
    1
 43
0
 10
-73.10658940892608
 20
-79.71321588886894
 10
-73.10658940892608
 20
-45.85721588886918
 42
-0.414213562373095
 10
-71.10658940892608
 20
-43.85721588886918
 10
-59.01778940892609
 20
-43.85721588886918
 42
-0.414213562373095
 10
-57.01778940892609
 20
-45.85721588886918
 10
-57.01778940892609
 20
-79.71321588886894
 42
-0.414213562373095
 10
-59.01778940892609
 20
-81.71321588886894
 10
-71.10658940892608
 20
-81.71321588886894
 42
-0.414213562373095
  0
LWPOLYLINE
  5
28E
100
AcDbEntity
  8
0
  6
ByLayer
 62
  256
370
   -1
100
AcDbPolyline
 90
    8
 70
    1
 43
0
 10
-73.10658940892608
 20
-122.7742358520718
 10
-73.10658940892608
 20
-88.91823585207204
 42
-0.414213562373095
 10
-71.10658940892608
 20
-86.91823585207202
 10
-59.01778940892609
 20
-86.91823585207202
 42
-0.414213562373095
 10
-57.01778940892609
 20
-88.91823585207204
 10
-57.01778940892609
 20
-122.7742358520718
 42
-0.414213562373095
 10
-59.01778940892609
 20
-124.7742358520718
 10
-71.10658940892608
 20
-124.7742358520718
 42
-0.414213562373095
  0
LWPOLYLINE
  5
28F
100
AcDbEntity
  8
0
  6
ByLayer
 62
  256
370
   -1
100
AcDbPolyline
 90
    8
 70
    1
 43
0
 10
-29.61004540892736
 20
49.47057024059358
 10
-29.61004540892736
 20
83.32657024059336
 42
-0.4142135623730929
 10
-27.61004540892737
 20
85.32657024059336
 10
-15.52124540892737
 20
85.32657024059336
 42
-0.414213562373095
 10
-13.52124540892737
 20
83.32657024059336
 10
-13.52124540892737
 20
49.47057024059358
 42
-0.414213562373095
 10
-15.52124540892737
 20
47.47057024059358
 10
-27.61004540892737
 20
47.47057024059358
 42
-0.414213562373095
  0
LWPOLYLINE
  5
290
100
AcDbEntity
  8
0
  6
ByLayer
 62
  256
370
   -1
100
AcDbPolyline
 90
    8
 70
    1
 43
0
 10
-29.61004540892736
 20
6.409184111131253
 10
-29.61004540892736
 20
40.26518411113102
 42
-0.414213562373095
 10
-27.61004540892737
 20
42.26518411113102
 10
-15.52124540892737
 20
42.26518411113102
 42
-0.414213562373095
 10
-13.52124540892737
 20
40.26518411113102
 10
-13.52124540892737
 20
6.409184111131253
 42
-0.414213562373095
 10
-15.52124540892737
 20
4.409184111131253
 10
-27.61004540892737
 20
4.409184111131253
 42
-0.4142135623730945
  0
LWPOLYLINE
  5
291
100
AcDbEntity
  8
0
  6
ByLayer
 62
  256
370
   -1
100
AcDbPolyline
 90
    8
 70
    1
 43
0
 10
-29.55192369767838
 20
-36.65201588886885
 10
-29.55192369767838
 20
-2.796015888869078
 42
-0.414213562373095
 10
-27.55192369767838
 20
-0.796015888869078
 10
-15.46312369767838
 20
-0.796015888869078
 42
-0.414213562373095
 10
-13.46312369767838
 20
-2.796015888869078
 10
-13.46312369767838
 20
-36.65201588886885
 42
-0.414213562373095
 10
-15.46312369767838
 20
-38.65201588886885
 10
-27.55192369767838
 20
-38.65201588886885
 42
-0.414213562373095
  0
LWPOLYLINE
  5
292
100
AcDbEntity
  8
0
  6
ByLayer
 62
  256
370
   -1
100
AcDbPolyline
 90
    8
 70
    1
 43
0
 10
-29.61004540892736
 20
-79.71321588886894
 10
-29.61004540892736
 20
-45.85721588886918
 42
-0.414213562373095
 10
-27.61004540892737
 20
-43.85721588886918
 10
-15.52124540892737
 20
-43.85721588886918
 42
-0.414213562373095
 10
-13.52124540892737
 20
-45.85721588886918
 10
-13.52124540892737
 20
-79.71321588886894
 42
-0.414213562373095
 10
-15.52124540892737
 20
-81.71321588886894
 10
-27.61004540892737
 20
-81.71321588886894
 42
-0.4142135623730929
  0
LWPOLYLINE
  5
293
100
AcDbEntity
  8
0
  6
ByLayer
 62
  256
370
   -1
100
AcDbPolyline
 90
    8
 70
    1
 43
0
 10
-29.61004540892736
 20
-122.7742358520718
 10
-29.61004540892736
 20
-88.91823585207204
 42
-0.4142135623730929
 10
-27.61004540892737
 20
-86.91823585207202
 10
-15.52124540892737
 20
-86.91823585207202
 42
-0.414213562373095
 10
-13.52124540892737
 20
-88.91823585207204
 10
-13.52124540892737
 20
-122.7742358520718
 42
-0.414213562373095
 10
-15.52124540892737
 20
-124.7742358520718
 10
-27.61004540892737
 20
-124.7742358520718
 42
-0.4142135623730929
  0
LWPOLYLINE
  5
294
100
AcDbEntity
  8
0
  6
ByLayer
 62
  256
370
   -1
100
AcDbPolyline
 90
    8
 70
    1
 43
0
 10
13.92435459107628
 20
49.47057024059358
 10
13.92435459107628
 20
83.32657024059336
 42
-0.414213562373095
 10
15.92435459107628
 20
85.32657024059336
 10
28.01315459107627
 20
85.32657024059336
 42
-0.414213562373095
 10
30.01315459107627
 20
83.32657024059336
 10
30.01315459107627
 20
49.47057024059358
 42
-0.414213562373095
 10
28.01315459107627
 20
47.47057024059358
 10
15.92435459107628
 20
47.47057024059358
 42
-0.414213562373095
  0
LWPOLYLINE
  5
295
100
AcDbEntity
  8
0
  6
ByLayer
 62
  256
370
   -1
100
AcDbPolyline
 90
    8
 70
    1
 43
0
 10
13.92435459107628
 20
6.409184111131253
 10
13.92435459107628
 20
40.26518411113102
 42
-0.414213562373095
 10
15.92435459107628
 20
42.26518411113102
 10
28.01315459107627
 20
42.26518411113102
 42
-0.414213562373095
 10
30.01315459107627
 20
40.26518411113102
 10
30.01315459107627
 20
6.409184111131253
 42
-0.414213562373095
 10
28.01315459107627
 20
4.409184111131253
 10
15.92435459107628
 20
4.409184111131253
 42
-0.414213562373095
  0
LWPOLYLINE
  5
296
100
AcDbEntity
  8
0
  6
ByLayer
 62
  256
370
   -1
100
AcDbPolyline
 90
    8
 70
    1
 43
0
 10
13.98247630232527
 20
-36.65201588886885
 10
13.98247630232527
 20
-2.796015888869078
 42
-0.414213562373095
 10
15.98247630232527
 20
-0.796015888869078
 10
28.07127630232526
 20
-0.796015888869078
 42
-0.414213562373095
 10
30.07127630232526
 20
-2.796015888869078
 10
30.07127630232526
 20
-36.65201588886885
 42
-0.414213562373095
 10
28.07127630232526
 20
-38.65201588886885
 10
15.98247630232527
 20
-38.65201588886885
 42
-0.414213562373095
  0
LWPOLYLINE
  5
297
100
AcDbEntity
  8
0
  6
ByLayer
 62
  256
370
   -1
100
AcDbPolyline
 90
    8
 70
    1
 43
0
 10
13.92435459107628
 20
-79.71321588886894
 10
13.92435459107628
 20
-45.85721588886918
 42
-0.414213562373095
 10
15.92435459107628
 20
-43.85721588886918
 10
28.01315459107627
 20
-43.85721588886918
 42
-0.414213562373095
 10
30.01315459107627
 20
-45.85721588886918
 10
30.01315459107627
 20
-79.71321588886894
 42
-0.414213562373095
 10
28.01315459107627
 20
-81.71321588886894
 10
15.92435459107628
 20
-81.71321588886894
 42
-0.414213562373095
  0
LWPOLYLINE
  5
298
100
AcDbEntity
  8
0
  6
ByLayer
 62
  256
370
   -1
100
AcDbPolyline
 90
    8
 70
    1
 43
0
 10
13.92435459107628
 20
-122.7742358520718
 10
13.92435459107628
 20
-88.91823585207204
 42
-0.414213562373095
 10
15.92435459107628
 20
-86.91823585207202
 10
28.01315459107627
 20
-86.91823585207202
 42
-0.414213562373095
 10
30.01315459107627
 20
-88.91823585207204
 10
30.01315459107627
 20
-122.7742358520718
 42
-0.414213562373095
 10
28.01315459107627
 20
-124.7742358520718
 10
15.92435459107628
 20
-124.7742358520718
 42
-0.414213562373095
  0
LWPOLYLINE
  5
299
100
AcDbEntity
  8
0
  6
ByLayer
 62
  256
370
   -1
100
AcDbPolyline
 90
    8
 70
    1
 43
0
 10
57.42089859107545
 20
49.47057024059358
 10
57.42089859107546
 20
83.32657024059336
 42
-0.4142135623730961
 10
59.42089859107546
 20
85.32657024059336
 10
71.50969859107545
 20
85.32657024059336
 42
-0.414213562373095
 10
73.50969859107545
 20
83.32657024059336
 10
73.50969859107545
 20
49.47057024059358
 42
-0.414213562373095
 10
71.50969859107545
 20
47.47057024059358
 10
59.42089859107546
 20
47.47057024059358
 42
-0.414213562373095
  0
LWPOLYLINE
  5
29A
100
AcDbEntity
  8
0
  6
ByLayer
 62
  256
370
   -1
100
AcDbPolyline
 90
    8
 70
    1
 43
0
 10
57.42089859107545
 20
6.409184111131253
 10
57.42089859107545
 20
40.26518411113102
 42
-0.414213562373095
 10
59.42089859107546
 20
42.26518411113102
 10
71.50969859107545
 20
42.26518411113102
 42
-0.414213562373095
 10
73.50969859107545
 20
40.26518411113102
 10
73.50969859107545
 20
6.409184111131253
 42
-0.414213562373095
 10
71.50969859107545
 20
4.409184111131253
 10
59.42089859107546
 20
4.409184111131253
 42
-0.414213562373095
  0
LWPOLYLINE
  5
29B
100
AcDbEntity
  8
0
  6
ByLayer
 62
  256
370
   -1
100
AcDbPolyline
 90
    8
 70
    1
 43
0
 10
57.47902030232444
 20
-36.65201588886885
 10
57.47902030232444
 20
-2.796015888869078
 42
-0.4142135623730959
 10
59.47902030232445
 20
-0.7960158888690785
 10
71.56782030232444
 20
-0.796015888869078
 42
-0.414213562373095
 10
73.56782030232444
 20
-2.796015888869078
 10
73.56782030232444
 20
-36.65201588886885
 42
-0.414213562373095
 10
71.56782030232444
 20
-38.65201588886885
 10
59.47902030232445
 20
-38.65201588886885
 42
-0.414213562373095
  0
LWPOLYLINE
  5
29C
100
AcDbEntity
  8
0
  6
ByLayer
 62
  256
370
   -1
100
AcDbPolyline
 90
    8
 70
    1
 43
0
 10
57.42089859107545
 20
-79.71321588886894
 10
57.42089859107545
 20
-45.85721588886918
 42
-0.414213562373095
 10
59.42089859107546
 20
-43.85721588886918
 10
71.50969859107545
 20
-43.85721588886918
 42
-0.414213562373095
 10
73.50969859107545
 20
-45.85721588886918
 10
73.50969859107545
 20
-79.71321588886894
 42
-0.414213562373095
 10
71.50969859107545
 20
-81.71321588886894
 10
59.42089859107546
 20
-81.71321588886894
 42
-0.4142135623730961
  0
LWPOLYLINE
  5
29D
100
AcDbEntity
  8
0
  6
ByLayer
 62
  256
370
   -1
100
AcDbPolyline
 90
    8
 70
    1
 43
0
 10
57.42089859107545
 20
-122.7742358520718
 10
57.42089859107546
 20
-88.91823585207204
 42
-0.4142135623730961
 10
59.42089859107546
 20
-86.91823585207202
 10
71.50969859107545
 20
-86.91823585207202
 42
-0.414213562373095
 10
73.50969859107545
 20
-88.91823585207204
 10
73.50969859107545
 20
-122.7742358520718
 42
-0.414213562373095
 10
71.50969859107545
 20
-124.7742358520718
 10
59.42089859107546
 20
-124.7742358520718
 42
-0.4142135623730961
  0
LWPOLYLINE
  5
29E
100
AcDbEntity
  8
0
  6
ByLayer
 62
  256
370
   -1
100
AcDbPolyline
 90
    8
 70
    1
 43
0
 10
100.9174425910746
 20
49.47057024059358
 10
100.9174425910746
 20
83.32657024059336
 42
-0.414213562373095
 10
102.9174425910746
 20
85.32657024059336
 10
115.0062425910746
 20
85.32657024059336
 42
-0.414213562373095
 10
117.0062425910746
 20
83.32657024059336
 10
117.0062425910746
 20
49.47057024059358
 42
-0.414213562373095
 10
115.0062425910746
 20
47.47057024059358
 10
102.9174425910746
 20
47.47057024059358
 42
-0.414213562373095
  0
LWPOLYLINE
  5
29F
100
AcDbEntity
  8
0
  6
ByLayer
 62
  256
370
   -1
100
AcDbPolyline
 90
    8
 70
    1
 43
0
 10
100.9174425910746
 20
6.409184111131253
 10
100.9174425910746
 20
40.26518411113102
 42
-0.414213562373095
 10
102.9174425910746
 20
42.26518411113102
 10
115.0062425910746
 20
42.26518411113102
 42
-0.414213562373095
 10
117.0062425910746
 20
40.26518411113102
 10
117.0062425910746
 20
6.409184111131253
 42
-0.414213562373095
 10
115.0062425910746
 20
4.409184111131253
 10
102.9174425910746
 20
4.409184111131253
 42
-0.414213562373095
  0
LWPOLYLINE
  5
2A0
100
AcDbEntity
  8
0
  6
ByLayer
 62
  256
370
   -1
100
AcDbPolyline
 90
    8
 70
    1
 43
0
 10
100.9755643023236
 20
-36.65201588886885
 10
100.9755643023236
 20
-2.796015888869078
 42
-0.414213562373095
 10
102.9755643023236
 20
-0.796015888869078
 10
115.0643643023236
 20
-0.796015888869078
 42
-0.414213562373095
 10
117.0643643023236
 20
-2.796015888869078
 10
117.0643643023236
 20
-36.65201588886885
 42
-0.414213562373095
 10
115.0643643023236
 20
-38.65201588886885
 10
102.9755643023236
 20
-38.65201588886885
 42
-0.414213562373095
  0
LWPOLYLINE
  5
2A1
100
AcDbEntity
  8
0
  6
ByLayer
 62
  256
370
   -1
100
AcDbPolyline
 90
    8
 70
    1
 43
0
 10
100.9174425910746
 20
-79.71321588886894
 10
100.9174425910746
 20
-45.85721588886918
 42
-0.414213562373095
 10
102.9174425910746
 20
-43.85721588886918
 10
115.0062425910746
 20
-43.85721588886918
 42
-0.414213562373095
 10
117.0062425910746
 20
-45.85721588886918
 10
117.0062425910746
 20
-79.71321588886894
 42
-0.414213562373095
 10
115.0062425910746
 20
-81.71321588886894
 10
102.9174425910746
 20
-81.71321588886894
 42
-0.414213562373095
  0
LWPOLYLINE
  5
2A2
100
AcDbEntity
  8
0
  6
ByLayer
 62
  256
370
   -1
100
AcDbPolyline
 90
    8
 70
    1
 43
0
 10
100.9174425910746
 20
-122.7742358520718
 10
100.9174425910746
 20
-88.91823585207204
 42
-0.414213562373095
 10
102.9174425910746
 20
-86.91823585207202
 10
115.0062425910746
 20
-86.91823585207202
 42
-0.414213562373095
 10
117.0062425910746
 20
-88.91823585207204
 10
117.0062425910746
 20
-122.7742358520718
 42
-0.414213562373095
 10
115.0062425910746
 20
-124.7742358520718
 10
102.9174425910746
 20
-124.7742358520718
 42
-0.414213562373095
  0
LWPOLYLINE
  5
2A3
100
AcDbEntity
  8
0
  6
ByLayer
 62
  256
370
   -1
100
AcDbPolyline
 90
    8
 70
    1
 43
0
 10
-51.35831740892673
 20
-101.9534297594073
 10
-51.35831740892672
 20
-68.09742975940753
 42
-0.414213562373095
 10
-49.35831740892672
 20
-66.09742975940753
 10
-37.26951740892673
 20
-66.09742975940753
 42
-0.414213562373095
 10
-35.26951740892673
 20
-68.09742975940753
 10
-35.26951740892673
 20
-101.9534297594073
 42
-0.414213562373095
 10
-37.26951740892673
 20
-103.9534297594073
 10
-49.35831740892672
 20
-103.9534297594073
 42
-0.414213562373095
  0
LWPOLYLINE
  5
2A4
100
AcDbEntity
  8
0
  6
ByLayer
 62
  256
370
   -1
100
AcDbPolyline
 90
    8
 70
    1
 43
0
 10
-51.35831740892673
 20
-58.41902975940683
 10
-51.35831740892672
 20
-24.56302975940707
 42
-0.414213562373095
 10
-49.35831740892672
 20
-22.56302975940707
 10
-37.26951740892673
 20
-22.56302975940707
 42
-0.414213562373095
 10
-35.26951740892673
 20
-24.56302975940707
 10
-35.26951740892673
 20
-58.41902975940683
 42
-0.4142135623730961
 10
-37.26951740892673
 20
-60.41902975940684
 10
-49.35831740892672
 20
-60.41902975940685
 42
-0.4142135623730961
  0
LWPOLYLINE
  5
2A5
100
AcDbEntity
  8
0
  6
ByLayer
 62
  256
370
   -1
100
AcDbPolyline
 90
    8
 70
    1
 43
0
 10
-51.35831740892673
 20
-14.88462975940638
 10
-51.35831740892672
 20
18.97137024059339
 42
-0.414213562373095
 10
-49.35831740892672
 20
20.97137024059339
 10
-37.26951740892673
 20
20.97137024059339
 42
-0.414213562373095
 10
-35.26951740892673
 20
18.97137024059339
 10
-35.26951740892673
 20
-14.88462975940638
 42
-0.414213562373095
 10
-37.26951740892673
 20
-16.88462975940638
 10
-49.35831740892672
 20
-16.88462975940638
 42
-0.4142135623730943
  0
LWPOLYLINE
  5
2A6
100
AcDbEntity
  8
0
  6
ByLayer
 62
  256
370
   -1
100
AcDbPolyline
 90
    8
 70
    1
 43
0
 10
-51.35831740892673
 20
28.64977024059226
 10
-51.35831740892672
 20
62.50577024059203
 42
-0.414213562373095
 10
-49.35831740892672
 20
64.50577024059203
 10
-37.26951740892673
 20
64.50577024059203
 42
-0.414213562373095
 10
-35.26951740892673
 20
62.50577024059203
 10
-35.26951740892673
 20
28.64977024059226
 42
-0.414213562373095
 10
-37.26951740892673
 20
26.64977024059226
 10
-49.35831740892672
 20
26.64977024059226
 42
-0.414213562373094
  0
LWPOLYLINE
  5
2A7
100
AcDbEntity
  8
0
  6
ByLayer
 62
  256
370
   -1
100
AcDbPolyline
 90
    8
 70
    1
 43
0
 10
-50.74315740892915
 20
-122.6322758520746
 42
0.414213562373094
 10
-48.74315740892916
 20
-124.6322758520746
 10
-37.88467740892838
 20
-124.6322758520746
 42
0.414213562373095
 10
-35.88467740892838
 20
-122.6322758520746
 10
-35.88467740892838
 20
-111.7737958520738
 42
0.414213562373095
 10
-37.88467740892838
 20
-109.7737958520738
 10
-48.74315740892916
 20
-109.7737958520738
 42
0.414213562373094
 10
-50.74315740892918
 20
-111.7737958520738
  0
LWPOLYLINE
  5
2A8
100
AcDbEntity
  8
0
  6
ByLayer
 62
  256
370
   -1
100
AcDbPolyline
 90
    8
 70
    1
 43
0
 10
-50.74315740892915
 20
72.32613024059172
 42
0.4142135623730971
 10
-48.74315740892916
 20
70.32613024059168
 10
-37.88467740892838
 20
70.32613024059172
 42
0.414213562373095
 10
-35.88467740892838
 20
72.32613024059172
 10
-35.88467740892838
 20
83.18461024059251
 42
0.4142135623730961
 10
-37.88467740892838
 20
85.18461024059252
 10
-48.74315740892916
 20
85.18461024059252
 42
0.414213562373095
 10
-50.74315740892917
 20
83.18461024059251
  0
LWPOLYLINE
  5
2A9
100
AcDbEntity
  8
0
  6
ByLayer
 62
  256
370
   -1
100
AcDbPolyline
 90
    8
 70
    1
 43
0
 10
-7.842845408925313
 20
-101.9534297594073
 10
-7.842845408925312
 20
-68.09742975940753
 42
-0.4142135623730949
 10
-5.842845408925313
 20
-66.09742975940753
 10
6.245954591074678
 20
-66.09742975940753
 42
-0.4142135623730949
 10
8.245954591074678
 20
-68.09742975940753
 10
8.245954591074678
 20
-101.9534297594073
 42
-0.414213562373095
 10
6.245954591074678
 20
-103.9534297594073
 10
-5.842845408925312
 20
-103.9534297594073
 42
-0.414213562373095
  0
LWPOLYLINE
  5
2AA
100
AcDbEntity
  8
0
  6
ByLayer
 62
  256
370
   -1
100
AcDbPolyline
 90
    8
 70
    1
 43
0
 10
-7.842845408925313
 20
-58.41902975940683
 10
-7.842845408925312
 20
-24.56302975940707
 42
-0.4142135623730949
 10
-5.842845408925313
 20
-22.56302975940707
 10
6.245954591074678
 20
-22.56302975940707
 42
-0.4142135623730949
 10
8.245954591074678
 20
-24.56302975940707
 10
8.24595459107468
 20
-58.41902975940683
 42
-0.4142135623730963
 10
6.245954591074677
 20
-60.41902975940684
 10
-5.842845408925313
 20
-60.41902975940684
 42
-0.4142135623730961
  0
LWPOLYLINE
  5
2AB
100
AcDbEntity
  8
0
  6
ByLayer
 62
  256
370
   -1
100
AcDbPolyline
 90
    8
 70
    1
 43
0
 10
-7.842845408925313
 20
-14.88462975940638
 10
-7.842845408925312
 20
18.97137024059339
 42
-0.4142135623730949
 10
-5.842845408925313
 20
20.97137024059339
 10
6.245954591074678
 20
20.97137024059339
 42
-0.4142135623730949
 10
8.245954591074678
 20
18.97137024059339
 10
8.245954591074678
 20
-14.88462975940638
 42
-0.414213562373095
 10
6.245954591074678
 20
-16.88462975940638
 10
-5.842845408925312
 20
-16.88462975940638
 42
-0.414213562373095
  0
LWPOLYLINE
  5
2AC
100
AcDbEntity
  8
0
  6
ByLayer
 62
  256
370
   -1
100
AcDbPolyline
 90
    8
 70
    1
 43
0
 10
-7.842845408925313
 20
28.64977024059226
 10
-7.842845408925312
 20
62.50577024059203
 42
-0.4142135623730949
 10
-5.842845408925313
 20
64.50577024059203
 10
6.245954591074678
 20
64.50577024059203
 42
-0.4142135623730949
 10
8.245954591074678
 20
62.50577024059203
 10
8.245954591074678
 20
28.64977024059226
 42
-0.414213562373095
 10
6.245954591074678
 20
26.64977024059226
 10
-5.842845408925312
 20
26.64977024059226
 42
-0.414213562373095
  0
LWPOLYLINE
  5
2AD
100
AcDbEntity
  8
0
  6
ByLayer
 62
  256
370
   -1
100
AcDbPolyline
 90
    8
 70
    1
 43
0
 10
-7.227685408927753
 20
-122.6322758520746
 42
0.414213562373095
 10
-5.227685408927753
 20
-124.6322758520746
 10
5.630794591073027
 20
-124.6322758520746
 42
0.414213562373095
 10
7.630794591073027
 20
-122.6322758520746
 10
7.630794591073025
 20
-111.7737958520738
 42
0.4142135623730949
 10
5.630794591073026
 20
-109.7737958520738
 10
-5.227685408927754
 20
-109.7737958520738
 42
0.4142135623730953
 10
-7.227685408927757
 20
-111.7737958520738
  0
LWPOLYLINE
  5
2AE
100
AcDbEntity
  8
0
  6
ByLayer
 62
  256
370
   -1
100
AcDbPolyline
 90
    8
 70
    1
 43
0
 10
-7.227685408927753
 20
72.32613024059172
 42
0.414213562373095
 10
-5.227685408927753
 20
70.32613024059172
 10
5.630794591073027
 20
70.32613024059172
 42
0.414213562373095
 10
7.630794591073027
 20
72.32613024059172
 10
7.630794591073025
 20
83.18461024059251
 42
0.4142135623730971
 10
5.630794591073026
 20
85.18461024059252
 10
-5.227685408927754
 20
85.18461024059252
 42
0.4142135623730971
 10
-7.227685408927755
 20
83.18461024059251
  0
LWPOLYLINE
  5
2AF
100
AcDbEntity
  8
0
  6
ByLayer
 62
  256
370
   -1
100
AcDbPolyline
 90
    8
 70
    1
 43
0
 10
35.6726265910761
 20
-101.9534297594073
 10
35.6726265910761
 20
-68.09742975940753
 42
-0.414213562373095
 10
37.6726265910761
 20
-66.09742975940753
 10
49.76142659107608
 20
-66.09742975940753
 42
-0.414213562373095
 10
51.76142659107608
 20
-68.09742975940753
 10
51.76142659107608
 20
-101.9534297594073
 42
-0.414213562373095
 10
49.76142659107608
 20
-103.9534297594073
 10
37.6726265910761
 20
-103.9534297594073
 42
-0.414213562373095
  0
LWPOLYLINE
  5
2B0
100
AcDbEntity
  8
0
  6
ByLayer
 62
  256
370
   -1
100
AcDbPolyline
 90
    8
 70
    1
 43
0
 10
35.6726265910761
 20
-58.41902975940683
 10
35.6726265910761
 20
-24.56302975940707
 42
-0.414213562373095
 10
37.6726265910761
 20
-22.56302975940707
 10
49.76142659107608
 20
-22.56302975940707
 42
-0.414213562373095
 10
51.76142659107608
 20
-24.56302975940707
 10
51.76142659107609
 20
-58.41902975940683
 42
-0.4142135623730992
 10
49.76142659107608
 20
-60.41902975940684
 10
37.6726265910761
 20
-60.41902975940684
 42
-0.414213562373095
  0
LWPOLYLINE
  5
2B1
100
AcDbEntity
  8
0
  6
ByLayer
 62
  256
370
   -1
100
AcDbPolyline
 90
    8
 70
    1
 43
0
 10
35.6726265910761
 20
-14.88462975940638
 10
35.6726265910761
 20
18.97137024059339
 42
-0.414213562373095
 10
37.6726265910761
 20
20.97137024059339
 10
49.76142659107608
 20
20.97137024059339
 42
-0.414213562373095
 10
51.76142659107608
 20
18.97137024059339
 10
51.76142659107608
 20
-14.88462975940638
 42
-0.414213562373095
 10
49.76142659107608
 20
-16.88462975940638
 10
37.6726265910761
 20
-16.88462975940638
 42
-0.414213562373095
  0
LWPOLYLINE
  5
2B2
100
AcDbEntity
  8
0
  6
ByLayer
 62
  256
370
   -1
100
AcDbPolyline
 90
    8
 70
    1
 43
0
 10
35.6726265910761
 20
28.64977024059226
 10
35.6726265910761
 20
62.50577024059203
 42
-0.414213562373095
 10
37.6726265910761
 20
64.50577024059203
 10
49.76142659107608
 20
64.50577024059203
 42
-0.414213562373095
 10
51.76142659107608
 20
62.50577024059203
 10
51.76142659107608
 20
28.64977024059226
 42
-0.414213562373095
 10
49.76142659107608
 20
26.64977024059226
 10
37.6726265910761
 20
26.64977024059226
 42
-0.414213562373095
  0
LWPOLYLINE
  5
2B3
100
AcDbEntity
  8
0
  6
ByLayer
 62
  256
370
   -1
100
AcDbPolyline
 90
    8
 70
    1
 43
0
 10
36.28778659107366
 20
-122.6322758520746
 42
0.414213562373095
 10
38.28778659107366
 20
-124.6322758520746
 10
49.14626659107444
 20
-124.6322758520746
 42
0.4142135623730961
 10
51.14626659107445
 20
-122.6322758520746
 10
51.14626659107442
 20
-111.7737958520738
 42
0.4142135623730961
 10
49.14626659107444
 20
-109.7737958520738
 10
38.28778659107366
 20
-109.7737958520738
 42
0.414213562373095
 10
36.28778659107366
 20
-111.7737958520738
  0
LWPOLYLINE
  5
2B4
100
AcDbEntity
  8
0
  6
ByLayer
 62
  256
370
   -1
100
AcDbPolyline
 90
    8
 70
    1
 43
0
 10
36.28778659107366
 20
72.32613024059172
 42
0.414213562373095
 10
38.28778659107366
 20
70.32613024059172
 10
49.14626659107444
 20
70.32613024059172
 42
0.4142135623730961
 10
51.14626659107445
 20
72.32613024059172
 10
51.14626659107443
 20
83.18461024059251
 42
0.4142135623730971
 10
49.14626659107444
 20
85.18461024059253
 10
38.28778659107366
 20
85.18461024059252
 42
0.4142135623730992
 10
36.28778659107364
 20
83.18461024059251
  0
LWPOLYLINE
  5
2B5
100
AcDbEntity
  8
0
  6
ByLayer
 62
  256
370
   -1
100
AcDbPolyline
 90
    8
 70
    1
 43
0
 10
79.16917059107527
 20
-101.9534297594073
 10
79.16917059107529
 20
-68.09742975940753
 42
-0.414213562373095
 10
81.16917059107526
 20
-66.09742975940753
 10
93.25797059107526
 20
-66.09742975940753
 42
-0.414213562373095
 10
95.25797059107526
 20
-68.09742975940753
 10
95.25797059107526
 20
-101.9534297594073
 42
-0.414213562373095
 10
93.25797059107526
 20
-103.9534297594073
 10
81.16917059107526
 20
-103.9534297594073
 42
-0.4142135623730929
  0
LWPOLYLINE
  5
2B6
100
AcDbEntity
  8
0
  6
ByLayer
 62
  256
370
   -1
100
AcDbPolyline
 90
    8
 70
    1
 43
0
 10
79.16917059107527
 20
-58.41902975940683
 10
79.16917059107529
 20
-24.56302975940707
 42
-0.414213562373095
 10
81.16917059107526
 20
-22.56302975940707
 10
93.25797059107526
 20
-22.56302975940707
 42
-0.414213562373095
 10
95.25797059107526
 20
-24.56302975940707
 10
95.25797059107526
 20
-58.41902975940683
 42
-0.4142135623730961
 10
93.25797059107526
 20
-60.41902975940684
 10
81.16917059107526
 20
-60.41902975940684
 42
-0.414213562373095
  0
LWPOLYLINE
  5
2B7
100
AcDbEntity
  8
0
  6
ByLayer
 62
  256
370
   -1
100
AcDbPolyline
 90
    8
 70
    1
 43
0
 10
79.16917059107527
 20
-14.88462975940638
 10
79.16917059107529
 20
18.97137024059339
 42
-0.414213562373095
 10
81.16917059107526
 20
20.97137024059339
 10
93.25797059107526
 20
20.97137024059339
 42
-0.414213562373095
 10
95.25797059107526
 20
18.97137024059339
 10
95.25797059107526
 20
-14.88462975940638
 42
-0.414213562373095
 10
93.25797059107526
 20
-16.88462975940638
 10
81.16917059107526
 20
-16.88462975940638
 42
-0.4142135623730929
  0
LWPOLYLINE
  5
2B8
100
AcDbEntity
  8
0
  6
ByLayer
 62
  256
370
   -1
100
AcDbPolyline
 90
    8
 70
    1
 43
0
 10
79.16917059107527
 20
28.64977024059226
 10
79.16917059107529
 20
62.50577024059203
 42
-0.414213562373095
 10
81.16917059107526
 20
64.50577024059203
 10
93.25797059107526
 20
64.50577024059203
 42
-0.414213562373095
 10
95.25797059107526
 20
62.50577024059203
 10
95.25797059107526
 20
28.64977024059226
 42
-0.414213562373095
 10
93.25797059107526
 20
26.64977024059226
 10
81.16917059107526
 20
26.64977024059226
 42
-0.4142135623730929
  0
LWPOLYLINE
  5
2B9
100
AcDbEntity
  8
0
  6
ByLayer
 62
  256
370
   -1
100
AcDbPolyline
 90
    8
 70
    1
 43
0
 10
79.78433059107284
 20
-122.6322758520746
 42
0.414213562373095
 10
81.78433059107282
 20
-124.6322758520746
 10
92.64281059107361
 20
-124.6322758520746
 42
0.414213562373095
 10
94.64281059107361
 20
-122.6322758520746
 10
94.64281059107361
 20
-111.7737958520738
 42
0.414213562373095
 10
92.64281059107361
 20
-109.7737958520738
 10
81.78433059107282
 20
-109.7737958520738
 42
0.414213562373095
 10
79.78433059107284
 20
-111.7737958520738
  0
LWPOLYLINE
  5
2BA
100
AcDbEntity
  8
0
  6
ByLayer
 62
  256
370
   -1
100
AcDbPolyline
 90
    8
 70
    1
 43
0
 10
79.78433059107284
 20
72.32613024059172
 42
0.414213562373095
 10
81.78433059107282
 20
70.32613024059172
 10
92.64281059107361
 20
70.32613024059174
 42
0.4142135623730929
 10
94.64281059107361
 20
72.32613024059172
 10
94.64281059107361
 20
83.18461024059251
 42
0.414213562373095
 10
92.64281059107361
 20
85.18461024059253
 10
81.78433059107282
 20
85.18461024059252
 42
0.414213562373095
 10
79.78433059107283
 20
83.18461024059251
  0
LWPOLYLINE
  5
2BB
100
AcDbEntity
  8
0
  6
ByLayer
 62
  256
370
   -1
100
AcDbPolyline
 90
    8
 70
    1
 43
0
 10
123.2808745910752
 20
71.73463024059311
 42
0.414213562373095
 10
125.2808745910752
 20
69.73463024059311
 10
136.139354591076
 20
69.73463024059311
 42
0.414213562373095
 10
138.139354591076
 20
71.73463024059311
 10
138.139354591076
 20
82.59311024059389
 42
0.414213562373095
 10
136.139354591076
 20
84.59311024059389
 10
125.2808745910752
 20
84.59311024059387
 42
0.4142135623730971
 10
123.2808745910752
 20
82.59311024059389
  0
LWPOLYLINE
  5
2BC
100
AcDbEntity
  8
0
  6
ByLayer
 62
  256
370
   -1
100
AcDbPolyline
 90
    8
 70
    1
 43
0
 10
123.2808745910752
 20
-14.38795588886932
 42
0.4142135623730963
 10
125.2808745910752
 20
-16.38795588886933
 10
136.139354591076
 20
-16.38795588886933
 42
0.4142135623730963
 10
138.139354591076
 20
-14.38795588886932
 10
138.139354591076
 20
-3.529475888868546
 42
0.414213562373095
 10
136.139354591076
 20
-1.529475888868546
 10
125.2808745910752
 20
-1.529475888868546
 42
0.414213562373095
 10
123.2808745910752
 20
-3.529475888868546
  0
LWPOLYLINE
  5
2BD
100
AcDbEntity
  8
0
  6
ByLayer
 62
  256
370
   -1
100
AcDbPolyline
 90
    8
 70
    1
 43
0
 10
123.2808745910752
 20
-35.9186489536005
 42
0.414213562373095
 10
125.2808745910752
 20
-37.9186489536005
 10
136.139354591076
 20
-37.9186489536005
 42
0.414213562373095
 10
138.139354591076
 20
-35.9186489536005
 10
138.139354591076
 20
-25.06016895359972
 42
0.414213562373095
 10
136.139354591076
 20
-23.06016895359972
 10
125.2808745910752
 20
-23.06016895359972
 42
0.414213562373095
 10
123.2808745910752
 20
-25.06016895359972
  0
LWPOLYLINE
  5
2BE
100
AcDbEntity
  8
0
  6
ByLayer
 62
  256
370
   -1
100
AcDbPolyline
 90
    8
 70
    1
 43
0
 10
123.2808745910752
 20
-57.44915588886943
 42
0.414213562373095
 10
125.2808745910752
 20
-59.44915588886943
 10
136.139354591076
 20
-59.44915588886943
 42
0.414213562373095
 10
138.139354591076
 20
-57.44915588886943
 10
138.139354591076
 20
-46.59067588886864
 42
0.414213562373095
 10
136.139354591076
 20
-44.59067588886864
 10
125.2808745910752
 20
-44.59067588886864
 42
0.414213562373095
 10
123.2808745910752
 20
-46.59067588886864
  0
LWPOLYLINE
  5
2BF
100
AcDbEntity
  8
0
  6
ByLayer
 62
  256
370
   -1
100
AcDbPolyline
 90
    8
 70
    1
 43
0
 10
123.280874591072
 20
-122.6322758520746
 42
0.414213562373095
 10
125.280874591072
 20
-124.6322758520746
 10
136.1393545910728
 20
-124.6322758520746
 42
0.414213562373095
 10
138.1393545910728
 20
-122.6322758520746
 10
138.1393545910728
 20
-111.7737958520738
 42
0.414213562373095
 10
136.1393545910728
 20
-109.7737958520738
 10
125.280874591072
 20
-109.7737958520738
 42
0.414213562373095
 10
123.280874591072
 20
-111.7737958520738
  0
CIRCLE
  5
2C0
100
AcDbEntity
  8
0
  6
ByLayer
 62
  256
370
   -1
100
AcDbCircle
 10
135.7287637886265
 20
-137.5506342337085
 40
4
  0
CIRCLE
  5
2C1
100
AcDbEntity
  8
0
  6
ByLayer
 62
  256
370
   -1
100
AcDbCircle
 10
77.28583459106994
 20
-137.5506342337085
 40
5
  0
CIRCLE
  5
2C2
100
AcDbEntity
  8
0
  6
ByLayer
 62
  256
370
   -1
100
AcDbCircle
 10
15.29663459106586
 20
-137.5506342337103
 40
5
  0
CIRCLE
  5
2C3
100
AcDbEntity
  8
0
  6
ByLayer
 62
  256
370
   -1
100
AcDbCircle
 10
-46.69256540893002
 20
-137.5506342337085
 40
5
  0
CIRCLE
  5
2C4
100
AcDbEntity
  8
0
  6
ByLayer
 62
  256
370
   -1
100
AcDbCircle
 10
-108.6817654089268
 20
-137.5506342337085
 40
5
  0
CIRCLE
  5
2C5
100
AcDbEntity
  8
0
  6
ByLayer
 62
  256
370
   -1
100
AcDbCircle
 10
-77.68716540893274
 20
97.15656881262113
 40
5
  0
CIRCLE
  5
2C6
100
AcDbEntity
  8
0
  6
ByLayer
 62
  256
370
   -1
100
AcDbCircle
 10
-15.69796540893003
 20
97.15656881262476
 40
5
  0
CIRCLE
  5
2C7
100
AcDbEntity
  8
0
  6
ByLayer
 62
  256
370
   -1
100
AcDbCircle
 10
46.29123459106994
 20
97.15656881262476
 40
5
  0
CIRCLE
  5
2C8
100
AcDbEntity
  8
0
  6
ByLayer
 62
  256
370
   -1
100
AcDbCircle
 10
108.2804345910699
 20
97.15656881262476
 40
5
  0
CIRCLE
  5
2C9
100
AcDbEntity
  8
0
  6
ByLayer
 62
  256
370
   -1
100
AcDbCircle
 10
-135.5278767893387
 20
97.15656881263023
 40
4
  0
ENDBLK
  5
82
330
80
100
AcDbEntity
  8
0
100
AcDbBlockEnd
  0
ENDSEC
  0
SECTION
  2
ENTITIES
  0
LWPOLYLINE
  5
2CA
100
AcDbEntity
  8
0
  6
ByLayer
 62
  256
370
   -1
100
AcDbPolyline
 90
    3
 70
    0
 43
0
 10
50.89394130774346
 20
-45.65485911429928
 10
102.5363229288361
 20
-0.7484403133491686
 10
186.7358581806176
 20
-78.21201274498812
  0
ENDSEC
  0
SECTION
  2
OBJECTS
  0
DICTIONARY
  5
C
330
0
100
AcDbDictionary
281
    1
  3
ACAD_GROUP
350
D
  0
DICTIONARY
  5
D
330
C
100
AcDbDictionary
281
    1
  0
ENDSEC
  0
EOF
