  0
SECTION
  2
HEADER
  9
$EXTMIN
 10
0
 20
0
  9
$EXTMAX
 10
42000
 20
29700
  0
ENDSEC
  0
SECTION
  2
TABLES
  0
TABLE
  2
LTYPE
 70
     9
  0
LTYPE
  2
CONTINUOUS
 70
    64
  3
é¿ê¸
 72
    65
 73
     0
 40
0.0
  0
LTYPE
  2
DASHED1
 70
    64
  3
--  --  --  --  --  --  --  --  
 72
    65
 73
     2
 40
2.5
 49
1.25
 49
-1.25
  0
LTYPE
  2
DASHED2
 70
    64
  3
----    ----    ----    ----    
 72
    65
 73
     2
 40
5.0
 49
2.5
 49
-2.5
  0
LTYPE
  2
DASHED3
 70
    64
  3
------  ------  ------  ------  
 72
    65
 73
     2
 40
5.0
 49
3.75
 49
-1.25
  0
LTYPE
  2
CENTER1
 70
    64
  3
----- - ----- - ----- - ----- - 
 72
    65
 73
     4
 40
10.0
 49
6.25
 49
-1.25
 49
1.25
 49
-1.25
  0
LTYPE
  2
CENTER2
 70
    64
  3
----------  --  ----------  --  
 72
    65
 73
     4
 40
20.0
 49
12.5
 49
-2.5
 49
2.5
 49
-2.5
  0
LTYPE
  2
PHANTOM1
 70
    64
  3
--- - - --- - - --- - - --- - - 
 72
    65
 73
     6
 40
10.0
 49
3.25
 49
-1.25
 49
1.25
 49
-1.25
 49
1.25
 49
-1.25
  0
LTYPE
  2
PHANTOM2
 70
    64
  3
--------  -  -  --------  -  -  
 72
    65
 73
     6
 40
20.0
 49
10.0
 49
-2.5
 49
1.25
 49
-2.5
 49
1.25
 49
-2.5
  0
LTYPE
  2
DOT
 70
    64
  3
-   -   -   -   -   -   -   -   
 72
    65
 73
     2
 40
2.5
 49
0.625
 49
-1.875
  0
ENDTAB
  0
TABLE
  2
STYLE
 70
    1
  0
STYLE
  2
STANDARD
 70
    64
 40
0.0
 41
1.0
 42
0.0
 50
0.0
 71
     0
  3
TXT
  4
BIGFONT
  0
ENDTAB
  0
TABLE
  2
LAYER
 70
    5
  0
LAYER
  2
0-0
 70
   64
 62
    7
  6
CONTINUOUS
  0
LAYER
  2
0x1
 70
   64
 62
    7
  6
CONTINUOUS
  0
LAYER
  2
0-2
 70
   64
 62
    7
  6
CONTINUOUS
  0
LAYER
  2
1-0
 70
   64
 62
    7
  6
CONTINUOUS
  0
LAYER
  2
ADD_LINE
 70
   64
 62
    7
  6
CONTINUOUS
  0
ENDTAB
  0
ENDSEC
  0
SECTION
  2
ENTITIES
  0
LINE
  8
0-0
  6
CONTINUOUS
 62
    4
 10
17499.998
 20
28499.998
 11
25499.998
 21
28499.998
  0
LINE
  8
0-0
  6
DASHED1
 62
    7
 10
17499.998
 20
27999.997
 11
25499.998
 21
27999.997
  0
LINE
  8
0-0
  6
DASHED2
 62
    3
 10
17499.998
 20
27500
 11
25499.998
 21
27500
  0
LINE
  8
0-0
  6
DASHED3
 62
    2
 10
17499.998
 20
26999.998
 11
25499.998
 21
26999.998
  0
LINE
  8
0-0
  6
CENTER1
 62
    6
 10
17499.998
 20
26499.999
 11
25499.998
 21
26499.999
  0
LINE
  8
0-0
  6
CENTER2
 62
    5
 10
17499.998
 20
26000
 11
25499.998
 21
26000
  0
LINE
  8
0-0
  6
PHANTOM1
 62
    4
 10
17499.998
 20
25499.998
 11
25499.998
 21
25499.998
  0
LINE
  8
0-0
  6
PHANTOM2
 62
    4
 10
17499.998
 20
24999.999
 11
25499.998
 21
24999.999
  0
LINE
  8
0-0
  6
CONTINUOUS
 62
    4
 10
499.99996
 20
29249.998
 11
499.99996
 21
29449.999
  0
LINE
  8
0-0
  6
CONTINUOUS
 62
    4
 10
499.99996
 20
29449.999
 11
2700.0001
 21
29449.999
  0
LINE
  8
0-0
  6
CONTINUOUS
 62
    4
 10
2700.0001
 20
29249.998
 11
2700.0001
 21
29449.999
  0
LINE
  8
0-0
  6
CONTINUOUS
 62
    4
 10
499.99996
 20
29249.998
 11
2700.0001
 21
29249.998
  0
LINE
  8
0-0
  6
CONTINUOUS
 62
    4
 10
499.99996
 20
28999.997
 11
499.99996
 21
29199.998
  0
LINE
  8
0-0
  6
CONTINUOUS
 62
    4
 10
499.99996
 20
28999.997
 11
3749.9998
 21
28999.997
  0
LINE
  8
0-0
  6
CONTINUOUS
 62
    4
 10
3749.9998
 20
28999.997
 11
3749.9998
 21
29199.998
  0
LINE
  8
0-0
  6
CONTINUOUS
 62
    4
 10
3749.9998
 20
29199.998
 11
500.00008
 21
29199.998
  0
LINE
  8
0-0
  6
CONTINUOUS
 62
    7
 10
499.99996
 20
28499.998
 11
4899.9998
 21
28499.998
  0
LINE
  8
0-0
  6
CONTINUOUS
 62
    7
 10
499.99996
 20
28499.998
 11
499.99996
 21
28899.997
  0
LINE
  8
0-0
  6
CONTINUOUS
 62
    7
 10
499.99996
 20
28899.997
 11
4899.9998
 21
28899.997
  0
LINE
  8
0-0
  6
CONTINUOUS
 62
    7
 10
4899.9998
 20
28499.998
 11
4899.9998
 21
28899.997
  0
LINE
  8
0-0
  6
CONTINUOUS
 62
    7
 10
499.99996
 20
27999.997
 11
499.99996
 21
28399.995
  0
LINE
  8
0-0
  6
CONTINUOUS
 62
    7
 10
499.99996
 20
27999.997
 11
6999.9992
 21
27999.997
  0
LINE
  8
0-0
  6
CONTINUOUS
 62
    7
 10
6999.9992
 20
27999.997
 11
6999.9992
 21
28399.995
  0
LINE
  8
0-0
  6
CONTINUOUS
 62
    7
 10
6999.9992
 20
28399.995
 11
499.99977
 21
28399.995
  0
LINE
  8
0-0
  6
CONTINUOUS
 62
    3
 10
499.99996
 20
26499.997
 11
10249.999
 21
26499.997
  0
LINE
  8
0-0
  6
CONTINUOUS
 62
    3
 10
10249.999
 20
26499.997
 11
10249.999
 21
27099.996
  0
LINE
  8
0-0
  6
CONTINUOUS
 62
    3
 10
10249.999
 20
27099.996
 11
499.99977
 21
27099.996
  0
LINE
  8
0-0
  6
CONTINUOUS
 62
    3
 10
499.99977
 20
27099.996
 11
499.99996
 21
26499.997
  0
LINE
  8
0-0
  6
CONTINUOUS
 62
    3
 10
499.99977
 20
27249.997
 11
499.99977
 21
27849.996
  0
LINE
  8
0-0
  6
CONTINUOUS
 62
    3
 10
499.99977
 20
27249.997
 11
7099.9996
 21
27249.997
  0
LINE
  8
0-0
  6
CONTINUOUS
 62
    3
 10
7099.9996
 20
27249.997
 11
7099.9996
 21
27849.996
  0
LINE
  8
0-0
  6
CONTINUOUS
 62
    3
 10
7099.9996
 20
27849.996
 11
499.99977
 21
27849.996
  0
LINE
  8
0-0
  6
CONTINUOUS
 62
    2
 10
499.99996
 20
24499.998
 11
499.99996
 21
25299.998
  0
LINE
  8
0-0
  6
CONTINUOUS
 62
    2
 10
499.99996
 20
24499.998
 11
13500
 21
24499.998
  0
LINE
  8
0-0
  6
CONTINUOUS
 62
    2
 10
13499.999
 20
24499.998
 11
13499.999
 21
25299.998
  0
LINE
  8
0-0
  6
CONTINUOUS
 62
    2
 10
13499.999
 20
25299.998
 11
500.00039
 21
25299.998
  0
LINE
  8
0-0
  6
CONTINUOUS
 62
    2
 10
499.99977
 20
25499.998
 11
499.99977
 21
26299.999
  0
LINE
  8
0-0
  6
CONTINUOUS
 62
    2
 10
9299.9993
 20
25499.998
 11
9299.9993
 21
26299.999
  0
LINE
  8
0-0
  6
CONTINUOUS
 62
    2
 10
499.99977
 20
25499.998
 11
9299.9993
 21
25499.998
  0
LINE
  8
0-0
  6
CONTINUOUS
 62
    2
 10
9299.9993
 20
26299.999
 11
499.99977
 21
26299.999
  0
LINE
  8
0-0
  6
CONTINUOUS
 62
    6
 10
499.99996
 20
23249.998
 11
499.99996
 21
24249.999
  0
LINE
  8
0-0
  6
CONTINUOUS
 62
    6
 10
499.99996
 20
23249.998
 11
10499.999
 21
23249.998
  0
LINE
  8
0-0
  6
CONTINUOUS
 62
    6
 10
10499.999
 20
23249.998
 11
10499.999
 21
24249.997
  0
LINE
  8
0-0
  6
CONTINUOUS
 62
    6
 10
10499.999
 20
24249.997
 11
499.99977
 21
24249.997
  0
LINE
  8
0-0
  6
CONTINUOUS
 62
    6
 10
499.99996
 20
21999.997
 11
499.99996
 21
22999.998
  0
LINE
  8
0-0
  6
CONTINUOUS
 62
    6
 10
499.99996
 20
21999.997
 11
15999.998
 21
21999.997
  0
LINE
  8
0-0
  6
CONTINUOUS
 62
    6
 10
15999.998
 20
21999.997
 11
15999.998
 21
22999.998
  0
LINE
  8
0-0
  6
CONTINUOUS
 62
    6
 10
15999.998
 20
22999.998
 11
500.00039
 21
22999.998
  0
LINE
  8
0-0
  6
CONTINUOUS
 62
    4
 10
10750
 20
20499.998
 11
10950.001
 21
20499.998
  0
LINE
  8
0-0
  6
CONTINUOUS
 62
    4
 10
10950.001
 20
20499.998
 11
10950.001
 21
18174.999
  0
LINE
  8
0-0
  6
CONTINUOUS
 62
    4
 10
10750
 20
18174.999
 11
10950.001
 21
18174.999
  0
LINE
  8
0-0
  6
CONTINUOUS
 62
    4
 10
10750
 20
20499.998
 11
10750
 21
18174.999
  0
LINE
  8
0-0
  6
CONTINUOUS
 62
    4
 10
10499.999
 20
20499.998
 11
10700
 21
20499.998
  0
LINE
  8
0-0
  6
CONTINUOUS
 62
    4
 10
10499.999
 20
17124.998
 11
10700
 21
17124.998
  0
LINE
  8
0-0
  6
CONTINUOUS
 62
    4
 10
10700
 20
17124.998
 11
10700
 21
20499.998
  0
LINE
  8
0-0
  6
CONTINUOUS
 62
    7
 10
10000
 20
20499.998
 11
10000
 21
15874.999
  0
LINE
  8
0-0
  6
CONTINUOUS
 62
    7
 10
10000
 20
20499.998
 11
10399.999
 21
20499.998
  0
LINE
  8
0-0
  6
CONTINUOUS
 62
    7
 10
10399.999
 20
20499.998
 11
10399.999
 21
15874.999
  0
LINE
  8
0-0
  6
CONTINUOUS
 62
    7
 10
10000
 20
15874.999
 11
10399.999
 21
15874.999
  0
LINE
  8
0-0
  6
CONTINUOUS
 62
    7
 10
9499.9987
 20
20499.998
 11
9899.9975
 21
20499.998
  0
LINE
  8
0-0
  6
CONTINUOUS
 62
    7
 10
9499.9987
 20
20499.998
 11
9499.9987
 21
13775
  0
LINE
  8
0-0
  6
CONTINUOUS
 62
    7
 10
9499.9987
 20
13775
 11
9899.9975
 21
13775
  0
LINE
  8
0-0
  6
CONTINUOUS
 62
    7
 10
9899.9975
 20
13775
 11
9899.9975
 21
20499.998
  0
LINE
  8
0-0
  6
CONTINUOUS
 62
    3
 10
7999.9988
 20
20499.998
 11
7999.9988
 21
10374.999
  0
LINE
  8
0-0
  6
CONTINUOUS
 62
    3
 10
7999.9988
 20
10374.999
 11
8599.9983
 21
10374.999
  0
LINE
  8
0-0
  6
CONTINUOUS
 62
    3
 10
8599.9983
 20
10374.999
 11
8599.9983
 21
20499.998
  0
LINE
  8
0-0
  6
CONTINUOUS
 62
    3
 10
8599.9983
 20
20499.998
 11
7999.9988
 21
20499.998
  0
LINE
  8
0-0
  6
CONTINUOUS
 62
    3
 10
8749.9987
 20
20499.998
 11
9349.9982
 21
20499.998
  0
LINE
  8
0-0
  6
CONTINUOUS
 62
    3
 10
8749.9987
 20
20499.998
 11
8749.9987
 21
13624.999
  0
LINE
  8
0-0
  6
CONTINUOUS
 62
    3
 10
8749.9987
 20
13624.999
 11
9349.9982
 21
13624.999
  0
LINE
  8
0-0
  6
CONTINUOUS
 62
    3
 10
9349.9982
 20
13624.999
 11
9349.9982
 21
20499.998
  0
LINE
  8
0-0
  6
CONTINUOUS
 62
    2
 10
6000.0009
 20
20499.998
 11
6799.9998
 21
20499.998
  0
LINE
  8
0-0
  6
CONTINUOUS
 62
    2
 10
6000.0009
 20
20499.998
 11
6000.0009
 21
6874.9988
  0
LINE
  8
0-0
  6
CONTINUOUS
 62
    2
 10
6000.0009
 20
6875.0001
 11
6799.9998
 21
6875.0001
  0
LINE
  8
0-0
  6
CONTINUOUS
 62
    2
 10
6799.9998
 20
6875.0001
 11
6799.9998
 21
20499.998
  0
LINE
  8
0-0
  6
CONTINUOUS
 62
    2
 10
7000.0005
 20
20499.998
 11
7800.0006
 21
20499.998
  0
LINE
  8
0-0
  6
CONTINUOUS
 62
    2
 10
7000.0005
 20
11249.999
 11
7800.0006
 21
11249.999
  0
LINE
  8
0-0
  6
CONTINUOUS
 62
    2
 10
7000.0005
 20
20499.998
 11
7000.0005
 21
11249.999
  0
LINE
  8
0-0
  6
CONTINUOUS
 62
    2
 10
7800.0006
 20
11249.999
 11
7800.0006
 21
20499.998
  0
LINE
  8
0-0
  6
CONTINUOUS
 62
    6
 10
4750.0018
 20
20499.998
 11
5750.0026
 21
20499.998
  0
LINE
  8
0-0
  6
CONTINUOUS
 62
    6
 10
4750.0018
 20
20499.998
 11
4750.0018
 21
9999.9979
  0
LINE
  8
0-0
  6
CONTINUOUS
 62
    6
 10
4750.0018
 20
9999.9979
 11
5750.0001
 21
9999.9979
  0
LINE
  8
0-0
  6
CONTINUOUS
 62
    6
 10
5750.0001
 20
9999.9979
 11
5750.0001
 21
20499.998
  0
LINE
  8
0-0
  6
CONTINUOUS
 62
    6
 10
3500.0002
 20
20499.998
 11
4500.001
 21
20499.998
  0
LINE
  8
0-0
  6
CONTINUOUS
 62
    6
 10
3500.0002
 20
20499.998
 11
3500.0002
 21
4499.9998
  0
LINE
  8
0-0
  6
CONTINUOUS
 62
    6
 10
3500.0002
 20
4499.9998
 11
4500.001
 21
4499.9998
  0
LINE
  8
0-0
  6
CONTINUOUS
 62
    6
 10
4500.001
 20
4499.9998
 11
4500.001
 21
20499.998
  0
LINE
  8
0-0
  6
CONTINUOUS
 62
    4
 10
10499.999
 20
20499.998
 11
10499.999
 21
17124.998
  0
LINE
  8
0-0
  6
CONTINUOUS
 62
    7
 10
16999.998
 20
19999.998
 11
22999.998
 21
19999.998
  0
LINE
  8
0-0
  6
CONTINUOUS
 62
    7
 10
16999.998
 20
19999.998
 11
17289.776
 21
20077.644
  0
LINE
  8
0-0
  6
CONTINUOUS
 62
    7
 10
16999.998
 20
19999.998
 11
17289.776
 21
19922.351
  0
LINE
  8
0-0
  6
CONTINUOUS
 62
    7
 10
22999.998
 20
19999.998
 11
22710.221
 21
20077.644
  0
LINE
  8
0-0
  6
CONTINUOUS
 62
    7
 10
22999.998
 20
19999.998
 11
22710.221
 21
19922.351
  0
LINE
  8
0-0
  6
CONTINUOUS
 62
    7
 10
19999.998
 20
19999.998
 11
19999.998
 21
22999.998
  0
LINE
  8
0-0
  6
CONTINUOUS
 62
    7
 10
19999.998
 20
22999.998
 11
19922.352
 21
22710.221
  0
LINE
  8
0-0
  6
CONTINUOUS
 62
    7
 10
19999.998
 20
22999.998
 11
20077.643
 21
22710.221
  0
LINE
  8
0-0
  6
CONTINUOUS
 62
    7
 10
17454.414
 20
17454.414
 11
23429.467
 21
23429.467
  0
LINE
  8
0-0
  6
CONTINUOUS
 62
    7
 10
22121.319
 20
22121.319
 11
22271.32
 21
22381.126
  0
LINE
  8
0-0
  6
CONTINUOUS
 62
    7
 10
22121.319
 20
22121.319
 11
22381.126
 21
22271.32
  0
LINE
  8
0-0
  6
CONTINUOUS
 62
    7
 10
17878.678
 20
17878.678
 11
17618.87
 21
17728.677
  0
LINE
  8
0-0
  6
CONTINUOUS
 62
    7
 10
17878.678
 20
17878.678
 11
17728.677
 21
17618.87
  0
LINE
  8
0-0
  6
CONTINUOUS
 62
    7
 10
19999.998
 20
19999.998
 11
23288.042
 21
16711.952
  0
LINE
  8
0-0
  6
CONTINUOUS
 62
    7
 10
22121.317
 20
17878.678
 11
22381.123
 21
17728.677
  0
LINE
  8
0-0
  6
CONTINUOUS
 62
    7
 10
22121.317
 20
17878.678
 11
22271.317
 21
17618.87
  0
LINE
  8
0-0
  6
CONTINUOUS
 62
    7
 10
28605.549
 20
19999.998
 11
29301.161
 21
19999.998
  0
LINE
  8
0-0
  6
CONTINUOUS
 62
    7
 10
24999.997
 20
23605.55
 11
24999.997
 21
24301.162
  0
LINE
  8
0-0
  6
CONTINUOUS
 62
    7
 10
26118.031
 20
19999.998
 11
26802.774
 21
19999.998
  0
LINE
  8
0-0
  6
CONTINUOUS
 62
    7
 10
24999.997
 20
21118.032
 11
24999.997
 21
21802.773
  0
LINE
  8
0-0
  6
CONTINUOUS
 62
    4
 10
24999.997
 20
22999.998
 11
24999.997
 21
19999.998
  0
LINE
  8
0-0
  6
CONTINUOUS
 62
    4
 10
27999.997
 20
19999.998
 11
24999.997
 21
19999.998
  0
LINE
  8
0-0
  6
CONTINUOUS
 62
    7
 10
24999.997
 20
18999.998
 11
27999.997
 21
18999.998
  0
LINE
  8
0-0
  6
CONTINUOUS
 62
    7
 10
24999.997
 20
19499.999
 11
24999.997
 21
18999.998
  0
LINE
  8
0-0
  6
CONTINUOUS
 62
    7
 10
27999.997
 20
19499.999
 11
27999.997
 21
18999.998
  0
LINE
  8
0-0
  6
CONTINUOUS
 62
    7
 10
23999.998
 20
22999.998
 11
23999.998
 21
19999.998
  0
LINE
  8
0-0
  6
CONTINUOUS
 62
    7
 10
24499.998
 20
22999.998
 11
23999.998
 21
22999.998
  0
LINE
  8
0-0
  6
CONTINUOUS
 62
    7
 10
24499.998
 20
19999.998
 11
23999.998
 21
19999.998
  0
LINE
  8
0-0
  6
CONTINUOUS
 62
    7
 10
24999.997
 20
14999.999
 11
28111.268
 21
18111.269
  0
LINE
  8
0-0
  6
CONTINUOUS
 62
    7
 10
24999.997
 20
14999.999
 11
24717.156
 21
15282.841
  0
LINE
  8
0-0
  6
CONTINUOUS
 62
    7
 10
24717.156
 20
15282.841
 11
27828.424
 21
18394.111
  0
LINE
  8
0-0
  6
CONTINUOUS
 62
    7
 10
28111.268
 20
18111.269
 11
27828.424
 21
18394.111
  0
LINE
  8
0-0
  6
CONTINUOUS
 62
    7
 10
25499.998
 20
14499.998
 11
28611.267
 21
17611.268
  0
LINE
  8
0-0
  6
CONTINUOUS
 62
    7
 10
25249.998
 20
14749.999
 11
25499.998
 21
14499.998
  0
LINE
  8
0-0
  6
CONTINUOUS
 62
    7
 10
28361.269
 20
17861.269
 11
28611.269
 21
17611.268
  0
LINE
  8
0-0
  6
CONTINUOUS
 62
    7
 10
29301.161
 20
19999.998
 11
29223.515
 21
20289.776
  0
LINE
  8
0-0
  6
CONTINUOUS
 62
    7
 10
29301.161
 20
19999.998
 11
29378.808
 21
20289.776
  0
LINE
  8
0-0
  6
CONTINUOUS
 62
    7
 10
24999.997
 20
24301.162
 11
25289.774
 21
24378.809
  0
LINE
  8
0-0
  6
CONTINUOUS
 62
    7
 10
24999.997
 20
24301.162
 11
25289.774
 21
24223.516
  0
LINE
  8
0-0
  6
CONTINUOUS
 62
    7
 10
16999.998
 20
11999.999
 11
22999.998
 21
11999.999
  0
LINE
  8
0-0
  6
CONTINUOUS
 62
    7
 10
19999.998
 20
9899.9994
 11
19999.998
 21
15349.999
  0
LINE
  8
0-0
  6
CONTINUOUS
 62
    7
 10
19999.998
 20
13499.999
 11
19922.352
 21
13789.777
  0
LINE
  8
0-0
  6
CONTINUOUS
 62
    7
 10
19999.998
 20
13499.999
 11
20077.643
 21
13789.777
  0
LINE
  8
0-0
  6
CONTINUOUS
 62
    7
 10
19999.998
 20
10499.999
 11
19922.352
 21
10210.221
  0
LINE
  8
0-0
  6
CONTINUOUS
 62
    7
 10
19999.998
 20
10499.999
 11
20077.643
 21
10210.221
  0
LINE
  8
0-0
  6
CONTINUOUS
 62
    4
 10
23499.997
 20
10499.999
 11
23499.997
 21
8499.9992
  0
LINE
  8
0-0
  6
CONTINUOUS
 62
    4
 10
23499.997
 20
8499.9992
 11
31499.998
 21
8499.9992
  0
LINE
  8
0-0
  6
CONTINUOUS
 62
    4
 10
31499.998
 20
8499.9992
 11
31499.998
 21
10499.999
  0
LINE
  8
0-0
  6
CONTINUOUS
 62
    4
 10
31499.998
 20
10499.999
 11
23499.997
 21
10499.999
  0
LINE
  8
0-0
  6
CONTINUOUS
 62
    4
 10
23499.997
 20
9499.9993
 11
31499.998
 21
9499.9993
  0
LINE
  8
0-0
  6
CONTINUOUS
 62
    4
 10
23499.997
 20
9499.9993
 11
23598.762
 21
9654.5181
  0
LINE
  8
0-0
  6
CONTINUOUS
 62
    4
 10
23598.762
 20
9654.5181
 11
23697.528
 21
9805.3252
  0
LINE
  8
0-0
  6
CONTINUOUS
 62
    4
 10
23697.528
 20
9805.3252
 11
23796.294
 21
9948.7989
  0
LINE
  8
0-0
  6
CONTINUOUS
 62
    4
 10
23796.294
 20
9948.7989
 11
23895.059
 21
10081.491
  0
LINE
  8
0-0
  6
CONTINUOUS
 62
    4
 10
23895.059
 20
10081.491
 11
23993.825
 21
10200.216
  0
LINE
  8
0-0
  6
CONTINUOUS
 62
    4
 10
23993.825
 20
10200.216
 11
24092.59
 21
10302.122
  0
LINE
  8
0-0
  6
CONTINUOUS
 62
    4
 10
24092.59
 20
10302.122
 11
24191.356
 21
10384.761
  0
LINE
  8
0-0
  6
CONTINUOUS
 62
    4
 10
24191.356
 20
10384.761
 11
24290.122
 21
10446.147
  0
LINE
  8
0-0
  6
CONTINUOUS
 62
    4
 10
24290.122
 20
10446.147
 11
24388.885
 21
10484.806
  0
LINE
  8
0-0
  6
CONTINUOUS
 62
    4
 10
24388.885
 20
10484.806
 11
24487.65
 21
10499.811
  0
LINE
  8
0-0
  6
CONTINUOUS
 62
    4
 10
24487.65
 20
10499.811
 11
24586.416
 21
10490.799
  0
LINE
  8
0-0
  6
CONTINUOUS
 62
    4
 10
24586.416
 20
10490.799
 11
24685.182
 21
10457.989
  0
LINE
  8
0-0
  6
CONTINUOUS
 62
    4
 10
24685.182
 20
10457.989
 11
24783.947
 21
10402.166
  0
LINE
  8
0-0
  6
CONTINUOUS
 62
    4
 10
24783.947
 20
10402.166
 11
24882.713
 21
10324.674
  0
LINE
  8
0-0
  6
CONTINUOUS
 62
    4
 10
24882.713
 20
10324.674
 11
24981.478
 21
10227.372
  0
LINE
  8
0-0
  6
CONTINUOUS
 62
    4
 10
24981.478
 20
10227.372
 11
25080.244
 21
10112.599
  0
LINE
  8
0-0
  6
CONTINUOUS
 62
    4
 10
25080.244
 20
10112.599
 11
25179.01
 21
9983.1113
  0
LINE
  8
0-0
  6
CONTINUOUS
 62
    4
 10
25179.01
 20
9983.1113
 11
25277.775
 21
9842.0193
  0
LINE
  8
0-0
  6
CONTINUOUS
 62
    4
 10
25277.775
 20
9842.0193
 11
25376.541
 21
9692.711
  0
LINE
  8
0-0
  6
CONTINUOUS
 62
    4
 10
25376.541
 20
9692.711
 11
25475.306
 21
9538.7744
  0
LINE
  8
0-0
  6
CONTINUOUS
 62
    4
 10
25475.306
 20
9538.7744
 11
25574.072
 21
9383.9061
  0
LINE
  8
0-0
  6
CONTINUOUS
 62
    4
 10
25574.072
 20
9383.9061
 11
25672.838
 21
9231.8265
  0
LINE
  8
0-0
  6
CONTINUOUS
 62
    4
 10
25672.838
 20
9231.8265
 11
25771.603
 21
9086.1884
  0
LINE
  8
0-0
  6
CONTINUOUS
 62
    4
 10
25771.603
 20
9086.1884
 11
25870.366
 21
8950.4899
  0
LINE
  8
0-0
  6
CONTINUOUS
 62
    4
 10
25870.366
 20
8950.4899
 11
25969.132
 21
8827.9912
  0
LINE
  8
0-0
  6
CONTINUOUS
 62
    4
 10
25969.132
 20
8827.9912
 11
26067.898
 21
8721.6341
  0
LINE
  8
0-0
  6
CONTINUOUS
 62
    4
 10
26067.898
 20
8721.6341
 11
26166.663
 21
8633.9736
  0
LINE
  8
0-0
  6
CONTINUOUS
 62
    4
 10
26166.663
 20
8633.9736
 11
26265.429
 21
8567.1154
  0
LINE
  8
0-0
  6
CONTINUOUS
 62
    4
 10
26265.429
 20
8567.1154
 11
26364.194
 21
8522.6653
  0
LINE
  8
0-0
  6
CONTINUOUS
 62
    4
 10
26364.194
 20
8522.6653
 11
26462.96
 21
8501.691
  0
LINE
  8
0-0
  6
CONTINUOUS
 62
    4
 10
26462.96
 20
8501.691
 11
26561.726
 21
8504.6968
  0
LINE
  8
0-0
  6
CONTINUOUS
 62
    4
 10
26561.726
 20
8504.6968
 11
26660.491
 21
8531.6096
  0
LINE
  8
0-0
  6
CONTINUOUS
 62
    4
 10
26660.491
 20
8531.6096
 11
26759.257
 21
8581.7836
  0
LINE
  8
0-0
  6
CONTINUOUS
 62
    4
 10
26759.257
 20
8581.7836
 11
26858.022
 21
8654.0131
  0
LINE
  8
0-0
  6
CONTINUOUS
 62
    4
 10
26858.022
 20
8654.0131
 11
26956.788
 21
8746.5637
  0
LINE
  8
0-0
  6
CONTINUOUS
 62
    4
 10
26956.788
 20
8746.5637
 11
27055.554
 21
8857.2126
  0
LINE
  8
0-0
  6
CONTINUOUS
 62
    4
 10
27055.554
 20
8857.2126
 11
27154.319
 21
8983.3011
  0
LINE
  8
0-0
  6
CONTINUOUS
 62
    4
 10
27154.319
 20
8983.3011
 11
27253.085
 21
9121.8
  0
LINE
  8
0-0
  6
CONTINUOUS
 62
    4
 10
27253.085
 20
9121.8
 11
27351.848
 21
9269.3842
  0
LINE
  8
0-0
  6
CONTINUOUS
 62
    4
 10
27351.848
 20
9269.3842
 11
27450.616
 21
9422.508
  0
LINE
  8
0-0
  6
CONTINUOUS
 62
    4
 10
27450.616
 20
9422.508
 11
27549.379
 21
9577.4932
  0
LINE
  8
0-0
  6
CONTINUOUS
 62
    4
 10
27549.379
 20
9577.4932
 11
27648.145
 21
9730.6163
  0
LINE
  8
0-0
  6
CONTINUOUS
 62
    4
 10
27648.145
 20
9730.6163
 11
27746.91
 21
9878.2
  0
LINE
  8
0-0
  6
CONTINUOUS
 62
    4
 10
27746.91
 20
9878.2
 11
27845.676
 21
10016.699
  0
LINE
  8
0-0
  6
CONTINUOUS
 62
    4
 10
27845.676
 20
10016.699
 11
27944.441
 21
10142.788
  0
LINE
  8
0-0
  6
CONTINUOUS
 62
    4
 10
27944.441
 20
10142.788
 11
28043.207
 21
10253.435
  0
LINE
  8
0-0
  6
CONTINUOUS
 62
    4
 10
28043.207
 20
10253.435
 11
28141.973
 21
10345.986
  0
LINE
  8
0-0
  6
CONTINUOUS
 62
    4
 10
28141.973
 20
10345.986
 11
28240.738
 21
10418.215
  0
LINE
  8
0-0
  6
CONTINUOUS
 62
    4
 10
28240.738
 20
10418.215
 11
28339.504
 21
10468.389
  0
LINE
  8
0-0
  6
CONTINUOUS
 62
    4
 10
28339.504
 20
10468.389
 11
28438.269
 21
10495.301
  0
LINE
  8
0-0
  6
CONTINUOUS
 62
    4
 10
28438.269
 20
10495.301
 11
28537.035
 21
10498.307
  0
LINE
  8
0-0
  6
CONTINUOUS
 62
    4
 10
28537.035
 20
10498.307
 11
28635.801
 21
10477.332
  0
LINE
  8
0-0
  6
CONTINUOUS
 62
    4
 10
28635.801
 20
10477.332
 11
28734.566
 21
10432.882
  0
LINE
  8
0-0
  6
CONTINUOUS
 62
    4
 10
28734.566
 20
10432.882
 11
28833.329
 21
10366.024
  0
LINE
  8
0-0
  6
CONTINUOUS
 62
    4
 10
28833.329
 20
10366.024
 11
28932.097
 21
10278.363
  0
LINE
  8
0-0
  6
CONTINUOUS
 62
    4
 10
28932.097
 20
10278.363
 11
29030.861
 21
10172.006
  0
LINE
  8
0-0
  6
CONTINUOUS
 62
    4
 10
29030.861
 20
10172.006
 11
29129.629
 21
10049.506
  0
LINE
  8
0-0
  6
CONTINUOUS
 62
    4
 10
29129.629
 20
10049.506
 11
29228.392
 21
9913.8084
  0
LINE
  8
0-0
  6
CONTINUOUS
 62
    4
 10
29228.392
 20
9913.8084
 11
29327.157
 21
9768.1709
  0
LINE
  8
0-0
  6
CONTINUOUS
 62
    4
 10
29327.157
 20
9768.1709
 11
29425.923
 21
9616.0913
  0
LINE
  8
0-0
  6
CONTINUOUS
 62
    4
 10
29425.923
 20
9616.0913
 11
29524.689
 21
9461.2224
  0
LINE
  8
0-0
  6
CONTINUOUS
 62
    4
 10
29524.689
 20
9461.2224
 11
29623.454
 21
9307.2864
  0
LINE
  8
0-0
  6
CONTINUOUS
 62
    4
 10
29623.454
 20
9307.2864
 11
29722.22
 21
9157.9781
  0
LINE
  8
0-0
  6
CONTINUOUS
 62
    4
 10
29722.22
 20
9157.9781
 11
29820.985
 21
9016.8855
  0
LINE
  8
0-0
  6
CONTINUOUS
 62
    4
 10
29820.985
 20
9016.8855
 11
29919.751
 21
8887.3977
  0
LINE
  8
0-0
  6
CONTINUOUS
 62
    4
 10
29919.751
 20
8887.3977
 11
30018.517
 21
8772.6246
  0
LINE
  8
0-0
  6
CONTINUOUS
 62
    4
 10
30018.517
 20
8772.6246
 11
30117.282
 21
8675.3239
  0
LINE
  8
0-0
  6
CONTINUOUS
 62
    4
 10
30117.282
 20
8675.3239
 11
30216.048
 21
8597.8313
  0
LINE
  8
0-0
  6
CONTINUOUS
 62
    4
 10
30216.048
 20
8597.8313
 11
30314.813
 21
8542.0095
  0
LINE
  8
0-0
  6
CONTINUOUS
 62
    4
 10
30314.813
 20
8542.0095
 11
30413.579
 21
8509.199
  0
LINE
  8
0-0
  6
CONTINUOUS
 62
    4
 10
30413.579
 20
8509.199
 11
30512.342
 21
8500.1872
  0
LINE
  8
0-0
  6
CONTINUOUS
 62
    4
 10
30512.342
 20
8500.1872
 11
30611.11
 21
8515.192
  0
LINE
  8
0-0
  6
CONTINUOUS
 62
    4
 10
30611.11
 20
8515.192
 11
30709.873
 21
8553.852
  0
LINE
  8
0-0
  6
CONTINUOUS
 62
    4
 10
30709.873
 20
8553.852
 11
30808.641
 21
8615.2387
  0
LINE
  8
0-0
  6
CONTINUOUS
 62
    4
 10
30808.641
 20
8615.2387
 11
30907.405
 21
8697.8768
  0
LINE
  8
0-0
  6
CONTINUOUS
 62
    4
 10
30907.405
 20
8697.8768
 11
31006.17
 21
8799.783
  0
LINE
  8
0-0
  6
CONTINUOUS
 62
    4
 10
31006.17
 20
8799.783
 11
31104.936
 21
8918.509
  0
LINE
  8
0-0
  6
CONTINUOUS
 62
    4
 10
31104.936
 20
8918.509
 11
31203.701
 21
9051.201
  0
LINE
  8
0-0
  6
CONTINUOUS
 62
    4
 10
31203.701
 20
9051.201
 11
31302.467
 21
9194.6747
  0
LINE
  8
0-0
  6
CONTINUOUS
 62
    4
 10
31302.467
 20
9194.6747
 11
31401.233
 21
9345.4824
  0
LINE
  8
0-0
  6
CONTINUOUS
 62
    4
 10
31401.233
 20
9345.4824
 11
31499.998
 21
9500.0012
  0
LINE
  8
0-0
  6
CONTINUOUS
 62
    4
 10
12499.999
 20
4999.9992
 11
12593.749
 21
4757.8113
  0
LINE
  8
0-0
  6
CONTINUOUS
 62
    4
 10
12593.749
 20
4757.8113
 11
12687.499
 21
4531.2495
  0
LINE
  8
0-0
  6
CONTINUOUS
 62
    4
 10
12687.499
 20
4531.2495
 11
12781.249
 21
4320.3121
  0
LINE
  8
0-0
  6
CONTINUOUS
 62
    4
 10
12781.249
 20
4320.3121
 11
12874.999
 21
4124.9998
  0
LINE
  8
0-0
  6
CONTINUOUS
 62
    4
 10
12874.999
 20
4124.9998
 11
12968.749
 21
3945.3124
  0
LINE
  8
0-0
  6
CONTINUOUS
 62
    4
 10
12968.749
 20
3945.3124
 11
13062.499
 21
3781.2499
  0
LINE
  8
0-0
  6
CONTINUOUS
 62
    4
 10
13062.499
 20
3781.2499
 11
13156.249
 21
3632.8123
  0
LINE
  8
0-0
  6
CONTINUOUS
 62
    4
 10
13156.249
 20
3632.8123
 11
13249.999
 21
3499.9999
  0
LINE
  8
0-0
  6
CONTINUOUS
 62
    4
 10
13249.999
 20
3499.9999
 11
13343.749
 21
3382.8124
  0
LINE
  8
0-0
  6
CONTINUOUS
 62
    4
 10
13343.749
 20
3382.8124
 11
13437.499
 21
3281.2498
  0
LINE
  8
0-0
  6
CONTINUOUS
 62
    4
 10
13437.499
 20
3281.2498
 11
13531.249
 21
3195.3124
  0
LINE
  8
0-0
  6
CONTINUOUS
 62
    4
 10
13531.249
 20
3195.3124
 11
13624.999
 21
3124.9999
  0
LINE
  8
0-0
  6
CONTINUOUS
 62
    4
 10
13624.999
 20
3124.9999
 11
13718.749
 21
3070.3123
  0
LINE
  8
0-0
  6
CONTINUOUS
 62
    4
 10
13718.749
 20
3070.3123
 11
13812.499
 21
3031.2499
  0
LINE
  8
0-0
  6
CONTINUOUS
 62
    4
 10
13812.499
 20
3031.2499
 11
13906.249
 21
3007.8124
  0
LINE
  8
0-0
  6
CONTINUOUS
 62
    4
 10
13906.249
 20
3007.8124
 11
13999.999
 21
2999.9998
  0
LINE
  8
0-0
  6
CONTINUOUS
 62
    4
 10
13999.999
 20
2999.9998
 11
14093.749
 21
3007.8124
  0
LINE
  8
0-0
  6
CONTINUOUS
 62
    4
 10
14093.749
 20
3007.8124
 11
14187.499
 21
3031.2499
  0
LINE
  8
0-0
  6
CONTINUOUS
 62
    4
 10
14187.499
 20
3031.2499
 11
14281.249
 21
3070.3123
  0
LINE
  8
0-0
  6
CONTINUOUS
 62
    4
 10
14281.249
 20
3070.3123
 11
14374.999
 21
3124.9999
  0
LINE
  8
0-0
  6
CONTINUOUS
 62
    4
 10
14374.999
 20
3124.9999
 11
14468.749
 21
3195.3124
  0
LINE
  8
0-0
  6
CONTINUOUS
 62
    4
 10
14468.749
 20
3195.3124
 11
14562.499
 21
3281.2498
  0
LINE
  8
0-0
  6
CONTINUOUS
 62
    4
 10
14562.499
 20
3281.2498
 11
14656.249
 21
3382.8124
  0
LINE
  8
0-0
  6
CONTINUOUS
 62
    4
 10
14656.249
 20
3382.8124
 11
14749.999
 21
3499.9999
  0
LINE
  8
0-0
  6
CONTINUOUS
 62
    4
 10
14749.999
 20
3499.9999
 11
14843.749
 21
3632.8123
  0
LINE
  8
0-0
  6
CONTINUOUS
 62
    4
 10
14843.749
 20
3632.8123
 11
14937.499
 21
3781.2499
  0
LINE
  8
0-0
  6
CONTINUOUS
 62
    4
 10
14937.499
 20
3781.2499
 11
15031.249
 21
3945.3124
  0
LINE
  8
0-0
  6
CONTINUOUS
 62
    4
 10
15031.249
 20
3945.3124
 11
15124.999
 21
4124.9998
  0
LINE
  8
0-0
  6
CONTINUOUS
 62
    4
 10
15124.999
 20
4124.9998
 11
15218.749
 21
4320.3121
  0
LINE
  8
0-0
  6
CONTINUOUS
 62
    4
 10
15218.749
 20
4320.3121
 11
15312.499
 21
4531.2495
  0
LINE
  8
0-0
  6
CONTINUOUS
 62
    4
 10
15312.499
 20
4531.2495
 11
15406.249
 21
4757.8113
  0
LINE
  8
0-0
  6
CONTINUOUS
 62
    4
 10
15406.249
 20
4757.8113
 11
15499.999
 21
4999.9992
  0
LINE
  8
0-0
  6
CONTINUOUS
 62
    4
 10
12499.999
 20
2999.9998
 11
15499.999
 21
2999.9998
  0
LINE
  8
0-0
  6
CONTINUOUS
 62
    4
 10
16500
 20
4999.9992
 11
16557.332
 21
5210.1891
  0
LINE
  8
0-0
  6
CONTINUOUS
 62
    4
 10
16557.332
 20
5210.1891
 11
16660.472
 21
5548.0472
  0
LINE
  8
0-0
  6
CONTINUOUS
 62
    4
 10
16660.472
 20
5548.0472
 11
16775.537
 21
5817.7429
  0
LINE
  8
0-0
  6
CONTINUOUS
 62
    4
 10
16775.537
 20
5817.7429
 11
16910.072
 21
5976.1329
  0
LINE
  8
0-0
  6
CONTINUOUS
 62
    4
 10
16910.072
 20
5976.1329
 11
16999.999
 21
5999.9985
  0
LINE
  8
0-0
  6
CONTINUOUS
 62
    4
 10
16999.999
 20
5999.9985
 11
17207.119
 21
5881.0232
  0
LINE
  8
0-0
  6
CONTINUOUS
 62
    4
 10
17207.119
 20
5881.0232
 11
17594.746
 21
5311.7706
  0
LINE
  8
0-0
  6
CONTINUOUS
 62
    4
 10
17594.746
 20
5311.7706
 11
17917.171
 21
4588.5306
  0
LINE
  8
0-0
  6
CONTINUOUS
 62
    4
 10
17917.171
 20
4588.5306
 11
18053.634
 21
4068.1928
  0
LINE
  8
0-0
  6
CONTINUOUS
 62
    4
 10
18053.634
 20
4068.1928
 11
17999.999
 21
3999.9997
  0
LINE
  8
0-0
  6
CONTINUOUS
 62
    4
 10
17999.999
 20
3999.9997
 11
17929.572
 21
4054.5676
  0
LINE
  8
0-0
  6
CONTINUOUS
 62
    4
 10
17929.572
 20
4054.5676
 11
17767.895
 21
4260.5034
  0
LINE
  8
0-0
  6
CONTINUOUS
 62
    4
 10
17767.895
 20
4260.5034
 11
17606.905
 21
4548.1732
  0
LINE
  8
0-0
  6
CONTINUOUS
 62
    4
 10
17606.905
 20
4548.1732
 11
17506.652
 21
4847.9771
  0
LINE
  8
0-0
  6
CONTINUOUS
 62
    4
 10
17506.652
 20
4847.9771
 11
17499.998
 21
4999.9992
  0
LINE
  8
0-0
  6
CONTINUOUS
 62
    4
 10
17499.998
 20
4999.9992
 11
17567.72
 21
5155.8343
  0
LINE
  8
0-0
  6
CONTINUOUS
 62
    4
 10
17567.72
 20
5155.8343
 11
17853.96
 21
5294.7591
  0
LINE
  8
0-0
  6
CONTINUOUS
 62
    4
 10
17853.96
 20
5294.7591
 11
18276.409
 21
5283.5835
  0
LINE
  8
0-0
  6
CONTINUOUS
 62
    4
 10
18276.409
 20
5283.5835
 11
18744.001
 21
5138.756
  0
LINE
  8
0-0
  6
CONTINUOUS
 62
    4
 10
18744.001
 20
5138.756
 11
18999.997
 21
4999.9992
  0
LINE
  8
0-0
  6
CONTINUOUS
 62
    4
 10
18999.997
 20
4999.9992
 11
19170.537
 21
4873.5921
  0
LINE
  8
0-0
  6
CONTINUOUS
 62
    4
 10
19170.537
 20
4873.5921
 11
19406.016
 21
4625.4165
  0
LINE
  8
0-0
  6
CONTINUOUS
 62
    4
 10
19406.016
 20
4625.4165
 11
19544.379
 21
4364.704
  0
LINE
  8
0-0
  6
CONTINUOUS
 62
    4
 10
19544.379
 20
4364.704
 11
19558.879
 21
4121.3748
  0
LINE
  8
0-0
  6
CONTINUOUS
 62
    4
 10
19558.879
 20
4121.3748
 11
19499.999
 21
3999.9997
  0
LINE
  8
0-0
  6
CONTINUOUS
 62
    4
 10
19499.999
 20
3999.9997
 11
19388.963
 21
3898.6981
  0
LINE
  8
0-0
  6
CONTINUOUS
 62
    4
 10
19388.963
 20
3898.6981
 11
19116.249
 21
3762.798
  0
LINE
  8
0-0
  6
CONTINUOUS
 62
    4
 10
19116.249
 20
3762.798
 11
18816.194
 21
3657.3249
  0
LINE
  8
0-0
  6
CONTINUOUS
 62
    4
 10
18816.194
 20
3657.3249
 11
18576.623
 21
3560.6143
  0
LINE
  8
0-0
  6
CONTINUOUS
 62
    4
 10
18576.623
 20
3560.6143
 11
18500
 21
3499.9996
  0
LINE
  8
0-0
  6
CONTINUOUS
 62
    4
 10
18500
 20
3499.9996
 11
18498.006
 21
3402.2519
  0
LINE
  8
0-0
  6
CONTINUOUS
 62
    4
 10
18498.006
 20
3402.2519
 11
18739.141
 21
3221.5395
  0
LINE
  8
0-0
  6
CONTINUOUS
 62
    4
 10
18739.141
 20
3221.5395
 11
19183.637
 21
3067.832
  0
LINE
  8
0-0
  6
CONTINUOUS
 62
    4
 10
19183.637
 20
3067.832
 11
19707.972
 21
2990.4598
  0
LINE
  8
0-0
  6
CONTINUOUS
 62
    4
 10
19707.972
 20
2990.4598
 11
20000
 21
2999.9998
  0
LINE
  8
0-0
  6
CONTINUOUS
 62
    4
 10
20000
 20
2999.9998
 11
20231.985
 21
3050.2944
  0
LINE
  8
0-0
  6
CONTINUOUS
 62
    4
 10
20231.985
 20
3050.2944
 11
20560.194
 21
3220.9865
  0
LINE
  8
0-0
  6
CONTINUOUS
 62
    4
 10
20560.194
 20
3220.9865
 11
20799.246
 21
3477.5277
  0
LINE
  8
0-0
  6
CONTINUOUS
 62
    4
 10
20799.246
 20
3477.5277
 11
20951.104
 21
3796.1371
  0
LINE
  8
0-0
  6
CONTINUOUS
 62
    4
 10
20951.104
 20
3796.1371
 11
20999.999
 21
3999.9997
  0
LINE
  8
0-0
  6
CONTINUOUS
 62
    4
 10
20999.999
 20
3999.9997
 11
21021.457
 21
4237.3554
  0
LINE
  8
0-0
  6
CONTINUOUS
 62
    4
 10
21021.457
 20
4237.3554
 11
20981.629
 21
4649.9699
  0
LINE
  8
0-0
  6
CONTINUOUS
 62
    4
 10
20981.629
 20
4649.9699
 11
20853.994
 21
5035.4017
  0
LINE
  8
0-0
  6
CONTINUOUS
 62
    4
 10
20853.994
 20
5035.4017
 11
20649.5
 21
5357.0657
  0
LINE
  8
0-0
  6
CONTINUOUS
 62
    4
 10
20649.5
 20
5357.0657
 11
20499.997
 21
5499.9981
  0
LINE
  8
0-0
  6
CONTINUOUS
 62
    4
 10
20499.997
 20
5499.9981
 11
20282.492
 21
5625.2397
  0
LINE
  8
0-0
  6
CONTINUOUS
 62
    4
 10
20282.492
 20
5625.2397
 11
19845.251
 21
5714.1053
  0
LINE
  8
0-0
  6
CONTINUOUS
 62
    4
 10
19845.251
 20
5714.1053
 11
19348.922
 21
5682.3389
  0
LINE
  8
0-0
  6
CONTINUOUS
 62
    4
 10
19348.922
 20
5682.3389
 11
18816.412
 21
5576.6957
  0
LINE
  8
0-0
  6
CONTINUOUS
 62
    4
 10
18816.412
 20
5576.6957
 11
18500
 21
5499.9981
  0
LINE
  8
0-0
  6
CONTINUOUS
 62
    4
 10
11499.999
 20
8499.9992
 11
11606.311
 21
8676.4361
  0
LINE
  8
0-0
  6
CONTINUOUS
 62
    4
 10
11606.311
 20
8676.4361
 11
11801.086
 21
8967.8039
  0
LINE
  8
0-0
  6
CONTINUOUS
 62
    4
 10
11801.086
 20
8967.8039
 11
12027.758
 21
9223.5187
  0
LINE
  8
0-0
  6
CONTINUOUS
 62
    4
 10
12027.758
 20
9223.5187
 11
12306.506
 21
9421.0165
  0
LINE
  8
0-0
  6
CONTINUOUS
 62
    4
 10
12306.506
 20
9421.0165
 11
12499.999
 21
9499.9993
  0
LINE
  8
0-0
  6
CONTINUOUS
 62
    4
 10
12499.999
 20
9499.9993
 11
12746.15
 21
9551.7427
  0
LINE
  8
0-0
  6
CONTINUOUS
 62
    4
 10
12746.15
 20
9551.7427
 11
13202.847
 21
9548.3862
  0
LINE
  8
0-0
  6
CONTINUOUS
 62
    4
 10
13202.847
 20
9548.3862
 11
13623.891
 21
9428.0438
  0
LINE
  8
0-0
  6
CONTINUOUS
 62
    4
 10
13623.891
 20
9428.0438
 11
13920.282
 21
9190.9359
  0
LINE
  8
0-0
  6
CONTINUOUS
 62
    4
 10
13920.282
 20
9190.9359
 11
13999.999
 21
8999.9996
  0
LINE
  8
0-0
  6
CONTINUOUS
 62
    4
 10
13999.999
 20
8999.9996
 11
13976.802
 21
8688.6436
  0
LINE
  8
0-0
  6
CONTINUOUS
 62
    4
 10
13976.802
 20
8688.6436
 11
13667.007
 21
8097.1634
  0
LINE
  8
0-0
  6
CONTINUOUS
 62
    4
 10
13667.007
 20
8097.1634
 11
13178.118
 21
7604.1433
  0
LINE
  8
0-0
  6
CONTINUOUS
 62
    4
 10
13178.118
 20
7604.1433
 11
12698.995
 21
7404.525
  0
LINE
  8
0-0
  6
CONTINUOUS
 62
    4
 10
12698.995
 20
7404.525
 11
12499.999
 21
7499.9996
  0
LINE
  8
0-0
  6
CONTINUOUS
 62
    4
 10
12499.999
 20
7499.9996
 11
12439.05
 21
7610.0163
  0
LINE
  8
0-0
  6
CONTINUOUS
 62
    4
 10
12439.05
 20
7610.0163
 11
12384.546
 21
7867.3649
  0
LINE
  8
0-0
  6
CONTINUOUS
 62
    4
 10
12384.546
 20
7867.3649
 11
12388.748
 21
8153.0378
  0
LINE
  8
0-0
  6
CONTINUOUS
 62
    4
 10
12388.748
 20
8153.0378
 11
12445.474
 21
8400.375
  0
LINE
  8
0-0
  6
CONTINUOUS
 62
    4
 10
12445.474
 20
8400.375
 11
12499.999
 21
8499.9992
  0
LINE
  8
0-0
  6
CONTINUOUS
 62
    4
 10
12499.999
 20
8499.9992
 11
12615.534
 21
8567.0145
  0
LINE
  8
0-0
  6
CONTINUOUS
 62
    4
 10
12615.534
 20
8567.0145
 11
12893.139
 21
8480.7162
  0
LINE
  8
0-0
  6
CONTINUOUS
 62
    4
 10
12893.139
 20
8480.7162
 11
13260.902
 21
8262.7217
  0
LINE
  8
0-0
  6
CONTINUOUS
 62
    4
 10
13260.902
 20
8262.7217
 11
13708.245
 21
8056.9854
  0
LINE
  8
0-0
  6
CONTINUOUS
 62
    4
 10
13708.245
 20
8056.9854
 11
13999.999
 21
8000
  0
LINE
  8
0-0
  6
CONTINUOUS
 62
    4
 10
13999.999
 20
8000
 11
14309.955
 21
8015.118
  0
LINE
  8
0-0
  6
CONTINUOUS
 62
    4
 10
14309.955
 20
8015.118
 11
14836.432
 21
8163.1872
  0
LINE
  8
0-0
  6
CONTINUOUS
 62
    4
 10
14836.432
 20
8163.1872
 11
15265.8
 21
8363.8405
  0
LINE
  8
0-0
  6
CONTINUOUS
 62
    4
 10
15265.8
 20
8363.8405
 11
15496.805
 21
8498.6481
  0
LINE
  8
0-0
  6
CONTINUOUS
 62
    4
 10
15496.805
 20
8498.6481
 11
15499.999
 21
8499.9992
  0
LINE
  8
0-0
  6
CONTINUOUS
 62
    4
 10
15499.999
 20
8499.9992
 11
15408.62
 21
8435.2417
  0
LINE
  8
0-0
  6
CONTINUOUS
 62
    4
 10
15408.62
 20
8435.2417
 11
15111.14
 21
8210.6789
  0
LINE
  8
0-0
  6
CONTINUOUS
 62
    4
 10
15111.14
 20
8210.6789
 11
14767.384
 21
7914.199
  0
LINE
  8
0-0
  6
CONTINUOUS
 62
    4
 10
14767.384
 20
7914.199
 11
14529.503
 21
7628.3677
  0
LINE
  8
0-0
  6
CONTINUOUS
 62
    4
 10
14529.503
 20
7628.3677
 11
14499.998
 21
7499.9996
  0
LINE
  8
0-0
  6
CONTINUOUS
 62
    4
 10
14499.998
 20
7499.9996
 11
14544.265
 21
7435.8007
  0
LINE
  8
0-0
  6
CONTINUOUS
 62
    4
 10
14544.265
 20
7435.8007
 11
14728.032
 21
7377.7112
  0
LINE
  8
0-0
  6
CONTINUOUS
 62
    4
 10
14728.032
 20
7377.7112
 11
15003.454
 21
7381.4586
  0
LINE
  8
0-0
  6
CONTINUOUS
 62
    4
 10
15003.454
 20
7381.4586
 11
15318.96
 21
7441.5271
  0
LINE
  8
0-0
  6
CONTINUOUS
 62
    4
 10
15318.96
 20
7441.5271
 11
15499.999
 21
7499.9996
  0
LINE
  8
0-0
  6
CONTINUOUS
 62
    4
 10
15499.999
 20
7499.9996
 11
15793.918
 21
7644.2966
  0
LINE
  8
0-0
  6
CONTINUOUS
 62
    4
 10
15793.918
 20
7644.2966
 11
16189.253
 21
7982.0965
  0
LINE
  8
0-0
  6
CONTINUOUS
 62
    4
 10
16189.253
 20
7982.0965
 11
16435.775
 21
8382.3477
  0
LINE
  8
0-0
  6
CONTINUOUS
 62
    4
 10
16435.775
 20
8382.3477
 11
16524.452
 21
8786.6557
  0
LINE
  8
0-0
  6
CONTINUOUS
 62
    4
 10
16524.452
 20
8786.6557
 11
16499.998
 21
8999.9996
  0
LINE
  8
0-0
  6
CONTINUOUS
 62
    4
 10
16499.998
 20
8999.9996
 11
16391.654
 21
9226.8047
  0
LINE
  8
0-0
  6
CONTINUOUS
 62
    4
 10
16391.654
 20
9226.8047
 11
16031.864
 21
9529.1935
  0
LINE
  8
0-0
  6
CONTINUOUS
 62
    4
 10
16031.864
 20
9529.1935
 11
15507.848
 21
9747.4144
  0
LINE
  8
0-0
  6
CONTINUOUS
 62
    4
 10
15507.848
 20
9747.4144
 11
14883.26
 21
9914.0899
  0
LINE
  8
0-0
  6
CONTINUOUS
 62
    4
 10
14883.26
 20
9914.0899
 11
14499.998
 21
9999.9985
  0
LINE
  8
0-0
  6
CONTINUOUS
 62
    4
 10
23499.997
 20
11999.999
 11
29499.997
 21
11999.999
  0
LINE
  8
0-0
  6
CONTINUOUS
 62
    4
 10
32944.213
 20
22028.039
 11
32944.213
 21
18999.998
  0
LINE
  8
0-0
  6
CONTINUOUS
 62
    4
 10
32944.213
 20
18999.998
 11
40499.995
 21
18999.998
  0
LINE
  8
0-0
  6
CONTINUOUS
 62
    4
 10
40499.995
 20
18999.998
 11
40499.995
 21
22028.039
  0
LINE
  8
0-0
  6
CONTINUOUS
 62
    4
 10
40499.995
 20
22028.039
 11
32944.213
 21
22028.039
  0
LINE
  8
0-0
  6
CONTINUOUS
 62
    7
 10
32999.996
 20
22999.998
 11
40499.995
 21
22999.998
  0
LINE
  8
0-0
  6
CONTINUOUS
 62
    7
 10
32999.996
 20
22499.999
 11
32999.996
 21
22999.998
  0
LINE
  8
0-0
  6
CONTINUOUS
 62
    7
 10
40499.995
 20
22499.999
 11
40499.995
 21
22999.998
  0
LINE
  8
0-0
  6
CONTINUOUS
 62
    7
 10
31999.995
 20
21999.997
 11
31999.995
 21
18999.998
  0
LINE
  8
0-0
  6
CONTINUOUS
 62
    7
 10
32499.996
 20
21999.997
 11
31999.995
 21
21999.997
  0
LINE
  8
0-0
  6
CONTINUOUS
 62
    7
 10
32499.996
 20
18999.998
 11
31999.995
 21
18999.998
  0
LINE
  8
1-0
  6
CONTINUOUS
 62
    4
 10
32940.692
 20
12994.732
 11
32940.692
 21
15994.732
  0
LINE
  8
1-0
  6
CONTINUOUS
 62
    4
 10
32940.692
 20
15994.732
 11
40440.691
 21
15994.732
  0
LINE
  8
1-0
  6
CONTINUOUS
 62
    4
 10
40440.691
 20
15994.732
 11
40440.691
 21
12994.732
  0
LINE
  8
1-0
  6
CONTINUOUS
 62
    4
 10
40440.691
 20
12994.732
 11
32940.692
 21
12994.732
  0
LINE
  8
1-0
  6
CONTINUOUS
 62
    7
 10
32940.692
 20
16999.998
 11
40440.691
 21
16999.998
  0
LINE
  8
1-0
  6
CONTINUOUS
 62
    7
 10
32940.692
 20
16499.999
 11
32940.692
 21
16999.998
  0
LINE
  8
1-0
  6
CONTINUOUS
 62
    7
 10
40440.691
 20
16499.999
 11
40440.691
 21
16999.998
  0
LINE
  8
1-0
  6
CONTINUOUS
 62
    7
 10
31999.995
 20
15994.732
 11
31999.995
 21
12994.732
  0
LINE
  8
1-0
  6
CONTINUOUS
 62
    7
 10
32499.996
 20
15994.732
 11
31999.995
 21
15994.732
  0
LINE
  8
1-0
  6
CONTINUOUS
 62
    7
 10
32499.996
 20
12994.732
 11
31999.995
 21
12994.732
  0
LINE
  8
0-0
  6
CONTINUOUS
 62
    4
 10
32944.213
 20
11528.04
 11
32944.213
 21
8499.9992
  0
LINE
  8
0-0
  6
CONTINUOUS
 62
    4
 10
32944.213
 20
8499.9992
 11
40499.995
 21
8499.9992
  0
LINE
  8
0-0
  6
CONTINUOUS
 62
    4
 10
40499.995
 20
8499.9992
 11
40499.995
 21
11528.04
  0
LINE
  8
0-0
  6
CONTINUOUS
 62
    4
 10
40499.995
 20
11528.04
 11
32944.213
 21
11528.04
  0
LINE
  8
0-0
  6
CONTINUOUS
 62
    4
 10
39612.691
 20
8499.9992
 11
40499.995
 21
9387.3035
  0
LINE
  8
0-0
  6
CONTINUOUS
 62
    4
 10
38198.478
 20
8499.9992
 11
40499.995
 21
10801.517
  0
LINE
  8
0-0
  6
CONTINUOUS
 62
    4
 10
36784.266
 20
8499.9992
 11
39812.306
 21
11528.04
  0
LINE
  8
0-0
  6
CONTINUOUS
 62
    4
 10
35370.053
 20
8499.9992
 11
38398.093
 21
11528.04
  0
LINE
  8
0-0
  6
CONTINUOUS
 62
    4
 10
33955.838
 20
8499.9992
 11
36983.88
 21
11528.04
  0
LINE
  8
0-0
  6
CONTINUOUS
 62
    4
 10
32944.213
 20
8902.5862
 11
35569.665
 21
11528.04
  0
LINE
  8
0-0
  6
CONTINUOUS
 62
    4
 10
32944.213
 20
10316.798
 11
34155.453
 21
11528.04
  0
LINE
  8
0-0
  6
CONTINUOUS
 62
    4
 10
21999.997
 20
4499.9991
 11
22124.796
 21
4485.2554
  0
LINE
  8
0-0
  6
CONTINUOUS
 62
    4
 10
22124.796
 20
4485.2554
 11
22230.329
 21
4485.2554
  0
LINE
  8
0-0
  6
CONTINUOUS
 62
    4
 10
22230.329
 20
4485.2554
 11
22335.867
 21
4617.1767
  0
LINE
  8
0-0
  6
CONTINUOUS
 62
    4
 10
22335.867
 20
4617.1767
 11
22520.556
 21
4775.481
  0
LINE
  8
0-0
  6
CONTINUOUS
 62
    4
 10
22520.556
 20
4775.481
 11
22678.863
 21
4854.6333
  0
LINE
  8
0-0
  6
CONTINUOUS
 62
    4
 10
22678.863
 20
4854.6333
 11
22758.014
 21
4986.5546
  0
LINE
  8
0-0
  6
CONTINUOUS
 62
    4
 10
22758.014
 20
4986.5546
 11
22810.783
 21
5144.8591
  0
LINE
  8
0-0
  6
CONTINUOUS
 62
    4
 10
22810.783
 20
5144.8591
 11
22889.934
 21
5276.7801
  0
LINE
  8
0-0
  6
CONTINUOUS
 62
    4
 10
22889.934
 20
5276.7801
 11
22995.472
 21
5329.5479
  0
LINE
  8
0-0
  6
CONTINUOUS
 62
    4
 10
22995.472
 20
5329.5479
 11
23101.01
 21
5408.7002
  0
LINE
  8
0-0
  6
CONTINUOUS
 62
    4
 10
23101.01
 20
5408.7002
 11
23206.543
 21
5408.7002
  0
LINE
  8
0-0
  6
CONTINUOUS
 62
    4
 10
23206.543
 20
5408.7002
 11
23391.232
 21
5461.4692
  0
LINE
  8
0-0
  6
CONTINUOUS
 62
    4
 10
23391.232
 20
5461.4692
 11
23602.308
 21
5487.8537
  0
LINE
  8
0-0
  6
CONTINUOUS
 62
    4
 10
23602.308
 20
5487.8537
 11
23786.997
 21
5487.8537
  0
LINE
  8
0-0
  6
CONTINUOUS
 62
    4
 10
23786.997
 20
5487.8537
 11
23945.304
 21
5487.8537
  0
LINE
  8
0-0
  6
CONTINUOUS
 62
    4
 10
23945.304
 20
5487.8537
 11
24129.993
 21
5487.8537
  0
LINE
  8
0-0
  6
CONTINUOUS
 62
    4
 10
24129.993
 20
5487.8537
 11
24288.296
 21
5487.8537
  0
LINE
  8
0-0
  6
CONTINUOUS
 62
    4
 10
24288.296
 20
5487.8537
 11
24420.216
 21
5487.8537
  0
LINE
  8
0-0
  6
CONTINUOUS
 62
    4
 10
24420.216
 20
5487.8537
 11
24552.136
 21
5487.8537
  0
LINE
  8
0-0
  6
CONTINUOUS
 62
    4
 10
24552.136
 20
5487.8537
 11
24684.061
 21
5382.3169
  0
LINE
  8
0-0
  6
CONTINUOUS
 62
    4
 10
24684.061
 20
5382.3169
 11
24815.981
 21
5250.3956
  0
LINE
  8
0-0
  6
CONTINUOUS
 62
    4
 10
24815.981
 20
5250.3956
 11
24895.132
 21
5092.0914
  0
LINE
  8
0-0
  6
CONTINUOUS
 62
    4
 10
24895.132
 20
5092.0914
 11
24974.283
 21
4933.7856
  0
LINE
  8
0-0
  6
CONTINUOUS
 62
    4
 10
24974.283
 20
4933.7856
 11
25027.052
 21
4775.481
  0
LINE
  8
0-0
  6
CONTINUOUS
 62
    4
 10
25027.052
 20
4775.481
 11
25079.821
 21
4643.56
  0
LINE
  8
0-0
  6
CONTINUOUS
 62
    4
 10
25079.821
 20
4643.56
 11
25106.208
 21
4458.8709
  0
LINE
  8
0-0
  6
CONTINUOUS
 62
    4
 10
25106.208
 20
4458.8709
 11
25132.59
 21
4326.9509
  0
LINE
  8
0-0
  6
CONTINUOUS
 62
    4
 10
25132.59
 20
4326.9509
 11
25132.59
 21
4168.6454
  0
LINE
  8
0-0
  6
CONTINUOUS
 62
    4
 10
25132.59
 20
4168.6454
 11
25053.439
 21
3983.9563
  0
LINE
  8
0-0
  6
CONTINUOUS
 62
    4
 10
25053.439
 20
3983.9563
 11
24947.901
 21
3931.1879
  0
LINE
  8
0-0
  6
CONTINUOUS
 62
    4
 10
24947.901
 20
3931.1879
 11
24789.594
 21
3825.6511
  0
LINE
  8
0-0
  6
CONTINUOUS
 62
    4
 10
24789.594
 20
3825.6511
 11
24604.905
 21
3799.2672
  0
LINE
  8
0-0
  6
CONTINUOUS
 62
    4
 10
24604.905
 20
3799.2672
 11
24472.985
 21
3772.8827
  0
LINE
  8
0-0
  6
CONTINUOUS
 62
    4
 10
24472.985
 20
3772.8827
 11
24261.914
 21
3746.4988
  0
LINE
  8
0-0
  6
CONTINUOUS
 62
    4
 10
24261.914
 20
3746.4988
 11
24077.224
 21
3746.4988
  0
LINE
  8
0-0
  6
CONTINUOUS
 62
    4
 10
24077.224
 20
3746.4988
 11
23655.077
 21
3746.4988
  0
LINE
  8
0-0
  6
CONTINUOUS
 62
    4
 10
23655.077
 20
3746.4988
 11
23496.77
 21
3746.4988
  0
LINE
  8
0-0
  6
CONTINUOUS
 62
    4
 10
23496.77
 20
3746.4988
 11
23417.619
 21
3904.8034
  0
LINE
  8
0-0
  6
CONTINUOUS
 62
    4
 10
23417.619
 20
3904.8034
 11
23364.85
 21
4063.1086
  0
LINE
  8
0-0
  6
CONTINUOUS
 62
    4
 10
23364.85
 20
4063.1086
 11
23338.468
 21
4274.1819
  0
LINE
  8
0-0
  6
CONTINUOUS
 62
    4
 10
23338.468
 20
4274.1819
 11
23338.468
 21
4511.6399
  0
LINE
  8
0-0
  6
CONTINUOUS
 62
    4
 10
23338.468
 20
4511.6399
 11
23364.85
 21
4643.56
  0
LINE
  8
0-0
  6
CONTINUOUS
 62
    4
 10
23364.85
 20
4643.56
 11
23470.388
 21
4775.481
  0
LINE
  8
0-0
  6
CONTINUOUS
 62
    4
 10
23470.388
 20
4775.481
 11
23575.921
 21
4881.0178
  0
LINE
  8
0-0
  6
CONTINUOUS
 62
    4
 10
23575.921
 20
4881.0178
 11
23734.228
 21
4960.1701
  0
LINE
  8
0-0
  6
CONTINUOUS
 62
    4
 10
23734.228
 20
4960.1701
 11
23866.148
 21
5039.3224
  0
LINE
  8
0-0
  6
CONTINUOUS
 62
    4
 10
23866.148
 20
5039.3224
 11
24050.837
 21
5065.7069
  0
LINE
  8
0-0
  6
CONTINUOUS
 62
    4
 10
24050.837
 20
5065.7069
 11
24182.758
 21
5065.7069
  0
LINE
  8
0-0
  6
CONTINUOUS
 62
    4
 10
24182.758
 20
5065.7069
 11
24314.683
 21
5065.7069
  0
LINE
  8
0-0
  6
CONTINUOUS
 62
    4
 10
24314.683
 20
5065.7069
 11
24472.985
 21
5065.7069
  0
LINE
  8
0-0
  6
CONTINUOUS
 62
    4
 10
24472.985
 20
5065.7069
 11
24604.905
 21
5065.7069
  0
LINE
  8
0-0
  6
CONTINUOUS
 62
    4
 10
24604.905
 20
5065.7069
 11
24710.443
 21
5065.7069
  0
LINE
  8
0-0
  6
CONTINUOUS
 62
    4
 10
24710.443
 20
5065.7069
 11
24842.363
 21
5065.7069
  0
LINE
  8
0-0
  6
CONTINUOUS
 62
    4
 10
24842.363
 20
5065.7069
 11
25000.67
 21
4986.5546
  0
LINE
  8
0-0
  6
CONTINUOUS
 62
    4
 10
25000.67
 20
4986.5546
 11
25158.972
 21
4801.8655
  0
LINE
  8
0-0
  6
CONTINUOUS
 62
    4
 10
25158.972
 20
4801.8655
 11
25290.897
 21
4722.7132
  0
LINE
  8
0-0
  6
CONTINUOUS
 62
    4
 10
25290.897
 20
4722.7132
 11
25396.43
 21
4590.7922
  0
LINE
  8
0-0
  6
CONTINUOUS
 62
    4
 10
25396.43
 20
4590.7922
 11
25475.586
 21
4458.8709
  0
LINE
  8
0-0
  6
CONTINUOUS
 62
    4
 10
25475.586
 20
4458.8709
 11
25607.506
 21
4300.5664
  0
LINE
  8
0-0
  6
CONTINUOUS
 62
    4
 10
25607.506
 20
4300.5664
 11
25739.426
 21
4115.877
  0
LINE
  8
0-0
  6
CONTINUOUS
 62
    4
 10
25739.426
 20
4115.877
 11
25792.195
 21
3957.5718
  0
LINE
  8
0-0
  6
CONTINUOUS
 62
    4
 10
25792.195
 20
3957.5718
 11
25844.964
 21
3746.4988
  0
LINE
  8
0-0
  6
CONTINUOUS
 62
    4
 10
25844.964
 20
3746.4988
 11
25871.346
 21
3588.1936
  0
LINE
  8
0-0
  6
CONTINUOUS
 62
    4
 10
25871.346
 20
3588.1936
 11
25871.346
 21
3456.273
  0
LINE
  8
0-0
  6
CONTINUOUS
 62
    4
 10
25871.346
 20
3456.273
 11
25792.195
 21
3324.3517
  0
LINE
  8
0-0
  6
CONTINUOUS
 62
    4
 10
25792.195
 20
3324.3517
 11
25660.275
 21
3218.8155
  0
LINE
  8
0-0
  6
CONTINUOUS
 62
    4
 10
25660.275
 20
3218.8155
 11
25528.35
 21
3166.0471
  0
LINE
  8
0-0
  6
CONTINUOUS
 62
    4
 10
25528.35
 20
3166.0471
 11
25396.43
 21
3113.2787
  0
LINE
  8
0-0
  6
CONTINUOUS
 62
    4
 10
25396.43
 20
3113.2787
 11
25290.897
 21
3113.2787
  0
LINE
  8
0-0
  6
CONTINUOUS
 62
    4
 10
25290.897
 20
3113.2787
 11
25185.359
 21
3113.2787
  0
LINE
  8
0-0
  6
CONTINUOUS
 62
    4
 10
25185.359
 20
3113.2787
 11
25132.59
 21
3271.5839
  0
LINE
  8
0-0
  6
CONTINUOUS
 62
    4
 10
25132.59
 20
3271.5839
 11
25132.59
 21
3403.5046
  0
LINE
  8
0-0
  6
CONTINUOUS
 62
    4
 10
25132.59
 20
3403.5046
 11
25158.972
 21
3535.4252
  0
LINE
  8
0-0
  6
CONTINUOUS
 62
    4
 10
25158.972
 20
3535.4252
 11
25211.741
 21
3667.3459
  0
LINE
  8
0-0
  6
CONTINUOUS
 62
    4
 10
25211.741
 20
3667.3459
 11
25290.897
 21
3799.2672
  0
LINE
  8
0-0
  6
CONTINUOUS
 62
    4
 10
25290.897
 20
3799.2672
 11
25396.43
 21
3904.8034
  0
LINE
  8
0-0
  6
CONTINUOUS
 62
    4
 10
25396.43
 20
3904.8034
 11
25554.737
 21
3983.9563
  0
LINE
  8
0-0
  6
CONTINUOUS
 62
    4
 10
25554.737
 20
3983.9563
 11
25686.657
 21
4063.1086
  0
LINE
  8
0-0
  6
CONTINUOUS
 62
    4
 10
25686.657
 20
4063.1086
 11
25844.964
 21
4115.877
  0
LINE
  8
0-0
  6
CONTINUOUS
 62
    4
 10
25844.964
 20
4115.877
 11
25950.497
 21
4142.2615
  0
LINE
  8
0-0
  6
CONTINUOUS
 62
    4
 10
25950.497
 20
4142.2615
 11
26056.035
 21
4195.0296
  0
LINE
  8
0-0
  6
CONTINUOUS
 62
    4
 10
26056.035
 20
4195.0296
 11
26187.955
 21
4221.4141
  0
LINE
  8
0-0
  6
CONTINUOUS
 62
    4
 10
26187.955
 20
4221.4141
 11
26346.262
 21
4221.4141
  0
LINE
  8
0-0
  6
CONTINUOUS
 62
    4
 10
26346.262
 20
4221.4141
 11
26451.8
 21
4221.4141
  0
LINE
  8
0-0
  6
CONTINUOUS
 62
    4
 10
26451.8
 20
4221.4141
 11
26557.333
 21
4221.4141
  0
LINE
  8
0-0
  6
CONTINUOUS
 62
    4
 10
26557.333
 20
4221.4141
 11
26662.871
 21
4221.4141
  0
LINE
  8
0-0
  6
CONTINUOUS
 62
    4
 10
26662.871
 20
4221.4141
 11
26768.41
 21
4221.4141
  0
LINE
  8
0-0
  6
CONTINUOUS
 62
    4
 10
26768.41
 20
4221.4141
 11
26873.943
 21
4195.0296
  0
LINE
  8
0-0
  6
CONTINUOUS
 62
    4
 10
26873.943
 20
4195.0296
 11
26979.481
 21
4142.2615
  0
LINE
  8
0-0
  6
CONTINUOUS
 62
    4
 10
26979.481
 20
4142.2615
 11
27085.019
 21
4063.1086
  0
LINE
  8
0-0
  6
CONTINUOUS
 62
    4
 10
27085.019
 20
4063.1086
 11
27190.557
 21
3983.9563
  0
LINE
  8
0-0
  6
CONTINUOUS
 62
    4
 10
27190.557
 20
3983.9563
 11
27216.939
 21
3852.0356
  0
LINE
  8
0-0
  6
CONTINUOUS
 62
    4
 10
27216.939
 20
3852.0356
 11
27190.557
 21
3720.1143
  0
LINE
  8
0-0
  6
CONTINUOUS
 62
    4
 10
27190.557
 20
3720.1143
 11
27085.019
 21
3588.1936
  0
LINE
  8
0-0
  6
CONTINUOUS
 62
    4
 10
27085.019
 20
3588.1936
 11
26979.481
 21
3535.4252
  0
LINE
  8
0-0
  6
CONTINUOUS
 62
    4
 10
26979.481
 20
3535.4252
 11
26999.998
 21
3499.9996
  0
LINE
  8
0-0
  6
CONTINUOUS
 62
    4
 10
35499.996
 20
5499.9993
 11
36929.575
 21
4070.4214
  0
LINE
  8
0-0
  6
CONTINUOUS
 62
    4
 10
37141.708
 20
4158.2894
 11
37141.708
 21
4950.7828
  0
LINE
  8
0-0
  6
CONTINUOUS
 62
    4
 10
37353.84
 20
5038.6509
 11
37966.254
 21
4426.2355
  0
LINE
  8
0-0
  6
CONTINUOUS
 62
    4
 10
37966.254
 20
4001.9712
 11
37176.416
 21
3212.1318
  0
LINE
  8
0-0
  6
CONTINUOUS
 62
    4
 10
37264.284
 20
2999.9998
 11
38199.995
 21
2999.9998
  0
LINE
  8
0-0
  6
CONTINUOUS
 62
    4
 10
38499.996
 20
3299.9999
 11
38499.996
 21
3699.9984
  0
LINE
  8
0-0
  6
CONTINUOUS
 62
    4
 10
38712.129
 20
4212.1304
 11
39287.864
 21
4787.8675
  0
LINE
  8
0-0
  6
CONTINUOUS
 62
    4
 10
39199.996
 20
4999.9995
 11
36299.999
 21
4999.9995
  0
LINE
  8
0-0
  6
CONTINUOUS
 62
    4
 10
35999.998
 20
4699.9995
 11
35999.998
 21
3799.9996
  0
LINE
  8
0-0
  6
CONTINUOUS
 62
    4
 10
36299.999
 20
3499.9996
 11
39499.997
 21
3499.9996
  0
LINE
  8
0-0
  6
CONTINUOUS
 62
    4
 10
41999.998
 20
0
 11
41999.998
 21
29837.836
  0
LINE
  8
0-0
  6
CONTINUOUS
 62
    4
 10
41999.998
 20
29837.836
 11
0
 21
29837.836
  0
LINE
  8
0-0
  6
CONTINUOUS
 62
    4
 10
0
 20
29837.836
 11
0
 21
0
  0
LINE
  8
0-0
  6
CONTINUOUS
 62
    4
 10
0
 20
0
 11
41999.998
 21
0
  0
CIRCLE
  8
0-0
  6
CONTINUOUS
 62
    4
 10
19999.998
 20
19999.998
 40
2999.9998
  0
ARC
  8
0-0
  6
CONTINUOUS
 62
    4
 10
24999.997
 20
19999.998
 40
2999.9998
 50
0
 51
90
  0
ARC
  8
0-0
  6
CONTINUOUS
 62
    7
 10
24999.997
 20
19999.998
 40
4301.1642
 50
0
 51
90
  0
ARC
  8
0-0
  6
CONTINUOUS
 62
    7
 10
24999.997
 20
19999.998
 40
1802.7759
 50
0
 51
90
  0
LINE
  8
0-0
  6
CONTINUOUS
 62
    4
 10
16999.998
 20
11999.999
 11
17045.575
 21
11739.527
  0
LINE
  8
0-0
  6
CONTINUOUS
 62
    4
 10
17045.575
 20
11739.527
 11
17180.92
 21
11486.969
  0
LINE
  8
0-0
  6
CONTINUOUS
 62
    4
 10
17180.92
 20
11486.969
 11
17401.922
 21
11249.999
  0
LINE
  8
0-0
  6
CONTINUOUS
 62
    4
 10
17401.922
 20
11249.999
 11
17701.865
 21
11035.818
  0
LINE
  8
0-0
  6
CONTINUOUS
 62
    4
 10
17701.865
 20
11035.818
 11
18071.635
 21
10850.932
  0
LINE
  8
0-0
  6
CONTINUOUS
 62
    4
 10
18071.635
 20
10850.932
 11
18499.998
 21
10700.961
  0
LINE
  8
0-0
  6
CONTINUOUS
 62
    4
 10
18499.998
 20
10700.961
 11
18973.937
 21
10590.46
  0
LINE
  8
0-0
  6
CONTINUOUS
 62
    4
 10
18973.937
 20
10590.46
 11
19479.053
 21
10522.787
  0
LINE
  8
0-0
  6
CONTINUOUS
 62
    4
 10
19479.053
 20
10522.787
 11
19999.998
 21
10499.999
  0
LINE
  8
0-0
  6
CONTINUOUS
 62
    4
 10
19999.998
 20
10499.999
 11
20520.942
 21
10522.787
  0
LINE
  8
0-0
  6
CONTINUOUS
 62
    4
 10
20520.942
 20
10522.787
 11
21026.058
 21
10590.46
  0
LINE
  8
0-0
  6
CONTINUOUS
 62
    4
 10
21026.058
 20
10590.46
 11
21499.998
 21
10700.961
  0
LINE
  8
0-0
  6
CONTINUOUS
 62
    4
 10
21499.998
 20
10700.961
 11
21928.361
 21
10850.932
  0
LINE
  8
0-0
  6
CONTINUOUS
 62
    4
 10
21928.361
 20
10850.932
 11
22298.131
 21
11035.818
  0
LINE
  8
0-0
  6
CONTINUOUS
 62
    4
 10
22298.131
 20
11035.818
 11
22598.074
 21
11249.999
  0
LINE
  8
0-0
  6
CONTINUOUS
 62
    4
 10
22598.074
 20
11249.999
 11
22819.076
 21
11486.969
  0
LINE
  8
0-0
  6
CONTINUOUS
 62
    4
 10
22819.076
 20
11486.969
 11
22954.421
 21
11739.527
  0
LINE
  8
0-0
  6
CONTINUOUS
 62
    4
 10
22954.421
 20
11739.527
 11
22999.998
 21
11999.999
  0
LINE
  8
0-0
  6
CONTINUOUS
 62
    4
 10
22999.998
 20
11999.999
 11
22954.421
 21
12260.471
  0
LINE
  8
0-0
  6
CONTINUOUS
 62
    4
 10
22954.421
 20
12260.471
 11
22819.076
 21
12513.029
  0
LINE
  8
0-0
  6
CONTINUOUS
 62
    4
 10
22819.076
 20
12513.029
 11
22598.074
 21
12749.999
  0
LINE
  8
0-0
  6
CONTINUOUS
 62
    4
 10
22598.074
 20
12749.999
 11
22298.131
 21
12964.18
  0
LINE
  8
0-0
  6
CONTINUOUS
 62
    4
 10
22298.131
 20
12964.18
 11
21928.361
 21
13149.066
  0
LINE
  8
0-0
  6
CONTINUOUS
 62
    4
 10
21928.361
 20
13149.066
 11
21499.998
 21
13299.037
  0
LINE
  8
0-0
  6
CONTINUOUS
 62
    4
 10
21499.998
 20
13299.037
 11
21026.058
 21
13409.538
  0
LINE
  8
0-0
  6
CONTINUOUS
 62
    4
 10
21026.058
 20
13409.538
 11
20520.942
 21
13477.211
  0
LINE
  8
0-0
  6
CONTINUOUS
 62
    4
 10
20520.942
 20
13477.211
 11
19999.998
 21
13499.999
  0
LINE
  8
0-0
  6
CONTINUOUS
 62
    4
 10
19999.998
 20
13499.999
 11
19479.053
 21
13477.211
  0
LINE
  8
0-0
  6
CONTINUOUS
 62
    4
 10
19479.053
 20
13477.211
 11
18973.937
 21
13409.538
  0
LINE
  8
0-0
  6
CONTINUOUS
 62
    4
 10
18973.937
 20
13409.538
 11
18499.998
 21
13299.037
  0
LINE
  8
0-0
  6
CONTINUOUS
 62
    4
 10
18499.998
 20
13299.037
 11
18071.635
 21
13149.066
  0
LINE
  8
0-0
  6
CONTINUOUS
 62
    4
 10
18071.635
 20
13149.066
 11
17701.865
 21
12964.18
  0
LINE
  8
0-0
  6
CONTINUOUS
 62
    4
 10
17701.865
 20
12964.18
 11
17401.922
 21
12749.999
  0
LINE
  8
0-0
  6
CONTINUOUS
 62
    4
 10
17401.922
 20
12749.999
 11
17180.92
 21
12513.029
  0
LINE
  8
0-0
  6
CONTINUOUS
 62
    4
 10
17180.92
 20
12513.029
 11
17045.575
 21
12260.471
  0
LINE
  8
0-0
  6
CONTINUOUS
 62
    4
 10
17045.575
 20
12260.471
 11
16999.998
 21
11999.999
  0
LINE
  8
0-0
  6
CONTINUOUS
 62
    4
 10
29499.997
 20
11999.999
 11
29454.42
 21
12260.471
  0
LINE
  8
0-0
  6
CONTINUOUS
 62
    4
 10
29454.42
 20
12260.471
 11
29319.074
 21
12513.029
  0
LINE
  8
0-0
  6
CONTINUOUS
 62
    4
 10
29319.074
 20
12513.029
 11
29098.073
 21
12749.999
  0
LINE
  8
0-0
  6
CONTINUOUS
 62
    4
 10
29098.073
 20
12749.999
 11
28798.13
 21
12964.18
  0
LINE
  8
0-0
  6
CONTINUOUS
 62
    4
 10
28798.13
 20
12964.18
 11
28428.359
 21
13149.066
  0
LINE
  8
0-0
  6
CONTINUOUS
 62
    4
 10
28428.359
 20
13149.066
 11
27999.997
 21
13299.037
  0
LINE
  8
0-0
  6
CONTINUOUS
 62
    4
 10
27999.997
 20
13299.037
 11
27526.057
 21
13409.538
  0
LINE
  8
0-0
  6
CONTINUOUS
 62
    4
 10
27526.057
 20
13409.538
 11
27020.941
 21
13477.211
  0
LINE
  8
0-0
  6
CONTINUOUS
 62
    4
 10
27020.941
 20
13477.211
 11
26499.997
 21
13499.999
  0
LINE
  8
0-0
  6
CONTINUOUS
 62
    4
 10
26499.997
 20
13499.999
 11
25979.052
 21
13477.211
  0
LINE
  8
0-0
  6
CONTINUOUS
 62
    4
 10
25979.052
 20
13477.211
 11
25473.936
 21
13409.538
  0
LINE
  8
0-0
  6
CONTINUOUS
 62
    4
 10
25473.936
 20
13409.538
 11
24999.997
 21
13299.037
  0
LINE
  8
0-0
  6
CONTINUOUS
 62
    4
 10
24999.997
 20
13299.037
 11
24571.634
 21
13149.066
  0
LINE
  8
0-0
  6
CONTINUOUS
 62
    4
 10
24571.634
 20
13149.066
 11
24201.863
 21
12964.18
  0
LINE
  8
0-0
  6
CONTINUOUS
 62
    4
 10
24201.863
 20
12964.18
 11
23901.921
 21
12749.999
  0
LINE
  8
0-0
  6
CONTINUOUS
 62
    4
 10
23901.921
 20
12749.999
 11
23680.919
 21
12513.029
  0
LINE
  8
0-0
  6
CONTINUOUS
 62
    4
 10
23680.919
 20
12513.029
 11
23545.574
 21
12260.471
  0
LINE
  8
0-0
  6
CONTINUOUS
 62
    4
 10
23545.574
 20
12260.471
 11
23499.997
 21
11999.999
  0
ARC
  8
0-0
  6
CONTINUOUS
 62
    4
 10
29083.333
 20
5083.332
 40
1086.5331
 50
184.39868
 51
327.52877
  0
ARC
  8
0-0
  6
CONTINUOUS
 62
    4
 10
30916.664
 20
3916.6653
 40
1086.5333
 50
4.3987274
 51
147.52876
  0
ARC
  8
0-0
  6
CONTINUOUS
 62
    4
 10
31249.997
 20
3942.3069
 40
752.21563
 50
175.60128
 51
4.3987121
  0
ARC
  8
0-0
  6
CONTINUOUS
 62
    4
 10
32336.953
 20
3858.6945
 40
1842.383
 50
117.01853
 51
175.60128
  0
ARC
  8
0-0
  6
CONTINUOUS
 62
    4
 10
31837.716
 20
4837.7183
 40
743.41837
 50
332.98152
 51
117.01847
  0
ARC
  8
0-0
  6
CONTINUOUS
 62
    4
 10
33520.267
 20
3979.7316
 40
1145.2631
 50
152.9815
 51
117.01858
  0
ARC
  8
0-0
  6
CONTINUOUS
 62
    4
 10
29536.068
 20
4446.5169
 40
1054.0996
 50
91.960937
 51
296.11151
  0
ARC
  8
0-0
  6
CONTINUOUS
 62
    4
 10
37017.443
 20
4158.2894
 40
124.26427
 50
224.99989
 51
0
  0
ARC
  8
0-0
  6
CONTINUOUS
 62
    4
 10
37265.972
 20
4950.7828
 40
124.26439
 50
44.999893
 51
180
  0
ARC
  8
0-0
  6
CONTINUOUS
 62
    4
 10
37754.121
 20
4214.1035
 40
300.00062
 50
315.00004
 51
44.999923
  0
ARC
  8
0-0
  6
CONTINUOUS
 62
    4
 10
37264.284
 20
3124.2635
 40
124.26365
 50
135
 51
270
  0
ARC
  8
0-0
  6
CONTINUOUS
 62
    4
 10
38199.995
 20
3299.9999
 40
300.00097
 50
270
 51
0
  0
ARC
  8
0-0
  6
CONTINUOUS
 62
    4
 10
39224.26
 20
3699.9984
 40
724.26344
 50
134.99995
 51
180
  0
ARC
  8
0-0
  6
CONTINUOUS
 62
    4
 10
39199.996
 20
4875.7359
 40
124.26365
 50
315
 51
90
  0
ARC
  8
0-0
  6
CONTINUOUS
 62
    4
 10
36299.999
 20
4699.9995
 40
300.00097
 50
90
 51
180
  0
ARC
  8
0-0
  6
CONTINUOUS
 62
    4
 10
36299.999
 20
3799.9996
 40
300.00004
 50
180
 51
270
  0
TEXT
  8
0-0
 10
500.00039
 20
29000
 40
200
 41
1
 50
0
  1
F2 2.0Å~2.0 ï∂éöä‘ 1.0
  0
TEXT
  8
0-0
 10
500.00039
 20
28499.998
 40
400
 41
1
 50
0
  1
F3 4.0Å~4.0 ï∂éöä‘ 0.0
  0
TEXT
  8
0-0
 10
500.00039
 20
27999.997
 40
400
 41
1
 50
0
  1
F4 4.0Å~4.0 ï∂éöä‘ 2.0
  0
TEXT
  8
0-0
 10
499.99977
 20
27249.997
 40
600
 41
1
 50
0
  1
F5 6.0Å~6.0 ï∂éöä‘ 0.0
  0
TEXT
  8
0-0
 10
499.99996
 20
21999.997
 40
1000
 41
1
 50
0
  1
F10 10Å~10 ï∂éöä‘ 5.0
  0
TEXT
  8
0-0
 10
17499.998
 20
28499.998
 40
400
 41
1
 50
0
  1
Pen.1 é¿ê¸
  0
TEXT
  8
0-0
 10
17499.998
 20
27999.997
 40
400
 41
1
 50
0
  1
Pen.2 ì_ê¸
  0
TEXT
  8
0-0
 10
17499.998
 20
27500
 40
400
 41
1
 50
0
  1
Pen.3 ì_ê¸(2)
  0
TEXT
  8
0-0
 10
17499.998
 20
26999.998
 40
400
 41
1
 50
0
  1
Pen.4 ì_ê¸(3)
  0
TEXT
  8
0-0
 10
17499.998
 20
26499.999
 40
400
 41
1
 50
0
  1
Pen.5 àÍì_çΩê¸
  0
TEXT
  8
0-0
 10
17499.998
 20
26000
 40
400
 41
1
 50
0
  1
Pen.6 àÍì_çΩê¸(2)
  0
TEXT
  8
0-0
 10
17499.998
 20
25499.998
 40
400
 41
1
 50
0
  1
Pen.1 ìÒì_çΩê¸
  0
TEXT
  8
0-0
 10
17499.998
 20
24999.999
 40
400
 41
1
 50
0
  1
Pen.1 ìÒì_çΩê¸(2)
  0
TEXT
  8
0-0
 10
500.00039
 20
29249.998
 40
200
 41
1
 50
0
  1
F1 2.0Å~2.0 ï∂éöä‘ 0.0
  0
TEXT
  8
0-0
 10
499.99996
 20
26499.997
 40
600
 41
1
 50
0
  1
F6 6.0Å~6.0 ï∂éöä‘ 2.0
  0
TEXT
  8
0-0
 10
499.99996
 20
24499.998
 40
800
 41
1
 50
0
  1
F8 8.0Å~8.0 ï∂éöä‘ 4.0
  0
TEXT
  8
0-0
 10
499.99977
 20
25499.998
 40
800
 41
1
 50
0
  1
F7 8.0Å~8.0 ï∂éöä‘ 0.0
  0
TEXT
  8
0-0
 10
499.99996
 20
23249.998
 40
1000
 41
1
 50
0
  1
F9 10Å~10 ï∂éöä‘ 0.0
  0
TEXT
  8
0-0
 10
3500.0002
 20
20499.998
 40
1000
 41
1
 50
270
  1
F10 10Å~10 ï∂éöä‘ 5.0
  0
TEXT
  8
0-0
 10
4750.0018
 20
20499.998
 40
1000
 41
1
 50
270
  1
F9 10Å~10 ï∂éöä‘ 0.0
  0
TEXT
  8
0-0
 10
7000.0005
 20
20499.998
 40
800
 41
1
 50
270
  1
F7 8.0Å~8.0 ï∂éöä‘ 0.0
  0
TEXT
  8
0-0
 10
5999.9997
 20
20500.001
 40
800
 41
1
 50
270
  1
F3 4.0Å~4.0 ï∂éöä‘ 0.0
  0
TEXT
  8
0-0
 10
7999.9988
 20
20499.998
 40
600
 41
1
 50
270
  1
F2 2.0Å~2.0 ï∂éöä‘ 1.0
  0
TEXT
  8
0-0
 10
8749.9987
 20
20500.001
 40
600
 41
1
 50
270
  1
F3 4.0Å~4.0 ï∂éöä‘ 0.0
  0
TEXT
  8
0-0
 10
10000
 20
20499.998
 40
400
 41
1
 50
270
  1
F2 2.0Å~2.0 ï∂éöä‘ 1.0
  0
TEXT
  8
0-0
 10
9499.9987
 20
20499.998
 40
400
 41
1
 50
270
  1
F4 4.0Å~4.0 ï∂éöä‘ 2.0
  0
TEXT
  8
0-0
 10
10750
 20
20499.996
 40
200
 41
1
 50
270
  1
F2 2.0Å~2.0 ï∂éöä‘ 1.0
  0
TEXT
  8
0-0
 10
10500.002
 20
20500.001
 40
200
 41
1
 50
270
  1
F2 2.0Å~2.0 ï∂éöä‘ 1.0
  0
TEXT
  8
0-0
 10
19299.998
 20
20049.998
 40
400
 41
1
 50
0
  1
É”6,000
  0
TEXT
  8
0-0
 10
19949.998
 20
20899.998
 40
400
 41
1
 50
90
  1
R3,000
  0
TEXT
  8
0-0
 10
22404.163
 20
22474.871
 40
400
 41
1
 50
45
  1
É”6,000
  0
TEXT
  8
0-0
 10
22474.869
 20
17595.835
 40
400
 41
1
 50
315
  1
R3,000
  0
TEXT
  8
0-0
 10
27581.761
 20
23571.71
 40
400
 41
1
 50
315
  1
4,712.4
  0
TEXT
  8
0-0
 10
26097.974
 20
21522.238
 40
400
 41
1
 50
315
  1
90ﬂ
  0
TEXT
  8
0-0
 10
25999.998
 20
19049.998
 40
400
 41
1
 50
0
  1
3,000
  0
TEXT
  8
0-0
 10
23949.998
 20
20999.999
 40
400
 41
1
 50
90
  1
3,000
  0
TEXT
  8
0-0
 10
24999.997
 20
14999.999
 40
400
 41
1
 50
45.000015
  1
F3 4.0Å~4.0 ï∂éöä‘ 0.0
  0
TEXT
  8
0-0
 10
26666.724
 20
15737.435
 40
400
 41
1
 50
45
  1
4,400
  0
TEXT
  8
0-0
 10
19599.998
 20
9299.9993
 40
400
 41
1
 50
0
  1
ë»â~
  0
TEXT
  8
0-0
 10
25899.997
 20
11299.999
 40
400
 41
1
 50
0
  1
îºë»â~
  0
TEXT
  8
0-0
 10
19499.997
 20
12049.999
 40
400
 41
1
 50
0
  1
6,000
  0
TEXT
  8
0-0
 10
19949.998
 20
13949.999
 40
400
 41
1
 50
90
  1
É”3,000
  0
TEXT
  8
0-0
 10
26499.997
 20
7799.9994
 40
400
 41
1
 50
0
  1
ÉTÉCÉìã»ê¸
  0
TEXT
  8
0-0
 10
13300
 20
2299.9997
 40
400
 41
1
 50
0
  1
2éüã»ê¸
  0
TEXT
  8
0-0
 10
17599.999
 20
2299.9997
 40
400
 41
1
 50
0
  1
ÉXÉvÉâÉCÉìã»ê¸
  0
TEXT
  8
0-0
 10
12999.999
 20
6299.9994
 40
400
 41
1
 50
0
  1
ÉxÉWÉFã»ê¸
  0
TEXT
  8
0-0
 10
28499.998
 20
27999.997
 40
600
 41
1
 50
0
  1
ÉOÉãÅ[Év0 ÉåÉCÉÑ0ÇÃï∂éöóÒ
  0
TEXT
  8
0x1
 10
28499.998
 20
26999.998
 40
600
 41
1
 50
0
  1
ÉOÉãÅ[Év0 ÉåÉCÉÑ1 ì«Ç›éÊÇËïsâ¬ÉåÉCÉÑÇÃï∂éöóÒ
  0
TEXT
  8
0-2
 10
28499.998
 20
25999.998
 40
600
 41
1
 50
0
  1
ÉOÉãÅ[Év0 ÉåÉCÉÑ2 îÒï\é¶ÉåÉCÉÑÇÃï∂éöóÒ
  0
TEXT
  8
0-0
 10
34799.994
 20
19699.999
 40
600
 41
1
 50
0
  1
1/100ÇÃéläpå`
  0
TEXT
  8
0-0
 10
36249.996
 20
23049.998
 40
400
 41
1
 50
0
  1
7,500
  0
TEXT
  8
0-0
 10
31949.995
 20
19999.998
 40
400
 41
1
 50
90
  1
3,000
  0
TEXT
  8
1-0
 10
36090.692
 20
17049.998
 40
400
 41
1
 50
0
  1
15,000
  0
TEXT
  8
1-0
 10
31949.995
 20
13994.731
 40
400
 41
1
 50
90
  1
6,000
  0
TEXT
  8
1-0
 10
34799.994
 20
13700
 40
600
 41
1
 50
0
  1
1/200ÇÃéläpå`
  0
TEXT
  8
0-0
 10
35249.993
 20
9700
 40
600
 41
1
 50
0
  1
ÉnÉbÉ`ÉìÉO
  0
TEXT
  8
1-0
 10
34199.992
 20
14699.999
 40
600
 41
1
 50
0
  1
ÉOÉãÅ[Év1 ÉåÉCÉÑ0
  0
TEXT
  8
0-0
 10
23699.997
 20
2299.9997
 40
400
 41
1
 50
0
  1
éËèëÇ´ê¸
  0
TEXT
  8
0-0
 10
30699.998
 20
2299.9994
 40
400
 41
1
 50
0
  1
òAë±â~å 
  0
TEXT
  8
0-0
 10
37099.997
 20
2299.9997
 40
400
 41
1
 50
0
  1
òAê¸
  0
TEXT
  8
0-0
 10
34199.992
 20
20699.999
 40
600
 41
1
 50
0
  1
ÉOÉãÅ[Év0 ÉåÉCÉÑ0
  0
TEXT
  8
0-0
 10
19499.997
 20
8299.9991
 40
400
 41
1
 50
0
  1
ì_Å~5
  0
TEXT
  8
0-0
 10
0
 20
0
 40
1000
 41
1
 50
0
  1
A3 1/100
  0
POINT
  8
0-0
 62
    7
 10
29301.161
 20
19999.998
  0
POINT
  8
0-0
 62
    7
 10
24999.997
 20
24301.162
  0
POINT
  8
0-0
 62
    7
 10
26802.774
 20
19999.998
  0
POINT
  8
0-0
 62
    7
 10
24999.997
 20
21802.773
  0
POINT
  8
0-0
 62
    7
 10
24999.997
 20
18999.998
  0
POINT
  8
0-0
 62
    7
 10
27999.997
 20
18999.998
  0
POINT
  8
0-0
 62
    7
 10
23999.998
 20
22999.998
  0
POINT
  8
0-0
 62
    7
 10
23999.998
 20
19999.998
  0
POINT
  8
0-0
 62
    7
 10
25499.998
 20
14499.998
  0
POINT
  8
0-0
 62
    7
 10
28611.267
 20
17611.268
  0
POINT
  8
0-0
 62
    7
 10
16999.998
 20
11999.999
  0
POINT
  8
0-0
 62
    7
 10
22999.998
 20
11999.999
  0
POINT
  8
0-0
 62
    7
 10
18999.998
 20
7999.9994
  0
POINT
  8
0-0
 62
    7
 10
19499.999
 20
7999.9994
  0
POINT
  8
0-0
 62
    7
 10
19999.999
 20
7999.9994
  0
POINT
  8
0-0
 62
    7
 10
20499.998
 20
7999.9994
  0
POINT
  8
0-0
 62
    7
 10
20999.999
 20
7999.9994
  0
POINT
  8
0-0
 62
    7
 10
32999.996
 20
22999.998
  0
POINT
  8
0-0
 62
    7
 10
40499.995
 20
22999.998
  0
POINT
  8
0-0
 62
    7
 10
31999.995
 20
21999.997
  0
POINT
  8
0-0
 62
    7
 10
31999.995
 20
18999.998
  0
POINT
  8
1-0
 62
    7
 10
32940.692
 20
16999.998
  0
POINT
  8
1-0
 62
    7
 10
40440.691
 20
16999.998
  0
POINT
  8
1-0
 62
    7
 10
31999.995
 20
15994.732
  0
POINT
  8
1-0
 62
    7
 10
31999.995
 20
12994.732
  0
ENDSEC
  0
EOF
