  0
SECTION
  2
HEADER
  9
$ACADVER
  1
AC1014
  9
$ACADMAINTVER
 70
     9
  9
$DWGCODEPAGE
  3
ANSI_932
  9
$INSBASE
 10
0.0
 20
0.0
 30
0.0
  9
$EXTMIN
 10
0.0
 20
0.0
 30
0.0
  9
$EXTMAX
 10
594.0
 20
420.0
 30
0.0
  9
$LIMMIN
 10
0.0
 20
0.0
  9
$LIMMAX
 10
594.0
 20
420.0
  9
$ORTHOMODE
 70
     0
  9
$REGENMODE
 70
     1
  9
$FILLMODE
 70
     1
  9
$QTEXTMODE
 70
     0
  9
$MIRRTEXT
 70
     1
  9
$DRAGMODE
 70
     2
  9
$LTSCALE
 40
1.0
  9
$OSMODE
 70
    37
  9
$ATTMODE
 70
     1
  9
$TEXTSIZE
 40
3.5087086889
  9
$TRACEWID
 40
1.0
  9
$TEXTSTYLE
  7
STANDARD
  9
$CLAYER
  8
0
  9
$CELTYPE
  6
BYLAYER
  9
$CECOLOR
 62
   256
  9
$CELTSCALE
 40
1.0
  9
$DELOBJ
 70
     1
  9
$DISPSILH
 70
     0
  9
$DIMSCALE
 40
1.0
  9
$DIMASZ
 40
2.5
  9
$DIMEXO
 40
0.625
  9
$DIMDLI
 40
3.75
  9
$DIMRND
 40
0.0
  9
$DIMDLE
 40
0.0
  9
$DIMEXE
 40
1.25
  9
$DIMTP
 40
0.0
  9
$DIMTM
 40
0.0
  9
$DIMTXT
 40
2.5
  9
$DIMCEN
 40
2.5
  9
$DIMTSZ
 40
0.0
  9
$DIMTOL
 70
     0
  9
$DIMLIM
 70
     0
  9
$DIMTIH
 70
     0
  9
$DIMTOH
 70
     0
  9
$DIMSE1
 70
     0
  9
$DIMSE2
 70
     0
  9
$DIMTAD
 70
     1
  9
$DIMZIN
 70
     8
  9
$DIMBLK
  1

  9
$DIMASO
 70
     1
  9
$DIMSHO
 70
     1
  9
$DIMPOST
  1

  9
$DIMAPOST
  1

  9
$DIMALT
 70
     0
  9
$DIMALTD
 70
     3
  9
$DIMALTF
 40
0.0393700787
  9
$DIMLFAC
 40
1.0
  9
$DIMTOFL
 70
     1
  9
$DIMTVP
 40
0.0
  9
$DIMTIX
 70
     0
  9
$DIMSOXD
 70
     0
  9
$DIMSAH
 70
     0
  9
$DIMBLK1
  1

  9
$DIMBLK2
  1

  9
$DIMSTYLE
  2
ISO-25
  9
$DIMCLRD
 70
     0
  9
$DIMCLRE
 70
     0
  9
$DIMCLRT
 70
     0
  9
$DIMTFAC
 40
1.0
  9
$DIMGAP
 40
0.625
  9
$DIMJUST
 70
     0
  9
$DIMSD1
 70
     0
  9
$DIMSD2
 70
     0
  9
$DIMTOLJ
 70
     0
  9
$DIMTZIN
 70
     8
  9
$DIMALTZ
 70
     0
  9
$DIMALTTZ
 70
     0
  9
$DIMFIT
 70
     3
  9
$DIMUPT
 70
     0
  9
$DIMUNIT
 70
     2
  9
$DIMDEC
 70
     2
  9
$DIMTDEC
 70
     2
  9
$DIMALTU
 70
     2
  9
$DIMALTTD
 70
     3
  9
$DIMTXSTY
  7
STANDARD
  9
$DIMAUNIT
 70
     0
  9
$LUNITS
 70
     2
  9
$LUPREC
 70
     4
  9
$SKETCHINC
 40
1.0
  9
$FILLETRAD
 40
0.0
  9
$AUNITS
 70
     0
  9
$AUPREC
 70
     0
  9
$MENU
  1
.
  9
$ELEVATION
 40
0.0
  9
$PELEVATION
 40
0.0
  9
$THICKNESS
 40
0.0
  9
$LIMCHECK
 70
     0
  9
$CHAMFERA
 40
0.0
  9
$CHAMFERB
 40
0.0
  9
$CHAMFERC
 40
0.0
  9
$CHAMFERD
 40
0.0
  9
$SKPOLY
 70
     0
  9
$TDCREATE
 40
2459917.664564977
  9
$TDUPDATE
 40
2459917.664565347
  9
$TDINDWG
 40
0.0000000116
  9
$TDUSRTIMER
 40
0.0000000116
  9
$USRTIMER
 70
     1
  9
$ANGBASE
 50
0.0
  9
$ANGDIR
 70
     0
  9
$PLINEWID
 40
0.0
  9
$COORDS
 70
     1
  9
$SPLFRAME
 70
     0
  9
$SPLINETYPE
 70
     6
  9
$SPLINESEGS
 70
     8
  9
$ATTDIA
 70
     0
  9
$ATTREQ
 70
     1
  9
$HANDLING
 70
     1
  9
$HANDSEED
  5
102
  9
$SURFTAB1
 70
     6
  9
$SURFTAB2
 70
     6
  9
$SURFTYPE
 70
     6
  9
$SURFU
 70
     6
  9
$SURFV
 70
     6
  9
$UCSNAME
  2

  9
$UCSORG
 10
0.0
 20
0.0
 30
0.0
  9
$UCSXDIR
 10
1.0
 20
0.0
 30
0.0
  9
$UCSYDIR
 10
0.0
 20
1.0
 30
0.0
  9
$PUCSNAME
  2

  9
$PUCSORG
 10
0.0
 20
0.0
 30
0.0
  9
$PUCSXDIR
 10
1.0
 20
0.0
 30
0.0
  9
$PUCSYDIR
 10
0.0
 20
1.0
 30
0.0
  9
$USERI1
 70
     0
  9
$USERI2
 70
     0
  9
$USERI3
 70
     0
  9
$USERI4
 70
     0
  9
$USERI5
 70
     0
  9
$USERR1
 40
0.0
  9
$USERR2
 40
0.0
  9
$USERR3
 40
0.0
  9
$USERR4
 40
0.0
  9
$USERR5
 40
0.0
  9
$WORLDVIEW
 70
     1
  9
$SHADEDGE
 70
     3
  9
$SHADEDIF
 70
    70
  9
$TILEMODE
 70
     1
  9
$MAXACTVP
 70
    64
  9
$PINSBASE
 10
0.0
 20
0.0
 30
0.0
  9
$PLIMCHECK
 70
     0
  9
$PEXTMIN
 10
0.0
 20
0.0
 30
0.0
  9
$PEXTMAX
 10
594.0
 20
420.0
 30
0.0
  9
$PLIMMIN
 10
0.0
 20
0.0
  9
$PLIMMAX
 10
594.0
 20
420.0
  9
$UNITMODE
 70
     0
  9
$VISRETAIN
 70
     1
  9
$PLINEGEN
 70
     0
  9
$PSLTSCALE
 70
     1
  9
$TREEDEPTH
 70
  3020
  9
$PICKSTYLE
 70
     1
  9
$CMLSTYLE
  2
STANDARD
  9
$CMLJUST
 70
     0
  9
$CMLSCALE
 40
20.0
  9
$PROXYGRAPHICS
 70
     1
  9
$MEASUREMENT
 70
     1
  0
ENDSEC
  0
SECTION
  2
CLASSES
  0
CLASS
  1
ACDBDICTIONARYWDFLT
  2
AcDbDictionaryWithDefault
  3
ObjectDBX Classes
 90
        0
280
     0
281
     0
  0
CLASS
  1
VISUALSTYLE
  2
AcDbVisualStyle
  3
ObjectDBX Classes
 90
     4095
280
     0
281
     0
  0
CLASS
  1
MATERIAL
  2
AcDbMaterial
  3
ObjectDBX Classes
 90
     1153
280
     0
281
     0
  0
CLASS
  1
SCALE
  2
AcDbScale
  3
ObjectDBX Classes
 90
     1153
280
     0
281
     0
  0
CLASS
  1
TABLESTYLE
  2
AcDbTableStyle
  3
ObjectDBX Classes
 90
     4095
280
     0
281
     0
  0
CLASS
  1
MLEADERSTYLE
  2
AcDbMLeaderStyle
  3
ACDB_MLEADERSTYLE_CLASS
 90
     4095
280
     0
281
     0
  0
CLASS
  1
SUN
  2
AcDbSun
  3
SCENEOE
 90
     1153
280
     0
281
     0
  0
CLASS
  1
DICTIONARYVAR
  2
AcDbDictionaryVar
  3
ObjectDBX Classes
 90
        0
280
     0
281
     0
  0
CLASS
  1
XRECORD
  2
AcDbXrecord
  3
ObjectDBX Classes
 90
        0
280
     0
281
     0
  0
CLASS
  1
LWPOLYLINE
  2
AcDbPolyline
  3
ObjectDBX Classes
 90
        0
280
     0
281
     1
  0
CLASS
  1
HATCH
  2
AcDbHatch
  3
ObjectDBX Classes
 90
        0
280
     0
281
     1
  0
CLASS
  1
ACDBPLACEHOLDER
  2
AcDbPlaceHolder
  3
ObjectDBX Classes
 90
        0
280
     0
281
     0
  0
CLASS
  1
LAYOUT
  2
AcDbLayout
  3
ObjectDBX Classes
 90
        0
280
     0
281
     0
  0
ENDSEC
  0
SECTION
  2
TABLES
  0
TABLE
  2
VPORT
  5
8
102
{ACAD_XDICTIONARY
360
F7
102
}
330
0
100
AcDbSymbolTable
 70
     1
  0
VPORT
  5
29
330
8
100
AcDbSymbolTableRecord
100
AcDbViewportTableRecord
  2
*ACTIVE
 70
     0
 10
0.0
 20
0.0
 11
1.0
 21
1.0
 12
344.1869158879
 22
148.5
 13
0.0
 23
0.0
 14
10.0
 24
10.0
 15
10.0
 25
10.0
 16
0.0
 26
0.0
 36
1.0
 17
0.0
 27
0.0
 37
0.0
 40
297.0
 41
1.9729729729
 42
50.0
 43
0.0
 44
0.0
 50
0.0
 51
0.0
 71
     0
 72
   100
 73
     1
 74
     3
 75
     0
 76
     0
 77
     0
 78
     0
  0
ENDTAB
  0
TABLE
  2
LTYPE
  5
5
330
0
100
AcDbSymbolTable
 70
     1
  0
LTYPE
  5
14
330
5
100
AcDbSymbolTableRecord
100
AcDbLinetypeTableRecord
  2
BYBLOCK
 70
     0
  3

 72
    65
 73
     0
 40
0.0
  0
LTYPE
  5
15
330
5
100
AcDbSymbolTableRecord
100
AcDbLinetypeTableRecord
  2
BYLAYER
 70
     0
  3

 72
    65
 73
     0
 40
0.0
  0
LTYPE
  5
16
330
5
100
AcDbSymbolTableRecord
100
AcDbLinetypeTableRecord
  2
CONTINUOUS
 70
     0
  3
Solid line
 72
    65
 73
     0
 40
0.0
  0
ENDTAB
  0
TABLE
  2
LAYER
  5
2
330
0
100
AcDbSymbolTable
 70
     1
  0
LAYER
  5
10
330
2
100
AcDbSymbolTableRecord
100
AcDbLayerTableRecord
  2
0
 70
     0
 62
     7
  6
CONTINUOUS
  0
ENDTAB
  0
TABLE
  2
STYLE
  5
3
330
0
100
AcDbSymbolTable
 70
     1
  0
STYLE
  5
11
330
3
100
AcDbSymbolTableRecord
100
AcDbTextStyleTableRecord
  2
STANDARD
 70
     0
 40
0.0
 41
1.0
 50
0.0
 71
     0
 42
3.5087086889
  3
txt
  4

  0
ENDTAB
  0
TABLE
  2
VIEW
  5
6
330
0
100
AcDbSymbolTable
 70
     0
  0
ENDTAB
  0
TABLE
  2
UCS
  5
7
330
0
100
AcDbSymbolTable
 70
     0
  0
ENDTAB
  0
TABLE
  2
APPID
  5
9
330
0
100
AcDbSymbolTable
 70
     2
  0
APPID
  5
12
330
9
100
AcDbSymbolTableRecord
100
AcDbRegAppTableRecord
  2
ACAD
 70
     0
  0
APPID
  5
101
330
9
100
AcDbSymbolTableRecord
100
AcDbRegAppTableRecord
  2
ACAD_MLEADERVER
 70
     0
  0
ENDTAB
  0
TABLE
  2
DIMSTYLE
  5
A
330
0
100
AcDbSymbolTable
 70
     1
  0
DIMSTYLE
105
27
330
A
100
AcDbSymbolTableRecord
100
AcDbDimStyleTableRecord
  2
ISO-25
 70
     0
  3

  4

  5

  6

  7

 40
1.0
 41
2.5
 42
0.625
 43
3.75
 44
1.25
 45
0.0
 46
0.0
 47
0.0
 48
0.0
140
2.5
141
2.5
142
0.0
143
0.0393700787
144
1.0
145
0.0
146
1.0
147
0.625
 71
     0
 72
     0
 73
     0
 74
     0
 75
     0
 76
     0
 77
     1
 78
     8
170
     0
171
     3
172
     1
173
     0
174
     0
175
     0
176
     0
177
     0
178
     0
270
     2
271
     2
272
     2
273
     2
274
     3
340
11
275
     0
280
     0
281
     0
282
     0
283
     0
284
     8
285
     0
286
     0
287
     3
288
     0
  0
ENDTAB
  0
TABLE
  2
BLOCK_RECORD
  5
1
330
0
100
AcDbSymbolTable
 70
     4
  0
BLOCK_RECORD
  5
1F
330
1
100
AcDbSymbolTableRecord
100
AcDbBlockTableRecord
  2
*MODEL_SPACE
  0
BLOCK_RECORD
  5
1B
330
1
100
AcDbSymbolTableRecord
100
AcDbBlockTableRecord
  2
*PAPER_SPACE
  0
BLOCK_RECORD
  5
B4
330
1
100
AcDbSymbolTableRecord
100
AcDbBlockTableRecord
  2
SE
  0
BLOCK_RECORD
  5
B6
330
1
100
AcDbSymbolTableRecord
100
AcDbBlockTableRecord
  2
SE1
  0
BLOCK_RECORD
  5
C0
330
1
100
AcDbSymbolTableRecord
100
AcDbBlockTableRecord
  2
SE2
  0
BLOCK_RECORD
  5
C2
330
1
100
AcDbSymbolTableRecord
100
AcDbBlockTableRecord
  2
SE3
  0
ENDTAB
  0
ENDSEC
  0
SECTION
  2
BLOCKS
  0
BLOCK
  5
20
330
1F
100
AcDbEntity
  8
0
100
AcDbBlockBegin
  2
*MODEL_SPACE
 70
     0
 10
0.0
 20
0.0
 30
0.0
  3
*MODEL_SPACE
  1

  0
ENDBLK
  5
21
330
1F
100
AcDbEntity
  8
0
100
AcDbBlockEnd
  0
BLOCK
  5
1C
330
1B
100
AcDbEntity
 67
     1
  8
0
100
AcDbBlockBegin
  2
*PAPER_SPACE
 70
     0
 10
0.0
 20
0.0
 30
0.0
  3
*PAPER_SPACE
  1

  0
ENDBLK
  5
1D
330
1B
100
AcDbEntity
 67
     1
  8
0
100
AcDbBlockEnd
  0
BLOCK
  5
BE
330
B4
100
AcDbEntity
  8
0
100
AcDbBlockBegin
  2
SE
 70
     0
 10
0.0
 20
0.0
 30
0.0
  3
SE
  1

  0
INSERT
  5
B7
330
B4
100
AcDbEntity
  8
0
100
AcDbBlockReference
  2
SE1
 10
0.0
 20
0.0
 30
0.0
  0
ENDBLK
  5
BF
330
B4
100
AcDbEntity
  8
0
100
AcDbBlockEnd
  0
BLOCK
  5
BC
330
B6
100
AcDbEntity
  8
0
100
AcDbBlockBegin
  2
SE1
 70
     0
 10
0.0
 20
0.0
 30
0.0
  3
SE1
  1

  0
LINE
  5
B8
330
B6
100
AcDbEntity
  8
0
  6
CONTINUOUS
 62
     7
100
AcDbLine
 10
0.0
 20
297.0
 30
0.0
 11
210.0
 21
297.0
 31
0.0
  0
LINE
  5
B9
330
B6
100
AcDbEntity
  8
0
  6
CONTINUOUS
 62
     7
100
AcDbLine
 10
210.0
 20
297.0
 30
0.0
 11
210.0
 21
0.0
 31
0.0
  0
LINE
  5
BA
330
B6
100
AcDbEntity
  8
0
  6
CONTINUOUS
 62
     7
100
AcDbLine
 10
210.0
 20
0.0
 30
0.0
 11
0.0
 21
0.0
 31
0.0
  0
LINE
  5
BB
330
B6
100
AcDbEntity
  8
0
  6
CONTINUOUS
 62
     7
100
AcDbLine
 10
0.0
 20
0.0
 30
0.0
 11
0.0
 21
297.0
 31
0.0
  0
ENDBLK
  5
BD
330
B6
100
AcDbEntity
  8
0
100
AcDbBlockEnd
  0
BLOCK
  5
C8
330
C0
100
AcDbEntity
  8
0
100
AcDbBlockBegin
  2
SE2
 70
     0
 10
0.0
 20
0.0
 30
0.0
  3
SE2
  1

  0
INSERT
  5
C3
330
C0
100
AcDbEntity
  8
0
100
AcDbBlockReference
  2
SE3
 10
0.0
 20
0.0
 30
0.0
  0
ENDBLK
  5
C9
330
C0
100
AcDbEntity
  8
0
100
AcDbBlockEnd
  0
BLOCK
  5
C6
330
C2
100
AcDbEntity
  8
0
100
AcDbBlockBegin
  2
SE3
 70
     0
 10
0.0
 20
0.0
 30
0.0
  3
SE3
  1

  0
MTEXT
  5
C4
330
C2
100
AcDbEntity
  8
0
100
AcDbMText
 10
11.8074343185
 20
234.317823299
 30
0.0
 40
3.5087086889
 41
125.1693786644
 71
     1
 72
     1
  1
{\fArial|b0||i0||c0|p34;(B)  a=15mm b=7.5mm ellipse and diveded elliptical arcs }
1001
ACAD
1000
ACAD_MTEXT_DEFINED_HEIGHT_BEGIN
1070
    46
1040
5.491901861
1000
ACAD_MTEXT_DEFINED_HEIGHT_END
  0
MTEXT
  5
C5
330
C2
100
AcDbEntity
  8
0
100
AcDbMText
 10
11.8074343185
 20
228.825931438
 30
0.0
 40
3.5087086889
 41
79.3273368806
 71
     1
 72
     1
  1
{\fArial|b0||i0||c0|p34;((A) magnified twice horizontally)}
1001
ACAD
1000
ACAD_MTEXT_DEFINED_HEIGHT_BEGIN
1070
    46
1040
5.491901861
1000
ACAD_MTEXT_DEFINED_HEIGHT_END
  0
ENDBLK
  5
C7
330
C2
100
AcDbEntity
  8
0
100
AcDbBlockEnd
  0
ENDSEC
  0
SECTION
  2
ENTITIES
  0
MTEXT
  5
5E
330
1F
100
AcDbEntity
  8
0
100
AcDbMText
 10
12.7972671674
 20
284.9688412341
 30
0.0
 40
3.5087086889
 41
170.8588678966
 71
     1
 72
     1
  1
{\fArial|b0||i0||c0|p34;there are shapes which shoud be use generate_ellipse function in dxf_input.py}
1001
ACAD
1000
ACAD_MTEXT_DEFINED_HEIGHT_BEGIN
1070
    46
1040
5.491901861
1000
ACAD_MTEXT_DEFINED_HEIGHT_END
  0
MTEXT
  5
5F
330
1F
100
AcDbEntity
  8
0
100
AcDbMText
 10
10.7941805361
 20
270.7896165695
 30
0.0
 40
3.5087086889
 41
139.1279371444
 71
     1
 72
     1
  1
{\fArial|b0||i0||c0|p34;r=7.5mm circle and diveded arcs whice are rotete 30 degree}
1001
ACAD
1000
ACAD_MTEXT_DEFINED_HEIGHT_BEGIN
1070
    46
1040
5.491901861
1000
ACAD_MTEXT_DEFINED_HEIGHT_END
  0
CIRCLE
  5
60
330
1F
100
AcDbEntity
  8
0
  6
CONTINUOUS
 62
     7
100
AcDbCircle
 10
27.107698164
 20
251.5965272828
 30
0.0
 40
7.500000000000011
  0
ARC
  5
61
330
1F
100
AcDbEntity
  8
0
  6
CONTINUOUS
 62
     1
100
AcDbCircle
 10
45.7247102863
 20
251.5965272828
 30
0.0
 40
7.5
100
AcDbArc
 50
330.0
 51
30.0
  0
ARC
  5
62
330
1F
100
AcDbEntity
  8
0
  6
CONTINUOUS
 62
     5
100
AcDbCircle
 10
45.7247102863
 20
251.5965272828
 30
0.0
 40
7.5
100
AcDbArc
 50
30.0
 51
330.0
  0
ARC
  5
63
330
1F
100
AcDbEntity
  8
0
  6
CONTINUOUS
 62
     1
100
AcDbCircle
 10
65.7247102863
 20
251.5965272828
 30
0.0
 40
7.500000000000014
100
AcDbArc
 50
0.0
 51
60.0
  0
ARC
  5
64
330
1F
100
AcDbEntity
  8
0
  6
CONTINUOUS
 62
     5
100
AcDbCircle
 10
65.7247102863
 20
251.5965272828
 30
0.0
 40
7.5
100
AcDbArc
 50
60.0
 51
0.0
  0
ARC
  5
65
330
1F
100
AcDbEntity
  8
0
  6
CONTINUOUS
 62
     1
100
AcDbCircle
 10
85.7247102863
 20
251.5965272828
 30
0.0
 40
7.500000000000012
100
AcDbArc
 50
30.0
 51
90.0
  0
ARC
  5
66
330
1F
100
AcDbEntity
  8
0
  6
CONTINUOUS
 62
     5
100
AcDbCircle
 10
85.7247102863
 20
251.5965272828
 30
0.0
 40
7.500000000000014
100
AcDbArc
 50
90.0
 51
30.0
  0
ELLIPSE
  5
67
330
1F
100
AcDbEntity
  8
0
  6
CONTINUOUS
 62
     7
100
AcDbEllipse
 10
28.5404768706
 20
213.1037816874
 30
0.0
 11
15.0
 21
0.0
 31
0.0
210
0.0
220
0.0
230
1.0
 40
0.5
 41
0.0
 42
6.283185307179586
  0
ELLIPSE
  5
68
330
1F
100
AcDbEntity
  8
0
  6
CONTINUOUS
 62
     1
100
AcDbEllipse
 10
65.7745011152
 20
212.5287420017
 30
0.0
 11
-15.0
 21
0.0
 31
0.0
210
0.0
220
0.0
230
1.0
 40
0.5
 41
2.617993877991492
 42
3.665191429188095
  0
ELLIPSE
  5
69
330
1F
100
AcDbEntity
  8
0
  6
CONTINUOUS
 62
     5
100
AcDbEllipse
 10
65.7745011152
 20
212.5287420017
 30
0.0
 11
15.0
 21
0.0
 31
0.0
210
0.0
220
0.0
230
1.0
 40
0.5
 41
0.5235987755983027
 42
5.759586531581288
  0
ELLIPSE
  5
6A
330
1F
100
AcDbEntity
  8
0
  6
CONTINUOUS
 62
     1
100
AcDbEllipse
 10
29.0694848693
 20
193.4152762206
 30
0.0
 11
15.0
 21
0.0
 31
0.0
210
0.0
220
0.0
230
1.0
 40
0.5
 41
0.0
 42
1.047197551196597
  0
ELLIPSE
  5
6B
330
1F
100
AcDbEntity
  8
0
  6
CONTINUOUS
 62
     5
100
AcDbEllipse
 10
29.0694848693
 20
193.4152762206
 30
0.0
 11
15.0
 21
0.0
 31
0.0
210
0.0
220
0.0
230
1.0
 40
0.5
 41
1.047197551196597
 42
6.283185307179586
  0
ELLIPSE
  5
6C
330
1F
100
AcDbEntity
  8
0
  6
CONTINUOUS
 62
     1
100
AcDbEllipse
 10
65.7745011152
 20
193.4152762206
 30
0.0
 11
15.0
 21
0.0
 31
0.0
210
0.0
220
0.0
230
1.0
 40
0.5
 41
0.5235987755982983
 42
1.570796326794897
  0
ELLIPSE
  5
6D
330
1F
100
AcDbEntity
  8
0
  6
CONTINUOUS
 62
     5
100
AcDbEllipse
 10
65.7745011152
 20
193.4152762206
 30
0.0
 11
-15.0
 21
0.0
 31
0.0
210
0.0
220
0.0
230
1.0
 40
0.5
 41
4.71238898038469
 42
9.948376736367676
  0
MTEXT
  5
6E
330
1F
100
AcDbEntity
  8
0
100
AcDbMText
 10
11.8074343185
 20
179.5272588876
 30
0.0
 40
3.5087086889
 41
164.3753844496
 71
     1
 72
     1
  1
{\fArial|b0||i0||c0|p34;(C)  a=30mm b=15mm ellipse and diveded elliptical arcs rotete ((B) rotated)}
1001
ACAD
1000
ACAD_MTEXT_DEFINED_HEIGHT_BEGIN
1070
    46
1040
5.491901861
1000
ACAD_MTEXT_DEFINED_HEIGHT_END
  0
ELLIPSE
  5
6F
330
1F
100
AcDbEntity
  8
0
  6
CONTINUOUS
 62
     1
100
AcDbEllipse
 10
104.2102977695
 20
212.5287420017
 30
0.0
 11
15.0
 21
0.0
 31
0.0
210
0.0
220
0.0
230
1.0
 40
0.5
 41
3.141592653589793
 42
6.283185307179586
  0
ELLIPSE
  5
70
330
1F
100
AcDbEntity
  8
0
  6
CONTINUOUS
 62
     5
100
AcDbEllipse
 10
104.2102977695
 20
212.5287420017
 30
0.0
 11
15.0
 21
0.0
 31
0.0
210
0.0
220
0.0
230
1.0
 40
0.5
 41
0.0
 42
3.141592653589793
  0
ELLIPSE
  5
71
330
1F
100
AcDbEntity
  8
0
  6
CONTINUOUS
 62
     5
100
AcDbEllipse
 10
104.2102977695
 20
194.2192833526
 30
0.0
 11
15.0
 21
0.0
 31
0.0
210
0.0
220
0.0
230
1.0
 40
0.5
 41
1.570796326794897
 42
4.71238898038469
  0
ELLIPSE
  5
72
330
1F
100
AcDbEntity
  8
0
  6
CONTINUOUS
 62
     1
100
AcDbEllipse
 10
104.2102977695
 20
194.2192833526
 30
0.0
 11
-15.0
 21
0.0
 31
0.0
210
0.0
220
0.0
230
1.0
 40
0.5
 41
1.570796326794896
 42
4.71238898038469
  0
ARC
  5
73
330
1F
100
AcDbEntity
  8
0
  6
CONTINUOUS
 62
     1
100
AcDbCircle
 10
128.9253026799
 20
251.5965272828
 30
0.0
 40
7.5
100
AcDbArc
 50
120.0
 51
180.0
  0
ARC
  5
74
330
1F
100
AcDbEntity
  8
0
  6
CONTINUOUS
 62
     5
100
AcDbCircle
 10
128.9253026799
 20
251.5965272828
 30
0.0
 40
7.499999999999975
100
AcDbArc
 50
180.0
 51
120.0
  0
ARC
  5
75
330
1F
100
AcDbEntity
  8
0
  6
CONTINUOUS
 62
     1
100
AcDbCircle
 10
108.9253026799
 20
251.5965272828
 30
0.0
 40
7.500000000000012
100
AcDbArc
 50
90.0
 51
150.0
  0
ARC
  5
76
330
1F
100
AcDbEntity
  8
0
  6
CONTINUOUS
 62
     5
100
AcDbCircle
 10
108.9253026799
 20
251.5965272828
 30
0.0
 40
7.500000000000001
100
AcDbArc
 50
150.0
 51
90.0
  0
ELLIPSE
  5
77
330
1F
100
AcDbEntity
  8
0
  6
CONTINUOUS
 62
     1
100
AcDbEllipse
 10
141.8854140842
 20
212.5287420017
 30
0.0
 11
15.0
 21
0.0
 31
0.0
210
0.0
220
0.0
230
1.0
 40
0.5
 41
2.617993877991491
 42
3.665191429188088
  0
ELLIPSE
  5
78
330
1F
100
AcDbEntity
  8
0
  6
CONTINUOUS
 62
     5
100
AcDbEllipse
 10
141.8854140842
 20
212.5287420017
 30
0.0
 11
-15.0
 21
0.0
 31
0.0
210
0.0
220
0.0
230
1.0
 40
0.5
 41
0.5235987755982947
 42
5.759586531581284
  0
ELLIPSE
  5
79
330
1F
100
AcDbEntity
  8
0
  6
CONTINUOUS
 62
     1
100
AcDbEllipse
 10
178.5904303301
 20
193.4152762206
 30
0.0
 11
15.0
 21
0.0
 31
0.0
210
0.0
220
0.0
230
1.0
 40
0.5
 41
2.0943951023932
 42
3.141592653589793
  0
ELLIPSE
  5
7A
330
1F
100
AcDbEntity
  8
0
  6
CONTINUOUS
 62
     5
100
AcDbEllipse
 10
178.5904303301
 20
193.4152762206
 30
0.0
 11
-15.0
 21
0.0
 31
0.0
210
0.0
220
0.0
230
1.0
 40
0.5
 41
0.0
 42
5.235987755982991
  0
ELLIPSE
  5
7B
330
1F
100
AcDbEntity
  8
0
  6
CONTINUOUS
 62
     1
100
AcDbEllipse
 10
141.8854140842
 20
193.4152762206
 30
0.0
 11
15.0
 21
0.0
 31
0.0
210
0.0
220
0.0
230
1.0
 40
0.5
 41
1.570796326794897
 42
2.617993877991502
  0
ELLIPSE
  5
7C
330
1F
100
AcDbEntity
  8
0
  6
CONTINUOUS
 62
     5
100
AcDbEllipse
 10
141.8854140842
 20
193.4152762206
 30
0.0
 11
-15.0
 21
0.0
 31
0.0
210
0.0
220
0.0
230
1.0
 40
0.5
 41
5.759586531581295
 42
10.99557428756428
  0
ELLIPSE
  5
7D
330
1F
100
AcDbEntity
  8
0
  6
CONTINUOUS
 62
     7
100
AcDbEllipse
 10
28.5404768706
 20
159.3148304399
 30
0.0
 11
12.99038105676658
 21
7.5
 31
0.0
210
0.0
220
0.0
230
1.0
 40
0.5
 41
0.0
 42
6.283185307179586
  0
ELLIPSE
  5
7E
330
1F
100
AcDbEntity
  8
0
  6
CONTINUOUS
 62
     1
100
AcDbEllipse
 10
65.7745011152
 20
158.7397907542
 30
0.0
 11
-12.99038105676659
 21
-7.499999999999999
 31
0.0
210
0.0
220
0.0
230
1.0
 40
0.5
 41
2.617993877991493
 42
3.665191429188095
  0
ELLIPSE
  5
7F
330
1F
100
AcDbEntity
  8
0
  6
CONTINUOUS
 62
     5
100
AcDbEllipse
 10
65.7745011152
 20
158.7397907542
 30
0.0
 11
12.99038105676654
 21
7.500000000000047
 31
0.0
210
0.0
220
0.0
230
1.0
 40
0.5
 41
0.5235987755982965
 42
5.759586531581279
  0
ELLIPSE
  5
80
330
1F
100
AcDbEntity
  8
0
  6
CONTINUOUS
 62
     1
100
AcDbEllipse
 10
29.0694848693
 20
139.6263249731
 30
0.0
 11
12.99038105676658
 21
7.5
 31
0.0
210
0.0
220
0.0
230
1.0
 40
0.5
 41
0.0000000000000033
 42
1.047197551196596
  0
ELLIPSE
  5
81
330
1F
100
AcDbEntity
  8
0
  6
CONTINUOUS
 62
     5
100
AcDbEllipse
 10
29.0694848693
 20
139.6263249731
 30
0.0
 11
12.9903810567666
 21
7.499999999999992
 31
0.0
210
0.0
220
0.0
230
1.0
 40
0.5
 41
1.047197551196599
 42
6.283185307179586
  0
ELLIPSE
  5
82
330
1F
100
AcDbEntity
  8
0
  6
CONTINUOUS
 62
     1
100
AcDbEllipse
 10
65.7745011152
 20
139.6263249731
 30
0.0
 11
12.99038105676659
 21
7.499999999999976
 31
0.0
210
0.0
220
0.0
230
1.0
 40
0.5
 41
0.5235987755982983
 42
1.570796326794898
  0
ELLIPSE
  5
83
330
1F
100
AcDbEntity
  8
0
  6
CONTINUOUS
 62
     5
100
AcDbEllipse
 10
65.7745011152
 20
139.6263249731
 30
0.0
 11
-12.99038105676658
 21
-7.499999999999992
 31
0.0
210
0.0
220
0.0
230
1.0
 40
0.5
 41
4.71238898038469
 42
9.948376736367674
  0
ELLIPSE
  5
84
330
1F
100
AcDbEntity
  8
0
  6
CONTINUOUS
 62
     1
100
AcDbEllipse
 10
104.2102977695
 20
158.7397907542
 30
0.0
 11
12.99038105676658
 21
7.499999999999992
 31
0.0
210
0.0
220
0.0
230
1.0
 40
0.5
 41
3.141592653589794
 42
6.283185307179582
  0
ELLIPSE
  5
85
330
1F
100
AcDbEntity
  8
0
  6
CONTINUOUS
 62
     5
100
AcDbEllipse
 10
104.2102977695
 20
158.7397907542
 30
0.0
 11
12.99038105676661
 21
7.49999999999999
 31
0.0
210
0.0
220
0.0
230
1.0
 40
0.5
 41
0.0
 42
3.141592653589793
  0
ELLIPSE
  5
86
330
1F
100
AcDbEntity
  8
0
  6
CONTINUOUS
 62
     5
100
AcDbEllipse
 10
104.2102977695
 20
140.430332105
 30
0.0
 11
12.99038105676658
 21
7.499999999999992
 31
0.0
210
0.0
220
0.0
230
1.0
 40
0.5
 41
1.5707963267949
 42
4.712388980384689
  0
ELLIPSE
  5
87
330
1F
100
AcDbEntity
  8
0
  6
CONTINUOUS
 62
     1
100
AcDbEllipse
 10
104.2102977695
 20
140.430332105
 30
0.0
 11
-12.99038105676664
 21
-7.500000000000002
 31
0.0
210
0.0
220
0.0
230
1.0
 40
0.5
 41
1.570796326794895
 42
4.712388980384691
  0
ELLIPSE
  5
88
330
1F
100
AcDbEntity
  8
0
  6
CONTINUOUS
 62
     1
100
AcDbEllipse
 10
141.8854140842
 20
158.7397907542
 30
0.0
 11
12.9903810567666
 21
7.500000000000016
 31
0.0
210
0.0
220
0.0
230
1.0
 40
0.5
 41
2.617993877991489
 42
3.66519142918809
  0
ELLIPSE
  5
89
330
1F
100
AcDbEntity
  8
0
  6
CONTINUOUS
 62
     5
100
AcDbEllipse
 10
141.8854140842
 20
158.7397907542
 30
0.0
 11
-12.99038105676661
 21
-7.499999999999944
 31
0.0
210
0.0
220
0.0
230
1.0
 40
0.5
 41
0.5235987755983018
 42
5.759586531581292
  0
ELLIPSE
  5
8A
330
1F
100
AcDbEntity
  8
0
  6
CONTINUOUS
 62
     1
100
AcDbEllipse
 10
178.5904303301
 20
139.6263249731
 30
0.0
 11
12.99038105676658
 21
7.499999999999992
 31
0.0
210
0.0
220
0.0
230
1.0
 40
0.5
 41
2.094395102393201
 42
3.141592653589793
  0
ELLIPSE
  5
8B
330
1F
100
AcDbEntity
  8
0
  6
CONTINUOUS
 62
     5
100
AcDbEllipse
 10
178.5904303301
 20
139.6263249731
 30
0.0
 11
-12.99038105676658
 21
-7.500000000000012
 31
0.0
210
0.0
220
0.0
230
1.0
 40
0.5
 41
0.0
 42
5.235987755982988
  0
ELLIPSE
  5
8C
330
1F
100
AcDbEntity
  8
0
  6
CONTINUOUS
 62
     1
100
AcDbEllipse
 10
141.8854140842
 20
139.6263249731
 30
0.0
 11
12.99038105676658
 21
7.50000000000001
 31
0.0
210
0.0
220
0.0
230
1.0
 40
0.5
 41
1.570796326794896
 42
2.617993877991492
  0
ELLIPSE
  5
8D
330
1F
100
AcDbEntity
  8
0
  6
CONTINUOUS
 62
     5
100
AcDbEllipse
 10
141.8854140842
 20
139.6263249731
 30
0.0
 11
-12.99038105676658
 21
-7.499999999999992
 31
0.0
210
0.0
220
0.0
230
1.0
 40
0.5
 41
5.759586531581289
 42
10.99557428756427
  0
ELLIPSE
  5
8E
330
1F
100
AcDbEntity
  8
0
  6
CONTINUOUS
 62
     7
100
AcDbEllipse
 10
28.5404768706
 20
113.7340172782
 30
0.0
 11
9.184850993605150E-16
 21
-15.0
 31
0.0
210
0.0
220
0.0
230
1.0
 40
0.5
 41
0.0
 42
6.283185307179586
  0
ELLIPSE
  5
8F
330
1F
100
AcDbEntity
  8
0
  6
CONTINUOUS
 62
     1
100
AcDbEllipse
 10
65.7745011152
 20
113.1589775925
 30
0.0
 11
9.184850993605150E-16
 21
-15.0
 31
0.0
210
0.0
220
0.0
230
1.0
 40
0.5
 41
2.617993877991494
 42
3.665191429188092
  0
ELLIPSE
  5
90
330
1F
100
AcDbEntity
  8
0
  6
CONTINUOUS
 62
     5
100
AcDbEllipse
 10
65.7745011152
 20
113.1589775925
 30
0.0
 11
-9.184850993605150E-16
 21
15.0
 31
0.0
210
0.0
220
0.0
230
1.0
 40
0.5
 41
0.5235987755982983
 42
5.759586531581288
  0
ELLIPSE
  5
91
330
1F
100
AcDbEntity
  8
0
  6
CONTINUOUS
 62
     1
100
AcDbEllipse
 10
29.0694848693
 20
80.6791092507
 30
0.0
 11
9.184850993605150E-16
 21
-15.0
 31
0.0
210
0.0
220
0.0
230
1.0
 40
0.5
 41
3.141592653589793
 42
4.188790204786389
  0
ELLIPSE
  5
92
330
1F
100
AcDbEntity
  8
0
  6
CONTINUOUS
 62
     5
100
AcDbEllipse
 10
29.0694848693
 20
80.6791092507
 30
0.0
 11
-9.184850993605142E-16
 21
14.99999999999999
 31
0.0
210
0.0
220
0.0
230
1.0
 40
0.5
 41
1.047197551196597
 42
6.283185307179586
  0
ELLIPSE
  5
93
330
1F
100
AcDbEntity
  8
0
  6
CONTINUOUS
 62
     1
100
AcDbEllipse
 10
65.7745011152
 20
80.6791092507
 30
0.0
 11
9.184850993605150E-16
 21
-15.0
 31
0.0
210
0.0
220
0.0
230
1.0
 40
0.5
 41
3.66519142918809
 42
4.71238898038469
  0
ELLIPSE
  5
94
330
1F
100
AcDbEntity
  8
0
  6
CONTINUOUS
 62
     5
100
AcDbEllipse
 10
65.7745011152
 20
80.6791092507
 30
0.0
 11
9.184850993605150E-16
 21
-15.0
 31
0.0
210
0.0
220
0.0
230
1.0
 40
0.5
 41
-1.570796326794897
 42
3.66519142918809
  0
ELLIPSE
  5
95
330
1F
100
AcDbEntity
  8
0
  6
CONTINUOUS
 62
     1
100
AcDbEllipse
 10
104.2102977695
 20
113.1589775925
 30
0.0
 11
9.184850993605150E-16
 21
-15.0
 31
0.0
210
0.0
220
0.0
230
1.0
 40
0.5
 41
0.0
 42
3.141592653589793
  0
ELLIPSE
  5
96
330
1F
100
AcDbEntity
  8
0
  6
CONTINUOUS
 62
     5
100
AcDbEllipse
 10
104.2102977695
 20
113.1589775925
 30
0.0
 11
9.184850993605158E-16
 21
-15.00000000000001
 31
0.0
210
0.0
220
0.0
230
1.0
 40
0.5
 41
3.141592653589793
 42
6.283185307179586
  0
ELLIPSE
  5
97
330
1F
100
AcDbEntity
  8
0
  6
CONTINUOUS
 62
     5
100
AcDbEllipse
 10
104.2102977695
 20
81.4831163827
 30
0.0
 11
-9.184850993605150E-16
 21
15.0
 31
0.0
210
0.0
220
0.0
230
1.0
 40
0.5
 41
1.570796326794897
 42
4.71238898038469
  0
ELLIPSE
  5
98
330
1F
100
AcDbEntity
  8
0
  6
CONTINUOUS
 62
     1
100
AcDbEllipse
 10
104.2102977695
 20
81.4831163827
 30
0.0
 11
9.184850993605150E-16
 21
-15.0
 31
0.0
210
0.0
220
0.0
230
1.0
 40
0.5
 41
1.570796326794897
 42
4.71238898038469
  0
ELLIPSE
  5
99
330
1F
100
AcDbEntity
  8
0
  6
CONTINUOUS
 62
     1
100
AcDbEllipse
 10
141.8854140842
 20
113.1589775925
 30
0.0
 11
-9.184850993605150E-16
 21
15.0
 31
0.0
210
0.0
220
0.0
230
1.0
 40
0.5
 41
2.617993877991491
 42
3.665191429188092
  0
ELLIPSE
  5
9A
330
1F
100
AcDbEntity
  8
0
  6
CONTINUOUS
 62
     5
100
AcDbEllipse
 10
141.8854140842
 20
113.1589775925
 30
0.0
 11
9.184850993605150E-16
 21
-15.0
 31
0.0
210
0.0
220
0.0
230
1.0
 40
0.5
 41
0.5235987755982965
 42
5.759586531581284
  0
ELLIPSE
  5
9B
330
1F
100
AcDbEntity
  8
0
  6
CONTINUOUS
 62
     1
100
AcDbEllipse
 10
178.5904303301
 20
80.6791092507
 30
0.0
 11
9.184850993605150E-16
 21
-15.0
 31
0.0
210
0.0
220
0.0
230
1.0
 40
0.5
 41
5.23598775598299
 42
6.283185307179586
  0
ELLIPSE
  5
9C
330
1F
100
AcDbEntity
  8
0
  6
CONTINUOUS
 62
     5
100
AcDbEllipse
 10
178.5904303301
 20
80.6791092507
 30
0.0
 11
9.184850993605154E-16
 21
-15.00000000000001
 31
0.0
210
0.0
220
0.0
230
1.0
 40
0.5
 41
0.0
 42
5.235987755982991
  0
ELLIPSE
  5
9D
330
1F
100
AcDbEntity
  8
0
  6
CONTINUOUS
 62
     1
100
AcDbEllipse
 10
141.8854140842
 20
80.6791092507
 30
0.0
 11
9.184850993605150E-16
 21
-15.0
 31
0.0
210
0.0
220
0.0
230
1.0
 40
0.5
 41
4.71238898038469
 42
5.759586531581285
  0
ELLIPSE
  5
9E
330
1F
100
AcDbEntity
  8
0
  6
CONTINUOUS
 62
     5
100
AcDbEllipse
 10
141.8854140842
 20
80.6791092507
 30
0.0
 11
-9.184850993605150E-16
 21
15.0
 31
0.0
210
0.0
220
0.0
230
1.0
 40
0.5
 41
2.617993877991494
 42
7.853981633974483
  0
ELLIPSE
  5
9F
330
1F
100
AcDbEntity
  8
0
  6
CONTINUOUS
 62
     7
100
AcDbEllipse
 10
28.5404768706
 20
49.3791639952
 30
0.0
 11
7.500000000000004
 21
-12.99038105676658
 31
0.0
210
0.0
220
0.0
230
1.0
 40
0.5
 41
0.0
 42
6.283185307179586
  0
ELLIPSE
  5
A0
330
1F
100
AcDbEntity
  8
0
  6
CONTINUOUS
 62
     1
100
AcDbEllipse
 10
65.7745011152
 20
48.8041243095
 30
0.0
 11
7.499999999999948
 21
-12.9903810567666
 31
0.0
210
0.0
220
0.0
230
1.0
 40
0.5
 41
2.617993877991495
 42
3.665191429188096
  0
ELLIPSE
  5
A1
330
1F
100
AcDbEntity
  8
0
  6
CONTINUOUS
 62
     5
100
AcDbEllipse
 10
65.7745011152
 20
48.8041243095
 30
0.0
 11
-7.500000000000004
 21
12.99038105676658
 31
0.0
210
0.0
220
0.0
230
1.0
 40
0.5
 41
0.5235987755982956
 42
5.759586531581279
  0
ELLIPSE
  5
A2
330
1F
100
AcDbEntity
  8
0
  6
CONTINUOUS
 62
     1
100
AcDbEllipse
 10
29.0694848693
 20
20.9670308291
 30
0.0
 11
7.499999999999983
 21
-12.99038105676658
 31
0.0
210
0.0
220
0.0
230
1.0
 40
0.5
 41
3.141592653589793
 42
4.18879020478639
  0
ELLIPSE
  5
A3
330
1F
100
AcDbEntity
  8
0
  6
CONTINUOUS
 62
     5
100
AcDbEllipse
 10
29.0694848693
 20
20.9670308291
 30
0.0
 11
-7.499999999999996
 21
12.9903810567666
 31
0.0
210
0.0
220
0.0
230
1.0
 40
0.5
 41
1.047197551196598
 42
6.283185307179586
  0
ELLIPSE
  5
A4
330
1F
100
AcDbEntity
  8
0
  6
CONTINUOUS
 62
     1
100
AcDbEllipse
 10
65.7745011152
 20
20.9670308291
 30
0.0
 11
7.500000000000002
 21
-12.99038105676659
 31
0.0
210
0.0
220
0.0
230
1.0
 40
0.5
 41
3.66519142918809
 42
4.712388980384688
  0
ELLIPSE
  5
A5
330
1F
100
AcDbEntity
  8
0
  6
CONTINUOUS
 62
     5
100
AcDbEllipse
 10
65.7745011152
 20
20.9670308291
 30
0.0
 11
7.500000000000004
 21
-12.99038105676658
 31
0.0
210
0.0
220
0.0
230
1.0
 40
0.5
 41
-1.570796326794897
 42
3.665191429188091
  0
ELLIPSE
  5
A6
330
1F
100
AcDbEntity
  8
0
  6
CONTINUOUS
 62
     1
100
AcDbEllipse
 10
104.2102977695
 20
48.8041243095
 30
0.0
 11
7.500000000000013
 21
-12.99038105676658
 31
0.0
210
0.0
220
0.0
230
1.0
 40
0.5
 41
0.0000000000000003
 42
3.141592653589793
  0
ELLIPSE
  5
A7
330
1F
100
AcDbEntity
  8
0
  6
CONTINUOUS
 62
     5
100
AcDbEllipse
 10
104.2102977695
 20
48.8041243095
 30
0.0
 11
7.499999999999958
 21
-12.99038105676659
 31
0.0
210
0.0
220
0.0
230
1.0
 40
0.5
 41
3.141592653589791
 42
6.283185307179584
  0
ELLIPSE
  5
A8
330
1F
100
AcDbEntity
  8
0
  6
CONTINUOUS
 62
     5
100
AcDbEllipse
 10
104.2102977695
 20
21.771037961
 30
0.0
 11
-7.500000000000007
 21
12.99038105676657
 31
0.0
210
0.0
220
0.0
230
1.0
 40
0.5
 41
1.570796326794895
 42
4.712388980384688
  0
ELLIPSE
  5
A9
330
1F
100
AcDbEntity
  8
0
  6
CONTINUOUS
 62
     1
100
AcDbEllipse
 10
104.2102977695
 20
21.771037961
 30
0.0
 11
7.499999999999999
 21
-12.99038105676659
 31
0.0
210
0.0
220
0.0
230
1.0
 40
0.5
 41
1.570796326794897
 42
4.71238898038469
  0
ELLIPSE
  5
AA
330
1F
100
AcDbEntity
  8
0
  6
CONTINUOUS
 62
     1
100
AcDbEllipse
 10
141.8854140842
 20
48.8041243095
 30
0.0
 11
-7.50000000000002
 21
12.99038105676659
 31
0.0
210
0.0
220
0.0
230
1.0
 40
0.5
 41
2.617993877991492
 42
3.66519142918809
  0
ELLIPSE
  5
AB
330
1F
100
AcDbEntity
  8
0
  6
CONTINUOUS
 62
     5
100
AcDbEllipse
 10
141.8854140842
 20
48.8041243095
 30
0.0
 11
7.49999999999998
 21
-12.9903810567666
 31
0.0
210
0.0
220
0.0
230
1.0
 40
0.5
 41
0.5235987755983063
 42
5.759586531581286
  0
ELLIPSE
  5
AC
330
1F
100
AcDbEntity
  8
0
  6
CONTINUOUS
 62
     1
100
AcDbEllipse
 10
178.5904303301
 20
20.9670308291
 30
0.0
 11
7.500000000000004
 21
-12.99038105676658
 31
0.0
210
0.0
220
0.0
230
1.0
 40
0.5
 41
5.235987755982985
 42
6.283185307179586
  0
ELLIPSE
  5
AD
330
1F
100
AcDbEntity
  8
0
  6
CONTINUOUS
 62
     5
100
AcDbEllipse
 10
178.5904303301
 20
20.9670308291
 30
0.0
 11
7.500000000000035
 21
-12.99038105676657
 31
0.0
210
0.0
220
0.0
230
1.0
 40
0.5
 41
0.0000000000000027
 42
5.235987755982983
  0
ELLIPSE
  5
AE
330
1F
100
AcDbEntity
  8
0
  6
CONTINUOUS
 62
     1
100
AcDbEllipse
 10
141.8854140842
 20
20.9670308291
 30
0.0
 11
7.500000000000057
 21
-12.99038105676656
 31
0.0
210
0.0
220
0.0
230
1.0
 40
0.5
 41
4.712388980384685
 42
5.759586531581282
  0
ELLIPSE
  5
AF
330
1F
100
AcDbEntity
  8
0
  6
CONTINUOUS
 62
     5
100
AcDbEllipse
 10
141.8854140842
 20
20.9670308291
 30
0.0
 11
-7.500000000000013
 21
12.99038105676658
 31
0.0
210
0.0
220
0.0
230
1.0
 40
0.5
 41
2.617993877991493
 42
7.853981633974482
  0
ARC
  5
B0
330
1F
100
AcDbEntity
  8
0
  6
CONTINUOUS
 62
     1
100
AcDbCircle
 10
149.3008378847
 20
251.5965272828
 30
0.0
 40
7.500000000000014
100
AcDbArc
 50
90.0
 51
270.0
  0
ARC
  5
B1
330
1F
100
AcDbEntity
  8
0
  6
CONTINUOUS
 62
     5
100
AcDbCircle
 10
149.3008378847
 20
251.5965272828
 30
0.0
 40
7.5
100
AcDbArc
 50
270.0
 51
90.0
  0
ARC
  5
B2
330
1F
100
AcDbEntity
  8
0
  6
CONTINUOUS
 62
     1
100
AcDbCircle
 10
169.388028164
 20
251.5965272828
 30
0.0
 40
7.5
100
AcDbArc
 50
180.0
 51
0.0
  0
ARC
  5
B3
330
1F
100
AcDbEntity
  8
0
  6
CONTINUOUS
 62
     5
100
AcDbCircle
 10
169.388028164
 20
251.5965272828
 30
0.0
 40
7.5
100
AcDbArc
 50
0.0
 51
180.0
  0
INSERT
  5
B5
330
1F
100
AcDbEntity
  8
0
100
AcDbBlockReference
  2
SE
 10
0.0
 20
0.0
 30
0.0
  0
INSERT
  5
C1
330
1F
100
AcDbEntity
  8
0
100
AcDbBlockReference
  2
SE2
 10
0.0
 20
0.0
 30
0.0
  0
ENDSEC
  0
SECTION
  2
OBJECTS
  0
DICTIONARY
  5
C
330
0
100
AcDbDictionary
  3
ACAD_GROUP
350
D
  3
ACAD_LAYOUT
350
1A
  3
ACAD_MATERIAL
350
43
  3
ACAD_MLEADERSTYLE
350
5B
  3
ACAD_MLINESTYLE
350
17
  3
ACAD_PLOTSETTINGS
350
19
  3
ACAD_SCALELIST
350
47
  3
ACAD_VISUALSTYLE
350
2A
  3
ACDBHEADERROUNDTRIPXREC
350
CA
  3
ACDBVARIABLEDICTIONARY
350
EB
  3
DWGPROPS
350
F6
  0
DICTIONARY
  5
F7
330
8
100
AcDbDictionary
280
     1
  3
ACAD_XREC_ROUNDTRIP
360
F8
  0
DICTIONARY
  5
D
102
{ACAD_REACTORS
330
C
102
}
330
C
100
AcDbDictionary
  0
DICTIONARY
  5
1A
102
{ACAD_REACTORS
330
C
102
}
330
C
100
AcDbDictionary
  0
DICTIONARY
  5
43
102
{ACAD_REACTORS
330
C
102
}
330
C
100
AcDbDictionary
  3
BYBLOCK
350
45
  3
BYLAYER
350
44
  3
GLOBAL
350
46
  0
DICTIONARY
  5
5B
102
{ACAD_REACTORS
330
C
102
}
330
C
100
AcDbDictionary
  3
STANDARD
350
5C
  0
DICTIONARY
  5
17
102
{ACAD_REACTORS
330
C
102
}
330
C
100
AcDbDictionary
  3
STANDARD
350
18
  0
DICTIONARY
  5
19
102
{ACAD_REACTORS
330
C
102
}
330
C
100
AcDbDictionary
  0
DICTIONARY
  5
47
102
{ACAD_REACTORS
330
C
102
}
330
C
100
AcDbDictionary
  3
A0
350
48
  3
A1
350
49
  3
A2
350
4A
  3
A3
350
4B
  3
A4
350
4C
  3
A5
350
4D
  3
A6
350
4E
  3
A7
350
4F
  3
A8
350
50
  3
A9
350
51
  3
B0
350
52
  3
B1
350
53
  3
B2
350
54
  3
B3
350
55
  3
B4
350
56
  3
B5
350
57
  3
B6
350
58
  0
DICTIONARY
  5
2A
102
{ACAD_REACTORS
330
C
102
}
330
C
100
AcDbDictionary
  3
2DWIREFRAME
350
2F
  3
BASIC
350
32
  3
BRIGHTEN
350
36
  3
COLORCHANGE
350
3A
  3
CONCEPTUAL
350
34
  3
DIM
350
35
  3
EDGECOLOROFF
350
3D
  3
FACEPATTERN
350
39
  3
FLAT
350
2B
  3
FLATWITHEDGES
350
2C
  3
GOURAUD
350
2D
  3
GOURAUDWITHEDGES
350
2E
  3
HIDDEN
350
31
  3
JITTEROFF
350
3B
  3
LINEPATTERN
350
38
  3
OVERHANGOFF
350
3C
  3
REALISTIC
350
33
  3
SHADED
350
42
  3
SHADED_WITH_EDGES
350
41
  3
SHADES_OF_GRAY
350
3E
  3
SKETCHY
350
3F
  3
THICKEN
350
37
  3
WIREFRAME
350
30
  3
X-RAY
350
40
  0
DICTIONARY
  5
CA
102
{ACAD_REACTORS
330
C
102
}
330
C
100
AcDbDictionary
  3
CEPSNID
350
D4
  3
CEPSNTYPE
350
D3
  3
DIMSTYLEDATA
350
EA
  3
FINGERPRINTGUID
350
D5
  3
HYPERLINKBASE
350
CD
  3
INSUNITS
350
D2
  3
LAYOUTDICT
350
CF
  3
LWETCUNION
350
D1
  3
PLOTSETDICT
350
D0
  3
PSVPSCALE
350
D7
  3
PUCSBASE
350
DA
  3
PUCSORGBACK
350
E0
  3
PUCSORGBOTTOM
350
DC
  3
PUCSORGFRONT
350
DF
  3
PUCSORGLEFT
350
DD
  3
PUCSORGRIGHT
350
DE
  3
PUCSORGTOP
350
DB
  3
PUCSORTHOREF
350
D8
  3
PUCSORTHOVIEW
350
D9
  3
STYLESHEET
350
CE
  3
TSTACKALIGN
350
CB
  3
TSTACKSIZE
350
CC
  3
UCSBASE
350
E3
  3
UCSORGBACK
350
E9
  3
UCSORGBOTTOM
350
E5
  3
UCSORGFRONT
350
E8
  3
UCSORGLEFT
350
E6
  3
UCSORGRIGHT
350
E7
  3
UCSORGTOP
350
E4
  3
UCSORTHOREF
350
E1
  3
UCSORTHOVIEW
350
E2
  3
VERSIONGUID
350
D6
  0
DICTIONARY
  5
EB
102
{ACAD_REACTORS
330
C
102
}
330
C
100
AcDbDictionary
  3
CANNOSCALE
350
F9
  3
CENTEREXE
350
F2
  3
CENTERLTYPEFILE
350
F3
  3
CMLEADERSTYLE
350
ED
  3
CTABLESTYLE
350
EC
  3
DIMASSOC
350
F4
  3
HIDETEXT
350
F5
  3
MSLTSCALE
350
FA
  3
PSOLHEIGHT
350
EF
  3
PSOLWIDTH
350
EE
  0
XRECORD
  5
F6
102
{ACAD_REACTORS
330
C
102
}
330
C
100
AcDbXrecord
  1
DWGPROPS COOKIE
  2

  3

  4

  6

  7

  8
tk645
  9

300
=
301
=
302
=
303
=
304
=
305
=
306
=
307
=
308
=
309
=
 40
0.0
 41
2459917.289564977
 42
2459917.289565347
  1

 90
        0
  0
XRECORD
  5
F8
102
{ACAD_REACTORS
330
F7
102
}
330
F7
100
AcDbXrecord
102
VTR_0.000_0.000_1.000_1.000_VISUALSTYLE
340
2F
102
VTR_0.000_0.000_1.000_1.000_GRIDDISPLAY
 70
     3
102
VTR_0.000_0.000_1.000_1.000_GRIDMAJOR
 70
     5
102
VTR_0.000_0.000_1.000_1.000_DEFAULTLIGHTING
280
     1
102
VTR_0.000_0.000_1.000_1.000_DEFAULTLIGHTINGTYPE
 70
     1
102
VTR_0.000_0.000_1.000_1.000_BRIGHTNESS
141
0.0
102
VTR_0.000_0.000_1.000_1.000_CONTRAST
142
0.0
  0
MATERIAL
  5
45
102
{ACAD_REACTORS
330
43
102
}
102
{ACAD_XDICTIONARY
360
FD
102
}
330
43
100
AcDbMaterial
  1
BYBLOCK
  0
MATERIAL
  5
44
102
{ACAD_REACTORS
330
43
102
}
102
{ACAD_XDICTIONARY
360
FB
102
}
330
43
100
AcDbMaterial
  1
BYLAYER
  0
MATERIAL
  5
46
102
{ACAD_REACTORS
330
43
102
}
102
{ACAD_XDICTIONARY
360
FF
102
}
330
43
100
AcDbMaterial
  1
GLOBAL
  0
ACAD_PROXY_OBJECT
  5
5C
102
{ACAD_REACTORS
330
5B
102
}
330
5B
100
AcDbProxyObject
 90
      499
 91
      505
 93
      610
310
40901902A4063FBFFFFFE0000000000000020400000000000020404214DD185B99185C990000000000000104090141901A00000000000004100000000000000041025764000000000000039000
340
14
340
0
340
11
340
0
 94
        0
1001
ACAD_MLEADERVER
1070
     2
  0
MLINESTYLE
  5
18
102
{ACAD_REACTORS
330
17
102
}
330
17
100
AcDbMlineStyle
  2
Standard
 70
     0
  3

 62
   256
 51
90.0
 52
90.0
 71
     2
 49
0.5
 62
   256
  6
BYLAYER
 49
-0.5
 62
   256
  6
BYLAYER
  0
ACAD_PROXY_OBJECT
  5
48
102
{ACAD_REACTORS
330
47
102
}
330
47
100
AcDbProxyObject
 90
      499
 91
      503
 93
       41
310
903313A31580
  0
ACAD_PROXY_OBJECT
  5
49
102
{ACAD_REACTORS
330
47
102
}
330
47
100
AcDbProxyObject
 90
      499
 91
      503
 93
      105
310
903313A324000000000000004000
  0
ACAD_PROXY_OBJECT
  5
4A
102
{ACAD_REACTORS
330
47
102
}
330
47
100
AcDbProxyObject
 90
      499
 91
      503
 93
      105
310
903313A344000000000000104000
  0
ACAD_PROXY_OBJECT
  5
4B
102
{ACAD_REACTORS
330
47
102
}
330
47
100
AcDbProxyObject
 90
      499
 91
      503
 93
      105
310
903313A354000000000000144000
  0
ACAD_PROXY_OBJECT
  5
4C
102
{ACAD_REACTORS
330
47
102
}
330
47
100
AcDbProxyObject
 90
      499
 91
      503
 93
      105
310
903313A384000000000000204000
  0
ACAD_PROXY_OBJECT
  5
4D
102
{ACAD_REACTORS
330
47
102
}
330
47
100
AcDbProxyObject
 90
      499
 91
      503
 93
      113
310
904313A31304000000000000244000
  0
ACAD_PROXY_OBJECT
  5
4E
102
{ACAD_REACTORS
330
47
102
}
330
47
100
AcDbProxyObject
 90
      499
 91
      503
 93
      113
310
904313A31364000000000000304000
  0
ACAD_PROXY_OBJECT
  5
4F
102
{ACAD_REACTORS
330
47
102
}
330
47
100
AcDbProxyObject
 90
      499
 91
      503
 93
      113
310
904313A32304000000000000344000
  0
ACAD_PROXY_OBJECT
  5
50
102
{ACAD_REACTORS
330
47
102
}
330
47
100
AcDbProxyObject
 90
      499
 91
      503
 93
      113
310
904313A333040000000000003E4000
  0
ACAD_PROXY_OBJECT
  5
51
102
{ACAD_REACTORS
330
47
102
}
330
47
100
AcDbProxyObject
 90
      499
 91
      503
 93
      113
310
904313A34304000000000000444000
  0
ACAD_PROXY_OBJECT
  5
52
102
{ACAD_REACTORS
330
47
102
}
330
47
100
AcDbProxyObject
 90
      499
 91
      503
 93
      113
310
904313A35304000000000000494000
  0
ACAD_PROXY_OBJECT
  5
53
102
{ACAD_REACTORS
330
47
102
}
330
47
100
AcDbProxyObject
 90
      499
 91
      503
 93
      121
310
905313A3130304000000000000594000
  0
ACAD_PROXY_OBJECT
  5
54
102
{ACAD_REACTORS
330
47
102
}
330
47
100
AcDbProxyObject
 90
      499
 91
      503
 93
      105
310
903323A310000000000000010100
  0
ACAD_PROXY_OBJECT
  5
55
102
{ACAD_REACTORS
330
47
102
}
330
47
100
AcDbProxyObject
 90
      499
 91
      503
 93
      105
310
903343A310000000000000410100
  0
ACAD_PROXY_OBJECT
  5
56
102
{ACAD_REACTORS
330
47
102
}
330
47
100
AcDbProxyObject
 90
      499
 91
      503
 93
      105
310
903383A310000000000000810100
  0
ACAD_PROXY_OBJECT
  5
57
102
{ACAD_REACTORS
330
47
102
}
330
47
100
AcDbProxyObject
 90
      499
 91
      503
 93
      113
310
90431303A310000000000000910100
  0
ACAD_PROXY_OBJECT
  5
58
102
{ACAD_REACTORS
330
47
102
}
330
47
100
AcDbProxyObject
 90
      499
 91
      503
 93
      121
310
9053130303A310000000000001650100
  0
ACAD_PROXY_OBJECT
  5
2F
102
{ACAD_REACTORS
330
2A
102
}
330
2A
100
AcDbProxyObject
 90
      499
 91
      501
 93
      436
310
42CC9915DA5C99599C985B595049028333333333333E33F0000000000000F90107901411070040501600405405064090741402480A0340
1001
ACAD
1000
AcDbSavedByObjectVersion
1070
     0
  0
ACAD_PROXY_OBJECT
  5
32
102
{ACAD_REACTORS
330
2A
102
}
330
2A
100
AcDbProxyObject
 90
      499
 91
      501
 93
      388
310
4150985CDA58D07406404333333333333E33F0000000000000F90107A41107004050150841D405064090741402480A0350
1001
ACAD
1000
AcDbSavedByObjectVersion
1070
     0
  0
ACAD_PROXY_OBJECT
  5
36
102
{ACAD_REACTORS
330
2A
102
}
330
2A
100
AcDbProxyObject
 90
      499
 91
      501
 93
      428
310
42109C9A59DA1D195B90C409028333333333333E33F0000000000000F9010790141107004050150841D405064090741402480A029950
1001
ACAD
1000
AcDbSavedByObjectVersion
1070
     0
  0
ACAD_PROXY_OBJECT
  5
3A
102
{ACAD_REACTORS
330
2A
102
}
330
2A
100
AcDbProxyObject
 90
      499
 91
      501
 93
      452
310
42D0DBDB1BDC90DA185B99D95104090240C333333333333E33F0000000000000F90108901411070040501508421405064090741402480A0350
1001
ACAD
1000
AcDbSavedByObjectVersion
1070
     0
  0
ACAD_PROXY_OBJECT
  5
34
102
{ACAD_REACTORS
330
2A
102
}
330
2A
100
AcDbProxyObject
 90
      499
 91
      501
 93
      500
310
4290DBDB98D95C1D1D585B10940D028333333333333E33F0000000000000F90107902409070040501000000000018199010841D405064090740C02480A0340
1001
ACAD
1000
AcDbSavedByObjectVersion
1070
     0
  0
ACAD_PROXY_OBJECT
  5
35
102
{ACAD_REACTORS
330
2A
102
}
330
2A
100
AcDbProxyObject
 90
      499
 91
      501
 93
      412
310
40D11A5B50B409028333333333333E33F0000000000000F9010790141107004050150841D405064090741402480A02677FFFFFD0
1001
ACAD
1000
AcDbSavedByObjectVersion
1070
     0
  0
ACAD_PROXY_OBJECT
  5
3D
102
{ACAD_REACTORS
330
2A
102
}
330
2A
100
AcDbProxyObject
 90
      499
 91
      501
 93
      452
310
43115919D950DBDB1BDC93D999916409028333333333333E33F0000000000000F9010790141107004050150841D405064090741402480A0350
1001
ACAD
1000
AcDbSavedByObjectVersion
1070
     0
  0
ACAD_PROXY_OBJECT
  5
39
102
{ACAD_REACTORS
330
2A
102
}
330
2A
100
AcDbProxyObject
 90
      499
 91
      501
 93
      444
310
42D19858D95C185D1D195C9B90F409028333333333333E33F0000000000000F9010790141107004050150841D405064090741402480A0350
1001
ACAD
1000
AcDbSavedByObjectVersion
1070
     0
  0
ACAD_PROXY_OBJECT
  5
2B
102
{ACAD_REACTORS
330
2A
102
}
330
2A
100
AcDbProxyObject
 90
      499
 91
      501
 93
      380
310
41119B185D240901404333333333333E33F0000000000000F9010740A907004050150841D405064090741402480A1B50
1001
ACAD
1000
AcDbSavedByObjectVersion
1070
     0
  0
ACAD_PROXY_OBJECT
  5
2C
102
{ACAD_REACTORS
330
2A
102
}
330
2A
100
AcDbProxyObject
 90
      499
 91
      501
 93
      468
310
43519B185D15DA5D1A115919D95CD0140901404333333333333E33F0000000000000F90107409019070040501600405405064090741402480A1B50
1001
ACAD
1000
AcDbSavedByObjectVersion
1070
     0
  0
ACAD_PROXY_OBJECT
  5
2D
102
{ACAD_REACTORS
330
2A
102
}
330
2A
100
AcDbProxyObject
 90
      499
 91
      501
 93
      404
310
41D1DBDD5C985D5910240902404333333333333E33F0000000000000F9010740A9070040501641D405064090741402480A1B50
1001
ACAD
1000
AcDbSavedByObjectVersion
1070
     0
  0
ACAD_PROXY_OBJECT
  5
2E
102
{ACAD_REACTORS
330
2A
102
}
330
2A
100
AcDbProxyObject
 90
      499
 91
      501
 93
      492
310
4411DBDD5C985D5915DA5D1A115919D95CD0340902404333333333333E33F0000000000000F90107409019070040501600405405064090741402480A1B50
1001
ACAD
1000
AcDbSavedByObjectVersion
1070
     0
  0
ACAD_PROXY_OBJECT
  5
31
102
{ACAD_REACTORS
330
2A
102
}
330
2A
100
AcDbProxyObject
 90
      499
 91
      501
 93
      476
310
41921A5919195B90640502408333333333333E33F0000000000000F901079024090700405020000000000001110200405405064090740C02480A0340
1001
ACAD
1000
AcDbSavedByObjectVersion
1070
     0
  0
ACAD_PROXY_OBJECT
  5
3B
102
{ACAD_REACTORS
330
2A
102
}
330
2A
100
AcDbProxyObject
 90
      499
 91
      501
 93
      428
310
42529A5D1D195C93D999914409028333333333333E33F0000000000000F9010790141107004050150A41D405064090741402480A0350
1001
ACAD
1000
AcDbSavedByObjectVersion
1070
     0
  0
ACAD_PROXY_OBJECT
  5
38
102
{ACAD_REACTORS
330
2A
102
}
330
2A
100
AcDbProxyObject
 90
      499
 91
      501
 93
      444
310
42D31A5B995C185D1D195C9B90E409028333333333333E33F0000000000000F9010790141107004050750841D405064090741402483A0350
1001
ACAD
1000
AcDbSavedByObjectVersion
1070
     0
  0
ACAD_PROXY_OBJECT
  5
3C
102
{ACAD_REACTORS
330
2A
102
}
330
2A
100
AcDbProxyObject
 90
      499
 91
      501
 93
      444
310
42D3DD995C9A185B99D3D999915409028333333333333E33F0000000000000F9010790141107004050150941D405064090741402480A0350
1001
ACAD
1000
AcDbSavedByObjectVersion
1070
     0
  0
ACAD_PROXY_OBJECT
  5
33
102
{ACAD_REACTORS
330
2A
102
}
330
2A
100
AcDbProxyObject
 90
      499
 91
      501
 93
      428
310
425499585B1A5CDD1A58D08409038333333333333E33F0000000000000F9010740A907004050150800405405064090740C02480A1B40
1001
ACAD
1000
AcDbSavedByObjectVersion
1070
     0
  0
ACAD_PROXY_OBJECT
  5
42
102
{ACAD_REACTORS
330
2A
102
}
330
2A
100
AcDbProxyObject
 90
      499
 91
      501
 93
      420
310
4194DA1859195911B40902404333333333333E33F0000000000000F9010740A41107004050150800405405064090840C02480A0B40
1001
ACAD
1000
AcDbSavedByObjectVersion
1070
     0
  0
ACAD_PROXY_OBJECT
  5
41
102
{ACAD_REACTORS
330
2A
102
}
330
2A
100
AcDbProxyObject
 90
      499
 91
      501
 93
      516
310
4454DA18591959081DDA5D1A08195919D95CD1A40902404333333333333E33F0000000000000F901074090142907004050250800405405064090740C02480A0B40
1001
ACAD
1000
AcDbSavedByObjectVersion
1070
     0
  0
ACAD_PROXY_OBJECT
  5
3E
102
{ACAD_REACTORS
330
2A
102
}
330
2A
100
AcDbProxyObject
 90
      499
 91
      501
 93
      532
310
4394DA1859195CC81BD98811DC985E5174090240C333333333333E33F0000000000000F901079024090741D01000000000000111010841D405064090740C02480A0340
1001
ACAD
1000
AcDbSavedByObjectVersion
1070
     0
  0
ACAD_PROXY_OBJECT
  5
3F
102
{ACAD_REACTORS
330
2A
102
}
330
2A
100
AcDbProxyObject
 90
      499
 91
      501
 93
      476
310
41D4DAD95D18DA1E51840502408333333333333E33F0000000000000F901079024090741D01000000000000111010B41D405064090741802480A0340
1001
ACAD
1000
AcDbSavedByObjectVersion
1070
     0
  0
ACAD_PROXY_OBJECT
  5
37
102
{ACAD_REACTORS
330
2A
102
}
330
2A
100
AcDbProxyObject
 90
      499
 91
      501
 93
      412
310
41D51A1A58DAD95B90D409028333333333333E33F0000000000000F9010790141107004050150C41D405064090741402480A0350
1001
ACAD
1000
AcDbSavedByObjectVersion
1070
     0
  0
ACAD_PROXY_OBJECT
  5
30
102
{ACAD_REACTORS
330
2A
102
}
330
2A
100
AcDbProxyObject
 90
      499
 91
      501
 93
      420
310
4255DA5C99599C985B595059028333333333333E33F0000000000000F90107901411070040501600405405064090740C02480A0340
1001
ACAD
1000
AcDbSavedByObjectVersion
1070
     0
  0
ACAD_PROXY_OBJECT
  5
40
102
{ACAD_REACTORS
330
2A
102
}
330
2A
100
AcDbProxyObject
 90
      499
 91
      501
 93
      404
310
41560B54985E51940902404000000000000E03F0000000000000F9010740501907004050150841D405064090740C02480A1B40
1001
ACAD
1000
AcDbSavedByObjectVersion
1070
     0
  0
XRECORD
  5
D4
102
{ACAD_REACTORS
330
CA
102
}
330
CA
100
AcDbXrecord
340
0
  0
XRECORD
  5
D3
102
{ACAD_REACTORS
330
CA
102
}
330
CA
100
AcDbXrecord
 90
        0
  0
XRECORD
  5
EA
102
{ACAD_REACTORS
330
CA
102
}
330
CA
100
AcDbXrecord
1000
DSTYLE
1002
{
1070
   340
340
11
1002
}
  0
XRECORD
  5
D5
102
{ACAD_REACTORS
330
CA
102
}
330
CA
100
AcDbXrecord
  1
{304ef3bb-74a6-451c-afe7-b2bec515d8d0}
  0
XRECORD
  5
CD
102
{ACAD_REACTORS
330
CA
102
}
330
CA
100
AcDbXrecord
  1

  0
XRECORD
  5
D2
102
{ACAD_REACTORS
330
CA
102
}
330
CA
100
AcDbXrecord
 90
        4
  0
XRECORD
  5
CF
102
{ACAD_REACTORS
330
CA
102
}
330
CA
100
AcDbXrecord
340
1A
  0
XRECORD
  5
D1
102
{ACAD_REACTORS
330
CA
102
}
330
CA
100
AcDbXrecord
 90
    10781
  0
XRECORD
  5
D0
102
{ACAD_REACTORS
330
CA
102
}
330
CA
100
AcDbXrecord
340
19
  0
XRECORD
  5
D7
102
{ACAD_REACTORS
330
CA
102
}
330
CA
100
AcDbXrecord
 40
0.0
  0
XRECORD
  5
DA
102
{ACAD_REACTORS
330
CA
102
}
330
CA
100
AcDbXrecord
340
0
  0
XRECORD
  5
E0
102
{ACAD_REACTORS
330
CA
102
}
330
CA
100
AcDbXrecord
 10
0.0
 20
0.0
 30
0.0
  0
XRECORD
  5
DC
102
{ACAD_REACTORS
330
CA
102
}
330
CA
100
AcDbXrecord
 10
0.0
 20
0.0
 30
0.0
  0
XRECORD
  5
DF
102
{ACAD_REACTORS
330
CA
102
}
330
CA
100
AcDbXrecord
 10
0.0
 20
0.0
 30
0.0
  0
XRECORD
  5
DD
102
{ACAD_REACTORS
330
CA
102
}
330
CA
100
AcDbXrecord
 10
0.0
 20
0.0
 30
0.0
  0
XRECORD
  5
DE
102
{ACAD_REACTORS
330
CA
102
}
330
CA
100
AcDbXrecord
 10
0.0
 20
0.0
 30
0.0
  0
XRECORD
  5
DB
102
{ACAD_REACTORS
330
CA
102
}
330
CA
100
AcDbXrecord
 10
0.0
 20
0.0
 30
0.0
  0
XRECORD
  5
D8
102
{ACAD_REACTORS
330
CA
102
}
330
CA
100
AcDbXrecord
340
0
  0
XRECORD
  5
D9
102
{ACAD_REACTORS
330
CA
102
}
330
CA
100
AcDbXrecord
 70
     0
  0
XRECORD
  5
CE
102
{ACAD_REACTORS
330
CA
102
}
330
CA
100
AcDbXrecord
  1

  0
XRECORD
  5
CB
102
{ACAD_REACTORS
330
CA
102
}
330
CA
100
AcDbXrecord
 90
        1
  0
XRECORD
  5
CC
102
{ACAD_REACTORS
330
CA
102
}
330
CA
100
AcDbXrecord
 90
       70
  0
XRECORD
  5
E3
102
{ACAD_REACTORS
330
CA
102
}
330
CA
100
AcDbXrecord
340
0
  0
XRECORD
  5
E9
102
{ACAD_REACTORS
330
CA
102
}
330
CA
100
AcDbXrecord
 10
0.0
 20
0.0
 30
0.0
  0
XRECORD
  5
E5
102
{ACAD_REACTORS
330
CA
102
}
330
CA
100
AcDbXrecord
 10
0.0
 20
0.0
 30
0.0
  0
XRECORD
  5
E8
102
{ACAD_REACTORS
330
CA
102
}
330
CA
100
AcDbXrecord
 10
0.0
 20
0.0
 30
0.0
  0
XRECORD
  5
E6
102
{ACAD_REACTORS
330
CA
102
}
330
CA
100
AcDbXrecord
 10
0.0
 20
0.0
 30
0.0
  0
XRECORD
  5
E7
102
{ACAD_REACTORS
330
CA
102
}
330
CA
100
AcDbXrecord
 10
0.0
 20
0.0
 30
0.0
  0
XRECORD
  5
E4
102
{ACAD_REACTORS
330
CA
102
}
330
CA
100
AcDbXrecord
 10
0.0
 20
0.0
 30
0.0
  0
XRECORD
  5
E1
102
{ACAD_REACTORS
330
CA
102
}
330
CA
100
AcDbXrecord
340
0
  0
XRECORD
  5
E2
102
{ACAD_REACTORS
330
CA
102
}
330
CA
100
AcDbXrecord
 70
     0
  0
XRECORD
  5
D6
102
{ACAD_REACTORS
330
CA
102
}
330
CA
100
AcDbXrecord
  1
{FAEB1C32-E019-11D5-929B-00C0DF256EC4}
  0
DICTIONARYVAR
  5
F9
102
{ACAD_REACTORS
330
EB
102
}
330
EB
100
DictionaryVariables
280
     0
  1
1:1
  0
DICTIONARYVAR
  5
F2
102
{ACAD_REACTORS
330
EB
102
}
330
EB
100
DictionaryVariables
280
     0
  1
3.500000
  0
DICTIONARYVAR
  5
F3
102
{ACAD_REACTORS
330
EB
102
}
330
EB
100
DictionaryVariables
280
     0
  1
acadiso.lin
  0
DICTIONARYVAR
  5
ED
102
{ACAD_REACTORS
330
EB
102
}
330
EB
100
DictionaryVariables
280
     0
  1
Standard
  0
DICTIONARYVAR
  5
EC
102
{ACAD_REACTORS
330
EB
102
}
330
EB
100
DictionaryVariables
280
     0
  1
Standard
  0
DICTIONARYVAR
  5
F4
102
{ACAD_REACTORS
330
EB
102
}
330
EB
100
DictionaryVariables
280
     0
  1
2
  0
DICTIONARYVAR
  5
F5
102
{ACAD_REACTORS
330
EB
102
}
330
EB
100
DictionaryVariables
280
     0
  1
1
  0
DICTIONARYVAR
  5
FA
102
{ACAD_REACTORS
330
EB
102
}
330
EB
100
DictionaryVariables
280
     0
  1
1
  0
DICTIONARYVAR
  5
EF
102
{ACAD_REACTORS
330
EB
102
}
330
EB
100
DictionaryVariables
280
     0
  1
80.000000
  0
DICTIONARYVAR
  5
EE
102
{ACAD_REACTORS
330
EB
102
}
330
EB
100
DictionaryVariables
280
     0
  1
5.000000
  0
DICTIONARY
  5
FD
330
45
100
AcDbDictionary
280
     1
  3
ACAD_XREC_ROUNDTRIP
360
FE
  0
DICTIONARY
  5
FB
330
44
100
AcDbDictionary
280
     1
  3
ACAD_XREC_ROUNDTRIP
360
FC
  0
DICTIONARY
  5
FF
330
46
100
AcDbDictionary
280
     1
  3
ACAD_XREC_ROUNDTRIP
360
100
  0
XRECORD
  5
FE
102
{ACAD_REACTORS
330
FD
102
}
330
FD
100
AcDbXrecord
102
MATERIAL
148
0.0
149
0.0
149
0.0
 93
        0
 94
      127
282
     0
 72
     1
 77
     1
171
     1
175
     1
179
     1
273
     0
  0
XRECORD
  5
FC
102
{ACAD_REACTORS
330
FB
102
}
330
FB
100
AcDbXrecord
102
MATERIAL
148
0.0
149
0.0
149
0.0
 93
        0
 94
      127
282
     0
 72
     1
 77
     1
171
     1
175
     1
179
     1
273
     0
  0
XRECORD
  5
100
102
{ACAD_REACTORS
330
FF
102
}
330
FF
100
AcDbXrecord
102
MATERIAL
148
0.0
149
0.0
149
0.0
 93
        0
 94
      127
282
     0
 72
     1
 77
     1
171
     1
175
     1
179
     1
273
     0
  0
ENDSEC
  0
EOF
