  0
SECTION
  2
HEADER
  9
$ACADVER
  1
AC1014
  9
$HANDSEED
  5
FFFF
  9
$MEASUREMENT
 70
     1
  0
ENDSEC
  0
SECTION
  2
TABLES
  0
TABLE
  2
VPORT
  5
8
330
0
100
AcDbSymbolTable
 70
     4
  0
VPORT
  5
2E
330
8
100
AcDbSymbolTableRecord
100
AcDbViewportTableRecord
  2
*ACTIVE
 70
     0
 10
0.0
 20
0.0
 11
1.0
 21
1.0
 12
210.0
 22
148.5
 13
0.0
 23
0.0
 14
10.0
 24
10.0
 15
10.0
 25
10.0
 16
0.0
 26
0.0
 36
1.0
 17
0.0
 27
0.0
 37
0.0
 40
341.0
 41
1.24
 42
50.0
 43
0.0
 44
0.0
 50
0.0
 51
0.0
 71
     0
 72
   100
 73
     1
 74
     3
 75
     0
 76
     0
 77
     0
 78
     0
  0
ENDTAB
  0
TABLE
  2
LTYPE
  5
5
330
0
100
AcDbSymbolTable
 70
     1
  0
LTYPE
  5
14
330
5
100
AcDbSymbolTableRecord
100
AcDbLinetypeTableRecord
  2
BYBLOCK
 70
     0
  3

 72
    65
 73
     0
 40
0.0
  0
LTYPE
  5
15
330
5
100
AcDbSymbolTableRecord
100
AcDbLinetypeTableRecord
  2
BYLAYER
 70
     0
  3

 72
    65
 73
     0
 40
0.0
  0
LTYPE
  5
16
330
5
100
AcDbSymbolTableRecord
100
AcDbLinetypeTableRecord
  2
CONTINUOUS
 70
     0
  3
Solid line
 72
    65
 73
     0
 40
0.0
  0
ENDTAB
  0
TABLE
  2
LAYER
  5
2
100
AcDbSymbolTable
 70
2
  0
LAYER
  5
50
100
AcDbSymbolTableRecord
100
AcDbLayerTableRecord
  2
0
 70
0
  6
CONTINUOUS
  0
LAYER
  5
51
100
AcDbSymbolTableRecord
100
AcDbLayerTableRecord
  2
Layer_1
 70
0
  6
CONTINUOUS
  0
ENDTAB
  0
TABLE
  2
STYLE
  5
3
330
0
100
AcDbSymbolTable
 70
     1
  0
STYLE
  5
11
330
3
100
AcDbSymbolTableRecord
100
AcDbTextStyleTableRecord
  2
STANDARD
 70
     0
 40
0.0
 41
1.0
 50
0.0
 71
     0
 42
2.5
  3
txt
  4

  0
ENDTAB
  0
TABLE
  2
VIEW
  5
6
330
0
100
AcDbSymbolTable
 70
     0
  0
ENDTAB
  0
TABLE
  2
UCS
  5
7
330
0
100
AcDbSymbolTable
 70
     0
  0
ENDTAB
  0
TABLE
  2
APPID
  5
9
330
0
100
AcDbSymbolTable
 70
     2
  0
APPID
  5
12
330
9
100
AcDbSymbolTableRecord
100
AcDbRegAppTableRecord
  2
ACAD
 70
     0
  0
ENDTAB
  0
TABLE
  2
DIMSTYLE
  5
A
330
0
100
AcDbSymbolTable
 70
     1
  0
DIMSTYLE
105
27
330
A
100
AcDbSymbolTableRecord
100
AcDbDimStyleTableRecord
  2
ISO-25
 70
     0
  3

  4

  5

  6

  7

 40
1.0
 41
2.5
 42
0.625
 43
3.75
 44
1.25
 45
0.0
 46
0.0
 47
0.0
 48
0.0
140
2.5
141
2.5
142
0.0
143
0.03937007874016
144
1.0
145
0.0
146
1.0
147
0.625
 71
     0
 72
     0
 73
     0
 74
     0
 75
     0
 76
     0
 77
     1
 78
     8
170
     0
171
     3
172
     1
173
     0
174
     0
175
     0
176
     0
177
     0
178
     0
270
     2
271
     2
272
     2
273
     2
274
     3
340
11
275
     0
280
     0
281
     0
282
     0
283
     0
284
     8
285
     0
286
     0
287
     3
288
     0
  0
ENDTAB
  0
TABLE
  2
BLOCK_RECORD
  5
1
330
0
100
AcDbSymbolTable
 70
     1
  0
BLOCK_RECORD
  5
1F
330
1
100
AcDbSymbolTableRecord
100
AcDbBlockTableRecord
  2
*MODEL_SPACE
  0
BLOCK_RECORD
  5
1B
330
1
100
AcDbSymbolTableRecord
100
AcDbBlockTableRecord
  2
*PAPER_SPACE
  0
ENDTAB
  0
ENDSEC
  0
SECTION
  2
BLOCKS
  0
BLOCK
  5
20
330
1F
100
AcDbEntity
  8
0
100
AcDbBlockBegin
  2
*MODEL_SPACE
 70
     0
 10
0.0
 20
0.0
 30
0.0
  3
*MODEL_SPACE
  1

  0
ENDBLK
  5
21
330
1F
100
AcDbEntity
  8
0
100
AcDbBlockEnd
  0
BLOCK
  5
1C
330
1B
100
AcDbEntity
 67
     1
  8
0
100
AcDbBlockBegin
  2
*PAPER_SPACE
  1

  0
ENDBLK
  5
1D
330
1B
100
AcDbEntity
 67
     1
  8
0
100
AcDbBlockEnd
  0
ENDSEC
  0
SECTION
  2
ENTITIES
  0
LWPOLYLINE
  5
100
100
AcDbEntity
  8
Layer_1
 62
7
100
AcDbPolyline
 90
1
 70
1
 10
113.097368
 20
154.075207
 30
0.0
  0
LWPOLYLINE
  5
101
100
AcDbEntity
  8
Layer_1
 62
2
100
AcDbPolyline
 90
10
 70
1
 10
120.275430
 20
164.135316
 30
0.0
 10
121.883216
 20
188.782038
 30
0.0
 10
102.491311
 20
204.079099
 30
0.0
 10
126.428570
 20
210.166260
 30
0.0
 10
134.984511
 20
233.336106
 30
0.0
 10
148.170764
 20
212.451457
 30
0.0
 10
172.850533
 20
211.474151
 30
0.0
 10
157.062824
 20
192.479564
 30
0.0
 10
163.759825
 20
168.705709
 30
0.0
 10
140.816225
 20
177.851061
 30
0.0
  0
SPLINE
  5
102
100
AcDbEntity
  8
Layer_1
 62
7
100
AcDbSpline
 70
0
 71
3
 72
25
 73
21
 74
19
 40
0.000000
 40
0.000000
 40
0.000000
 40
0.000000
 40
19.668030
 40
39.054581
 40
58.722611
 40
78.390642
 40
97.777192
 40
117.445222
 40
137.113253
 40
156.499803
 40
176.167833
 40
195.835864
 40
215.222414
 40
234.890444
 40
254.558475
 40
273.945025
 40
293.613055
 40
313.281086
 40
332.667636
 40
352.335666
 40
352.335666
 40
352.335666
 40
352.335666
 10
113.097368
 20
154.075207
 30
0.0
 10
112.423967
 20
147.485759
 30
0.0
 10
111.086802
 20
134.401170
 30
0.0
 10
100.712586
 20
117.109684
 30
0.0
 10
85.522978
 20
104.253917
 30
0.0
 10
66.713509
 20
97.435647
 30
0.0
 10
46.754542
 20
97.435647
 30
0.0
 10
27.971417
 20
104.253917
 30
0.0
 10
12.676624
 20
117.109684
 30
0.0
 10
2.693232
 20
134.401170
 30
0.0
 10
-0.792469
 20
154.075207
 30
0.0
 10
2.693232
 20
173.749243
 30
0.0
 10
12.676624
 20
191.040729
 30
0.0
 10
27.971417
 20
203.896496
 30
0.0
 10
46.754542
 20
210.714766
 30
0.0
 10
66.713509
 20
210.714766
 30
0.0
 10
85.522978
 20
203.896496
 30
0.0
 10
100.712586
 20
191.040729
 30
0.0
 10
111.086802
 20
173.749243
 30
0.0
 10
112.423967
 20
160.664654
 30
0.0
 10
113.097368
 20
154.075207
 30
0.0
 11
113.097368
 21
154.075207
 31
0.0
 11
109.666446
 21
134.708736
 31
0.0
 11
99.973171
 21
117.919491
 31
0.0
 11
84.916776
 21
105.264990
 31
0.0
 11
66.429459
 21
98.553020
 31
0.0
 11
47.042909
 21
98.553020
 31
0.0
 11
28.555593
 21
105.264990
 31
0.0
 11
13.499197
 21
117.919491
 31
0.0
 11
3.805922
 21
134.708736
 31
0.0
 11
0.375001
 21
154.075207
 31
0.0
 11
3.805922
 21
173.441678
 31
0.0
 11
13.499197
 21
190.230923
 31
0.0
 11
28.555593
 21
202.885423
 31
0.0
 11
47.042909
 21
209.597394
 31
0.0
 11
66.429459
 21
209.597394
 31
0.0
 11
84.916776
 21
202.885423
 31
0.0
 11
99.973171
 21
190.230923
 31
0.0
 11
109.666446
 21
173.441678
 31
0.0
 11
113.097368
 21
154.075207
 31
0.0
  0
SPLINE
  5
103
100
AcDbEntity
  8
Layer_1
 62
4
100
AcDbSpline
 70
0
 71
3
 72
10
 73
6
 74
4
 40
0.000000
 40
0.000000
 40
0.000000
 40
0.000000
 40
37.795543
 40
102.597632
 40
154.404451
 40
154.404451
 40
154.404451
 40
154.404451
 10
141.965294
 20
62.316437
 30
0.0
 10
150.647125
 20
53.810973
 30
0.0
 10
174.214329
 20
30.722525
 30
0.0
 10
221.078954
 20
-13.525722
 30
0.0
 10
254.105150
 20
15.667342
 30
0.0
 10
268.777976
 20
28.637189
 30
0.0
 11
141.965294
 21
62.316437
 31
0.0
 11
169.038517
 21
35.943274
 31
0.0
 11
224.292337
 21
2.085835
 31
0.0
 11
268.777976
 21
28.637189
 31
0.0
  0
LWPOLYLINE
  5
104
100
AcDbEntity
  8
Layer_1
 62
3
100
AcDbPolyline
 90
2
 70
0
 10
183.548854
 20
142.046895
 30
0.0
 10
141.965294
 20
62.316437
 30
0.0
  0
LWPOLYLINE
  5
105
100
AcDbEntity
  8
Layer_1
 62
32
100
AcDbPolyline
 90
2
 70
0
 10
242.659352
 20
114.209972
 30
0.0
 10
183.548854
 20
142.046895
 30
0.0
  0
LWPOLYLINE
  5
106
100
AcDbEntity
  8
Layer_1
 62
5
100
AcDbPolyline
 90
3
 70
1
 10
227.194404
 20
97.026684
 30
0.0
 10
187.672839
 20
86.029373
 30
0.0
 10
202.450470
 20
54.412140
 30
0.0
  0
SPLINE
  5
107
100
AcDbEntity
  8
Layer_1
 62
212
100
AcDbSpline
 70
0
 71
3
 72
10
 73
6
 74
4
 40
0.000000
 40
0.000000
 40
0.000000
 40
0.000000
 40
57.671738
 40
87.553151
 40
100.924559
 40
100.924559
 40
100.924559
 40
100.924559
 10
268.777976
 20
28.637189
 30
0.0
 10
274.336610
 20
48.150317
 30
0.0
 10
282.775336
 20
77.773765
 30
0.0
 10
261.049821
 20
109.076545
 30
0.0
 10
247.002130
 20
112.997749
 30
0.0
 10
242.659352
 20
114.209972
 30
0.0
 11
268.777976
 21
28.637189
 31
0.0
 11
273.614745
 21
86.105747
 31
0.0
 11
255.234979
 21
109.665946
 31
0.0
 11
242.659352
 21
114.209972
 31
0.0
  0
LWPOLYLINE
  5
108
100
AcDbEntity
  8
Layer_1
 62
1
100
AcDbPolyline
 90
4
 70
1
 10
197.639141
 20
200.126412
 30
0.0
 10
235.442375
 20
200.126412
 30
0.0
 10
235.442375
 20
163.010511
 30
0.0
 10
197.639141
 20
163.010511
 30
0.0
  0
ENDSEC
  0
SECTION
  2
OBJECTS
  0
DICTIONARY
  5
C
330
0
100
AcDbDictionary
  3
ACAD_GROUP
350
D
  3
ACAD_MLINESTYLE
350
17
  0
DICTIONARY
  5
D
330
C
100
AcDbDictionary
  0
DICTIONARY
  5
1A
330
C
100
AcDbDictionary
  0
DICTIONARY
  5
17
330
C
100
AcDbDictionary
  3
STANDARD
350
18
  0
DICTIONARY
  5
19
330
C
100
AcDbDictionary
  0
ENDSEC
  0
EOF
